G04 EAGLE Gerber RS-274X export*
G75*
%MOMM*%
%FSLAX34Y34*%
%LPD*%
%INBottom Copper*%
%IPPOS*%
%AMOC8*
5,1,8,0,0,1.08239X$1,22.5*%
G01*
%ADD10R,0.700000X0.900000*%
%ADD11R,1.000000X1.270000*%
%ADD12C,1.524000*%
%ADD13P,1.649562X8X292.500000*%
%ADD14R,1.000000X1.800000*%
%ADD15R,1.108000X1.108000*%
%ADD16R,1.508000X1.508000*%
%ADD17C,1.508000*%
%ADD18C,0.232500*%
%ADD19C,0.460000*%
%ADD20P,1.649562X8X277.500000*%
%ADD21R,1.650000X1.650000*%
%ADD22C,0.806400*%
%ADD23C,0.254000*%
%ADD24C,0.152400*%
%ADD25C,0.756400*%
%ADD26C,0.200000*%
%ADD27P,1.785944X8X22.500000*%
%ADD28C,0.508000*%
%ADD29C,1.016000*%
%ADD30C,1.156400*%
%ADD31C,0.812800*%

G36*
X131854Y101335D02*
X131854Y101335D01*
X131907Y101333D01*
X132099Y101355D01*
X132292Y101371D01*
X132344Y101384D01*
X132397Y101390D01*
X132583Y101443D01*
X132771Y101489D01*
X132820Y101511D01*
X132872Y101525D01*
X133046Y101607D01*
X133225Y101684D01*
X133270Y101713D01*
X133318Y101735D01*
X133478Y101845D01*
X133641Y101949D01*
X133680Y101984D01*
X133724Y102015D01*
X133864Y102149D01*
X134008Y102278D01*
X134042Y102319D01*
X134081Y102356D01*
X134197Y102511D01*
X134318Y102662D01*
X134345Y102708D01*
X134377Y102751D01*
X134467Y102923D01*
X134562Y103090D01*
X134581Y103140D01*
X134606Y103188D01*
X134667Y103372D01*
X134734Y103553D01*
X134744Y103605D01*
X134761Y103656D01*
X134792Y103847D01*
X134829Y104037D01*
X134830Y104090D01*
X134839Y104143D01*
X134838Y104337D01*
X134844Y104530D01*
X134837Y104583D01*
X134837Y104636D01*
X134805Y104827D01*
X134780Y105019D01*
X134764Y105070D01*
X134755Y105123D01*
X134719Y105219D01*
X134637Y105491D01*
X134551Y105668D01*
X134516Y105761D01*
X134094Y106590D01*
X133817Y107443D01*
X151130Y107443D01*
X151206Y107449D01*
X151282Y107446D01*
X151451Y107469D01*
X151621Y107483D01*
X151695Y107501D01*
X151771Y107511D01*
X151935Y107560D01*
X152100Y107601D01*
X152170Y107631D01*
X152243Y107653D01*
X152397Y107728D01*
X152554Y107796D01*
X152618Y107837D01*
X152686Y107870D01*
X152826Y107969D01*
X152970Y108061D01*
X153026Y108112D01*
X153089Y108156D01*
X153210Y108276D01*
X153338Y108390D01*
X153386Y108449D01*
X153440Y108502D01*
X153440Y108503D01*
X153541Y108641D01*
X153648Y108774D01*
X153686Y108840D01*
X153730Y108902D01*
X153807Y109054D01*
X153892Y109203D01*
X153918Y109274D01*
X153953Y109342D01*
X154004Y109505D01*
X154064Y109665D01*
X154078Y109740D01*
X154101Y109813D01*
X154113Y109917D01*
X154158Y110149D01*
X154166Y110385D01*
X154177Y110490D01*
X154177Y120651D01*
X158370Y120651D01*
X158408Y120654D01*
X158446Y120652D01*
X158653Y120674D01*
X158861Y120691D01*
X158898Y120700D01*
X158936Y120704D01*
X159137Y120759D01*
X159340Y120809D01*
X159375Y120824D01*
X159412Y120835D01*
X159602Y120922D01*
X159794Y121004D01*
X159826Y121024D01*
X159860Y121040D01*
X160034Y121157D01*
X160210Y121269D01*
X160238Y121294D01*
X160270Y121316D01*
X160422Y121459D01*
X160578Y121598D01*
X160602Y121627D01*
X160629Y121653D01*
X160756Y121819D01*
X160888Y121982D01*
X160906Y122015D01*
X160930Y122045D01*
X161028Y122229D01*
X161132Y122410D01*
X161145Y122446D01*
X161163Y122480D01*
X161231Y122677D01*
X161303Y122873D01*
X161310Y122910D01*
X161323Y122946D01*
X161358Y123153D01*
X161398Y123357D01*
X161399Y123395D01*
X161405Y123433D01*
X161407Y123642D01*
X161413Y123850D01*
X161408Y123888D01*
X161408Y123926D01*
X161376Y124133D01*
X161349Y124339D01*
X161338Y124376D01*
X161332Y124413D01*
X161267Y124612D01*
X161206Y124811D01*
X161189Y124846D01*
X161178Y124882D01*
X161081Y125067D01*
X160989Y125255D01*
X160967Y125286D01*
X160950Y125320D01*
X160892Y125392D01*
X160704Y125657D01*
X160583Y125779D01*
X160524Y125853D01*
X160437Y125927D01*
X160379Y125986D01*
X160357Y126008D01*
X160250Y126086D01*
X160148Y126172D01*
X160051Y126231D01*
X159958Y126298D01*
X159840Y126358D01*
X159726Y126427D01*
X159620Y126469D01*
X159518Y126521D01*
X159391Y126561D01*
X159268Y126610D01*
X159157Y126635D01*
X159047Y126669D01*
X158954Y126679D01*
X158786Y126717D01*
X158462Y126735D01*
X158370Y126745D01*
X141691Y126745D01*
X138243Y128173D01*
X138207Y128204D01*
X138109Y128263D01*
X138017Y128330D01*
X137898Y128390D01*
X137784Y128459D01*
X137678Y128501D01*
X137576Y128553D01*
X137450Y128593D01*
X137326Y128642D01*
X137215Y128667D01*
X137106Y128701D01*
X137012Y128711D01*
X136845Y128749D01*
X136520Y128767D01*
X136428Y128777D01*
X120758Y128777D01*
X118610Y129667D01*
X116967Y131310D01*
X116077Y133458D01*
X116077Y162560D01*
X116071Y162636D01*
X116073Y162712D01*
X116051Y162881D01*
X116037Y163052D01*
X116019Y163126D01*
X116009Y163201D01*
X115960Y163365D01*
X115919Y163531D01*
X115889Y163600D01*
X115867Y163674D01*
X115791Y163827D01*
X115724Y163984D01*
X115683Y164048D01*
X115650Y164117D01*
X115551Y164256D01*
X115459Y164400D01*
X115408Y164457D01*
X115364Y164519D01*
X115244Y164640D01*
X115130Y164768D01*
X115071Y164816D01*
X115017Y164870D01*
X114879Y164971D01*
X114746Y165078D01*
X114680Y165115D01*
X114619Y165160D01*
X114466Y165237D01*
X114318Y165322D01*
X114246Y165348D01*
X114178Y165383D01*
X114015Y165434D01*
X113855Y165493D01*
X113780Y165508D01*
X113708Y165531D01*
X113603Y165543D01*
X113371Y165588D01*
X113135Y165595D01*
X113030Y165607D01*
X81708Y165607D01*
X77235Y170081D01*
X77148Y170155D01*
X77067Y170236D01*
X76960Y170314D01*
X76859Y170400D01*
X76761Y170459D01*
X76668Y170526D01*
X76550Y170586D01*
X76436Y170655D01*
X76330Y170697D01*
X76228Y170749D01*
X76101Y170789D01*
X75978Y170838D01*
X75867Y170863D01*
X75758Y170897D01*
X75664Y170907D01*
X75496Y170945D01*
X75172Y170963D01*
X75080Y170973D01*
X72555Y170973D01*
X70512Y171819D01*
X68949Y173382D01*
X68103Y175425D01*
X68103Y177635D01*
X68949Y179678D01*
X70512Y181241D01*
X72555Y182087D01*
X74765Y182087D01*
X76808Y181241D01*
X78371Y179678D01*
X79217Y177635D01*
X79217Y175110D01*
X79226Y174997D01*
X79225Y174882D01*
X79246Y174751D01*
X79257Y174618D01*
X79284Y174508D01*
X79302Y174395D01*
X79343Y174269D01*
X79375Y174140D01*
X79420Y174035D01*
X79456Y173926D01*
X79518Y173808D01*
X79570Y173686D01*
X79631Y173590D01*
X79684Y173489D01*
X79743Y173415D01*
X79835Y173270D01*
X80051Y173028D01*
X80109Y172955D01*
X82499Y170565D01*
X82586Y170491D01*
X82667Y170410D01*
X82774Y170332D01*
X82875Y170246D01*
X82973Y170187D01*
X83066Y170120D01*
X83184Y170060D01*
X83298Y169991D01*
X83404Y169949D01*
X83506Y169897D01*
X83633Y169857D01*
X83756Y169808D01*
X83867Y169783D01*
X83976Y169749D01*
X84070Y169739D01*
X84238Y169701D01*
X84562Y169683D01*
X84654Y169673D01*
X100357Y169673D01*
X100396Y169676D01*
X100434Y169674D01*
X100641Y169696D01*
X100849Y169713D01*
X100886Y169722D01*
X100924Y169726D01*
X101125Y169781D01*
X101328Y169831D01*
X101363Y169847D01*
X101400Y169857D01*
X101589Y169944D01*
X101781Y170026D01*
X101814Y170046D01*
X101848Y170062D01*
X102022Y170179D01*
X102197Y170291D01*
X102226Y170316D01*
X102258Y170338D01*
X102410Y170481D01*
X102565Y170620D01*
X102589Y170650D01*
X102617Y170676D01*
X102744Y170842D01*
X102875Y171004D01*
X102894Y171037D01*
X102917Y171067D01*
X103016Y171251D01*
X103119Y171432D01*
X103132Y171468D01*
X103151Y171502D01*
X103218Y171699D01*
X103291Y171895D01*
X103298Y171932D01*
X103310Y171969D01*
X103345Y172175D01*
X103385Y172379D01*
X103387Y172417D01*
X103393Y172455D01*
X103394Y172665D01*
X103401Y172872D01*
X103396Y172910D01*
X103396Y172948D01*
X103364Y173155D01*
X103336Y173361D01*
X103325Y173398D01*
X103319Y173436D01*
X103254Y173634D01*
X103194Y173833D01*
X103177Y173868D01*
X103165Y173904D01*
X103069Y174089D01*
X102977Y174277D01*
X102955Y174308D01*
X102937Y174342D01*
X102879Y174415D01*
X102840Y174469D01*
X101554Y177575D01*
X101549Y177584D01*
X101546Y177593D01*
X101436Y177804D01*
X101329Y178014D01*
X101323Y178022D01*
X101318Y178031D01*
X101293Y178063D01*
X101036Y178411D01*
X100942Y178503D01*
X100893Y178564D01*
X95864Y183593D01*
X95777Y183667D01*
X95697Y183748D01*
X95590Y183826D01*
X95488Y183912D01*
X95391Y183971D01*
X95298Y184038D01*
X95180Y184098D01*
X95066Y184167D01*
X94960Y184209D01*
X94858Y184261D01*
X94731Y184301D01*
X94608Y184350D01*
X94497Y184375D01*
X94400Y184405D01*
X92745Y186059D01*
X92745Y186235D01*
X92744Y186245D01*
X92745Y186254D01*
X92725Y186490D01*
X92705Y186727D01*
X92703Y186736D01*
X92702Y186746D01*
X92691Y186784D01*
X92587Y187206D01*
X92535Y187326D01*
X92513Y187401D01*
X91947Y188768D01*
X91947Y195242D01*
X92513Y196609D01*
X92516Y196618D01*
X92521Y196627D01*
X92593Y196855D01*
X92665Y197078D01*
X92666Y197088D01*
X92669Y197097D01*
X92673Y197138D01*
X92738Y197566D01*
X92736Y197697D01*
X92745Y197775D01*
X92745Y204361D01*
X94319Y205935D01*
X100120Y205935D01*
X100233Y205944D01*
X100348Y205943D01*
X100479Y205964D01*
X100611Y205975D01*
X100722Y206002D01*
X100835Y206020D01*
X100961Y206061D01*
X101090Y206093D01*
X101195Y206138D01*
X101304Y206174D01*
X101422Y206236D01*
X101544Y206288D01*
X101640Y206349D01*
X101741Y206402D01*
X101815Y206461D01*
X101960Y206553D01*
X102202Y206769D01*
X102274Y206827D01*
X113760Y218313D01*
X115515Y219040D01*
X115583Y219075D01*
X115654Y219102D01*
X115802Y219187D01*
X115954Y219265D01*
X116015Y219310D01*
X116081Y219348D01*
X116214Y219457D01*
X116351Y219558D01*
X116404Y219612D01*
X116463Y219661D01*
X116576Y219789D01*
X116695Y219911D01*
X116739Y219974D01*
X116789Y220031D01*
X116880Y220175D01*
X116978Y220315D01*
X117011Y220384D01*
X117052Y220448D01*
X117118Y220606D01*
X117192Y220760D01*
X117214Y220833D01*
X117243Y220903D01*
X117283Y221069D01*
X117332Y221233D01*
X117341Y221309D01*
X117359Y221383D01*
X117372Y221553D01*
X117393Y221722D01*
X117390Y221799D01*
X117396Y221875D01*
X117381Y222045D01*
X117375Y222215D01*
X117360Y222290D01*
X117353Y222366D01*
X117324Y222467D01*
X117277Y222699D01*
X117193Y222920D01*
X117164Y223021D01*
X116363Y224955D01*
X116363Y227165D01*
X117209Y229208D01*
X118772Y230771D01*
X119634Y231128D01*
X119668Y231145D01*
X119704Y231158D01*
X119887Y231258D01*
X120073Y231353D01*
X120104Y231375D01*
X120137Y231394D01*
X120302Y231522D01*
X120470Y231646D01*
X120497Y231673D01*
X120527Y231697D01*
X120669Y231850D01*
X120815Y231999D01*
X120836Y232030D01*
X120862Y232058D01*
X120978Y232232D01*
X121098Y232403D01*
X121114Y232437D01*
X121135Y232469D01*
X121221Y232660D01*
X121312Y232847D01*
X121322Y232884D01*
X121338Y232919D01*
X121392Y233120D01*
X121451Y233321D01*
X121456Y233359D01*
X121466Y233396D01*
X121486Y233603D01*
X121512Y233810D01*
X121511Y233848D01*
X121515Y233886D01*
X121502Y234094D01*
X121494Y234303D01*
X121486Y234341D01*
X121484Y234379D01*
X121438Y234582D01*
X121396Y234787D01*
X121383Y234822D01*
X121374Y234860D01*
X121295Y235053D01*
X121222Y235248D01*
X121203Y235281D01*
X121188Y235317D01*
X121079Y235495D01*
X120975Y235675D01*
X120951Y235705D01*
X120931Y235738D01*
X120795Y235896D01*
X120663Y236057D01*
X120634Y236082D01*
X120609Y236111D01*
X120449Y236246D01*
X120293Y236384D01*
X120260Y236404D01*
X120231Y236429D01*
X120169Y236463D01*
X118479Y238152D01*
X117633Y240195D01*
X117633Y242627D01*
X117667Y242797D01*
X117669Y242863D01*
X117679Y242929D01*
X117676Y243110D01*
X117682Y243290D01*
X117673Y243356D01*
X117672Y243422D01*
X117641Y243600D01*
X117617Y243779D01*
X117598Y243843D01*
X117587Y243908D01*
X117527Y244078D01*
X117475Y244252D01*
X117446Y244311D01*
X117424Y244374D01*
X117338Y244532D01*
X117258Y244695D01*
X117220Y244749D01*
X117188Y244807D01*
X117077Y244950D01*
X116973Y245097D01*
X116926Y245144D01*
X116885Y245197D01*
X116753Y245319D01*
X116626Y245448D01*
X116572Y245487D01*
X116524Y245532D01*
X116373Y245632D01*
X116227Y245738D01*
X116168Y245768D01*
X116113Y245805D01*
X115948Y245879D01*
X115787Y245961D01*
X115723Y245981D01*
X115663Y246008D01*
X115489Y246055D01*
X115316Y246109D01*
X115264Y246115D01*
X115186Y246136D01*
X114695Y246185D01*
X114662Y246183D01*
X114638Y246185D01*
X107509Y246185D01*
X106103Y246768D01*
X105028Y247843D01*
X104445Y249249D01*
X104445Y264860D01*
X104436Y264973D01*
X104437Y265088D01*
X104416Y265219D01*
X104405Y265351D01*
X104378Y265462D01*
X104360Y265575D01*
X104319Y265701D01*
X104287Y265830D01*
X104242Y265935D01*
X104206Y266044D01*
X104144Y266161D01*
X104092Y266284D01*
X104031Y266380D01*
X103978Y266481D01*
X103919Y266555D01*
X103827Y266700D01*
X103611Y266942D01*
X103553Y267014D01*
X92314Y278253D01*
X92227Y278327D01*
X92147Y278408D01*
X92040Y278486D01*
X91938Y278572D01*
X91841Y278631D01*
X91748Y278698D01*
X91630Y278758D01*
X91516Y278827D01*
X91410Y278869D01*
X91308Y278921D01*
X91181Y278961D01*
X91058Y279010D01*
X90947Y279035D01*
X90837Y279069D01*
X90744Y279079D01*
X90576Y279117D01*
X90252Y279135D01*
X90160Y279145D01*
X86382Y279145D01*
X81025Y284502D01*
X81025Y292078D01*
X86382Y297435D01*
X93958Y297435D01*
X99315Y292078D01*
X99315Y289040D01*
X99324Y288927D01*
X99323Y288812D01*
X99344Y288681D01*
X99355Y288549D01*
X99382Y288438D01*
X99400Y288325D01*
X99441Y288199D01*
X99473Y288070D01*
X99518Y287965D01*
X99554Y287856D01*
X99616Y287738D01*
X99668Y287616D01*
X99729Y287520D01*
X99782Y287419D01*
X99841Y287345D01*
X99933Y287200D01*
X100149Y286958D01*
X100207Y286886D01*
X101223Y285870D01*
X101252Y285845D01*
X101278Y285816D01*
X101440Y285685D01*
X101599Y285550D01*
X101632Y285530D01*
X101662Y285506D01*
X101842Y285404D01*
X102022Y285295D01*
X102057Y285281D01*
X102090Y285262D01*
X102286Y285190D01*
X102480Y285112D01*
X102517Y285104D01*
X102553Y285091D01*
X102758Y285051D01*
X102962Y285006D01*
X103000Y285003D01*
X103037Y284996D01*
X103245Y284990D01*
X103454Y284978D01*
X103492Y284982D01*
X103530Y284981D01*
X103737Y285008D01*
X103945Y285030D01*
X103981Y285040D01*
X104019Y285045D01*
X104219Y285106D01*
X104420Y285161D01*
X104455Y285177D01*
X104492Y285188D01*
X104679Y285279D01*
X104869Y285367D01*
X104901Y285388D01*
X104935Y285405D01*
X105105Y285525D01*
X105278Y285642D01*
X105306Y285668D01*
X105337Y285690D01*
X105486Y285837D01*
X105638Y285980D01*
X105661Y286010D01*
X105688Y286037D01*
X105811Y286206D01*
X105938Y286371D01*
X105956Y286405D01*
X105978Y286436D01*
X106072Y286622D01*
X106171Y286806D01*
X106183Y286842D01*
X106201Y286876D01*
X106263Y287075D01*
X106331Y287273D01*
X106337Y287310D01*
X106349Y287347D01*
X106359Y287439D01*
X106414Y287759D01*
X106415Y287931D01*
X106425Y288024D01*
X106425Y292078D01*
X111782Y297435D01*
X119358Y297435D01*
X124715Y292078D01*
X124715Y284502D01*
X119358Y279145D01*
X115304Y279145D01*
X115266Y279142D01*
X115228Y279144D01*
X115021Y279122D01*
X114813Y279105D01*
X114776Y279096D01*
X114738Y279092D01*
X114537Y279037D01*
X114334Y278987D01*
X114299Y278972D01*
X114262Y278961D01*
X114072Y278874D01*
X113880Y278792D01*
X113848Y278772D01*
X113814Y278756D01*
X113640Y278639D01*
X113464Y278527D01*
X113436Y278502D01*
X113404Y278480D01*
X113252Y278337D01*
X113096Y278198D01*
X113072Y278169D01*
X113045Y278143D01*
X112918Y277977D01*
X112786Y277814D01*
X112768Y277781D01*
X112744Y277751D01*
X112646Y277567D01*
X112542Y277386D01*
X112529Y277350D01*
X112511Y277316D01*
X112443Y277118D01*
X112371Y276923D01*
X112364Y276886D01*
X112351Y276850D01*
X112316Y276643D01*
X112276Y276439D01*
X112275Y276401D01*
X112269Y276363D01*
X112267Y276154D01*
X112261Y275946D01*
X112266Y275908D01*
X112266Y275870D01*
X112298Y275663D01*
X112325Y275457D01*
X112336Y275420D01*
X112342Y275383D01*
X112407Y275184D01*
X112468Y274985D01*
X112485Y274950D01*
X112496Y274914D01*
X112593Y274729D01*
X112685Y274541D01*
X112707Y274510D01*
X112724Y274476D01*
X112782Y274404D01*
X112970Y274139D01*
X113091Y274017D01*
X113150Y273943D01*
X118566Y268527D01*
X118653Y268453D01*
X118733Y268372D01*
X118840Y268294D01*
X118942Y268208D01*
X119039Y268149D01*
X119132Y268082D01*
X119250Y268022D01*
X119364Y267953D01*
X119470Y267911D01*
X119572Y267859D01*
X119699Y267819D01*
X119822Y267770D01*
X119933Y267745D01*
X120043Y267711D01*
X120136Y267701D01*
X120304Y267663D01*
X120628Y267645D01*
X120720Y267635D01*
X136331Y267635D01*
X137936Y266970D01*
X138144Y266903D01*
X138351Y266832D01*
X138379Y266827D01*
X138406Y266818D01*
X138621Y266786D01*
X138837Y266749D01*
X138866Y266749D01*
X138894Y266745D01*
X139112Y266748D01*
X139331Y266746D01*
X139359Y266751D01*
X139387Y266751D01*
X139602Y266789D01*
X139818Y266823D01*
X139845Y266832D01*
X139873Y266837D01*
X140079Y266909D01*
X140287Y266977D01*
X140312Y266990D01*
X140339Y267000D01*
X140530Y267104D01*
X140724Y267205D01*
X140743Y267220D01*
X140772Y267236D01*
X141161Y267538D01*
X141216Y267597D01*
X141257Y267630D01*
X155440Y281813D01*
X157588Y282703D01*
X159912Y282703D01*
X162060Y281813D01*
X163215Y280658D01*
X163244Y280633D01*
X163270Y280604D01*
X163432Y280474D01*
X163591Y280338D01*
X163624Y280318D01*
X163654Y280294D01*
X163835Y280192D01*
X164014Y280084D01*
X164049Y280069D01*
X164082Y280050D01*
X164278Y279978D01*
X164472Y279900D01*
X164509Y279892D01*
X164545Y279879D01*
X164749Y279839D01*
X164953Y279794D01*
X164992Y279791D01*
X165029Y279784D01*
X165237Y279778D01*
X165446Y279766D01*
X165484Y279770D01*
X165522Y279769D01*
X165728Y279796D01*
X165937Y279818D01*
X165973Y279828D01*
X166011Y279833D01*
X166211Y279894D01*
X166412Y279949D01*
X166447Y279965D01*
X166484Y279976D01*
X166671Y280068D01*
X166861Y280155D01*
X166892Y280176D01*
X166927Y280193D01*
X167097Y280313D01*
X167270Y280430D01*
X167298Y280456D01*
X167329Y280478D01*
X167477Y280625D01*
X167630Y280768D01*
X167653Y280798D01*
X167680Y280825D01*
X167803Y280993D01*
X167930Y281159D01*
X167948Y281193D01*
X167970Y281224D01*
X168064Y281410D01*
X168163Y281594D01*
X168175Y281630D01*
X168193Y281664D01*
X168256Y281864D01*
X168323Y282061D01*
X168329Y282098D01*
X168341Y282135D01*
X168351Y282227D01*
X168406Y282547D01*
X168407Y282719D01*
X168417Y282812D01*
X168417Y283303D01*
X168400Y283522D01*
X168386Y283740D01*
X168380Y283767D01*
X168377Y283795D01*
X168325Y284007D01*
X168276Y284221D01*
X168265Y284247D01*
X168259Y284274D01*
X168172Y284475D01*
X168090Y284677D01*
X168075Y284702D01*
X168064Y284727D01*
X167947Y284911D01*
X167833Y285098D01*
X167814Y285120D01*
X167799Y285143D01*
X167654Y285306D01*
X167511Y285472D01*
X167489Y285490D01*
X167470Y285511D01*
X167301Y285648D01*
X167279Y285666D01*
X165469Y287476D01*
X164623Y289519D01*
X164623Y291729D01*
X165441Y293704D01*
X165496Y293876D01*
X165559Y294045D01*
X165572Y294110D01*
X165592Y294173D01*
X165619Y294352D01*
X165654Y294529D01*
X165656Y294595D01*
X165666Y294661D01*
X165664Y294842D01*
X165669Y295022D01*
X165661Y295088D01*
X165660Y295155D01*
X165628Y295332D01*
X165605Y295511D01*
X165586Y295575D01*
X165574Y295640D01*
X165515Y295810D01*
X165462Y295984D01*
X165433Y296043D01*
X165411Y296106D01*
X165325Y296265D01*
X165246Y296427D01*
X165207Y296481D01*
X165175Y296539D01*
X165064Y296682D01*
X164960Y296829D01*
X164913Y296876D01*
X164872Y296929D01*
X164740Y297052D01*
X164613Y297180D01*
X164560Y297219D01*
X164511Y297264D01*
X164360Y297364D01*
X164215Y297470D01*
X164155Y297500D01*
X164100Y297537D01*
X163935Y297611D01*
X163774Y297693D01*
X163711Y297713D01*
X163650Y297740D01*
X163476Y297787D01*
X163304Y297841D01*
X163251Y297847D01*
X163174Y297868D01*
X162683Y297917D01*
X162649Y297915D01*
X162626Y297917D01*
X156946Y297917D01*
X156728Y297900D01*
X156510Y297886D01*
X156483Y297880D01*
X156454Y297877D01*
X156242Y297825D01*
X156029Y297776D01*
X156003Y297765D01*
X155976Y297759D01*
X155774Y297672D01*
X155573Y297590D01*
X155548Y297575D01*
X155522Y297564D01*
X155338Y297447D01*
X155152Y297333D01*
X155130Y297314D01*
X155106Y297299D01*
X154943Y297154D01*
X154778Y297011D01*
X154759Y296989D01*
X154738Y296970D01*
X154601Y296801D01*
X154461Y296633D01*
X154449Y296612D01*
X154428Y296586D01*
X154184Y296158D01*
X154156Y296082D01*
X154131Y296036D01*
X153301Y294032D01*
X151738Y292469D01*
X149695Y291623D01*
X147485Y291623D01*
X145442Y292469D01*
X143879Y294032D01*
X143033Y296075D01*
X143033Y298285D01*
X143879Y300328D01*
X145442Y301891D01*
X147485Y302737D01*
X149695Y302737D01*
X152259Y301675D01*
X152268Y301672D01*
X152277Y301667D01*
X152505Y301595D01*
X152729Y301523D01*
X152738Y301522D01*
X152748Y301519D01*
X152788Y301515D01*
X153217Y301450D01*
X153347Y301452D01*
X153425Y301443D01*
X154342Y301443D01*
X154522Y301457D01*
X154703Y301464D01*
X154768Y301477D01*
X154834Y301483D01*
X155009Y301526D01*
X155186Y301562D01*
X155248Y301585D01*
X155313Y301601D01*
X155479Y301673D01*
X155648Y301736D01*
X155705Y301770D01*
X155766Y301796D01*
X155918Y301893D01*
X156075Y301983D01*
X156126Y302025D01*
X156182Y302061D01*
X156317Y302181D01*
X156457Y302296D01*
X156500Y302345D01*
X156550Y302390D01*
X156664Y302530D01*
X156783Y302665D01*
X156818Y302722D01*
X156860Y302774D01*
X156949Y302930D01*
X157045Y303083D01*
X157071Y303145D01*
X157104Y303202D01*
X157167Y303371D01*
X157237Y303538D01*
X157253Y303602D01*
X157276Y303665D01*
X157310Y303842D01*
X157353Y304017D01*
X157358Y304084D01*
X157370Y304149D01*
X157376Y304329D01*
X157390Y304509D01*
X157384Y304576D01*
X157386Y304642D01*
X157362Y304821D01*
X157346Y305001D01*
X157332Y305052D01*
X157321Y305131D01*
X157179Y305603D01*
X157164Y305634D01*
X157158Y305656D01*
X157003Y306029D01*
X157003Y308623D01*
X157010Y308669D01*
X157008Y308851D01*
X157014Y309032D01*
X157005Y309097D01*
X157004Y309163D01*
X156973Y309341D01*
X156949Y309521D01*
X156930Y309584D01*
X156919Y309648D01*
X156859Y309820D01*
X156807Y309994D01*
X156778Y310052D01*
X156757Y310114D01*
X156670Y310274D01*
X156590Y310437D01*
X156552Y310490D01*
X156521Y310548D01*
X156410Y310691D01*
X156305Y310839D01*
X156259Y310886D01*
X156218Y310937D01*
X156085Y311061D01*
X155958Y311190D01*
X155905Y311228D01*
X155857Y311273D01*
X155706Y311374D01*
X155559Y311480D01*
X155500Y311510D01*
X155446Y311546D01*
X155281Y311621D01*
X155119Y311703D01*
X155056Y311722D01*
X154996Y311749D01*
X154822Y311796D01*
X154648Y311851D01*
X154596Y311857D01*
X154520Y311877D01*
X154029Y311927D01*
X153994Y311925D01*
X153970Y311927D01*
X127762Y311927D01*
X127686Y311921D01*
X127610Y311923D01*
X127441Y311901D01*
X127270Y311887D01*
X127196Y311869D01*
X127121Y311859D01*
X126957Y311810D01*
X126791Y311769D01*
X126722Y311739D01*
X126648Y311717D01*
X126495Y311641D01*
X126338Y311574D01*
X126274Y311533D01*
X126205Y311500D01*
X126066Y311401D01*
X125922Y311309D01*
X125865Y311258D01*
X125803Y311214D01*
X125682Y311094D01*
X125554Y310980D01*
X125506Y310921D01*
X125452Y310867D01*
X125351Y310729D01*
X125244Y310596D01*
X125207Y310530D01*
X125162Y310469D01*
X125085Y310316D01*
X125026Y310214D01*
X119358Y304545D01*
X111782Y304545D01*
X106425Y309902D01*
X106425Y317478D01*
X111782Y322835D01*
X119358Y322835D01*
X125031Y317161D01*
X125068Y317076D01*
X125109Y317012D01*
X125142Y316943D01*
X125241Y316804D01*
X125333Y316660D01*
X125384Y316603D01*
X125428Y316541D01*
X125548Y316420D01*
X125662Y316292D01*
X125721Y316244D01*
X125775Y316190D01*
X125913Y316089D01*
X126046Y315982D01*
X126112Y315945D01*
X126173Y315900D01*
X126326Y315823D01*
X126474Y315738D01*
X126546Y315712D01*
X126614Y315677D01*
X126777Y315626D01*
X126937Y315567D01*
X127012Y315552D01*
X127084Y315529D01*
X127189Y315517D01*
X127421Y315472D01*
X127657Y315465D01*
X127762Y315453D01*
X180537Y315453D01*
X180679Y315464D01*
X180822Y315466D01*
X180925Y315484D01*
X181029Y315493D01*
X181167Y315527D01*
X181308Y315552D01*
X181406Y315586D01*
X181508Y315611D01*
X181639Y315668D01*
X181773Y315715D01*
X181865Y315765D01*
X181961Y315806D01*
X182081Y315882D01*
X182207Y315951D01*
X182289Y316015D01*
X182377Y316071D01*
X182483Y316166D01*
X182596Y316253D01*
X182667Y316330D01*
X182745Y316400D01*
X182835Y316511D01*
X182932Y316615D01*
X182989Y316702D01*
X183055Y316784D01*
X183125Y316907D01*
X183204Y317026D01*
X183247Y317122D01*
X183299Y317212D01*
X183349Y317346D01*
X183407Y317476D01*
X183434Y317577D01*
X183471Y317675D01*
X183498Y317815D01*
X183535Y317952D01*
X183545Y318056D01*
X183565Y318159D01*
X183570Y318301D01*
X183584Y318443D01*
X183577Y318548D01*
X183581Y318652D01*
X183562Y318793D01*
X183553Y318936D01*
X183530Y319037D01*
X183516Y319141D01*
X183475Y319278D01*
X183443Y319417D01*
X183404Y319513D01*
X183374Y319613D01*
X183311Y319742D01*
X183257Y319874D01*
X183203Y319963D01*
X183157Y320057D01*
X183074Y320173D01*
X183000Y320294D01*
X182932Y320374D01*
X182871Y320459D01*
X182771Y320560D01*
X182678Y320668D01*
X182598Y320736D01*
X182525Y320810D01*
X182410Y320894D01*
X182300Y320985D01*
X182231Y321023D01*
X182126Y321100D01*
X181739Y321296D01*
X181703Y321315D01*
X178970Y322448D01*
X176397Y325020D01*
X175005Y328381D01*
X175005Y332019D01*
X176397Y335380D01*
X178970Y337953D01*
X182331Y339345D01*
X201209Y339345D01*
X204570Y337953D01*
X207143Y335380D01*
X208535Y332019D01*
X208535Y328381D01*
X207143Y325020D01*
X205403Y323280D01*
X205310Y323171D01*
X205211Y323070D01*
X205151Y322984D01*
X205083Y322904D01*
X205010Y322782D01*
X204928Y322665D01*
X204883Y322571D01*
X204829Y322482D01*
X204776Y322349D01*
X204714Y322221D01*
X204684Y322121D01*
X204646Y322024D01*
X204615Y321884D01*
X204574Y321748D01*
X204561Y321644D01*
X204539Y321542D01*
X204531Y321399D01*
X204513Y321258D01*
X204517Y321154D01*
X204511Y321049D01*
X204526Y320907D01*
X204532Y320765D01*
X204552Y320663D01*
X204563Y320559D01*
X204601Y320421D01*
X204629Y320282D01*
X204666Y320184D01*
X204694Y320083D01*
X204753Y319954D01*
X204804Y319820D01*
X204856Y319730D01*
X204900Y319635D01*
X204979Y319516D01*
X205051Y319393D01*
X205117Y319312D01*
X205175Y319225D01*
X205273Y319121D01*
X205363Y319011D01*
X205441Y318942D01*
X205513Y318866D01*
X205626Y318779D01*
X205733Y318685D01*
X205821Y318629D01*
X205904Y318566D01*
X206030Y318498D01*
X206151Y318422D01*
X206247Y318382D01*
X206339Y318332D01*
X206474Y318286D01*
X206605Y318231D01*
X206707Y318206D01*
X206806Y318172D01*
X206946Y318149D01*
X207085Y318115D01*
X207189Y318107D01*
X207292Y318090D01*
X207435Y318089D01*
X207577Y318078D01*
X207681Y318087D01*
X207785Y318087D01*
X207926Y318109D01*
X208068Y318121D01*
X208144Y318143D01*
X208273Y318163D01*
X208685Y318299D01*
X208724Y318310D01*
X210985Y319247D01*
X213195Y319247D01*
X215238Y318401D01*
X216801Y316838D01*
X217647Y314795D01*
X217647Y312201D01*
X217640Y312155D01*
X217642Y311973D01*
X217636Y311792D01*
X217645Y311727D01*
X217646Y311661D01*
X217677Y311483D01*
X217701Y311303D01*
X217720Y311240D01*
X217731Y311176D01*
X217791Y311004D01*
X217843Y310830D01*
X217872Y310772D01*
X217893Y310710D01*
X217980Y310550D01*
X218060Y310387D01*
X218098Y310334D01*
X218129Y310276D01*
X218240Y310133D01*
X218345Y309985D01*
X218391Y309938D01*
X218432Y309887D01*
X218565Y309763D01*
X218692Y309634D01*
X218745Y309596D01*
X218793Y309551D01*
X218944Y309450D01*
X219091Y309344D01*
X219150Y309314D01*
X219204Y309278D01*
X219369Y309203D01*
X219531Y309121D01*
X219594Y309102D01*
X219654Y309075D01*
X219828Y309028D01*
X220002Y308973D01*
X220054Y308967D01*
X220130Y308947D01*
X220621Y308897D01*
X220656Y308899D01*
X220680Y308897D01*
X223576Y308897D01*
X223690Y308906D01*
X223804Y308905D01*
X223936Y308926D01*
X224068Y308937D01*
X224179Y308964D01*
X224291Y308982D01*
X224418Y309023D01*
X224547Y309055D01*
X224652Y309100D01*
X224760Y309136D01*
X224878Y309198D01*
X225000Y309250D01*
X225096Y309311D01*
X225198Y309364D01*
X225271Y309423D01*
X225416Y309515D01*
X225658Y309731D01*
X225731Y309789D01*
X227222Y311281D01*
X229265Y312127D01*
X231475Y312127D01*
X233518Y311281D01*
X235081Y309718D01*
X235927Y307675D01*
X235927Y305420D01*
X235888Y305315D01*
X235875Y305250D01*
X235855Y305187D01*
X235828Y305008D01*
X235793Y304831D01*
X235791Y304765D01*
X235781Y304699D01*
X235783Y304518D01*
X235778Y304338D01*
X235787Y304272D01*
X235787Y304206D01*
X235819Y304028D01*
X235842Y303849D01*
X235861Y303785D01*
X235873Y303720D01*
X235933Y303549D01*
X235985Y303376D01*
X236014Y303317D01*
X236036Y303254D01*
X236122Y303095D01*
X236202Y302933D01*
X236240Y302879D01*
X236272Y302821D01*
X236383Y302678D01*
X236487Y302531D01*
X236534Y302484D01*
X236575Y302431D01*
X236707Y302309D01*
X236834Y302180D01*
X236887Y302141D01*
X236936Y302096D01*
X237087Y301996D01*
X237233Y301890D01*
X237292Y301860D01*
X237347Y301823D01*
X237512Y301749D01*
X237673Y301667D01*
X237736Y301647D01*
X237797Y301620D01*
X237971Y301573D01*
X238144Y301519D01*
X238196Y301513D01*
X238273Y301492D01*
X238764Y301443D01*
X238798Y301445D01*
X238821Y301443D01*
X249206Y301443D01*
X249282Y301449D01*
X249358Y301447D01*
X249527Y301469D01*
X249698Y301483D01*
X249772Y301501D01*
X249847Y301511D01*
X250011Y301560D01*
X250177Y301601D01*
X250246Y301631D01*
X250320Y301653D01*
X250473Y301729D01*
X250630Y301796D01*
X250694Y301837D01*
X250763Y301870D01*
X250902Y301969D01*
X251046Y302061D01*
X251103Y302112D01*
X251165Y302156D01*
X251286Y302276D01*
X251414Y302390D01*
X251462Y302449D01*
X251516Y302503D01*
X251617Y302641D01*
X251724Y302774D01*
X251761Y302840D01*
X251806Y302901D01*
X251883Y303054D01*
X251968Y303202D01*
X251994Y303274D01*
X252029Y303342D01*
X252080Y303505D01*
X252139Y303665D01*
X252154Y303740D01*
X252177Y303812D01*
X252189Y303917D01*
X252234Y304149D01*
X252241Y304385D01*
X252253Y304490D01*
X252253Y307175D01*
X253099Y309218D01*
X254662Y310781D01*
X256705Y311627D01*
X258915Y311627D01*
X260958Y310781D01*
X262521Y309218D01*
X263367Y307175D01*
X263367Y304965D01*
X262521Y302922D01*
X260958Y301359D01*
X258915Y300513D01*
X256388Y300513D01*
X256300Y300528D01*
X256272Y300528D01*
X256244Y300532D01*
X256026Y300530D01*
X255807Y300531D01*
X255779Y300527D01*
X255751Y300526D01*
X255536Y300489D01*
X255319Y300455D01*
X255293Y300446D01*
X255265Y300441D01*
X255059Y300369D01*
X254851Y300300D01*
X254826Y300287D01*
X254799Y300278D01*
X254607Y300173D01*
X254413Y300072D01*
X254395Y300058D01*
X254366Y300042D01*
X253977Y299740D01*
X253921Y299680D01*
X253880Y299647D01*
X252150Y297917D01*
X177734Y297917D01*
X177554Y297903D01*
X177374Y297896D01*
X177309Y297883D01*
X177242Y297877D01*
X177067Y297834D01*
X176890Y297798D01*
X176828Y297775D01*
X176764Y297759D01*
X176598Y297687D01*
X176429Y297624D01*
X176371Y297590D01*
X176310Y297564D01*
X176158Y297467D01*
X176002Y297377D01*
X175950Y297335D01*
X175894Y297299D01*
X175760Y297179D01*
X175620Y297064D01*
X175576Y297015D01*
X175526Y296970D01*
X175413Y296830D01*
X175293Y296695D01*
X175258Y296638D01*
X175216Y296586D01*
X175127Y296430D01*
X175031Y296277D01*
X175005Y296215D01*
X174972Y296158D01*
X174910Y295988D01*
X174839Y295822D01*
X174824Y295758D01*
X174801Y295695D01*
X174766Y295518D01*
X174724Y295343D01*
X174719Y295276D01*
X174706Y295211D01*
X174700Y295031D01*
X174687Y294851D01*
X174693Y294784D01*
X174691Y294718D01*
X174714Y294539D01*
X174730Y294359D01*
X174745Y294309D01*
X174755Y294229D01*
X174898Y293757D01*
X174912Y293726D01*
X174919Y293704D01*
X175737Y291729D01*
X175737Y289519D01*
X174891Y287476D01*
X173803Y286389D01*
X173754Y286331D01*
X173698Y286279D01*
X173594Y286143D01*
X173484Y286013D01*
X173445Y285948D01*
X173398Y285887D01*
X173317Y285737D01*
X173229Y285591D01*
X173201Y285520D01*
X173165Y285453D01*
X173110Y285291D01*
X173046Y285132D01*
X173030Y285058D01*
X173005Y284986D01*
X172976Y284817D01*
X172939Y284651D01*
X172935Y284575D01*
X172922Y284500D01*
X172921Y284329D01*
X172912Y284158D01*
X172920Y284082D01*
X172919Y284006D01*
X172946Y283838D01*
X172964Y283668D01*
X172984Y283594D01*
X172996Y283519D01*
X173049Y283357D01*
X173095Y283192D01*
X173126Y283123D01*
X173150Y283050D01*
X173229Y282899D01*
X173300Y282744D01*
X173343Y282680D01*
X173378Y282613D01*
X173444Y282530D01*
X173576Y282334D01*
X173738Y282162D01*
X173803Y282080D01*
X194190Y261693D01*
X194356Y261552D01*
X194521Y261406D01*
X194545Y261392D01*
X194566Y261373D01*
X194754Y261260D01*
X194939Y261144D01*
X194964Y261133D01*
X194989Y261119D01*
X195192Y261038D01*
X195393Y260953D01*
X195421Y260946D01*
X195447Y260936D01*
X195659Y260889D01*
X195873Y260837D01*
X195901Y260835D01*
X195928Y260829D01*
X196147Y260817D01*
X196365Y260800D01*
X196393Y260803D01*
X196421Y260801D01*
X196639Y260824D01*
X196665Y260827D01*
X199225Y260827D01*
X201268Y259981D01*
X202831Y258418D01*
X203677Y256375D01*
X203677Y254165D01*
X203039Y252626D01*
X202984Y252454D01*
X202921Y252285D01*
X202909Y252220D01*
X202888Y252157D01*
X202861Y251978D01*
X202827Y251801D01*
X202825Y251735D01*
X202815Y251669D01*
X202817Y251488D01*
X202811Y251308D01*
X202820Y251242D01*
X202821Y251175D01*
X202852Y250998D01*
X202876Y250819D01*
X202895Y250755D01*
X202906Y250690D01*
X202966Y250520D01*
X203018Y250346D01*
X203047Y250287D01*
X203069Y250224D01*
X203156Y250065D01*
X203235Y249903D01*
X203273Y249849D01*
X203305Y249791D01*
X203416Y249648D01*
X203521Y249501D01*
X203567Y249454D01*
X203608Y249401D01*
X203741Y249278D01*
X203867Y249150D01*
X203921Y249111D01*
X203970Y249066D01*
X204120Y248966D01*
X204266Y248860D01*
X204325Y248830D01*
X204381Y248793D01*
X204545Y248719D01*
X204706Y248637D01*
X204770Y248617D01*
X204831Y248590D01*
X205005Y248543D01*
X205177Y248489D01*
X205230Y248483D01*
X205307Y248462D01*
X205798Y248413D01*
X205831Y248415D01*
X205855Y248413D01*
X213320Y248413D01*
X213453Y248424D01*
X213586Y248424D01*
X213699Y248443D01*
X213812Y248453D01*
X213941Y248485D01*
X214073Y248507D01*
X214180Y248544D01*
X214291Y248571D01*
X214413Y248624D01*
X214539Y248667D01*
X214640Y248721D01*
X214744Y248766D01*
X214857Y248837D01*
X214974Y248900D01*
X215064Y248970D01*
X215160Y249031D01*
X215260Y249120D01*
X215365Y249201D01*
X215443Y249284D01*
X215528Y249360D01*
X215612Y249463D01*
X215703Y249560D01*
X215767Y249655D01*
X215838Y249744D01*
X215904Y249859D01*
X215978Y249970D01*
X216026Y250073D01*
X216082Y250172D01*
X216129Y250297D01*
X216184Y250418D01*
X216214Y250528D01*
X216254Y250635D01*
X216279Y250765D01*
X216315Y250894D01*
X216327Y251007D01*
X216348Y251119D01*
X216353Y251252D01*
X216367Y251385D01*
X216360Y251498D01*
X216364Y251612D01*
X216346Y251744D01*
X216339Y251877D01*
X216314Y251988D01*
X216299Y252101D01*
X216261Y252229D01*
X216232Y252359D01*
X216198Y252436D01*
X216157Y252573D01*
X215985Y252924D01*
X215959Y252984D01*
X215912Y253066D01*
X215739Y253712D01*
X215739Y253717D01*
X215732Y253793D01*
X215735Y253869D01*
X215713Y254039D01*
X215699Y254209D01*
X215680Y254283D01*
X215670Y254359D01*
X215621Y254522D01*
X215580Y254688D01*
X215550Y254758D01*
X215528Y254831D01*
X215453Y254984D01*
X215385Y255141D01*
X215345Y255206D01*
X215311Y255274D01*
X215212Y255413D01*
X215120Y255557D01*
X215070Y255614D01*
X215026Y255676D01*
X214906Y255798D01*
X214792Y255925D01*
X214732Y255973D01*
X214679Y256027D01*
X214541Y256128D01*
X214408Y256235D01*
X214342Y256273D01*
X214280Y256318D01*
X214128Y256395D01*
X213979Y256479D01*
X213908Y256506D01*
X213840Y256540D01*
X213677Y256591D01*
X213520Y256649D01*
X207562Y262607D01*
X207562Y263811D01*
X207545Y264029D01*
X207531Y264247D01*
X207525Y264275D01*
X207522Y264303D01*
X207470Y264515D01*
X207421Y264728D01*
X207410Y264754D01*
X207404Y264782D01*
X207318Y264982D01*
X207235Y265185D01*
X207220Y265209D01*
X207209Y265235D01*
X207092Y265419D01*
X206978Y265606D01*
X206959Y265628D01*
X206944Y265651D01*
X206799Y265814D01*
X206656Y265980D01*
X206634Y265998D01*
X206615Y266019D01*
X206446Y266156D01*
X206278Y266297D01*
X206257Y266308D01*
X206231Y266329D01*
X205931Y266500D01*
X204329Y268102D01*
X203483Y270145D01*
X203483Y272355D01*
X204329Y274398D01*
X205892Y275961D01*
X207934Y276807D01*
X210145Y276807D01*
X212327Y275903D01*
X212534Y275836D01*
X212742Y275765D01*
X212770Y275760D01*
X212797Y275752D01*
X213012Y275719D01*
X213228Y275682D01*
X213257Y275682D01*
X213285Y275678D01*
X213503Y275681D01*
X213721Y275679D01*
X213750Y275684D01*
X213778Y275684D01*
X213993Y275722D01*
X214209Y275756D01*
X214236Y275765D01*
X214264Y275770D01*
X214470Y275842D01*
X214677Y275910D01*
X214703Y275923D01*
X214729Y275933D01*
X214921Y276037D01*
X215115Y276138D01*
X215133Y276153D01*
X215163Y276169D01*
X215552Y276472D01*
X215607Y276530D01*
X215648Y276563D01*
X216307Y277223D01*
X220579Y272952D01*
X220579Y272951D01*
X224064Y269467D01*
X224122Y269417D01*
X224174Y269362D01*
X224309Y269258D01*
X224440Y269147D01*
X224505Y269108D01*
X224565Y269062D01*
X224715Y268981D01*
X224862Y268893D01*
X224933Y268864D01*
X225000Y268828D01*
X225162Y268773D01*
X225320Y268710D01*
X225394Y268693D01*
X225467Y268668D01*
X225635Y268640D01*
X225802Y268603D01*
X225878Y268598D01*
X225953Y268586D01*
X226124Y268585D01*
X226294Y268575D01*
X226370Y268583D01*
X226446Y268583D01*
X226615Y268609D01*
X226785Y268627D01*
X226858Y268647D01*
X226934Y268659D01*
X227096Y268713D01*
X227261Y268758D01*
X227330Y268790D01*
X227402Y268814D01*
X227554Y268892D01*
X227709Y268964D01*
X227772Y269006D01*
X227840Y269041D01*
X227922Y269107D01*
X228118Y269239D01*
X228291Y269401D01*
X228373Y269467D01*
X228422Y269525D01*
X228478Y269577D01*
X228582Y269713D01*
X228693Y269843D01*
X228732Y269908D01*
X228778Y269969D01*
X228859Y270119D01*
X228947Y270265D01*
X228976Y270336D01*
X229012Y270403D01*
X229067Y270565D01*
X229130Y270724D01*
X229147Y270798D01*
X229172Y270870D01*
X229200Y271039D01*
X229237Y271205D01*
X229242Y271281D01*
X229254Y271356D01*
X229255Y271527D01*
X229265Y271698D01*
X229257Y271773D01*
X229257Y271850D01*
X229231Y272019D01*
X229213Y272188D01*
X229193Y272262D01*
X229181Y272337D01*
X229127Y272499D01*
X229082Y272664D01*
X229050Y272733D01*
X229026Y272806D01*
X228948Y272957D01*
X228876Y273112D01*
X228834Y273176D01*
X228799Y273243D01*
X228733Y273326D01*
X228601Y273522D01*
X228488Y273642D01*
X228479Y273654D01*
X228436Y273698D01*
X228373Y273776D01*
X227043Y275106D01*
X228421Y276484D01*
X232508Y280571D01*
X232509Y280571D01*
X237487Y285550D01*
X238044Y284993D01*
X238378Y284414D01*
X238551Y283768D01*
X238551Y283763D01*
X238558Y283687D01*
X238555Y283611D01*
X238577Y283441D01*
X238591Y283271D01*
X238610Y283197D01*
X238620Y283121D01*
X238669Y282958D01*
X238710Y282792D01*
X238740Y282722D01*
X238762Y282649D01*
X238837Y282496D01*
X238905Y282339D01*
X238946Y282274D01*
X238979Y282206D01*
X239078Y282067D01*
X239170Y281923D01*
X239220Y281866D01*
X239264Y281804D01*
X239385Y281682D01*
X239498Y281555D01*
X239558Y281507D01*
X239611Y281453D01*
X239749Y281352D01*
X239882Y281245D01*
X239948Y281207D01*
X240010Y281162D01*
X240163Y281085D01*
X240311Y281001D01*
X240382Y280974D01*
X240450Y280940D01*
X240613Y280889D01*
X240770Y280831D01*
X246028Y275572D01*
X246086Y275523D01*
X246139Y275467D01*
X246274Y275363D01*
X246404Y275252D01*
X246470Y275213D01*
X246530Y275167D01*
X246681Y275086D01*
X246827Y274998D01*
X246897Y274970D01*
X246965Y274934D01*
X247127Y274878D01*
X247285Y274815D01*
X247359Y274798D01*
X247431Y274774D01*
X247600Y274745D01*
X247767Y274708D01*
X247843Y274704D01*
X247918Y274691D01*
X248088Y274690D01*
X248259Y274680D01*
X248335Y274688D01*
X248411Y274688D01*
X248580Y274714D01*
X248750Y274733D01*
X248823Y274753D01*
X248898Y274765D01*
X249061Y274818D01*
X249225Y274863D01*
X249295Y274895D01*
X249367Y274919D01*
X249518Y274998D01*
X249674Y275069D01*
X249737Y275111D01*
X249805Y275147D01*
X249887Y275212D01*
X250083Y275344D01*
X250241Y275493D01*
X251522Y275493D01*
X265143Y261872D01*
X265143Y259890D01*
X265126Y259828D01*
X265120Y259762D01*
X265106Y259698D01*
X265095Y259517D01*
X265077Y259337D01*
X265081Y259271D01*
X265078Y259205D01*
X265097Y259025D01*
X265108Y258845D01*
X265123Y258780D01*
X265130Y258714D01*
X265178Y258539D01*
X265218Y258364D01*
X265243Y258303D01*
X265260Y258239D01*
X265336Y258074D01*
X265404Y257907D01*
X265438Y257851D01*
X265466Y257790D01*
X265567Y257640D01*
X265661Y257486D01*
X265704Y257436D01*
X265741Y257381D01*
X265865Y257249D01*
X265983Y257112D01*
X266034Y257069D01*
X266079Y257021D01*
X266222Y256911D01*
X266361Y256795D01*
X266407Y256770D01*
X266470Y256721D01*
X266905Y256488D01*
X266937Y256477D01*
X266958Y256465D01*
X268828Y255691D01*
X270391Y254128D01*
X271237Y252085D01*
X271237Y249875D01*
X270391Y247832D01*
X268828Y246269D01*
X266785Y245423D01*
X264575Y245423D01*
X262532Y246269D01*
X260969Y247832D01*
X260095Y249942D01*
X260083Y250089D01*
X260065Y250163D01*
X260055Y250239D01*
X260006Y250402D01*
X259965Y250568D01*
X259935Y250638D01*
X259912Y250711D01*
X259837Y250864D01*
X259770Y251021D01*
X259729Y251086D01*
X259696Y251154D01*
X259597Y251293D01*
X259505Y251437D01*
X259454Y251494D01*
X259410Y251556D01*
X259290Y251678D01*
X259176Y251805D01*
X259117Y251853D01*
X259063Y251907D01*
X258925Y252008D01*
X258792Y252115D01*
X258726Y252153D01*
X258665Y252198D01*
X258512Y252275D01*
X258364Y252359D01*
X258292Y252386D01*
X258224Y252420D01*
X258061Y252471D01*
X257901Y252531D01*
X257826Y252545D01*
X257754Y252568D01*
X257649Y252580D01*
X257417Y252625D01*
X257181Y252633D01*
X257076Y252645D01*
X255916Y252645D01*
X243006Y265554D01*
X242977Y265579D01*
X242951Y265608D01*
X242789Y265739D01*
X242630Y265874D01*
X242597Y265894D01*
X242568Y265917D01*
X242387Y266020D01*
X242207Y266128D01*
X242172Y266143D01*
X242139Y266161D01*
X241943Y266234D01*
X241749Y266312D01*
X241712Y266320D01*
X241676Y266333D01*
X241472Y266373D01*
X241268Y266418D01*
X241229Y266420D01*
X241192Y266428D01*
X240984Y266434D01*
X240775Y266446D01*
X240737Y266442D01*
X240699Y266443D01*
X240492Y266416D01*
X240285Y266394D01*
X240248Y266384D01*
X240210Y266379D01*
X240010Y266318D01*
X239809Y266263D01*
X239774Y266247D01*
X239738Y266236D01*
X239550Y266145D01*
X239360Y266057D01*
X239329Y266036D01*
X239295Y266019D01*
X239125Y265899D01*
X238951Y265782D01*
X238923Y265756D01*
X238892Y265734D01*
X238744Y265587D01*
X238592Y265444D01*
X238568Y265414D01*
X238541Y265387D01*
X238418Y265218D01*
X238291Y265053D01*
X238273Y265019D01*
X238251Y264988D01*
X238157Y264802D01*
X238058Y264618D01*
X238046Y264582D01*
X238029Y264548D01*
X237966Y264349D01*
X237898Y264151D01*
X237892Y264114D01*
X237880Y264077D01*
X237870Y263985D01*
X237815Y263665D01*
X237814Y263493D01*
X237804Y263400D01*
X237804Y255118D01*
X237813Y255004D01*
X237812Y254890D01*
X237833Y254759D01*
X237844Y254626D01*
X237871Y254516D01*
X237889Y254403D01*
X237931Y254276D01*
X237963Y254147D01*
X238008Y254043D01*
X238043Y253934D01*
X238105Y253816D01*
X238157Y253694D01*
X238218Y253598D01*
X238271Y253496D01*
X238330Y253423D01*
X238422Y253278D01*
X238638Y253036D01*
X238696Y252963D01*
X247465Y244194D01*
X247465Y242314D01*
X247483Y242096D01*
X247497Y241879D01*
X247503Y241851D01*
X247505Y241823D01*
X247558Y241610D01*
X247607Y241398D01*
X247617Y241371D01*
X247624Y241344D01*
X247710Y241143D01*
X247793Y240941D01*
X247807Y240917D01*
X247819Y240890D01*
X247936Y240706D01*
X248050Y240520D01*
X248068Y240498D01*
X248084Y240474D01*
X248229Y240312D01*
X248372Y240146D01*
X248393Y240128D01*
X248412Y240106D01*
X248582Y239970D01*
X248750Y239829D01*
X248770Y239817D01*
X248796Y239796D01*
X249225Y239552D01*
X249300Y239524D01*
X249347Y239499D01*
X251298Y238691D01*
X252861Y237128D01*
X253707Y235085D01*
X253707Y232826D01*
X253682Y232759D01*
X253669Y232694D01*
X253649Y232631D01*
X253622Y232452D01*
X253587Y232275D01*
X253585Y232209D01*
X253575Y232143D01*
X253578Y231961D01*
X253572Y231782D01*
X253581Y231716D01*
X253581Y231650D01*
X253613Y231472D01*
X253636Y231293D01*
X253656Y231229D01*
X253667Y231164D01*
X253727Y230993D01*
X253779Y230820D01*
X253808Y230761D01*
X253830Y230698D01*
X253916Y230540D01*
X253996Y230377D01*
X254034Y230323D01*
X254066Y230265D01*
X254177Y230122D01*
X254281Y229975D01*
X254328Y229928D01*
X254369Y229875D01*
X254501Y229752D01*
X254628Y229624D01*
X254682Y229585D01*
X254730Y229540D01*
X254881Y229440D01*
X255027Y229334D01*
X255086Y229304D01*
X255141Y229267D01*
X255306Y229193D01*
X255467Y229111D01*
X255531Y229091D01*
X255591Y229064D01*
X255765Y229017D01*
X255938Y228963D01*
X255990Y228957D01*
X256068Y228936D01*
X256559Y228887D01*
X256592Y228889D01*
X256615Y228887D01*
X262862Y228887D01*
X262975Y228896D01*
X263090Y228895D01*
X263221Y228916D01*
X263353Y228927D01*
X263464Y228954D01*
X263577Y228972D01*
X263703Y229013D01*
X263832Y229045D01*
X263937Y229090D01*
X264046Y229126D01*
X264164Y229188D01*
X264286Y229240D01*
X264382Y229301D01*
X264483Y229354D01*
X264557Y229413D01*
X264702Y229505D01*
X264944Y229721D01*
X265016Y229779D01*
X290690Y255453D01*
X292583Y256237D01*
X292592Y256242D01*
X292601Y256245D01*
X292812Y256354D01*
X293022Y256462D01*
X293030Y256468D01*
X293039Y256473D01*
X293070Y256498D01*
X293419Y256755D01*
X293510Y256849D01*
X293572Y256898D01*
X299335Y262661D01*
X299409Y262748D01*
X299490Y262828D01*
X299568Y262935D01*
X299654Y263037D01*
X299713Y263134D01*
X299780Y263227D01*
X299840Y263345D01*
X299909Y263459D01*
X299951Y263565D01*
X300003Y263667D01*
X300043Y263794D01*
X300092Y263917D01*
X300117Y264029D01*
X300151Y264138D01*
X300161Y264231D01*
X300199Y264399D01*
X300217Y264723D01*
X300227Y264816D01*
X300227Y269132D01*
X301117Y271280D01*
X302760Y272923D01*
X304908Y273813D01*
X307232Y273813D01*
X309380Y272923D01*
X311023Y271280D01*
X312076Y268737D01*
X312159Y268577D01*
X312234Y268413D01*
X312271Y268358D01*
X312301Y268298D01*
X312409Y268153D01*
X312509Y268004D01*
X312555Y267955D01*
X312594Y267902D01*
X312723Y267775D01*
X312847Y267644D01*
X312900Y267603D01*
X312947Y267557D01*
X313095Y267454D01*
X313238Y267344D01*
X313297Y267312D01*
X313352Y267274D01*
X313514Y267196D01*
X313673Y267110D01*
X313736Y267089D01*
X313796Y267060D01*
X313969Y267009D01*
X314140Y266950D01*
X314205Y266939D01*
X314269Y266921D01*
X314448Y266898D01*
X314626Y266868D01*
X314693Y266867D01*
X314759Y266859D01*
X314939Y266866D01*
X315120Y266865D01*
X315185Y266875D01*
X315252Y266878D01*
X315428Y266913D01*
X315607Y266941D01*
X315670Y266962D01*
X315735Y266975D01*
X315904Y267039D01*
X316075Y267096D01*
X316135Y267126D01*
X316197Y267150D01*
X316353Y267240D01*
X316513Y267324D01*
X316554Y267356D01*
X316624Y267397D01*
X317006Y267709D01*
X317028Y267734D01*
X317046Y267749D01*
X318670Y269373D01*
X322031Y270765D01*
X340909Y270765D01*
X344270Y269373D01*
X344317Y269325D01*
X344346Y269301D01*
X344372Y269272D01*
X344534Y269141D01*
X344693Y269006D01*
X344726Y268986D01*
X344756Y268962D01*
X344937Y268859D01*
X345116Y268751D01*
X345151Y268737D01*
X345184Y268718D01*
X345380Y268645D01*
X345574Y268568D01*
X345611Y268560D01*
X345647Y268547D01*
X345852Y268506D01*
X346055Y268461D01*
X346094Y268459D01*
X346131Y268452D01*
X346339Y268445D01*
X346548Y268434D01*
X346586Y268438D01*
X346624Y268437D01*
X346831Y268464D01*
X347039Y268486D01*
X347075Y268496D01*
X347113Y268501D01*
X347313Y268561D01*
X347514Y268617D01*
X347549Y268632D01*
X347586Y268643D01*
X347773Y268735D01*
X347963Y268822D01*
X347994Y268844D01*
X348029Y268860D01*
X348199Y268981D01*
X348372Y269098D01*
X348400Y269124D01*
X348431Y269146D01*
X348579Y269292D01*
X348732Y269435D01*
X348755Y269466D01*
X348782Y269493D01*
X348904Y269661D01*
X349032Y269827D01*
X349050Y269861D01*
X349072Y269891D01*
X349166Y270077D01*
X349265Y270262D01*
X349277Y270298D01*
X349295Y270332D01*
X349357Y270531D01*
X349425Y270728D01*
X349431Y270766D01*
X349443Y270802D01*
X349453Y270895D01*
X349508Y271215D01*
X349509Y271387D01*
X349519Y271480D01*
X349519Y277160D01*
X349516Y277198D01*
X349518Y277236D01*
X349496Y277444D01*
X349479Y277652D01*
X349470Y277689D01*
X349466Y277727D01*
X349411Y277928D01*
X349361Y278131D01*
X349346Y278166D01*
X349335Y278202D01*
X349248Y278392D01*
X349166Y278584D01*
X349146Y278616D01*
X349130Y278651D01*
X349013Y278824D01*
X348901Y279000D01*
X348876Y279028D01*
X348854Y279060D01*
X348711Y279212D01*
X348572Y279368D01*
X348543Y279392D01*
X348516Y279420D01*
X348351Y279547D01*
X348188Y279678D01*
X348155Y279697D01*
X348125Y279720D01*
X347941Y279819D01*
X347760Y279922D01*
X347724Y279935D01*
X347690Y279953D01*
X347493Y280021D01*
X347297Y280093D01*
X347260Y280101D01*
X347224Y280113D01*
X347018Y280148D01*
X346813Y280188D01*
X346775Y280189D01*
X346737Y280196D01*
X346528Y280197D01*
X346320Y280203D01*
X346282Y280198D01*
X346244Y280199D01*
X346038Y280166D01*
X345831Y280139D01*
X345794Y280128D01*
X345757Y280122D01*
X345558Y280057D01*
X345359Y279997D01*
X345324Y279980D01*
X345288Y279968D01*
X345102Y279871D01*
X344915Y279780D01*
X344884Y279758D01*
X344850Y279740D01*
X344778Y279682D01*
X344513Y279494D01*
X344391Y279373D01*
X344317Y279315D01*
X344270Y279267D01*
X340909Y277875D01*
X322031Y277875D01*
X318670Y279267D01*
X316097Y281840D01*
X315389Y283550D01*
X315354Y283618D01*
X315327Y283689D01*
X315242Y283837D01*
X315164Y283989D01*
X315119Y284051D01*
X315081Y284117D01*
X314972Y284249D01*
X314871Y284386D01*
X314816Y284439D01*
X314768Y284498D01*
X314640Y284611D01*
X314518Y284731D01*
X314455Y284774D01*
X314398Y284825D01*
X314254Y284916D01*
X314114Y285014D01*
X314045Y285047D01*
X313980Y285087D01*
X313823Y285154D01*
X313669Y285228D01*
X313596Y285249D01*
X313526Y285279D01*
X313360Y285319D01*
X313196Y285367D01*
X313120Y285377D01*
X313046Y285395D01*
X312876Y285407D01*
X312706Y285429D01*
X312630Y285426D01*
X312554Y285431D01*
X312384Y285416D01*
X312213Y285410D01*
X312139Y285395D01*
X312063Y285388D01*
X311962Y285359D01*
X311730Y285312D01*
X311509Y285229D01*
X311408Y285199D01*
X310305Y284743D01*
X308094Y284743D01*
X306052Y285589D01*
X304489Y287152D01*
X303643Y289194D01*
X303643Y291405D01*
X304489Y293447D01*
X306052Y295010D01*
X308094Y295856D01*
X308186Y295856D01*
X308366Y295871D01*
X308546Y295877D01*
X308612Y295891D01*
X308678Y295896D01*
X308853Y295940D01*
X309030Y295975D01*
X309092Y295999D01*
X309157Y296015D01*
X309323Y296086D01*
X309491Y296150D01*
X309549Y296183D01*
X309610Y296209D01*
X309762Y296306D01*
X309919Y296396D01*
X309970Y296439D01*
X310026Y296474D01*
X310161Y296594D01*
X310301Y296709D01*
X310345Y296759D01*
X310394Y296803D01*
X310507Y296943D01*
X310627Y297079D01*
X310662Y297135D01*
X310704Y297187D01*
X310793Y297344D01*
X310889Y297497D01*
X310915Y297558D01*
X310948Y297616D01*
X311011Y297785D01*
X311081Y297951D01*
X311097Y298016D01*
X311120Y298078D01*
X311154Y298255D01*
X311197Y298431D01*
X311202Y298497D01*
X311214Y298562D01*
X311220Y298742D01*
X311233Y298923D01*
X311228Y298989D01*
X311230Y299055D01*
X311206Y299234D01*
X311190Y299414D01*
X311176Y299465D01*
X311165Y299545D01*
X311023Y300017D01*
X311008Y300047D01*
X311002Y300070D01*
X309879Y302779D01*
X309879Y341356D01*
X309876Y341394D01*
X309878Y341432D01*
X309856Y341640D01*
X309839Y341848D01*
X309830Y341885D01*
X309826Y341923D01*
X309771Y342124D01*
X309721Y342327D01*
X309706Y342362D01*
X309695Y342399D01*
X309608Y342588D01*
X309526Y342780D01*
X309506Y342812D01*
X309490Y342847D01*
X309373Y343020D01*
X309261Y343196D01*
X309236Y343225D01*
X309214Y343256D01*
X309071Y343409D01*
X308932Y343564D01*
X308903Y343588D01*
X308877Y343616D01*
X308711Y343743D01*
X308548Y343874D01*
X308515Y343893D01*
X308485Y343916D01*
X308301Y344015D01*
X308120Y344118D01*
X308084Y344131D01*
X308050Y344149D01*
X307853Y344217D01*
X307657Y344290D01*
X307620Y344297D01*
X307584Y344309D01*
X307377Y344344D01*
X307173Y344384D01*
X307135Y344386D01*
X307097Y344392D01*
X306888Y344393D01*
X306680Y344400D01*
X306642Y344395D01*
X306604Y344395D01*
X306397Y344362D01*
X306191Y344335D01*
X306154Y344324D01*
X306117Y344318D01*
X305918Y344253D01*
X305719Y344193D01*
X305684Y344176D01*
X305648Y344164D01*
X305463Y344068D01*
X305275Y343976D01*
X305244Y343954D01*
X305210Y343936D01*
X305138Y343878D01*
X304873Y343690D01*
X304751Y343570D01*
X304677Y343511D01*
X303352Y342185D01*
X291008Y342185D01*
X290115Y343078D01*
X290115Y355422D01*
X290679Y355985D01*
X290728Y356043D01*
X290784Y356096D01*
X290888Y356231D01*
X290998Y356361D01*
X291038Y356427D01*
X291084Y356487D01*
X291165Y356637D01*
X291253Y356784D01*
X291281Y356855D01*
X291317Y356922D01*
X291373Y357083D01*
X291436Y357242D01*
X291453Y357316D01*
X291477Y357388D01*
X291506Y357557D01*
X291543Y357724D01*
X291547Y357800D01*
X291560Y357875D01*
X291561Y358046D01*
X291571Y358216D01*
X291562Y358292D01*
X291563Y358368D01*
X291536Y358537D01*
X291518Y358707D01*
X291498Y358780D01*
X291486Y358855D01*
X291433Y359018D01*
X291388Y359182D01*
X291356Y359252D01*
X291332Y359324D01*
X291253Y359475D01*
X291182Y359631D01*
X291139Y359694D01*
X291104Y359762D01*
X291039Y359844D01*
X290907Y360040D01*
X290745Y360212D01*
X290679Y360295D01*
X290115Y360858D01*
X290115Y362220D01*
X290109Y362296D01*
X290111Y362372D01*
X290089Y362541D01*
X290075Y362712D01*
X290057Y362786D01*
X290047Y362861D01*
X289998Y363025D01*
X289957Y363191D01*
X289927Y363260D01*
X289905Y363334D01*
X289829Y363487D01*
X289762Y363644D01*
X289721Y363708D01*
X289688Y363777D01*
X289589Y363916D01*
X289497Y364060D01*
X289446Y364117D01*
X289402Y364179D01*
X289282Y364300D01*
X289168Y364428D01*
X289109Y364476D01*
X289055Y364530D01*
X288917Y364631D01*
X288784Y364738D01*
X288718Y364775D01*
X288657Y364820D01*
X288504Y364897D01*
X288356Y364982D01*
X288284Y365008D01*
X288216Y365043D01*
X288053Y365094D01*
X287893Y365153D01*
X287818Y365168D01*
X287746Y365191D01*
X287641Y365203D01*
X287409Y365248D01*
X287173Y365255D01*
X287068Y365267D01*
X286472Y365267D01*
X286359Y365258D01*
X286244Y365259D01*
X286113Y365238D01*
X285981Y365227D01*
X285870Y365200D01*
X285757Y365182D01*
X285631Y365141D01*
X285502Y365109D01*
X285397Y365064D01*
X285288Y365028D01*
X285170Y364966D01*
X285048Y364914D01*
X284952Y364853D01*
X284851Y364800D01*
X284777Y364741D01*
X284632Y364649D01*
X284390Y364433D01*
X284318Y364375D01*
X282285Y362342D01*
X282211Y362255D01*
X282130Y362175D01*
X282052Y362068D01*
X281966Y361966D01*
X281907Y361869D01*
X281840Y361776D01*
X281780Y361658D01*
X281711Y361544D01*
X281669Y361438D01*
X281617Y361336D01*
X281577Y361209D01*
X281528Y361086D01*
X281503Y360974D01*
X281469Y360865D01*
X281459Y360772D01*
X281421Y360604D01*
X281403Y360280D01*
X281393Y360188D01*
X281393Y291254D01*
X281402Y291141D01*
X281401Y291026D01*
X281422Y290895D01*
X281433Y290763D01*
X281460Y290652D01*
X281478Y290539D01*
X281519Y290413D01*
X281551Y290284D01*
X281596Y290179D01*
X281632Y290070D01*
X281694Y289952D01*
X281746Y289830D01*
X281807Y289734D01*
X281860Y289633D01*
X281919Y289559D01*
X282011Y289414D01*
X282227Y289172D01*
X282285Y289100D01*
X283899Y287486D01*
X284707Y285536D01*
X284707Y283424D01*
X283899Y281474D01*
X282406Y279981D01*
X280456Y279173D01*
X278344Y279173D01*
X276394Y279981D01*
X274901Y281474D01*
X274093Y283424D01*
X274093Y285158D01*
X274076Y285375D01*
X274062Y285593D01*
X274056Y285621D01*
X274053Y285650D01*
X274001Y285862D01*
X273952Y286074D01*
X273941Y286101D01*
X273935Y286128D01*
X273848Y286329D01*
X273766Y286531D01*
X273751Y286556D01*
X273740Y286582D01*
X273623Y286766D01*
X273509Y286952D01*
X273490Y286974D01*
X273475Y286998D01*
X273330Y287160D01*
X273187Y287326D01*
X273165Y287344D01*
X273146Y287366D01*
X272977Y287503D01*
X272809Y287643D01*
X272788Y287655D01*
X272762Y287676D01*
X272334Y287920D01*
X272258Y287948D01*
X272212Y287973D01*
X270044Y288871D01*
X268551Y290364D01*
X267743Y292314D01*
X267743Y294426D01*
X268551Y296376D01*
X270395Y298220D01*
X270469Y298307D01*
X270550Y298387D01*
X270628Y298494D01*
X270714Y298596D01*
X270773Y298693D01*
X270840Y298786D01*
X270900Y298904D01*
X270969Y299018D01*
X271011Y299124D01*
X271063Y299226D01*
X271103Y299353D01*
X271152Y299476D01*
X271177Y299588D01*
X271211Y299697D01*
X271221Y299790D01*
X271259Y299958D01*
X271277Y300282D01*
X271287Y300374D01*
X271287Y325668D01*
X271278Y325781D01*
X271279Y325896D01*
X271258Y326027D01*
X271247Y326159D01*
X271220Y326270D01*
X271202Y326383D01*
X271161Y326509D01*
X271129Y326638D01*
X271084Y326743D01*
X271048Y326852D01*
X270986Y326970D01*
X270934Y327092D01*
X270873Y327188D01*
X270820Y327289D01*
X270761Y327363D01*
X270669Y327508D01*
X270453Y327750D01*
X270395Y327822D01*
X266207Y332010D01*
X266207Y366308D01*
X266198Y366421D01*
X266199Y366536D01*
X266178Y366667D01*
X266167Y366799D01*
X266140Y366910D01*
X266122Y367023D01*
X266081Y367149D01*
X266049Y367278D01*
X266004Y367383D01*
X265968Y367492D01*
X265906Y367610D01*
X265854Y367732D01*
X265793Y367828D01*
X265740Y367929D01*
X265681Y368003D01*
X265589Y368148D01*
X265373Y368390D01*
X265315Y368462D01*
X245887Y387890D01*
X245887Y402638D01*
X245881Y402714D01*
X245883Y402790D01*
X245861Y402959D01*
X245847Y403130D01*
X245829Y403204D01*
X245819Y403279D01*
X245770Y403443D01*
X245729Y403609D01*
X245699Y403678D01*
X245677Y403752D01*
X245601Y403905D01*
X245534Y404062D01*
X245493Y404126D01*
X245460Y404195D01*
X245361Y404334D01*
X245269Y404478D01*
X245218Y404535D01*
X245174Y404597D01*
X245054Y404718D01*
X244940Y404846D01*
X244881Y404894D01*
X244827Y404948D01*
X244689Y405049D01*
X244556Y405156D01*
X244490Y405193D01*
X244429Y405238D01*
X244276Y405315D01*
X244128Y405400D01*
X244056Y405426D01*
X243988Y405461D01*
X243825Y405512D01*
X243665Y405571D01*
X243590Y405586D01*
X243518Y405609D01*
X243413Y405621D01*
X243181Y405666D01*
X242945Y405673D01*
X242840Y405685D01*
X241478Y405685D01*
X240585Y406578D01*
X240585Y418922D01*
X241911Y420247D01*
X241936Y420276D01*
X241964Y420302D01*
X242095Y420464D01*
X242230Y420623D01*
X242250Y420656D01*
X242274Y420686D01*
X242377Y420867D01*
X242485Y421046D01*
X242499Y421081D01*
X242518Y421114D01*
X242591Y421310D01*
X242668Y421504D01*
X242676Y421541D01*
X242690Y421577D01*
X242730Y421782D01*
X242775Y421986D01*
X242777Y422024D01*
X242784Y422061D01*
X242791Y422269D01*
X242803Y422478D01*
X242799Y422516D01*
X242800Y422554D01*
X242772Y422761D01*
X242750Y422969D01*
X242740Y423005D01*
X242735Y423043D01*
X242675Y423243D01*
X242620Y423444D01*
X242604Y423479D01*
X242593Y423516D01*
X242501Y423703D01*
X242414Y423893D01*
X242393Y423924D01*
X242376Y423959D01*
X242255Y424129D01*
X242139Y424302D01*
X242112Y424330D01*
X242090Y424361D01*
X241944Y424509D01*
X241801Y424662D01*
X241771Y424685D01*
X241744Y424712D01*
X241575Y424835D01*
X241409Y424962D01*
X241376Y424980D01*
X241345Y425002D01*
X241159Y425096D01*
X240975Y425195D01*
X240938Y425208D01*
X240905Y425225D01*
X240705Y425287D01*
X240508Y425355D01*
X240471Y425361D01*
X240434Y425373D01*
X240341Y425383D01*
X240022Y425438D01*
X239850Y425439D01*
X239756Y425449D01*
X201179Y425449D01*
X198002Y426765D01*
X197866Y426809D01*
X197734Y426862D01*
X197631Y426885D01*
X197532Y426917D01*
X197391Y426938D01*
X197252Y426969D01*
X197148Y426975D01*
X197044Y426990D01*
X196902Y426988D01*
X196759Y426996D01*
X196655Y426985D01*
X196551Y426984D01*
X196410Y426959D01*
X196269Y426944D01*
X196168Y426916D01*
X196065Y426898D01*
X195930Y426851D01*
X195793Y426813D01*
X195698Y426770D01*
X195599Y426735D01*
X195474Y426667D01*
X195345Y426608D01*
X195258Y426549D01*
X195166Y426499D01*
X195054Y426412D01*
X194935Y426332D01*
X194859Y426261D01*
X194777Y426197D01*
X194680Y426092D01*
X194576Y425995D01*
X194512Y425912D01*
X194441Y425835D01*
X194362Y425716D01*
X194276Y425603D01*
X194226Y425511D01*
X194168Y425424D01*
X194110Y425294D01*
X194042Y425168D01*
X194008Y425069D01*
X193965Y424974D01*
X193929Y424837D01*
X193882Y424702D01*
X193865Y424598D01*
X193838Y424498D01*
X193824Y424356D01*
X193800Y424215D01*
X193799Y424111D01*
X193789Y424007D01*
X193798Y423865D01*
X193797Y423722D01*
X193813Y423619D01*
X193819Y423514D01*
X193851Y423376D01*
X193873Y423235D01*
X193906Y423135D01*
X193929Y423033D01*
X193983Y422901D01*
X194028Y422766D01*
X194076Y422674D01*
X194115Y422577D01*
X194190Y422455D01*
X194255Y422329D01*
X194304Y422267D01*
X194373Y422156D01*
X194656Y421827D01*
X194681Y421795D01*
X195672Y420804D01*
X198361Y414313D01*
X198361Y407287D01*
X195672Y400796D01*
X191239Y396363D01*
X191214Y396334D01*
X191186Y396308D01*
X191055Y396146D01*
X190919Y395987D01*
X190900Y395954D01*
X190876Y395924D01*
X190773Y395743D01*
X190665Y395564D01*
X190651Y395529D01*
X190632Y395496D01*
X190559Y395300D01*
X190482Y395106D01*
X190473Y395069D01*
X190460Y395033D01*
X190420Y394828D01*
X190375Y394624D01*
X190373Y394586D01*
X190365Y394549D01*
X190359Y394341D01*
X190347Y394132D01*
X190351Y394094D01*
X190350Y394056D01*
X190377Y393849D01*
X190399Y393641D01*
X190409Y393605D01*
X190414Y393567D01*
X190475Y393367D01*
X190530Y393166D01*
X190546Y393131D01*
X190557Y393094D01*
X190649Y392907D01*
X190736Y392717D01*
X190757Y392685D01*
X190774Y392651D01*
X190894Y392482D01*
X191011Y392308D01*
X191037Y392280D01*
X191059Y392249D01*
X191206Y392101D01*
X191349Y391948D01*
X191379Y391925D01*
X191406Y391898D01*
X191575Y391775D01*
X191740Y391648D01*
X191774Y391630D01*
X191805Y391608D01*
X191991Y391514D01*
X192175Y391415D01*
X192211Y391402D01*
X192245Y391385D01*
X192444Y391323D01*
X192642Y391255D01*
X192679Y391249D01*
X192716Y391237D01*
X192808Y391227D01*
X193128Y391172D01*
X193300Y391171D01*
X193393Y391161D01*
X200190Y391161D01*
X201769Y390911D01*
X203290Y390416D01*
X204715Y389690D01*
X206009Y388750D01*
X207140Y387619D01*
X208080Y386325D01*
X208806Y384900D01*
X209083Y384047D01*
X191770Y384047D01*
X191694Y384041D01*
X191618Y384044D01*
X191449Y384021D01*
X191279Y384007D01*
X191205Y383989D01*
X191129Y383979D01*
X190965Y383930D01*
X190800Y383889D01*
X190730Y383859D01*
X190657Y383837D01*
X190503Y383762D01*
X190346Y383694D01*
X190282Y383653D01*
X190214Y383620D01*
X190074Y383521D01*
X189930Y383429D01*
X189874Y383378D01*
X189811Y383334D01*
X189690Y383214D01*
X189562Y383100D01*
X189514Y383041D01*
X189460Y382987D01*
X189359Y382849D01*
X189252Y382716D01*
X189214Y382650D01*
X189169Y382588D01*
X189093Y382436D01*
X189008Y382287D01*
X188981Y382216D01*
X188947Y382148D01*
X188896Y381985D01*
X188836Y381825D01*
X188822Y381750D01*
X188799Y381677D01*
X188787Y381573D01*
X188742Y381341D01*
X188734Y381105D01*
X188723Y381000D01*
X188723Y370839D01*
X183350Y370839D01*
X181771Y371089D01*
X180250Y371584D01*
X180190Y371598D01*
X180133Y371619D01*
X179951Y371655D01*
X179770Y371698D01*
X179709Y371702D01*
X179649Y371714D01*
X179463Y371719D01*
X179278Y371733D01*
X179217Y371727D01*
X179156Y371729D01*
X178971Y371705D01*
X178786Y371688D01*
X178727Y371673D01*
X178667Y371665D01*
X178488Y371611D01*
X178309Y371564D01*
X178253Y371540D01*
X178194Y371522D01*
X178027Y371440D01*
X177857Y371365D01*
X177806Y371332D01*
X177751Y371305D01*
X177600Y371198D01*
X177444Y371096D01*
X177399Y371055D01*
X177349Y371020D01*
X177217Y370889D01*
X177079Y370764D01*
X177041Y370716D01*
X176998Y370673D01*
X176889Y370523D01*
X176773Y370377D01*
X176744Y370324D01*
X176708Y370274D01*
X176624Y370108D01*
X176533Y369946D01*
X176513Y369888D01*
X176485Y369834D01*
X176429Y369656D01*
X176366Y369481D01*
X176355Y369421D01*
X176337Y369363D01*
X176325Y369259D01*
X176277Y368996D01*
X176272Y368787D01*
X176261Y368686D01*
X176261Y366791D01*
X176275Y366611D01*
X176282Y366431D01*
X176295Y366365D01*
X176301Y366299D01*
X176344Y366124D01*
X176380Y365947D01*
X176403Y365885D01*
X176419Y365820D01*
X176491Y365654D01*
X176554Y365486D01*
X176588Y365428D01*
X176614Y365367D01*
X176711Y365215D01*
X176801Y365058D01*
X176843Y365007D01*
X176879Y364951D01*
X176999Y364816D01*
X177114Y364677D01*
X177163Y364633D01*
X177208Y364583D01*
X177348Y364470D01*
X177483Y364350D01*
X177540Y364315D01*
X177592Y364273D01*
X177748Y364184D01*
X177901Y364088D01*
X177963Y364062D01*
X178020Y364029D01*
X178190Y363966D01*
X178356Y363896D01*
X178420Y363881D01*
X178483Y363857D01*
X178660Y363823D01*
X178835Y363780D01*
X178902Y363776D01*
X178967Y363763D01*
X179147Y363757D01*
X179327Y363744D01*
X179394Y363749D01*
X179460Y363747D01*
X179639Y363771D01*
X179819Y363787D01*
X179869Y363801D01*
X179949Y363812D01*
X180421Y363954D01*
X180452Y363969D01*
X180474Y363976D01*
X182331Y364745D01*
X201209Y364745D01*
X204570Y363353D01*
X207142Y360780D01*
X207243Y360538D01*
X207308Y360411D01*
X207364Y360280D01*
X207420Y360192D01*
X207468Y360099D01*
X207553Y359984D01*
X207629Y359864D01*
X207698Y359786D01*
X207761Y359702D01*
X207863Y359603D01*
X207958Y359496D01*
X208039Y359431D01*
X208114Y359358D01*
X208231Y359276D01*
X208342Y359186D01*
X208432Y359135D01*
X208518Y359075D01*
X208646Y359013D01*
X208770Y358942D01*
X208868Y358906D01*
X208962Y358861D01*
X209099Y358820D01*
X209233Y358771D01*
X209336Y358751D01*
X209436Y358721D01*
X209577Y358704D01*
X209717Y358676D01*
X209821Y358673D01*
X209925Y358660D01*
X210068Y358665D01*
X210210Y358661D01*
X210314Y358674D01*
X210418Y358678D01*
X210558Y358707D01*
X210699Y358725D01*
X210799Y358755D01*
X210902Y358776D01*
X211035Y358826D01*
X211172Y358868D01*
X211265Y358914D01*
X211363Y358951D01*
X211487Y359022D01*
X211615Y359085D01*
X211700Y359145D01*
X211790Y359197D01*
X211901Y359288D01*
X212017Y359370D01*
X212091Y359443D01*
X212172Y359510D01*
X212267Y359617D01*
X212368Y359717D01*
X212429Y359801D01*
X212499Y359880D01*
X212574Y360000D01*
X212658Y360116D01*
X212705Y360209D01*
X212761Y360297D01*
X212816Y360429D01*
X212881Y360556D01*
X212912Y360656D01*
X212953Y360752D01*
X212986Y360890D01*
X213029Y361026D01*
X213038Y361105D01*
X213068Y361232D01*
X213101Y361664D01*
X213105Y361704D01*
X213105Y365039D01*
X214497Y368400D01*
X217070Y370973D01*
X220431Y372365D01*
X224069Y372365D01*
X227430Y370973D01*
X230003Y368400D01*
X231395Y365039D01*
X231395Y346161D01*
X230003Y342800D01*
X227430Y340227D01*
X224069Y338835D01*
X220431Y338835D01*
X217070Y340227D01*
X214497Y342800D01*
X213105Y346161D01*
X213105Y349496D01*
X213094Y349638D01*
X213092Y349780D01*
X213074Y349883D01*
X213065Y349987D01*
X213031Y350126D01*
X213006Y350266D01*
X212972Y350365D01*
X212947Y350466D01*
X212890Y350598D01*
X212843Y350732D01*
X212793Y350823D01*
X212752Y350920D01*
X212675Y351040D01*
X212607Y351165D01*
X212543Y351248D01*
X212487Y351336D01*
X212392Y351442D01*
X212305Y351555D01*
X212228Y351626D01*
X212158Y351704D01*
X212047Y351793D01*
X211943Y351890D01*
X211856Y351948D01*
X211774Y352014D01*
X211651Y352084D01*
X211532Y352163D01*
X211436Y352206D01*
X211346Y352258D01*
X211212Y352307D01*
X211082Y352366D01*
X210981Y352393D01*
X210883Y352429D01*
X210743Y352457D01*
X210606Y352493D01*
X210501Y352504D01*
X210399Y352524D01*
X210257Y352528D01*
X210115Y352542D01*
X210010Y352536D01*
X209906Y352539D01*
X209765Y352521D01*
X209622Y352512D01*
X209520Y352488D01*
X209417Y352475D01*
X209280Y352434D01*
X209141Y352402D01*
X209045Y352363D01*
X208945Y352332D01*
X208816Y352270D01*
X208684Y352216D01*
X208595Y352161D01*
X208501Y352115D01*
X208385Y352033D01*
X208263Y351959D01*
X208184Y351890D01*
X208099Y351830D01*
X207998Y351730D01*
X207890Y351637D01*
X207822Y351557D01*
X207748Y351483D01*
X207664Y351368D01*
X207573Y351259D01*
X207535Y351190D01*
X207458Y351084D01*
X207262Y350697D01*
X207243Y350662D01*
X207142Y350420D01*
X204570Y347847D01*
X201209Y346455D01*
X182331Y346455D01*
X178970Y347847D01*
X176397Y350420D01*
X175005Y353781D01*
X175005Y355065D01*
X175002Y355103D01*
X175004Y355141D01*
X174982Y355349D01*
X174965Y355557D01*
X174956Y355594D01*
X174952Y355632D01*
X174897Y355833D01*
X174847Y356035D01*
X174832Y356070D01*
X174821Y356107D01*
X174734Y356297D01*
X174652Y356489D01*
X174632Y356521D01*
X174616Y356556D01*
X174499Y356729D01*
X174387Y356905D01*
X174362Y356933D01*
X174340Y356965D01*
X174197Y357117D01*
X174058Y357273D01*
X174029Y357297D01*
X174003Y357325D01*
X173836Y357452D01*
X173674Y357583D01*
X173642Y357601D01*
X173611Y357625D01*
X173427Y357724D01*
X173246Y357827D01*
X173210Y357840D01*
X173176Y357858D01*
X172979Y357926D01*
X172783Y357998D01*
X172746Y358006D01*
X172710Y358018D01*
X172503Y358053D01*
X172299Y358093D01*
X172261Y358094D01*
X172223Y358101D01*
X172014Y358102D01*
X171806Y358108D01*
X171768Y358103D01*
X171730Y358104D01*
X171523Y358071D01*
X171317Y358044D01*
X171280Y358033D01*
X171243Y358027D01*
X171044Y357962D01*
X170845Y357901D01*
X170810Y357885D01*
X170774Y357873D01*
X170589Y357776D01*
X170401Y357685D01*
X170370Y357662D01*
X170336Y357645D01*
X170264Y357587D01*
X169999Y357399D01*
X169877Y357278D01*
X169803Y357220D01*
X167612Y355028D01*
X163510Y353329D01*
X121620Y353329D01*
X121582Y353326D01*
X121544Y353328D01*
X121336Y353306D01*
X121128Y353289D01*
X121091Y353280D01*
X121053Y353276D01*
X120852Y353221D01*
X120649Y353171D01*
X120614Y353156D01*
X120578Y353145D01*
X120388Y353058D01*
X120196Y352976D01*
X120164Y352956D01*
X120129Y352940D01*
X119956Y352823D01*
X119780Y352711D01*
X119752Y352686D01*
X119720Y352664D01*
X119568Y352521D01*
X119412Y352382D01*
X119388Y352353D01*
X119360Y352327D01*
X119233Y352161D01*
X119102Y351998D01*
X119083Y351965D01*
X119060Y351935D01*
X118961Y351751D01*
X118858Y351570D01*
X118845Y351534D01*
X118827Y351500D01*
X118759Y351303D01*
X118687Y351107D01*
X118679Y351070D01*
X118667Y351034D01*
X118632Y350827D01*
X118592Y350623D01*
X118591Y350585D01*
X118584Y350547D01*
X118583Y350338D01*
X118577Y350130D01*
X118582Y350092D01*
X118581Y350054D01*
X118614Y349847D01*
X118641Y349641D01*
X118652Y349604D01*
X118658Y349567D01*
X118723Y349368D01*
X118783Y349169D01*
X118800Y349134D01*
X118812Y349098D01*
X118909Y348913D01*
X119000Y348725D01*
X119022Y348694D01*
X119040Y348660D01*
X119098Y348588D01*
X119286Y348323D01*
X119407Y348201D01*
X119465Y348127D01*
X124715Y342878D01*
X124715Y335302D01*
X119358Y329945D01*
X111782Y329945D01*
X106425Y335302D01*
X106425Y342878D01*
X111675Y348127D01*
X111699Y348156D01*
X111728Y348182D01*
X111859Y348344D01*
X111994Y348503D01*
X112014Y348536D01*
X112038Y348566D01*
X112141Y348747D01*
X112249Y348926D01*
X112263Y348961D01*
X112282Y348994D01*
X112355Y349190D01*
X112432Y349384D01*
X112440Y349421D01*
X112453Y349457D01*
X112493Y349662D01*
X112539Y349866D01*
X112541Y349904D01*
X112548Y349941D01*
X112555Y350149D01*
X112566Y350358D01*
X112562Y350396D01*
X112563Y350434D01*
X112536Y350641D01*
X112514Y350849D01*
X112504Y350885D01*
X112499Y350923D01*
X112439Y351123D01*
X112383Y351324D01*
X112368Y351359D01*
X112357Y351396D01*
X112265Y351583D01*
X112178Y351773D01*
X112156Y351805D01*
X112140Y351839D01*
X112019Y352008D01*
X111902Y352182D01*
X111876Y352210D01*
X111854Y352241D01*
X111708Y352389D01*
X111564Y352542D01*
X111534Y352565D01*
X111507Y352592D01*
X111339Y352715D01*
X111173Y352842D01*
X111140Y352860D01*
X111109Y352882D01*
X110923Y352976D01*
X110738Y353075D01*
X110702Y353088D01*
X110668Y353105D01*
X110469Y353167D01*
X110272Y353235D01*
X110234Y353241D01*
X110198Y353253D01*
X110105Y353263D01*
X109785Y353318D01*
X109613Y353319D01*
X109520Y353329D01*
X97657Y353329D01*
X97619Y353326D01*
X97581Y353328D01*
X97373Y353306D01*
X97165Y353289D01*
X97128Y353280D01*
X97090Y353276D01*
X96889Y353221D01*
X96686Y353171D01*
X96651Y353156D01*
X96615Y353145D01*
X96425Y353058D01*
X96233Y352976D01*
X96201Y352956D01*
X96166Y352940D01*
X95993Y352823D01*
X95817Y352711D01*
X95788Y352686D01*
X95757Y352664D01*
X95605Y352521D01*
X95449Y352382D01*
X95425Y352353D01*
X95397Y352327D01*
X95270Y352161D01*
X95139Y351998D01*
X95120Y351965D01*
X95097Y351935D01*
X94998Y351751D01*
X94895Y351570D01*
X94882Y351534D01*
X94864Y351500D01*
X94796Y351303D01*
X94723Y351107D01*
X94716Y351070D01*
X94704Y351034D01*
X94669Y350827D01*
X94629Y350623D01*
X94628Y350585D01*
X94621Y350547D01*
X94620Y350338D01*
X94613Y350130D01*
X94618Y350092D01*
X94618Y350054D01*
X94651Y349847D01*
X94678Y349641D01*
X94689Y349604D01*
X94695Y349567D01*
X94760Y349368D01*
X94820Y349169D01*
X94837Y349134D01*
X94849Y349098D01*
X94946Y348913D01*
X95037Y348725D01*
X95059Y348694D01*
X95077Y348660D01*
X95135Y348588D01*
X95323Y348323D01*
X95443Y348201D01*
X95502Y348127D01*
X100331Y343299D01*
X100331Y342137D01*
X90170Y342137D01*
X80009Y342137D01*
X80009Y343299D01*
X84838Y348127D01*
X84863Y348156D01*
X84891Y348182D01*
X85022Y348344D01*
X85157Y348503D01*
X85177Y348536D01*
X85201Y348566D01*
X85304Y348747D01*
X85412Y348926D01*
X85426Y348961D01*
X85445Y348994D01*
X85518Y349190D01*
X85595Y349384D01*
X85603Y349421D01*
X85617Y349457D01*
X85657Y349662D01*
X85702Y349866D01*
X85704Y349904D01*
X85711Y349941D01*
X85718Y350149D01*
X85729Y350358D01*
X85725Y350396D01*
X85727Y350434D01*
X85699Y350641D01*
X85677Y350849D01*
X85667Y350885D01*
X85662Y350923D01*
X85602Y351123D01*
X85547Y351324D01*
X85531Y351359D01*
X85520Y351396D01*
X85428Y351583D01*
X85341Y351773D01*
X85319Y351805D01*
X85303Y351839D01*
X85182Y352008D01*
X85065Y352182D01*
X85039Y352210D01*
X85017Y352241D01*
X84871Y352389D01*
X84728Y352542D01*
X84697Y352565D01*
X84671Y352592D01*
X84502Y352715D01*
X84336Y352842D01*
X84303Y352860D01*
X84272Y352882D01*
X84086Y352976D01*
X83902Y353075D01*
X83865Y353088D01*
X83831Y353105D01*
X83633Y353167D01*
X83435Y353235D01*
X83397Y353241D01*
X83361Y353253D01*
X83268Y353263D01*
X82948Y353318D01*
X82776Y353319D01*
X82683Y353329D01*
X-16272Y353329D01*
X-16348Y353323D01*
X-16424Y353325D01*
X-16593Y353303D01*
X-16764Y353289D01*
X-16838Y353271D01*
X-16913Y353261D01*
X-17077Y353212D01*
X-17243Y353171D01*
X-17312Y353141D01*
X-17386Y353119D01*
X-17539Y353043D01*
X-17696Y352976D01*
X-17760Y352935D01*
X-17829Y352902D01*
X-17968Y352803D01*
X-18112Y352711D01*
X-18169Y352660D01*
X-18231Y352616D01*
X-18352Y352496D01*
X-18480Y352382D01*
X-18528Y352323D01*
X-18582Y352269D01*
X-18683Y352131D01*
X-18790Y351998D01*
X-18827Y351932D01*
X-18872Y351871D01*
X-18949Y351718D01*
X-19034Y351570D01*
X-19060Y351498D01*
X-19095Y351430D01*
X-19146Y351267D01*
X-19205Y351107D01*
X-19220Y351032D01*
X-19243Y350960D01*
X-19255Y350855D01*
X-19300Y350623D01*
X-19307Y350387D01*
X-19319Y350282D01*
X-19319Y144480D01*
X-19316Y144442D01*
X-19318Y144404D01*
X-19296Y144196D01*
X-19279Y143988D01*
X-19270Y143951D01*
X-19266Y143913D01*
X-19211Y143712D01*
X-19161Y143509D01*
X-19146Y143475D01*
X-19135Y143438D01*
X-19048Y143248D01*
X-18966Y143056D01*
X-18946Y143024D01*
X-18930Y142989D01*
X-18813Y142816D01*
X-18701Y142640D01*
X-18676Y142612D01*
X-18654Y142580D01*
X-18511Y142428D01*
X-18372Y142272D01*
X-18343Y142248D01*
X-18316Y142220D01*
X-18151Y142093D01*
X-17988Y141962D01*
X-17955Y141943D01*
X-17925Y141920D01*
X-17741Y141821D01*
X-17560Y141718D01*
X-17524Y141705D01*
X-17490Y141687D01*
X-17293Y141619D01*
X-17097Y141547D01*
X-17060Y141539D01*
X-17024Y141527D01*
X-16817Y141492D01*
X-16613Y141452D01*
X-16575Y141451D01*
X-16537Y141444D01*
X-16328Y141443D01*
X-16120Y141437D01*
X-16082Y141442D01*
X-16044Y141441D01*
X-15837Y141474D01*
X-15631Y141501D01*
X-15594Y141512D01*
X-15557Y141518D01*
X-15358Y141583D01*
X-15159Y141643D01*
X-15124Y141660D01*
X-15088Y141672D01*
X-14903Y141769D01*
X-14715Y141860D01*
X-14684Y141882D01*
X-14650Y141900D01*
X-14578Y141958D01*
X-14313Y142146D01*
X-14191Y142267D01*
X-14117Y142325D01*
X-12800Y143643D01*
X-9439Y145035D01*
X9439Y145035D01*
X12800Y143643D01*
X15153Y141289D01*
X15182Y141265D01*
X15208Y141236D01*
X15370Y141105D01*
X15529Y140970D01*
X15562Y140950D01*
X15592Y140926D01*
X15773Y140823D01*
X15952Y140715D01*
X15987Y140701D01*
X16020Y140682D01*
X16216Y140609D01*
X16410Y140532D01*
X16447Y140524D01*
X16483Y140511D01*
X16688Y140471D01*
X16892Y140425D01*
X16930Y140423D01*
X16967Y140416D01*
X17175Y140409D01*
X17384Y140398D01*
X17422Y140402D01*
X17460Y140401D01*
X17667Y140428D01*
X17875Y140450D01*
X17911Y140460D01*
X17949Y140465D01*
X18149Y140525D01*
X18350Y140581D01*
X18385Y140596D01*
X18422Y140607D01*
X18609Y140699D01*
X18799Y140786D01*
X18830Y140808D01*
X18865Y140824D01*
X19035Y140945D01*
X19208Y141062D01*
X19236Y141088D01*
X19267Y141110D01*
X19415Y141256D01*
X19568Y141399D01*
X19591Y141430D01*
X19618Y141457D01*
X19741Y141625D01*
X19868Y141791D01*
X19886Y141824D01*
X19908Y141855D01*
X20002Y142041D01*
X20101Y142226D01*
X20114Y142262D01*
X20131Y142296D01*
X20193Y142495D01*
X20261Y142692D01*
X20267Y142730D01*
X20279Y142766D01*
X20289Y142859D01*
X20344Y143179D01*
X20345Y143351D01*
X20355Y143444D01*
X20355Y147880D01*
X22070Y154279D01*
X25382Y160016D01*
X30067Y164701D01*
X35804Y168013D01*
X42203Y169728D01*
X48829Y169728D01*
X55228Y168013D01*
X60965Y164701D01*
X65650Y160016D01*
X68962Y154279D01*
X70677Y147880D01*
X70677Y141254D01*
X68962Y134855D01*
X65650Y129118D01*
X60965Y124433D01*
X55228Y121121D01*
X48829Y119406D01*
X42203Y119406D01*
X35804Y121121D01*
X30067Y124433D01*
X25382Y129118D01*
X22260Y134527D01*
X22211Y134597D01*
X22170Y134672D01*
X22071Y134800D01*
X21979Y134933D01*
X21920Y134994D01*
X21867Y135062D01*
X21749Y135172D01*
X21637Y135288D01*
X21568Y135339D01*
X21506Y135397D01*
X21371Y135487D01*
X21242Y135583D01*
X21166Y135623D01*
X21095Y135670D01*
X20947Y135737D01*
X20804Y135811D01*
X20723Y135838D01*
X20645Y135873D01*
X20489Y135915D01*
X20336Y135965D01*
X20251Y135979D01*
X20168Y136001D01*
X20008Y136017D01*
X19848Y136042D01*
X19762Y136041D01*
X19677Y136050D01*
X19517Y136040D01*
X19355Y136039D01*
X19270Y136024D01*
X19185Y136019D01*
X19028Y135983D01*
X18869Y135956D01*
X18788Y135928D01*
X18704Y135909D01*
X18555Y135848D01*
X18402Y135796D01*
X18326Y135755D01*
X18247Y135723D01*
X18110Y135639D01*
X17967Y135563D01*
X17899Y135511D01*
X17826Y135466D01*
X17704Y135361D01*
X17576Y135262D01*
X17517Y135200D01*
X17452Y135144D01*
X17348Y135020D01*
X17238Y134903D01*
X17190Y134832D01*
X17135Y134766D01*
X17085Y134675D01*
X16963Y134493D01*
X16856Y134261D01*
X16805Y134169D01*
X15373Y130710D01*
X12800Y128137D01*
X9439Y126745D01*
X-9439Y126745D01*
X-12800Y128137D01*
X-14117Y129455D01*
X-14146Y129479D01*
X-14172Y129508D01*
X-14334Y129639D01*
X-14493Y129774D01*
X-14526Y129794D01*
X-14556Y129818D01*
X-14737Y129921D01*
X-14916Y130029D01*
X-14951Y130043D01*
X-14984Y130062D01*
X-15180Y130135D01*
X-15374Y130212D01*
X-15411Y130220D01*
X-15447Y130233D01*
X-15651Y130273D01*
X-15855Y130319D01*
X-15894Y130321D01*
X-15931Y130328D01*
X-16139Y130335D01*
X-16348Y130346D01*
X-16386Y130342D01*
X-16424Y130343D01*
X-16631Y130316D01*
X-16839Y130294D01*
X-16875Y130284D01*
X-16913Y130279D01*
X-17114Y130219D01*
X-17314Y130163D01*
X-17349Y130148D01*
X-17386Y130137D01*
X-17573Y130045D01*
X-17763Y129958D01*
X-17794Y129936D01*
X-17829Y129920D01*
X-17999Y129799D01*
X-18172Y129682D01*
X-18200Y129656D01*
X-18231Y129634D01*
X-18379Y129487D01*
X-18532Y129345D01*
X-18555Y129314D01*
X-18582Y129287D01*
X-18705Y129119D01*
X-18832Y128953D01*
X-18850Y128919D01*
X-18872Y128889D01*
X-18966Y128702D01*
X-19065Y128518D01*
X-19077Y128482D01*
X-19095Y128448D01*
X-19158Y128249D01*
X-19225Y128052D01*
X-19231Y128014D01*
X-19243Y127978D01*
X-19253Y127885D01*
X-19308Y127565D01*
X-19309Y127393D01*
X-19319Y127300D01*
X-19319Y120517D01*
X-19316Y120478D01*
X-19318Y120440D01*
X-19296Y120233D01*
X-19279Y120025D01*
X-19270Y119988D01*
X-19266Y119949D01*
X-19211Y119749D01*
X-19161Y119546D01*
X-19145Y119511D01*
X-19135Y119474D01*
X-19048Y119284D01*
X-18966Y119093D01*
X-18945Y119060D01*
X-18929Y119025D01*
X-18813Y118852D01*
X-18701Y118677D01*
X-18675Y118648D01*
X-18654Y118616D01*
X-18511Y118465D01*
X-18372Y118309D01*
X-18342Y118285D01*
X-18316Y118257D01*
X-18150Y118130D01*
X-17988Y117999D01*
X-17955Y117980D01*
X-17924Y117956D01*
X-17740Y117858D01*
X-17560Y117755D01*
X-17524Y117742D01*
X-17489Y117723D01*
X-17292Y117656D01*
X-17097Y117583D01*
X-17059Y117576D01*
X-17023Y117564D01*
X-16817Y117529D01*
X-16613Y117489D01*
X-16574Y117488D01*
X-16536Y117481D01*
X-16328Y117480D01*
X-16120Y117473D01*
X-16082Y117478D01*
X-16043Y117478D01*
X-15838Y117511D01*
X-15631Y117538D01*
X-15594Y117549D01*
X-15556Y117555D01*
X-15359Y117620D01*
X-15159Y117680D01*
X-15124Y117697D01*
X-15087Y117709D01*
X-14903Y117806D01*
X-14715Y117897D01*
X-14684Y117920D01*
X-14650Y117937D01*
X-14576Y117996D01*
X-14313Y118183D01*
X-14298Y118197D01*
X-12945Y119180D01*
X-11520Y119906D01*
X-9999Y120401D01*
X-8420Y120651D01*
X-3047Y120651D01*
X-3047Y110490D01*
X-3041Y110414D01*
X-3044Y110338D01*
X-3021Y110169D01*
X-3007Y109999D01*
X-2989Y109925D01*
X-2979Y109849D01*
X-2930Y109685D01*
X-2889Y109520D01*
X-2859Y109450D01*
X-2837Y109377D01*
X-2762Y109223D01*
X-2694Y109066D01*
X-2653Y109002D01*
X-2620Y108934D01*
X-2521Y108794D01*
X-2429Y108650D01*
X-2403Y108621D01*
X-2378Y108594D01*
X-2334Y108531D01*
X-2214Y108409D01*
X-2100Y108282D01*
X-2041Y108234D01*
X-1987Y108180D01*
X-1849Y108079D01*
X-1716Y107972D01*
X-1650Y107934D01*
X-1588Y107889D01*
X-1436Y107813D01*
X-1287Y107728D01*
X-1216Y107701D01*
X-1148Y107667D01*
X-985Y107616D01*
X-825Y107556D01*
X-750Y107542D01*
X-677Y107519D01*
X-573Y107507D01*
X-341Y107462D01*
X-105Y107454D01*
X0Y107443D01*
X17313Y107443D01*
X17036Y106590D01*
X16614Y105761D01*
X16594Y105712D01*
X16568Y105666D01*
X16500Y105484D01*
X16427Y105305D01*
X16415Y105253D01*
X16396Y105203D01*
X16359Y105013D01*
X16315Y104825D01*
X16312Y104771D01*
X16301Y104719D01*
X16295Y104526D01*
X16283Y104332D01*
X16288Y104279D01*
X16286Y104226D01*
X16311Y104034D01*
X16330Y103841D01*
X16343Y103790D01*
X16350Y103737D01*
X16406Y103551D01*
X16456Y103364D01*
X16477Y103316D01*
X16493Y103264D01*
X16578Y103090D01*
X16657Y102914D01*
X16686Y102869D01*
X16710Y102821D01*
X16822Y102664D01*
X16928Y102502D01*
X16964Y102463D01*
X16995Y102419D01*
X17132Y102281D01*
X17262Y102139D01*
X17304Y102106D01*
X17342Y102068D01*
X17498Y101954D01*
X17651Y101835D01*
X17698Y101809D01*
X17741Y101778D01*
X17913Y101690D01*
X18083Y101597D01*
X18134Y101579D01*
X18181Y101555D01*
X18366Y101497D01*
X18548Y101433D01*
X18601Y101423D01*
X18652Y101407D01*
X18754Y101396D01*
X19034Y101345D01*
X19230Y101342D01*
X19329Y101331D01*
X131801Y101331D01*
X131854Y101335D01*
G37*
G36*
X270119Y84631D02*
X270119Y84631D01*
X270157Y84628D01*
X270364Y84650D01*
X270573Y84667D01*
X270610Y84677D01*
X270648Y84681D01*
X270849Y84736D01*
X271052Y84786D01*
X271087Y84801D01*
X271123Y84811D01*
X271313Y84898D01*
X271505Y84981D01*
X271537Y85001D01*
X271572Y85017D01*
X271745Y85134D01*
X271921Y85246D01*
X271949Y85271D01*
X271981Y85292D01*
X272133Y85435D01*
X272289Y85574D01*
X272313Y85604D01*
X272341Y85630D01*
X272468Y85796D01*
X272599Y85958D01*
X272618Y85991D01*
X272641Y86022D01*
X272740Y86206D01*
X272843Y86387D01*
X272856Y86423D01*
X272874Y86456D01*
X272942Y86654D01*
X273014Y86850D01*
X273022Y86887D01*
X273034Y86923D01*
X273069Y87129D01*
X273109Y87334D01*
X273110Y87372D01*
X273117Y87410D01*
X273118Y87619D01*
X273124Y87827D01*
X273119Y87865D01*
X273120Y87903D01*
X273087Y88109D01*
X273060Y88316D01*
X273049Y88352D01*
X273043Y88390D01*
X272978Y88588D01*
X272918Y88788D01*
X272901Y88823D01*
X272889Y88859D01*
X272792Y89044D01*
X272701Y89231D01*
X272679Y89262D01*
X272661Y89296D01*
X272603Y89369D01*
X272415Y89634D01*
X272372Y89677D01*
X271553Y91654D01*
X271553Y93766D01*
X272361Y95716D01*
X273854Y97209D01*
X275804Y98017D01*
X278030Y98017D01*
X278143Y98026D01*
X278258Y98025D01*
X278389Y98046D01*
X278522Y98057D01*
X278632Y98084D01*
X278745Y98102D01*
X278871Y98143D01*
X279000Y98175D01*
X279105Y98220D01*
X279214Y98256D01*
X279332Y98318D01*
X279454Y98370D01*
X279550Y98431D01*
X279651Y98484D01*
X279725Y98543D01*
X279870Y98635D01*
X280112Y98851D01*
X280185Y98909D01*
X281555Y100279D01*
X281629Y100366D01*
X281710Y100447D01*
X281788Y100554D01*
X281874Y100655D01*
X281933Y100753D01*
X282000Y100846D01*
X282060Y100964D01*
X282129Y101078D01*
X282171Y101184D01*
X282223Y101286D01*
X282263Y101413D01*
X282312Y101536D01*
X282337Y101647D01*
X282371Y101756D01*
X282381Y101850D01*
X282419Y102018D01*
X282437Y102342D01*
X282447Y102434D01*
X282447Y105026D01*
X282444Y105064D01*
X282446Y105102D01*
X282424Y105310D01*
X282407Y105517D01*
X282398Y105554D01*
X282394Y105592D01*
X282339Y105793D01*
X282289Y105996D01*
X282274Y106031D01*
X282263Y106068D01*
X282177Y106257D01*
X282094Y106450D01*
X282074Y106482D01*
X282058Y106516D01*
X281941Y106690D01*
X281829Y106866D01*
X281804Y106894D01*
X281782Y106926D01*
X281639Y107078D01*
X281500Y107234D01*
X281471Y107258D01*
X281444Y107285D01*
X281279Y107412D01*
X281116Y107544D01*
X281083Y107562D01*
X281053Y107586D01*
X280869Y107684D01*
X280688Y107788D01*
X280652Y107801D01*
X280618Y107819D01*
X280421Y107886D01*
X280225Y107959D01*
X280188Y107966D01*
X280152Y107979D01*
X279945Y108014D01*
X279741Y108054D01*
X279703Y108055D01*
X279665Y108061D01*
X279456Y108063D01*
X279248Y108069D01*
X279210Y108064D01*
X279172Y108064D01*
X278965Y108032D01*
X278759Y108005D01*
X278722Y107994D01*
X278685Y107988D01*
X278486Y107922D01*
X278287Y107862D01*
X278252Y107845D01*
X278216Y107834D01*
X278031Y107737D01*
X277843Y107645D01*
X277812Y107623D01*
X277778Y107606D01*
X277706Y107548D01*
X277441Y107360D01*
X277319Y107239D01*
X277245Y107180D01*
X276056Y105991D01*
X274106Y105183D01*
X271994Y105183D01*
X270044Y105991D01*
X268551Y107484D01*
X267568Y109857D01*
X267459Y110070D01*
X267353Y110280D01*
X267348Y110287D01*
X267343Y110296D01*
X267203Y110486D01*
X267072Y110666D01*
X267111Y110707D01*
X267176Y110763D01*
X267280Y110887D01*
X267390Y111004D01*
X267438Y111076D01*
X267493Y111141D01*
X267543Y111232D01*
X267666Y111414D01*
X267772Y111646D01*
X267823Y111738D01*
X268551Y113496D01*
X269695Y114640D01*
X269769Y114727D01*
X269850Y114807D01*
X269928Y114914D01*
X270014Y115015D01*
X270073Y115113D01*
X270140Y115206D01*
X270200Y115324D01*
X270269Y115438D01*
X270311Y115544D01*
X270363Y115646D01*
X270403Y115773D01*
X270452Y115896D01*
X270476Y116007D01*
X270511Y116117D01*
X270521Y116210D01*
X270559Y116378D01*
X270577Y116702D01*
X270587Y116794D01*
X270587Y133806D01*
X270578Y133919D01*
X270579Y134034D01*
X270558Y134165D01*
X270547Y134297D01*
X270520Y134408D01*
X270502Y134521D01*
X270460Y134647D01*
X270429Y134776D01*
X270384Y134881D01*
X270348Y134990D01*
X270286Y135107D01*
X270234Y135230D01*
X270173Y135326D01*
X270120Y135427D01*
X270061Y135501D01*
X269969Y135646D01*
X269753Y135888D01*
X269695Y135960D01*
X268121Y137534D01*
X267313Y139484D01*
X267313Y141596D01*
X268121Y143546D01*
X269614Y145039D01*
X271564Y145847D01*
X273676Y145847D01*
X275626Y145039D01*
X277119Y143546D01*
X277927Y141596D01*
X277927Y140940D01*
X277941Y140760D01*
X277948Y140580D01*
X277961Y140515D01*
X277967Y140448D01*
X278010Y140273D01*
X278046Y140096D01*
X278069Y140034D01*
X278085Y139969D01*
X278157Y139804D01*
X278220Y139635D01*
X278254Y139577D01*
X278280Y139516D01*
X278377Y139364D01*
X278467Y139208D01*
X278509Y139156D01*
X278545Y139100D01*
X278665Y138966D01*
X278779Y138826D01*
X278829Y138782D01*
X278874Y138732D01*
X279014Y138619D01*
X279149Y138499D01*
X279206Y138464D01*
X279257Y138422D01*
X279414Y138333D01*
X279567Y138237D01*
X279629Y138211D01*
X279686Y138178D01*
X279855Y138115D01*
X280022Y138045D01*
X280086Y138030D01*
X280149Y138007D01*
X280326Y137972D01*
X280501Y137930D01*
X280568Y137925D01*
X280633Y137912D01*
X280813Y137906D01*
X280993Y137893D01*
X281060Y137899D01*
X281126Y137897D01*
X281305Y137920D01*
X281485Y137936D01*
X281535Y137950D01*
X281615Y137961D01*
X282087Y138103D01*
X282118Y138118D01*
X282140Y138125D01*
X283424Y138657D01*
X285536Y138657D01*
X285902Y138505D01*
X286074Y138450D01*
X286243Y138387D01*
X286308Y138374D01*
X286371Y138354D01*
X286550Y138327D01*
X286727Y138292D01*
X286793Y138290D01*
X286859Y138280D01*
X287040Y138282D01*
X287220Y138277D01*
X287286Y138286D01*
X287353Y138286D01*
X287530Y138318D01*
X287709Y138341D01*
X287773Y138361D01*
X287838Y138372D01*
X288008Y138432D01*
X288182Y138484D01*
X288241Y138513D01*
X288304Y138535D01*
X288463Y138621D01*
X288625Y138701D01*
X288679Y138739D01*
X288737Y138771D01*
X288880Y138882D01*
X289027Y138986D01*
X289074Y139033D01*
X289127Y139074D01*
X289250Y139206D01*
X289378Y139333D01*
X289417Y139387D01*
X289462Y139435D01*
X289562Y139586D01*
X289668Y139732D01*
X289698Y139791D01*
X289735Y139846D01*
X289809Y140011D01*
X289891Y140172D01*
X289911Y140236D01*
X289938Y140296D01*
X289985Y140470D01*
X290039Y140643D01*
X290045Y140695D01*
X290066Y140773D01*
X290115Y141264D01*
X290113Y141297D01*
X290115Y141320D01*
X290115Y153492D01*
X291008Y154385D01*
X300990Y154385D01*
X301066Y154391D01*
X301142Y154389D01*
X301311Y154411D01*
X301482Y154425D01*
X301556Y154443D01*
X301631Y154453D01*
X301795Y154502D01*
X301961Y154543D01*
X302030Y154573D01*
X302104Y154595D01*
X302257Y154671D01*
X302414Y154738D01*
X302478Y154779D01*
X302547Y154812D01*
X302686Y154911D01*
X302830Y155003D01*
X302887Y155054D01*
X302949Y155098D01*
X303070Y155218D01*
X303198Y155332D01*
X303246Y155391D01*
X303300Y155445D01*
X303401Y155583D01*
X303508Y155716D01*
X303545Y155782D01*
X303590Y155843D01*
X303667Y155996D01*
X303752Y156144D01*
X303778Y156216D01*
X303813Y156284D01*
X303864Y156447D01*
X303923Y156607D01*
X303938Y156682D01*
X303961Y156754D01*
X303973Y156859D01*
X304018Y157091D01*
X304025Y157327D01*
X304037Y157432D01*
X304037Y173900D01*
X304028Y174013D01*
X304029Y174128D01*
X304008Y174259D01*
X303997Y174391D01*
X303970Y174502D01*
X303952Y174615D01*
X303911Y174741D01*
X303879Y174870D01*
X303834Y174975D01*
X303798Y175084D01*
X303736Y175202D01*
X303684Y175324D01*
X303623Y175420D01*
X303570Y175521D01*
X303511Y175595D01*
X303419Y175740D01*
X303203Y175982D01*
X303145Y176054D01*
X288798Y190401D01*
X288712Y190475D01*
X288631Y190556D01*
X288524Y190634D01*
X288423Y190720D01*
X288325Y190779D01*
X288232Y190846D01*
X288114Y190906D01*
X288000Y190975D01*
X287894Y191017D01*
X287792Y191069D01*
X287665Y191109D01*
X287542Y191158D01*
X287431Y191183D01*
X287321Y191217D01*
X287228Y191227D01*
X287060Y191265D01*
X286736Y191283D01*
X286644Y191293D01*
X285915Y191293D01*
X283872Y192139D01*
X282309Y193702D01*
X281463Y195745D01*
X281463Y197955D01*
X282309Y199998D01*
X283872Y201561D01*
X285915Y202407D01*
X288125Y202407D01*
X290168Y201561D01*
X291731Y199998D01*
X292577Y197955D01*
X292577Y197226D01*
X292586Y197113D01*
X292585Y196998D01*
X292606Y196867D01*
X292617Y196735D01*
X292644Y196624D01*
X292662Y196511D01*
X292703Y196385D01*
X292735Y196256D01*
X292780Y196151D01*
X292816Y196042D01*
X292878Y195924D01*
X292930Y195802D01*
X292991Y195706D01*
X293044Y195605D01*
X293103Y195531D01*
X293195Y195386D01*
X293411Y195144D01*
X293469Y195072D01*
X304677Y183863D01*
X304706Y183839D01*
X304732Y183810D01*
X304894Y183679D01*
X305053Y183544D01*
X305086Y183524D01*
X305116Y183500D01*
X305296Y183398D01*
X305476Y183289D01*
X305511Y183275D01*
X305544Y183256D01*
X305740Y183184D01*
X305934Y183106D01*
X305971Y183098D01*
X306007Y183085D01*
X306212Y183045D01*
X306416Y183000D01*
X306454Y182997D01*
X306491Y182990D01*
X306699Y182984D01*
X306908Y182972D01*
X306946Y182976D01*
X306984Y182975D01*
X307191Y183002D01*
X307399Y183024D01*
X307435Y183034D01*
X307473Y183039D01*
X307673Y183100D01*
X307874Y183155D01*
X307909Y183171D01*
X307946Y183182D01*
X308133Y183273D01*
X308323Y183360D01*
X308355Y183382D01*
X308389Y183399D01*
X308558Y183519D01*
X308732Y183636D01*
X308760Y183662D01*
X308791Y183684D01*
X308939Y183831D01*
X309092Y183974D01*
X309115Y184004D01*
X309142Y184031D01*
X309265Y184199D01*
X309392Y184365D01*
X309410Y184399D01*
X309432Y184430D01*
X309526Y184616D01*
X309625Y184800D01*
X309638Y184836D01*
X309655Y184870D01*
X309717Y185069D01*
X309785Y185267D01*
X309791Y185304D01*
X309803Y185340D01*
X309813Y185433D01*
X309868Y185753D01*
X309869Y185925D01*
X309879Y186018D01*
X309879Y193791D01*
X311426Y197526D01*
X314284Y200384D01*
X315070Y200709D01*
X315230Y200792D01*
X315394Y200867D01*
X315449Y200904D01*
X315509Y200934D01*
X315654Y201042D01*
X315804Y201142D01*
X315852Y201188D01*
X315906Y201227D01*
X316032Y201357D01*
X316163Y201480D01*
X316204Y201533D01*
X316250Y201580D01*
X316354Y201728D01*
X316463Y201871D01*
X316495Y201930D01*
X316533Y201984D01*
X316611Y202147D01*
X316697Y202306D01*
X316718Y202369D01*
X316747Y202429D01*
X316798Y202602D01*
X316857Y202773D01*
X316868Y202838D01*
X316887Y202902D01*
X316909Y203081D01*
X316939Y203259D01*
X316940Y203326D01*
X316948Y203392D01*
X316941Y203572D01*
X316942Y203753D01*
X316932Y203818D01*
X316929Y203885D01*
X316894Y204062D01*
X316866Y204240D01*
X316845Y204303D01*
X316832Y204368D01*
X316768Y204537D01*
X316711Y204708D01*
X316681Y204767D01*
X316657Y204830D01*
X316567Y204986D01*
X316483Y205146D01*
X316451Y205187D01*
X316410Y205257D01*
X316098Y205639D01*
X314705Y209001D01*
X314705Y212639D01*
X316097Y216000D01*
X318670Y218573D01*
X322031Y219965D01*
X340909Y219965D01*
X344270Y218573D01*
X344317Y218525D01*
X344346Y218501D01*
X344372Y218472D01*
X344534Y218341D01*
X344693Y218206D01*
X344726Y218186D01*
X344756Y218162D01*
X344937Y218059D01*
X345116Y217951D01*
X345151Y217937D01*
X345184Y217918D01*
X345380Y217845D01*
X345574Y217768D01*
X345611Y217760D01*
X345647Y217747D01*
X345852Y217706D01*
X346055Y217661D01*
X346094Y217659D01*
X346131Y217652D01*
X346339Y217645D01*
X346548Y217634D01*
X346586Y217638D01*
X346624Y217637D01*
X346831Y217664D01*
X347039Y217686D01*
X347075Y217696D01*
X347113Y217701D01*
X347313Y217761D01*
X347514Y217817D01*
X347549Y217832D01*
X347586Y217843D01*
X347773Y217935D01*
X347963Y218022D01*
X347994Y218044D01*
X348029Y218060D01*
X348199Y218181D01*
X348372Y218298D01*
X348400Y218324D01*
X348431Y218346D01*
X348579Y218492D01*
X348732Y218635D01*
X348755Y218666D01*
X348782Y218693D01*
X348904Y218861D01*
X349032Y219027D01*
X349050Y219061D01*
X349072Y219091D01*
X349166Y219277D01*
X349265Y219462D01*
X349277Y219498D01*
X349295Y219532D01*
X349357Y219731D01*
X349425Y219928D01*
X349431Y219966D01*
X349443Y220002D01*
X349453Y220095D01*
X349508Y220415D01*
X349509Y220587D01*
X349519Y220680D01*
X349519Y226360D01*
X349516Y226398D01*
X349518Y226436D01*
X349496Y226644D01*
X349479Y226852D01*
X349470Y226889D01*
X349466Y226927D01*
X349411Y227128D01*
X349361Y227331D01*
X349346Y227366D01*
X349335Y227402D01*
X349248Y227592D01*
X349166Y227784D01*
X349146Y227816D01*
X349130Y227851D01*
X349013Y228024D01*
X348901Y228200D01*
X348876Y228228D01*
X348854Y228260D01*
X348711Y228412D01*
X348572Y228568D01*
X348543Y228592D01*
X348516Y228620D01*
X348351Y228747D01*
X348188Y228878D01*
X348155Y228897D01*
X348125Y228920D01*
X347941Y229019D01*
X347760Y229122D01*
X347724Y229135D01*
X347690Y229153D01*
X347493Y229221D01*
X347297Y229293D01*
X347260Y229301D01*
X347224Y229313D01*
X347018Y229348D01*
X346813Y229388D01*
X346775Y229389D01*
X346737Y229396D01*
X346528Y229397D01*
X346320Y229403D01*
X346282Y229398D01*
X346244Y229399D01*
X346038Y229366D01*
X345831Y229339D01*
X345794Y229328D01*
X345757Y229322D01*
X345558Y229257D01*
X345359Y229197D01*
X345324Y229180D01*
X345288Y229168D01*
X345102Y229071D01*
X344915Y228980D01*
X344884Y228958D01*
X344850Y228940D01*
X344778Y228882D01*
X344513Y228694D01*
X344391Y228573D01*
X344317Y228515D01*
X344270Y228467D01*
X340909Y227075D01*
X322031Y227075D01*
X318670Y228467D01*
X316097Y231040D01*
X314705Y234401D01*
X314705Y238039D01*
X316097Y241400D01*
X318670Y243973D01*
X322031Y245365D01*
X340909Y245365D01*
X344270Y243973D01*
X344317Y243925D01*
X344346Y243901D01*
X344372Y243872D01*
X344534Y243741D01*
X344693Y243606D01*
X344726Y243586D01*
X344756Y243562D01*
X344937Y243459D01*
X345116Y243351D01*
X345151Y243337D01*
X345184Y243318D01*
X345380Y243245D01*
X345574Y243168D01*
X345611Y243160D01*
X345647Y243147D01*
X345852Y243106D01*
X346055Y243061D01*
X346094Y243059D01*
X346131Y243052D01*
X346339Y243045D01*
X346548Y243034D01*
X346586Y243038D01*
X346624Y243037D01*
X346831Y243064D01*
X347039Y243086D01*
X347075Y243096D01*
X347113Y243101D01*
X347313Y243161D01*
X347514Y243217D01*
X347549Y243232D01*
X347586Y243243D01*
X347773Y243335D01*
X347963Y243422D01*
X347994Y243444D01*
X348029Y243460D01*
X348199Y243581D01*
X348372Y243698D01*
X348400Y243724D01*
X348431Y243746D01*
X348579Y243892D01*
X348732Y244035D01*
X348755Y244066D01*
X348782Y244093D01*
X348904Y244261D01*
X349032Y244427D01*
X349050Y244461D01*
X349072Y244491D01*
X349166Y244677D01*
X349265Y244862D01*
X349277Y244898D01*
X349295Y244932D01*
X349357Y245131D01*
X349425Y245328D01*
X349431Y245366D01*
X349443Y245402D01*
X349453Y245495D01*
X349508Y245815D01*
X349509Y245987D01*
X349519Y246080D01*
X349519Y251760D01*
X349516Y251798D01*
X349518Y251836D01*
X349496Y252044D01*
X349479Y252252D01*
X349470Y252289D01*
X349466Y252327D01*
X349411Y252528D01*
X349361Y252731D01*
X349346Y252766D01*
X349335Y252802D01*
X349248Y252992D01*
X349166Y253184D01*
X349146Y253216D01*
X349130Y253251D01*
X349013Y253424D01*
X348901Y253600D01*
X348876Y253628D01*
X348854Y253660D01*
X348711Y253812D01*
X348572Y253968D01*
X348543Y253992D01*
X348516Y254020D01*
X348351Y254147D01*
X348188Y254278D01*
X348155Y254297D01*
X348125Y254320D01*
X347941Y254419D01*
X347760Y254522D01*
X347724Y254535D01*
X347690Y254553D01*
X347493Y254621D01*
X347297Y254693D01*
X347260Y254701D01*
X347224Y254713D01*
X347018Y254748D01*
X346813Y254788D01*
X346775Y254789D01*
X346737Y254796D01*
X346528Y254797D01*
X346320Y254803D01*
X346282Y254798D01*
X346244Y254799D01*
X346038Y254766D01*
X345831Y254739D01*
X345794Y254728D01*
X345757Y254722D01*
X345558Y254657D01*
X345359Y254597D01*
X345324Y254580D01*
X345288Y254568D01*
X345102Y254471D01*
X344915Y254380D01*
X344884Y254358D01*
X344850Y254340D01*
X344778Y254282D01*
X344513Y254094D01*
X344391Y253973D01*
X344317Y253915D01*
X344270Y253867D01*
X340909Y252475D01*
X322031Y252475D01*
X318670Y253867D01*
X316097Y256440D01*
X315652Y257517D01*
X315569Y257677D01*
X315494Y257841D01*
X315457Y257896D01*
X315426Y257956D01*
X315319Y258101D01*
X315219Y258251D01*
X315173Y258299D01*
X315134Y258352D01*
X315004Y258479D01*
X314881Y258610D01*
X314828Y258650D01*
X314780Y258697D01*
X314632Y258801D01*
X314489Y258910D01*
X314431Y258942D01*
X314376Y258980D01*
X314214Y259058D01*
X314055Y259144D01*
X313992Y259165D01*
X313932Y259194D01*
X313758Y259245D01*
X313588Y259304D01*
X313522Y259315D01*
X313459Y259333D01*
X313280Y259356D01*
X313102Y259386D01*
X313035Y259387D01*
X312969Y259395D01*
X312789Y259388D01*
X312608Y259389D01*
X312542Y259379D01*
X312476Y259376D01*
X312299Y259341D01*
X312121Y259313D01*
X312058Y259292D01*
X311992Y259279D01*
X311824Y259215D01*
X311652Y259158D01*
X311593Y259128D01*
X311531Y259104D01*
X311375Y259014D01*
X311215Y258930D01*
X311174Y258898D01*
X311104Y258857D01*
X310722Y258545D01*
X310700Y258520D01*
X310681Y258505D01*
X309380Y257203D01*
X306781Y256127D01*
X306772Y256122D01*
X306763Y256119D01*
X306552Y256010D01*
X306342Y255902D01*
X306334Y255896D01*
X306326Y255892D01*
X306294Y255866D01*
X305945Y255609D01*
X305854Y255515D01*
X305792Y255466D01*
X300398Y250072D01*
X300392Y250064D01*
X300384Y250058D01*
X300232Y249877D01*
X300078Y249696D01*
X300073Y249687D01*
X300067Y249680D01*
X300048Y249645D01*
X299824Y249273D01*
X299775Y249152D01*
X299737Y249083D01*
X298953Y247190D01*
X272632Y220869D01*
X272626Y220862D01*
X272618Y220855D01*
X272465Y220673D01*
X272312Y220493D01*
X272307Y220485D01*
X272301Y220477D01*
X272282Y220442D01*
X272058Y220070D01*
X272009Y219949D01*
X271971Y219880D01*
X271911Y219734D01*
X270267Y218091D01*
X268120Y217201D01*
X240693Y217201D01*
X240655Y217198D01*
X240617Y217200D01*
X240410Y217178D01*
X240202Y217161D01*
X240165Y217152D01*
X240127Y217148D01*
X239926Y217093D01*
X239723Y217043D01*
X239688Y217028D01*
X239651Y217017D01*
X239461Y216930D01*
X239269Y216848D01*
X239237Y216828D01*
X239203Y216812D01*
X239029Y216695D01*
X238853Y216583D01*
X238825Y216558D01*
X238793Y216536D01*
X238641Y216393D01*
X238485Y216254D01*
X238461Y216225D01*
X238434Y216199D01*
X238307Y216033D01*
X238175Y215870D01*
X238157Y215837D01*
X238133Y215807D01*
X238035Y215623D01*
X237931Y215442D01*
X237918Y215406D01*
X237900Y215372D01*
X237832Y215175D01*
X237760Y214979D01*
X237753Y214942D01*
X237740Y214906D01*
X237705Y214699D01*
X237665Y214495D01*
X237664Y214457D01*
X237658Y214419D01*
X237656Y214210D01*
X237650Y214002D01*
X237655Y213964D01*
X237655Y213926D01*
X237687Y213719D01*
X237714Y213513D01*
X237725Y213476D01*
X237731Y213439D01*
X237796Y213240D01*
X237857Y213041D01*
X237874Y213006D01*
X237885Y212970D01*
X237982Y212785D01*
X238074Y212597D01*
X238096Y212566D01*
X238113Y212532D01*
X238171Y212460D01*
X238359Y212195D01*
X238480Y212073D01*
X238539Y211999D01*
X248493Y202045D01*
X248580Y201971D01*
X248660Y201890D01*
X248767Y201812D01*
X248869Y201726D01*
X248966Y201667D01*
X249059Y201600D01*
X249177Y201540D01*
X249291Y201471D01*
X249397Y201429D01*
X249499Y201377D01*
X249626Y201337D01*
X249749Y201288D01*
X249861Y201263D01*
X249970Y201229D01*
X250063Y201219D01*
X250231Y201181D01*
X250555Y201163D01*
X250647Y201153D01*
X259810Y201153D01*
X264653Y196310D01*
X264653Y182714D01*
X264662Y182600D01*
X264661Y182486D01*
X264682Y182355D01*
X264693Y182222D01*
X264720Y182112D01*
X264738Y181999D01*
X264779Y181872D01*
X264811Y181744D01*
X264856Y181639D01*
X264892Y181530D01*
X264923Y181471D01*
X264923Y179498D01*
X255447Y170022D01*
X255373Y169935D01*
X255291Y169855D01*
X255213Y169747D01*
X255127Y169646D01*
X255068Y169548D01*
X255001Y169456D01*
X254941Y169337D01*
X254872Y169223D01*
X254830Y169117D01*
X254779Y169015D01*
X254739Y168889D01*
X254689Y168765D01*
X254665Y168654D01*
X254630Y168545D01*
X254620Y168451D01*
X254583Y168284D01*
X254564Y167959D01*
X254554Y167867D01*
X254554Y121408D01*
X254568Y121238D01*
X254573Y121067D01*
X254588Y120992D01*
X254594Y120917D01*
X254635Y120751D01*
X254668Y120583D01*
X254694Y120512D01*
X254713Y120438D01*
X254780Y120281D01*
X254840Y120120D01*
X254877Y120054D01*
X254907Y119984D01*
X254999Y119840D01*
X255084Y119692D01*
X255132Y119632D01*
X255172Y119568D01*
X255286Y119441D01*
X255394Y119308D01*
X255450Y119257D01*
X255501Y119201D01*
X255634Y119093D01*
X255762Y118979D01*
X255826Y118938D01*
X255885Y118891D01*
X256033Y118806D01*
X256178Y118714D01*
X256233Y118692D01*
X256314Y118647D01*
X256776Y118475D01*
X256798Y118471D01*
X256813Y118465D01*
X258547Y118000D01*
X262369Y111381D01*
X262417Y111310D01*
X262458Y111235D01*
X262557Y111108D01*
X262649Y110975D01*
X262692Y110930D01*
X262652Y110898D01*
X262646Y110891D01*
X262639Y110885D01*
X262483Y110709D01*
X262324Y110530D01*
X262319Y110522D01*
X262312Y110515D01*
X262187Y110315D01*
X262059Y110114D01*
X262056Y110107D01*
X262050Y110098D01*
X261858Y109643D01*
X261834Y109541D01*
X261810Y109479D01*
X260374Y104122D01*
X253813Y100334D01*
X246496Y102295D01*
X242708Y108856D01*
X244669Y116173D01*
X248965Y118654D01*
X248981Y118665D01*
X248998Y118673D01*
X249183Y118804D01*
X249371Y118934D01*
X249385Y118947D01*
X249400Y118958D01*
X249562Y119119D01*
X249726Y119276D01*
X249738Y119292D01*
X249751Y119305D01*
X249885Y119489D01*
X250022Y119671D01*
X250030Y119688D01*
X250042Y119704D01*
X250144Y119906D01*
X250249Y120109D01*
X250255Y120127D01*
X250264Y120144D01*
X250332Y120362D01*
X250403Y120578D01*
X250406Y120596D01*
X250412Y120615D01*
X250420Y120680D01*
X250480Y121065D01*
X250479Y121209D01*
X250489Y121293D01*
X250489Y170728D01*
X250474Y170909D01*
X250467Y171089D01*
X250454Y171154D01*
X250449Y171220D01*
X250405Y171395D01*
X250369Y171572D01*
X250346Y171634D01*
X250330Y171699D01*
X250259Y171865D01*
X250195Y172034D01*
X250162Y172091D01*
X250135Y172152D01*
X250038Y172305D01*
X249948Y172461D01*
X249906Y172513D01*
X249870Y172568D01*
X249750Y172703D01*
X249636Y172843D01*
X249586Y172887D01*
X249542Y172936D01*
X249401Y173050D01*
X249266Y173169D01*
X249209Y173205D01*
X249158Y173246D01*
X249001Y173335D01*
X248848Y173432D01*
X248787Y173457D01*
X248729Y173490D01*
X248560Y173553D01*
X248393Y173623D01*
X248329Y173639D01*
X248266Y173662D01*
X248089Y173697D01*
X247914Y173739D01*
X247847Y173744D01*
X247782Y173757D01*
X247602Y173762D01*
X247422Y173776D01*
X247356Y173770D01*
X247289Y173772D01*
X247110Y173748D01*
X246931Y173733D01*
X246880Y173718D01*
X246800Y173708D01*
X246328Y173565D01*
X246298Y173550D01*
X246275Y173544D01*
X244057Y172625D01*
X241532Y172625D01*
X241418Y172616D01*
X241304Y172616D01*
X241173Y172596D01*
X241040Y172585D01*
X240929Y172558D01*
X240817Y172540D01*
X240690Y172498D01*
X240561Y172466D01*
X240457Y172421D01*
X240348Y172386D01*
X240230Y172324D01*
X240108Y172272D01*
X240012Y172211D01*
X239910Y172158D01*
X239837Y172099D01*
X239692Y172007D01*
X239450Y171790D01*
X239377Y171732D01*
X226445Y158801D01*
X226371Y158714D01*
X226290Y158633D01*
X226212Y158526D01*
X226126Y158425D01*
X226067Y158327D01*
X226000Y158234D01*
X225940Y158116D01*
X225871Y158002D01*
X225829Y157896D01*
X225777Y157794D01*
X225737Y157667D01*
X225688Y157544D01*
X225663Y157433D01*
X225629Y157324D01*
X225619Y157230D01*
X225581Y157062D01*
X225563Y156738D01*
X225553Y156646D01*
X225553Y129179D01*
X225567Y129009D01*
X225572Y128838D01*
X225587Y128763D01*
X225593Y128688D01*
X225634Y128521D01*
X225667Y128354D01*
X225693Y128282D01*
X225711Y128209D01*
X225779Y128051D01*
X225838Y127891D01*
X225876Y127825D01*
X225906Y127755D01*
X225998Y127611D01*
X226082Y127462D01*
X226130Y127403D01*
X226171Y127339D01*
X226285Y127212D01*
X226392Y127079D01*
X226449Y127028D01*
X226500Y126971D01*
X226633Y126864D01*
X226760Y126750D01*
X226824Y126709D01*
X226884Y126661D01*
X227032Y126577D01*
X227176Y126485D01*
X227232Y126463D01*
X227312Y126417D01*
X227775Y126246D01*
X227797Y126242D01*
X227811Y126236D01*
X234012Y124574D01*
X237800Y118013D01*
X235840Y110696D01*
X229279Y106908D01*
X221961Y108869D01*
X218173Y115430D01*
X220140Y122770D01*
X220182Y122799D01*
X220370Y122929D01*
X220383Y122943D01*
X220399Y122954D01*
X220561Y123114D01*
X220725Y123271D01*
X220736Y123287D01*
X220750Y123300D01*
X220883Y123483D01*
X221020Y123667D01*
X221029Y123684D01*
X221040Y123699D01*
X221142Y123901D01*
X221248Y124104D01*
X221254Y124122D01*
X221263Y124139D01*
X221331Y124357D01*
X221402Y124573D01*
X221405Y124592D01*
X221411Y124610D01*
X221418Y124675D01*
X221479Y125060D01*
X221478Y125204D01*
X221487Y125288D01*
X221487Y159592D01*
X236502Y174607D01*
X236576Y174694D01*
X236658Y174774D01*
X236736Y174882D01*
X236822Y174983D01*
X236881Y175081D01*
X236948Y175173D01*
X237008Y175292D01*
X237077Y175406D01*
X237119Y175512D01*
X237170Y175614D01*
X237210Y175740D01*
X237260Y175864D01*
X237284Y175975D01*
X237319Y176084D01*
X237329Y176178D01*
X237366Y176345D01*
X237385Y176670D01*
X237395Y176762D01*
X237395Y179287D01*
X238241Y181329D01*
X238988Y182076D01*
X239013Y182105D01*
X239041Y182131D01*
X239172Y182293D01*
X239307Y182452D01*
X239327Y182485D01*
X239351Y182515D01*
X239454Y182696D01*
X239562Y182875D01*
X239576Y182910D01*
X239595Y182943D01*
X239668Y183139D01*
X239745Y183333D01*
X239753Y183370D01*
X239767Y183406D01*
X239807Y183610D01*
X239852Y183815D01*
X239854Y183853D01*
X239861Y183890D01*
X239868Y184098D01*
X239880Y184307D01*
X239876Y184345D01*
X239877Y184383D01*
X239850Y184589D01*
X239827Y184798D01*
X239817Y184835D01*
X239812Y184872D01*
X239752Y185072D01*
X239697Y185273D01*
X239681Y185308D01*
X239670Y185345D01*
X239578Y185532D01*
X239491Y185722D01*
X239470Y185754D01*
X239453Y185788D01*
X239332Y185958D01*
X239216Y186131D01*
X239190Y186159D01*
X239167Y186190D01*
X239021Y186339D01*
X238878Y186491D01*
X238848Y186514D01*
X238821Y186541D01*
X238652Y186664D01*
X238486Y186791D01*
X238453Y186809D01*
X238422Y186831D01*
X238236Y186925D01*
X238052Y187024D01*
X238016Y187037D01*
X237982Y187054D01*
X237782Y187117D01*
X237585Y187184D01*
X237548Y187191D01*
X237511Y187202D01*
X237418Y187213D01*
X237099Y187267D01*
X236927Y187268D01*
X236833Y187278D01*
X232055Y187278D01*
X231942Y187269D01*
X231827Y187270D01*
X231696Y187249D01*
X231564Y187238D01*
X231453Y187211D01*
X231340Y187193D01*
X231214Y187152D01*
X231085Y187120D01*
X230980Y187075D01*
X230871Y187039D01*
X230753Y186978D01*
X230631Y186925D01*
X230535Y186864D01*
X230434Y186811D01*
X230360Y186752D01*
X230215Y186660D01*
X229973Y186444D01*
X229901Y186386D01*
X212932Y169417D01*
X197469Y169417D01*
X197431Y169414D01*
X197393Y169416D01*
X197185Y169394D01*
X196977Y169377D01*
X196940Y169368D01*
X196902Y169364D01*
X196701Y169309D01*
X196498Y169259D01*
X196463Y169244D01*
X196426Y169233D01*
X196237Y169146D01*
X196045Y169064D01*
X196013Y169044D01*
X195978Y169028D01*
X195804Y168911D01*
X195629Y168799D01*
X195601Y168774D01*
X195569Y168752D01*
X195416Y168609D01*
X195261Y168470D01*
X195237Y168441D01*
X195209Y168414D01*
X195082Y168249D01*
X194951Y168086D01*
X194932Y168053D01*
X194909Y168023D01*
X194810Y167839D01*
X194707Y167658D01*
X194694Y167622D01*
X194676Y167588D01*
X194608Y167391D01*
X194535Y167195D01*
X194528Y167158D01*
X194516Y167122D01*
X194481Y166916D01*
X194441Y166711D01*
X194440Y166673D01*
X194433Y166635D01*
X194432Y166426D01*
X194425Y166218D01*
X194430Y166180D01*
X194430Y166142D01*
X194463Y165936D01*
X194490Y165729D01*
X194501Y165692D01*
X194507Y165655D01*
X194572Y165457D01*
X194632Y165257D01*
X194649Y165222D01*
X194661Y165186D01*
X194758Y165001D01*
X194849Y164813D01*
X194871Y164782D01*
X194889Y164748D01*
X194947Y164675D01*
X195135Y164411D01*
X195256Y164289D01*
X195314Y164215D01*
X195645Y163885D01*
X197025Y160553D01*
X197025Y156947D01*
X195645Y153615D01*
X193095Y151065D01*
X189763Y149685D01*
X186157Y149685D01*
X182825Y151065D01*
X180275Y153615D01*
X178895Y156947D01*
X178895Y160553D01*
X180275Y163885D01*
X180606Y164215D01*
X180631Y164244D01*
X180659Y164270D01*
X180790Y164432D01*
X180925Y164591D01*
X180945Y164624D01*
X180969Y164654D01*
X181072Y164835D01*
X181180Y165014D01*
X181194Y165049D01*
X181213Y165082D01*
X181286Y165278D01*
X181363Y165472D01*
X181371Y165509D01*
X181385Y165545D01*
X181424Y165749D01*
X181470Y165953D01*
X181472Y165992D01*
X181479Y166029D01*
X181486Y166237D01*
X181497Y166446D01*
X181493Y166484D01*
X181495Y166522D01*
X181467Y166728D01*
X181445Y166937D01*
X181435Y166973D01*
X181430Y167011D01*
X181370Y167211D01*
X181315Y167412D01*
X181299Y167447D01*
X181288Y167484D01*
X181196Y167671D01*
X181109Y167861D01*
X181087Y167892D01*
X181071Y167927D01*
X180950Y168096D01*
X180833Y168270D01*
X180807Y168298D01*
X180785Y168329D01*
X180639Y168477D01*
X180496Y168630D01*
X180465Y168653D01*
X180439Y168680D01*
X180270Y168803D01*
X180104Y168930D01*
X180071Y168948D01*
X180040Y168970D01*
X179854Y169064D01*
X179670Y169163D01*
X179633Y169175D01*
X179599Y169193D01*
X179400Y169255D01*
X179203Y169323D01*
X179165Y169329D01*
X179129Y169341D01*
X179036Y169351D01*
X178716Y169406D01*
X178544Y169407D01*
X178451Y169417D01*
X169842Y169417D01*
X169662Y169403D01*
X169482Y169396D01*
X169417Y169383D01*
X169351Y169377D01*
X169175Y169334D01*
X168998Y169298D01*
X168936Y169275D01*
X168872Y169259D01*
X168706Y169187D01*
X168537Y169124D01*
X168479Y169090D01*
X168418Y169064D01*
X168266Y168967D01*
X168110Y168877D01*
X168058Y168835D01*
X168002Y168799D01*
X167868Y168679D01*
X167728Y168564D01*
X167684Y168515D01*
X167634Y168470D01*
X167521Y168330D01*
X167402Y168195D01*
X167366Y168138D01*
X167324Y168086D01*
X167235Y167930D01*
X167139Y167777D01*
X167113Y167715D01*
X167080Y167658D01*
X167018Y167488D01*
X166948Y167322D01*
X166932Y167258D01*
X166909Y167195D01*
X166874Y167018D01*
X166832Y166843D01*
X166827Y166776D01*
X166814Y166711D01*
X166809Y166530D01*
X166795Y166351D01*
X166801Y166284D01*
X166799Y166218D01*
X166822Y166039D01*
X166838Y165859D01*
X166853Y165809D01*
X166863Y165729D01*
X167006Y165257D01*
X167021Y165226D01*
X167027Y165204D01*
X167895Y163109D01*
X167895Y159471D01*
X166503Y156110D01*
X163930Y153537D01*
X160569Y152145D01*
X141854Y152145D01*
X141778Y152139D01*
X141702Y152141D01*
X141533Y152119D01*
X141362Y152105D01*
X141288Y152087D01*
X141213Y152077D01*
X141049Y152028D01*
X140883Y151987D01*
X140814Y151957D01*
X140740Y151935D01*
X140587Y151859D01*
X140430Y151792D01*
X140366Y151751D01*
X140297Y151718D01*
X140158Y151619D01*
X140014Y151527D01*
X139957Y151476D01*
X139895Y151432D01*
X139774Y151312D01*
X139646Y151198D01*
X139598Y151139D01*
X139544Y151085D01*
X139443Y150947D01*
X139336Y150814D01*
X139299Y150748D01*
X139254Y150687D01*
X139177Y150534D01*
X139092Y150386D01*
X139066Y150314D01*
X139031Y150246D01*
X138980Y150083D01*
X138921Y149923D01*
X138906Y149848D01*
X138883Y149776D01*
X138871Y149671D01*
X138826Y149439D01*
X138819Y149203D01*
X138807Y149098D01*
X138807Y148082D01*
X138813Y148006D01*
X138811Y147930D01*
X138833Y147761D01*
X138847Y147590D01*
X138865Y147516D01*
X138875Y147441D01*
X138924Y147277D01*
X138965Y147111D01*
X138995Y147042D01*
X139017Y146968D01*
X139093Y146815D01*
X139160Y146658D01*
X139201Y146594D01*
X139234Y146525D01*
X139333Y146386D01*
X139425Y146242D01*
X139476Y146185D01*
X139520Y146123D01*
X139640Y146002D01*
X139754Y145874D01*
X139813Y145826D01*
X139867Y145772D01*
X140005Y145671D01*
X140138Y145564D01*
X140204Y145527D01*
X140265Y145482D01*
X140418Y145405D01*
X140566Y145320D01*
X140638Y145294D01*
X140706Y145259D01*
X140869Y145208D01*
X141029Y145149D01*
X141104Y145134D01*
X141176Y145111D01*
X141281Y145099D01*
X141513Y145054D01*
X141749Y145047D01*
X141854Y145035D01*
X160569Y145035D01*
X163930Y143643D01*
X166503Y141070D01*
X167895Y137709D01*
X167895Y136270D01*
X167904Y136157D01*
X167903Y136042D01*
X167924Y135911D01*
X167935Y135779D01*
X167962Y135668D01*
X167980Y135555D01*
X168021Y135429D01*
X168053Y135300D01*
X168098Y135195D01*
X168134Y135086D01*
X168196Y134968D01*
X168248Y134846D01*
X168309Y134750D01*
X168362Y134649D01*
X168421Y134575D01*
X168513Y134430D01*
X168729Y134188D01*
X168787Y134116D01*
X172677Y130226D01*
X172706Y130201D01*
X172732Y130172D01*
X172894Y130041D01*
X173053Y129906D01*
X173086Y129886D01*
X173116Y129862D01*
X173296Y129760D01*
X173476Y129651D01*
X173511Y129637D01*
X173544Y129618D01*
X173740Y129546D01*
X173934Y129468D01*
X173971Y129460D01*
X174007Y129447D01*
X174212Y129407D01*
X174416Y129362D01*
X174454Y129359D01*
X174491Y129352D01*
X174699Y129346D01*
X174908Y129334D01*
X174946Y129338D01*
X174984Y129337D01*
X175191Y129364D01*
X175399Y129386D01*
X175435Y129396D01*
X175473Y129401D01*
X175673Y129462D01*
X175874Y129517D01*
X175909Y129533D01*
X175946Y129544D01*
X176133Y129635D01*
X176323Y129723D01*
X176355Y129744D01*
X176389Y129761D01*
X176559Y129881D01*
X176732Y129998D01*
X176760Y130024D01*
X176791Y130046D01*
X176940Y130193D01*
X177056Y130303D01*
X184913Y130303D01*
X184913Y122439D01*
X184782Y122322D01*
X184758Y122293D01*
X184731Y122267D01*
X184604Y122101D01*
X184472Y121938D01*
X184454Y121905D01*
X184430Y121875D01*
X184332Y121691D01*
X184228Y121510D01*
X184215Y121474D01*
X184197Y121440D01*
X184129Y121243D01*
X184057Y121047D01*
X184050Y121010D01*
X184037Y120974D01*
X184002Y120767D01*
X183962Y120563D01*
X183961Y120525D01*
X183955Y120487D01*
X183953Y120278D01*
X183947Y120070D01*
X183952Y120032D01*
X183952Y119994D01*
X183984Y119787D01*
X184011Y119581D01*
X184022Y119544D01*
X184028Y119507D01*
X184093Y119308D01*
X184154Y119109D01*
X184171Y119074D01*
X184182Y119038D01*
X184279Y118853D01*
X184371Y118665D01*
X184393Y118634D01*
X184410Y118600D01*
X184468Y118528D01*
X184656Y118263D01*
X184777Y118141D01*
X184836Y118067D01*
X184996Y117907D01*
X185083Y117833D01*
X185163Y117752D01*
X185270Y117674D01*
X185372Y117588D01*
X185469Y117529D01*
X185562Y117462D01*
X185680Y117402D01*
X185794Y117333D01*
X185900Y117291D01*
X186002Y117239D01*
X186129Y117199D01*
X186252Y117150D01*
X186363Y117125D01*
X186473Y117091D01*
X186566Y117081D01*
X186734Y117043D01*
X187058Y117025D01*
X187150Y117015D01*
X189763Y117015D01*
X193095Y115635D01*
X195645Y113085D01*
X197025Y109753D01*
X197025Y108410D01*
X197034Y108297D01*
X197033Y108182D01*
X197054Y108051D01*
X197065Y107919D01*
X197092Y107808D01*
X197110Y107695D01*
X197151Y107569D01*
X197183Y107440D01*
X197228Y107335D01*
X197264Y107226D01*
X197326Y107108D01*
X197378Y106986D01*
X197439Y106890D01*
X197492Y106789D01*
X197551Y106715D01*
X197643Y106570D01*
X197859Y106328D01*
X197917Y106256D01*
X205251Y98922D01*
X205338Y98848D01*
X205418Y98767D01*
X205525Y98689D01*
X205627Y98603D01*
X205724Y98544D01*
X205817Y98477D01*
X205935Y98417D01*
X206049Y98348D01*
X206155Y98306D01*
X206257Y98254D01*
X206384Y98214D01*
X206507Y98165D01*
X206618Y98140D01*
X206728Y98106D01*
X206821Y98096D01*
X206989Y98058D01*
X207313Y98040D01*
X207405Y98030D01*
X212427Y98030D01*
X212635Y98047D01*
X212844Y98058D01*
X212881Y98067D01*
X212919Y98070D01*
X213122Y98120D01*
X213325Y98165D01*
X213354Y98178D01*
X213397Y98188D01*
X213851Y98383D01*
X213909Y98420D01*
X213950Y98438D01*
X220121Y102000D01*
X227438Y100040D01*
X227719Y99553D01*
X227730Y99538D01*
X227738Y99520D01*
X227870Y99336D01*
X228000Y99148D01*
X228013Y99134D01*
X228024Y99118D01*
X228184Y98956D01*
X228342Y98792D01*
X228357Y98781D01*
X228371Y98767D01*
X228555Y98633D01*
X228737Y98497D01*
X228754Y98488D01*
X228769Y98477D01*
X228972Y98375D01*
X229175Y98269D01*
X229193Y98263D01*
X229210Y98254D01*
X229427Y98186D01*
X229643Y98115D01*
X229662Y98112D01*
X229680Y98106D01*
X229746Y98099D01*
X230131Y98038D01*
X230263Y98039D01*
X232433Y97140D01*
X236340Y93233D01*
X236470Y93123D01*
X236595Y93005D01*
X236658Y92963D01*
X236715Y92914D01*
X236862Y92826D01*
X237004Y92730D01*
X237073Y92698D01*
X237138Y92659D01*
X237297Y92596D01*
X237452Y92524D01*
X237526Y92504D01*
X237596Y92476D01*
X237763Y92439D01*
X237928Y92394D01*
X238004Y92386D01*
X238078Y92369D01*
X238249Y92360D01*
X238419Y92342D01*
X238494Y92346D01*
X238570Y92342D01*
X238741Y92360D01*
X238911Y92369D01*
X238985Y92386D01*
X239061Y92394D01*
X239226Y92439D01*
X239393Y92476D01*
X239447Y92500D01*
X239537Y92525D01*
X239985Y92730D01*
X240003Y92743D01*
X240018Y92749D01*
X244655Y95426D01*
X251973Y93466D01*
X256196Y86151D01*
X256207Y86135D01*
X256215Y86118D01*
X256347Y85933D01*
X256476Y85745D01*
X256490Y85731D01*
X256501Y85716D01*
X256660Y85554D01*
X256819Y85390D01*
X256834Y85378D01*
X256848Y85365D01*
X257031Y85231D01*
X257214Y85094D01*
X257231Y85086D01*
X257246Y85074D01*
X257449Y84972D01*
X257651Y84867D01*
X257670Y84861D01*
X257687Y84852D01*
X257904Y84784D01*
X258120Y84713D01*
X258139Y84710D01*
X258157Y84704D01*
X258222Y84696D01*
X258607Y84636D01*
X258751Y84637D01*
X258835Y84627D01*
X270081Y84627D01*
X270119Y84631D01*
G37*
G36*
X234796Y-11685D02*
X234796Y-11685D01*
X234976Y-11678D01*
X235041Y-11665D01*
X235107Y-11659D01*
X235283Y-11616D01*
X235459Y-11580D01*
X235521Y-11557D01*
X235586Y-11541D01*
X235752Y-11469D01*
X235921Y-11406D01*
X235978Y-11372D01*
X236039Y-11346D01*
X236192Y-11249D01*
X236348Y-11159D01*
X236399Y-11117D01*
X236455Y-11081D01*
X236590Y-10961D01*
X236730Y-10847D01*
X236774Y-10797D01*
X236823Y-10752D01*
X236937Y-10612D01*
X237056Y-10477D01*
X237091Y-10420D01*
X237133Y-10368D01*
X237223Y-10212D01*
X237319Y-10059D01*
X237344Y-9998D01*
X237377Y-9940D01*
X237440Y-9770D01*
X237510Y-9604D01*
X237526Y-9540D01*
X237549Y-9477D01*
X237583Y-9300D01*
X237626Y-9125D01*
X237631Y-9058D01*
X237644Y-8993D01*
X237649Y-8813D01*
X237663Y-8633D01*
X237657Y-8566D01*
X237659Y-8500D01*
X237635Y-8321D01*
X237620Y-8141D01*
X237605Y-8091D01*
X237594Y-8011D01*
X237452Y-7539D01*
X237437Y-7508D01*
X237431Y-7486D01*
X236219Y-4561D01*
X236219Y19801D01*
X237766Y23536D01*
X240624Y26394D01*
X244359Y27941D01*
X282936Y27941D01*
X282974Y27944D01*
X283012Y27942D01*
X283220Y27964D01*
X283428Y27981D01*
X283465Y27990D01*
X283503Y27994D01*
X283704Y28049D01*
X283907Y28099D01*
X283942Y28114D01*
X283979Y28125D01*
X284168Y28212D01*
X284360Y28294D01*
X284392Y28314D01*
X284427Y28330D01*
X284600Y28447D01*
X284776Y28559D01*
X284805Y28584D01*
X284836Y28606D01*
X284989Y28749D01*
X285144Y28888D01*
X285168Y28917D01*
X285196Y28943D01*
X285323Y29109D01*
X285454Y29272D01*
X285473Y29305D01*
X285496Y29335D01*
X285595Y29519D01*
X285698Y29700D01*
X285711Y29736D01*
X285729Y29770D01*
X285797Y29967D01*
X285870Y30163D01*
X285877Y30200D01*
X285889Y30236D01*
X285924Y30443D01*
X285964Y30647D01*
X285966Y30685D01*
X285972Y30723D01*
X285973Y30932D01*
X285980Y31140D01*
X285975Y31178D01*
X285975Y31216D01*
X285942Y31423D01*
X285915Y31629D01*
X285904Y31666D01*
X285898Y31703D01*
X285833Y31902D01*
X285773Y32101D01*
X285756Y32136D01*
X285744Y32172D01*
X285648Y32357D01*
X285556Y32545D01*
X285534Y32576D01*
X285516Y32610D01*
X285458Y32682D01*
X285270Y32947D01*
X285150Y33069D01*
X285091Y33143D01*
X283765Y34468D01*
X283765Y46812D01*
X284658Y47705D01*
X297002Y47705D01*
X297565Y47141D01*
X297623Y47092D01*
X297676Y47036D01*
X297811Y46932D01*
X297941Y46822D01*
X298007Y46782D01*
X298067Y46736D01*
X298217Y46655D01*
X298364Y46567D01*
X298435Y46539D01*
X298502Y46503D01*
X298663Y46447D01*
X298822Y46384D01*
X298896Y46367D01*
X298968Y46343D01*
X299137Y46314D01*
X299304Y46277D01*
X299380Y46273D01*
X299455Y46260D01*
X299626Y46259D01*
X299796Y46249D01*
X299872Y46258D01*
X299948Y46257D01*
X300117Y46284D01*
X300287Y46302D01*
X300360Y46322D01*
X300435Y46334D01*
X300598Y46387D01*
X300762Y46432D01*
X300832Y46464D01*
X300904Y46488D01*
X301055Y46567D01*
X301211Y46638D01*
X301274Y46681D01*
X301342Y46716D01*
X301424Y46781D01*
X301620Y46913D01*
X301792Y47075D01*
X301875Y47141D01*
X302438Y47705D01*
X314782Y47705D01*
X315675Y46812D01*
X315675Y34468D01*
X314349Y33143D01*
X314324Y33114D01*
X314296Y33088D01*
X314165Y32926D01*
X314030Y32767D01*
X314010Y32734D01*
X313986Y32704D01*
X313883Y32523D01*
X313775Y32344D01*
X313761Y32309D01*
X313742Y32276D01*
X313669Y32080D01*
X313592Y31886D01*
X313584Y31849D01*
X313570Y31813D01*
X313530Y31608D01*
X313485Y31404D01*
X313483Y31366D01*
X313476Y31329D01*
X313469Y31121D01*
X313457Y30912D01*
X313461Y30874D01*
X313460Y30836D01*
X313488Y30629D01*
X313510Y30421D01*
X313520Y30385D01*
X313525Y30347D01*
X313585Y30147D01*
X313640Y29946D01*
X313656Y29911D01*
X313667Y29874D01*
X313759Y29687D01*
X313846Y29497D01*
X313867Y29466D01*
X313884Y29431D01*
X314005Y29261D01*
X314121Y29088D01*
X314148Y29060D01*
X314170Y29029D01*
X314316Y28881D01*
X314459Y28728D01*
X314489Y28705D01*
X314516Y28678D01*
X314685Y28555D01*
X314851Y28428D01*
X314884Y28410D01*
X314915Y28388D01*
X315101Y28294D01*
X315285Y28195D01*
X315322Y28182D01*
X315355Y28165D01*
X315555Y28103D01*
X315752Y28035D01*
X315789Y28029D01*
X315826Y28017D01*
X315919Y28007D01*
X316238Y27952D01*
X316410Y27951D01*
X316504Y27941D01*
X346472Y27941D01*
X346548Y27947D01*
X346624Y27945D01*
X346793Y27967D01*
X346964Y27981D01*
X347038Y27999D01*
X347113Y28009D01*
X347277Y28058D01*
X347443Y28099D01*
X347512Y28129D01*
X347586Y28151D01*
X347739Y28227D01*
X347896Y28294D01*
X347960Y28335D01*
X348029Y28368D01*
X348168Y28467D01*
X348312Y28559D01*
X348369Y28610D01*
X348431Y28654D01*
X348552Y28774D01*
X348680Y28888D01*
X348728Y28947D01*
X348782Y29001D01*
X348883Y29139D01*
X348990Y29272D01*
X349027Y29338D01*
X349072Y29399D01*
X349149Y29552D01*
X349234Y29700D01*
X349260Y29772D01*
X349295Y29840D01*
X349346Y30003D01*
X349405Y30163D01*
X349420Y30238D01*
X349443Y30310D01*
X349455Y30415D01*
X349500Y30647D01*
X349507Y30883D01*
X349519Y30988D01*
X349519Y73325D01*
X349505Y73506D01*
X349498Y73686D01*
X349485Y73751D01*
X349479Y73817D01*
X349436Y73992D01*
X349400Y74169D01*
X349377Y74231D01*
X349361Y74296D01*
X349289Y74462D01*
X349226Y74631D01*
X349192Y74688D01*
X349166Y74749D01*
X349069Y74902D01*
X348979Y75058D01*
X348937Y75110D01*
X348901Y75165D01*
X348781Y75300D01*
X348666Y75440D01*
X348617Y75484D01*
X348572Y75533D01*
X348432Y75647D01*
X348297Y75766D01*
X348240Y75802D01*
X348188Y75843D01*
X348032Y75932D01*
X347879Y76029D01*
X347817Y76054D01*
X347760Y76087D01*
X347590Y76150D01*
X347424Y76220D01*
X347360Y76236D01*
X347297Y76259D01*
X347120Y76294D01*
X346945Y76336D01*
X346878Y76341D01*
X346813Y76354D01*
X346633Y76359D01*
X346453Y76373D01*
X346386Y76367D01*
X346320Y76369D01*
X346141Y76345D01*
X345961Y76330D01*
X345911Y76315D01*
X345831Y76305D01*
X345359Y76162D01*
X345328Y76147D01*
X345306Y76141D01*
X342381Y74929D01*
X321768Y74929D01*
X321730Y74926D01*
X321692Y74928D01*
X321484Y74906D01*
X321276Y74889D01*
X321239Y74880D01*
X321201Y74876D01*
X321000Y74821D01*
X320797Y74771D01*
X320762Y74756D01*
X320725Y74745D01*
X320535Y74658D01*
X320344Y74576D01*
X320312Y74556D01*
X320277Y74540D01*
X320103Y74423D01*
X319928Y74311D01*
X319899Y74286D01*
X319868Y74264D01*
X319716Y74121D01*
X319560Y73982D01*
X319536Y73953D01*
X319508Y73927D01*
X319381Y73761D01*
X319250Y73598D01*
X319231Y73565D01*
X319208Y73535D01*
X319109Y73351D01*
X319006Y73170D01*
X318993Y73134D01*
X318975Y73100D01*
X318907Y72903D01*
X318834Y72707D01*
X318827Y72670D01*
X318815Y72634D01*
X318779Y72427D01*
X318740Y72223D01*
X318738Y72185D01*
X318732Y72147D01*
X318731Y71938D01*
X318724Y71730D01*
X318729Y71692D01*
X318729Y71654D01*
X318761Y71447D01*
X318789Y71241D01*
X318800Y71204D01*
X318806Y71167D01*
X318871Y70968D01*
X318931Y70769D01*
X318948Y70734D01*
X318960Y70698D01*
X319056Y70513D01*
X319148Y70325D01*
X319170Y70294D01*
X319188Y70260D01*
X319246Y70188D01*
X319433Y69923D01*
X319554Y69801D01*
X319613Y69727D01*
X340620Y48720D01*
X341123Y47506D01*
X341123Y46458D01*
X341132Y46344D01*
X341131Y46230D01*
X341152Y46098D01*
X341163Y45966D01*
X341190Y45855D01*
X341208Y45742D01*
X341249Y45616D01*
X341281Y45487D01*
X341326Y45382D01*
X341362Y45274D01*
X341423Y45156D01*
X341476Y45034D01*
X341537Y44938D01*
X341590Y44836D01*
X341649Y44763D01*
X341741Y44618D01*
X341957Y44376D01*
X342015Y44303D01*
X342531Y43788D01*
X343377Y41745D01*
X343377Y39535D01*
X342531Y37492D01*
X340968Y35929D01*
X338925Y35083D01*
X336715Y35083D01*
X334672Y35929D01*
X333109Y37492D01*
X332263Y39535D01*
X332263Y41745D01*
X333239Y44100D01*
X333305Y44307D01*
X333376Y44514D01*
X333381Y44542D01*
X333390Y44569D01*
X333422Y44785D01*
X333459Y45001D01*
X333459Y45029D01*
X333463Y45057D01*
X333461Y45274D01*
X333462Y45494D01*
X333458Y45522D01*
X333457Y45550D01*
X333419Y45765D01*
X333385Y45981D01*
X333376Y46008D01*
X333372Y46036D01*
X333300Y46242D01*
X333231Y46450D01*
X333218Y46475D01*
X333209Y46502D01*
X333104Y46694D01*
X333003Y46887D01*
X332989Y46906D01*
X332973Y46935D01*
X332670Y47325D01*
X332611Y47380D01*
X332578Y47421D01*
X307949Y72049D01*
X307862Y72123D01*
X307782Y72205D01*
X307675Y72283D01*
X307573Y72369D01*
X307475Y72428D01*
X307383Y72495D01*
X307265Y72555D01*
X307151Y72624D01*
X307045Y72666D01*
X306943Y72717D01*
X306816Y72757D01*
X306693Y72807D01*
X306581Y72831D01*
X306472Y72866D01*
X306379Y72876D01*
X306211Y72913D01*
X305887Y72932D01*
X305794Y72942D01*
X251613Y72942D01*
X250238Y73512D01*
X250012Y73584D01*
X249786Y73659D01*
X249777Y73660D01*
X249768Y73663D01*
X249535Y73698D01*
X249299Y73735D01*
X249290Y73735D01*
X249280Y73737D01*
X249045Y73734D01*
X248963Y73733D01*
X248960Y73742D01*
X248949Y73798D01*
X248883Y73976D01*
X248823Y74157D01*
X248797Y74207D01*
X248777Y74261D01*
X248683Y74425D01*
X248595Y74594D01*
X248567Y74630D01*
X248533Y74689D01*
X248223Y75073D01*
X248189Y75103D01*
X248170Y75127D01*
X248011Y75263D01*
X247855Y75402D01*
X247823Y75422D01*
X247794Y75447D01*
X247614Y75555D01*
X247439Y75667D01*
X247410Y75678D01*
X247371Y75702D01*
X246913Y75885D01*
X246846Y75899D01*
X246804Y75916D01*
X239922Y77760D01*
X239641Y78247D01*
X239630Y78262D01*
X239622Y78280D01*
X239490Y78465D01*
X239360Y78653D01*
X239347Y78666D01*
X239336Y78682D01*
X239177Y78843D01*
X239018Y79008D01*
X239003Y79019D01*
X238989Y79033D01*
X238806Y79167D01*
X238623Y79303D01*
X238606Y79312D01*
X238591Y79323D01*
X238388Y79426D01*
X238185Y79531D01*
X238167Y79537D01*
X238150Y79546D01*
X237933Y79614D01*
X237717Y79685D01*
X237698Y79688D01*
X237680Y79694D01*
X237614Y79701D01*
X237229Y79762D01*
X237085Y79761D01*
X237002Y79770D01*
X234535Y79770D01*
X232387Y80660D01*
X229410Y83637D01*
X229280Y83748D01*
X229155Y83865D01*
X229092Y83907D01*
X229034Y83956D01*
X228888Y84045D01*
X228746Y84140D01*
X228677Y84172D01*
X228612Y84211D01*
X228453Y84274D01*
X228297Y84346D01*
X228224Y84366D01*
X228154Y84394D01*
X227987Y84431D01*
X227822Y84476D01*
X227746Y84484D01*
X227672Y84501D01*
X227501Y84510D01*
X227331Y84529D01*
X227255Y84524D01*
X227179Y84529D01*
X227009Y84510D01*
X226839Y84501D01*
X226764Y84484D01*
X226689Y84476D01*
X226524Y84431D01*
X226357Y84394D01*
X226302Y84370D01*
X226213Y84346D01*
X225765Y84140D01*
X225746Y84128D01*
X225732Y84121D01*
X222705Y82374D01*
X215387Y84334D01*
X215106Y84821D01*
X215095Y84837D01*
X215087Y84854D01*
X214956Y85039D01*
X214826Y85227D01*
X214813Y85240D01*
X214801Y85256D01*
X214642Y85417D01*
X214484Y85582D01*
X214468Y85593D01*
X214455Y85607D01*
X214271Y85741D01*
X214089Y85877D01*
X214071Y85886D01*
X214056Y85897D01*
X213854Y86000D01*
X213651Y86105D01*
X213633Y86111D01*
X213616Y86120D01*
X213398Y86188D01*
X213182Y86259D01*
X213163Y86262D01*
X213145Y86268D01*
X213080Y86275D01*
X212695Y86336D01*
X212551Y86335D01*
X212467Y86344D01*
X202561Y86344D01*
X200413Y87234D01*
X189654Y97993D01*
X189567Y98067D01*
X189487Y98148D01*
X189380Y98226D01*
X189278Y98312D01*
X189181Y98371D01*
X189088Y98438D01*
X188970Y98498D01*
X188856Y98567D01*
X188750Y98609D01*
X188648Y98661D01*
X188521Y98701D01*
X188398Y98750D01*
X188286Y98775D01*
X188177Y98809D01*
X188084Y98819D01*
X187916Y98857D01*
X187592Y98875D01*
X187500Y98885D01*
X186157Y98885D01*
X182825Y100265D01*
X180275Y102815D01*
X178895Y106147D01*
X178895Y106220D01*
X178886Y106333D01*
X178887Y106448D01*
X178866Y106579D01*
X178855Y106711D01*
X178828Y106822D01*
X178810Y106935D01*
X178769Y107061D01*
X178737Y107190D01*
X178692Y107295D01*
X178656Y107404D01*
X178594Y107522D01*
X178542Y107644D01*
X178481Y107740D01*
X178428Y107841D01*
X178369Y107915D01*
X178277Y108060D01*
X178061Y108302D01*
X178003Y108374D01*
X174113Y112264D01*
X174084Y112289D01*
X174058Y112318D01*
X173896Y112449D01*
X173737Y112584D01*
X173704Y112604D01*
X173674Y112628D01*
X173494Y112730D01*
X173314Y112839D01*
X173279Y112853D01*
X173246Y112872D01*
X173050Y112944D01*
X172856Y113022D01*
X172819Y113030D01*
X172783Y113043D01*
X172578Y113083D01*
X172374Y113128D01*
X172336Y113131D01*
X172299Y113138D01*
X172091Y113144D01*
X171882Y113156D01*
X171844Y113152D01*
X171806Y113153D01*
X171599Y113126D01*
X171391Y113104D01*
X171355Y113094D01*
X171317Y113089D01*
X171117Y113028D01*
X170916Y112973D01*
X170881Y112957D01*
X170844Y112946D01*
X170657Y112855D01*
X170467Y112767D01*
X170435Y112746D01*
X170401Y112729D01*
X170231Y112609D01*
X170058Y112492D01*
X170030Y112466D01*
X169999Y112444D01*
X169850Y112297D01*
X169698Y112154D01*
X169675Y112124D01*
X169648Y112097D01*
X169525Y111928D01*
X169398Y111763D01*
X169380Y111729D01*
X169358Y111698D01*
X169264Y111512D01*
X169165Y111328D01*
X169153Y111292D01*
X169135Y111258D01*
X169073Y111059D01*
X169005Y110861D01*
X168999Y110824D01*
X168987Y110787D01*
X168977Y110695D01*
X168922Y110375D01*
X168921Y110203D01*
X168911Y110110D01*
X168911Y109690D01*
X168661Y108111D01*
X168166Y106590D01*
X167440Y105165D01*
X167250Y104902D01*
X167152Y104741D01*
X167048Y104585D01*
X167023Y104531D01*
X166993Y104481D01*
X166922Y104307D01*
X166845Y104135D01*
X166830Y104078D01*
X166807Y104024D01*
X166766Y103841D01*
X166717Y103659D01*
X166711Y103600D01*
X166698Y103543D01*
X166687Y103355D01*
X166668Y103168D01*
X166672Y103109D01*
X166668Y103050D01*
X166687Y102863D01*
X166699Y102675D01*
X166712Y102618D01*
X166718Y102559D01*
X166767Y102378D01*
X166809Y102194D01*
X166831Y102140D01*
X166846Y102083D01*
X166924Y101911D01*
X166995Y101737D01*
X167025Y101687D01*
X167050Y101634D01*
X167154Y101477D01*
X167252Y101317D01*
X167290Y101272D01*
X167323Y101223D01*
X167451Y101085D01*
X167574Y100943D01*
X167619Y100905D01*
X167659Y100862D01*
X167808Y100747D01*
X167952Y100626D01*
X167993Y100603D01*
X168049Y100559D01*
X168482Y100324D01*
X168523Y100310D01*
X168549Y100296D01*
X170152Y99632D01*
X170993Y98790D01*
X170994Y98790D01*
X174562Y95222D01*
X176261Y91120D01*
X176261Y75250D01*
X174952Y72092D01*
X174885Y71883D01*
X174815Y71677D01*
X174810Y71649D01*
X174801Y71622D01*
X174769Y71407D01*
X174732Y71191D01*
X174732Y71162D01*
X174728Y71134D01*
X174730Y70916D01*
X174729Y70697D01*
X174733Y70669D01*
X174734Y70641D01*
X174772Y70426D01*
X174806Y70210D01*
X174815Y70183D01*
X174819Y70155D01*
X174891Y69950D01*
X174960Y69741D01*
X174973Y69716D01*
X174982Y69689D01*
X175087Y69498D01*
X175188Y69304D01*
X175202Y69285D01*
X175218Y69256D01*
X175521Y68867D01*
X175580Y68812D01*
X175613Y68771D01*
X175832Y68552D01*
X176451Y67058D01*
X176550Y66863D01*
X176646Y66667D01*
X176663Y66644D01*
X176676Y66619D01*
X176805Y66443D01*
X176932Y66265D01*
X176952Y66245D01*
X176969Y66222D01*
X177125Y66069D01*
X177278Y65914D01*
X177301Y65897D01*
X177322Y65877D01*
X177501Y65752D01*
X177677Y65624D01*
X177702Y65611D01*
X177726Y65594D01*
X177923Y65499D01*
X178118Y65401D01*
X178145Y65393D01*
X178170Y65380D01*
X178380Y65319D01*
X178588Y65253D01*
X178611Y65250D01*
X178644Y65241D01*
X179133Y65180D01*
X179213Y65183D01*
X179266Y65177D01*
X184213Y65177D01*
X190704Y62488D01*
X195672Y57520D01*
X198361Y51029D01*
X198361Y44003D01*
X195672Y37512D01*
X190704Y32544D01*
X184213Y29855D01*
X180578Y29855D01*
X180502Y29849D01*
X180426Y29851D01*
X180257Y29829D01*
X180086Y29815D01*
X180012Y29797D01*
X179937Y29787D01*
X179773Y29738D01*
X179607Y29697D01*
X179538Y29667D01*
X179464Y29645D01*
X179311Y29569D01*
X179154Y29502D01*
X179090Y29461D01*
X179021Y29428D01*
X178882Y29329D01*
X178738Y29237D01*
X178681Y29186D01*
X178619Y29142D01*
X178498Y29022D01*
X178370Y28908D01*
X178322Y28849D01*
X178268Y28795D01*
X178167Y28657D01*
X178060Y28524D01*
X178023Y28458D01*
X177978Y28397D01*
X177901Y28244D01*
X177816Y28096D01*
X177790Y28024D01*
X177755Y27956D01*
X177704Y27793D01*
X177645Y27633D01*
X177630Y27558D01*
X177607Y27486D01*
X177595Y27381D01*
X177550Y27149D01*
X177543Y26913D01*
X177531Y26808D01*
X177531Y-950D01*
X175811Y-5102D01*
X175699Y-5229D01*
X175684Y-5253D01*
X175666Y-5274D01*
X175553Y-5461D01*
X175437Y-5647D01*
X175426Y-5673D01*
X175411Y-5697D01*
X175330Y-5900D01*
X175245Y-6101D01*
X175238Y-6129D01*
X175228Y-6155D01*
X175181Y-6369D01*
X175129Y-6581D01*
X175127Y-6609D01*
X175121Y-6637D01*
X175109Y-6855D01*
X175093Y-7073D01*
X175095Y-7101D01*
X175093Y-7129D01*
X175117Y-7347D01*
X175136Y-7564D01*
X175142Y-7587D01*
X175146Y-7620D01*
X175276Y-8096D01*
X175310Y-8169D01*
X175324Y-8220D01*
X175987Y-9818D01*
X176086Y-10013D01*
X176182Y-10209D01*
X176199Y-10232D01*
X176212Y-10257D01*
X176342Y-10433D01*
X176468Y-10611D01*
X176488Y-10631D01*
X176505Y-10654D01*
X176661Y-10807D01*
X176814Y-10962D01*
X176837Y-10979D01*
X176858Y-10999D01*
X177037Y-11124D01*
X177213Y-11252D01*
X177239Y-11265D01*
X177262Y-11282D01*
X177459Y-11376D01*
X177654Y-11475D01*
X177681Y-11483D01*
X177706Y-11496D01*
X177916Y-11557D01*
X178124Y-11623D01*
X178148Y-11626D01*
X178180Y-11635D01*
X178669Y-11696D01*
X178749Y-11693D01*
X178802Y-11699D01*
X234615Y-11699D01*
X234796Y-11685D01*
G37*
%LPC*%
G36*
X42203Y288587D02*
X42203Y288587D01*
X35804Y290302D01*
X30067Y293614D01*
X25382Y298299D01*
X22070Y304036D01*
X20355Y310435D01*
X20355Y317061D01*
X22070Y323460D01*
X25382Y329197D01*
X30067Y333882D01*
X35804Y337194D01*
X42203Y338909D01*
X48829Y338909D01*
X55228Y337194D01*
X60965Y333882D01*
X65650Y329197D01*
X68962Y323460D01*
X70677Y317061D01*
X70677Y310435D01*
X68962Y304036D01*
X65650Y298299D01*
X60965Y293614D01*
X55228Y290302D01*
X48829Y288587D01*
X42203Y288587D01*
G37*
%LPD*%
G36*
X66787Y29593D02*
X66787Y29593D01*
X66853Y29590D01*
X67033Y29609D01*
X67213Y29620D01*
X67278Y29635D01*
X67344Y29642D01*
X67518Y29690D01*
X67694Y29730D01*
X67755Y29755D01*
X67819Y29772D01*
X67984Y29848D01*
X68151Y29916D01*
X68207Y29950D01*
X68268Y29978D01*
X68418Y30079D01*
X68572Y30173D01*
X68622Y30216D01*
X68677Y30254D01*
X68809Y30377D01*
X68945Y30495D01*
X68988Y30546D01*
X69037Y30591D01*
X69146Y30734D01*
X69263Y30873D01*
X69288Y30919D01*
X69337Y30983D01*
X69570Y31418D01*
X69581Y31449D01*
X69592Y31470D01*
X71809Y36820D01*
X77480Y42491D01*
X84890Y45561D01*
X92910Y45561D01*
X95663Y44420D01*
X95700Y44409D01*
X95734Y44392D01*
X95934Y44333D01*
X96133Y44269D01*
X96171Y44263D01*
X96207Y44253D01*
X96414Y44227D01*
X96621Y44195D01*
X96659Y44196D01*
X96697Y44191D01*
X96905Y44199D01*
X97114Y44202D01*
X97152Y44208D01*
X97190Y44210D01*
X97394Y44251D01*
X97600Y44287D01*
X97636Y44300D01*
X97673Y44307D01*
X97868Y44381D01*
X98066Y44450D01*
X98099Y44469D01*
X98135Y44482D01*
X98316Y44586D01*
X98499Y44686D01*
X98529Y44710D01*
X98562Y44729D01*
X98724Y44861D01*
X98888Y44989D01*
X98914Y45017D01*
X98944Y45041D01*
X99082Y45198D01*
X99224Y45351D01*
X99245Y45382D01*
X99270Y45411D01*
X99381Y45588D01*
X99497Y45762D01*
X99512Y45796D01*
X99533Y45829D01*
X99614Y46021D01*
X99700Y46211D01*
X99709Y46248D01*
X99724Y46283D01*
X99773Y46486D01*
X99827Y46688D01*
X99831Y46726D01*
X99840Y46763D01*
X99856Y46971D01*
X99876Y47179D01*
X99874Y47217D01*
X99877Y47255D01*
X99859Y47463D01*
X99846Y47671D01*
X99837Y47708D01*
X99834Y47746D01*
X99808Y47836D01*
X99736Y48152D01*
X99671Y48311D01*
X99645Y48402D01*
X98583Y50965D01*
X98583Y53175D01*
X99429Y55218D01*
X100992Y56781D01*
X103035Y57627D01*
X103764Y57627D01*
X103877Y57636D01*
X103992Y57635D01*
X104123Y57656D01*
X104255Y57667D01*
X104366Y57694D01*
X104479Y57712D01*
X104605Y57753D01*
X104734Y57785D01*
X104839Y57830D01*
X104948Y57866D01*
X105065Y57927D01*
X105188Y57980D01*
X105284Y58041D01*
X105385Y58094D01*
X105459Y58153D01*
X105604Y58245D01*
X105846Y58461D01*
X105918Y58519D01*
X107237Y59837D01*
X107261Y59866D01*
X107290Y59892D01*
X107421Y60054D01*
X107556Y60213D01*
X107576Y60246D01*
X107600Y60276D01*
X107703Y60457D01*
X107811Y60636D01*
X107825Y60671D01*
X107844Y60704D01*
X107916Y60900D01*
X107994Y61094D01*
X108002Y61131D01*
X108015Y61167D01*
X108055Y61371D01*
X108100Y61575D01*
X108103Y61614D01*
X108110Y61651D01*
X108116Y61859D01*
X108128Y62068D01*
X108124Y62106D01*
X108125Y62144D01*
X108098Y62350D01*
X108076Y62559D01*
X108066Y62595D01*
X108061Y62633D01*
X108000Y62833D01*
X107945Y63034D01*
X107929Y63069D01*
X107918Y63106D01*
X107826Y63293D01*
X107740Y63483D01*
X107718Y63514D01*
X107701Y63549D01*
X107581Y63719D01*
X107464Y63892D01*
X107438Y63920D01*
X107416Y63951D01*
X107269Y64099D01*
X107126Y64252D01*
X107096Y64275D01*
X107069Y64302D01*
X106901Y64425D01*
X106735Y64552D01*
X106701Y64570D01*
X106670Y64592D01*
X106484Y64686D01*
X106300Y64785D01*
X106264Y64797D01*
X106230Y64815D01*
X106030Y64878D01*
X105834Y64945D01*
X105796Y64951D01*
X105760Y64963D01*
X105667Y64973D01*
X105347Y65028D01*
X105175Y65029D01*
X105082Y65039D01*
X51038Y65039D01*
X50962Y65033D01*
X50886Y65035D01*
X50717Y65013D01*
X50546Y64999D01*
X50472Y64981D01*
X50397Y64971D01*
X50233Y64922D01*
X50067Y64881D01*
X49998Y64851D01*
X49924Y64829D01*
X49771Y64753D01*
X49614Y64686D01*
X49550Y64645D01*
X49481Y64612D01*
X49342Y64513D01*
X49198Y64421D01*
X49141Y64370D01*
X49079Y64326D01*
X48958Y64206D01*
X48830Y64092D01*
X48782Y64033D01*
X48728Y63979D01*
X48627Y63841D01*
X48520Y63708D01*
X48483Y63642D01*
X48438Y63581D01*
X48361Y63428D01*
X48276Y63280D01*
X48250Y63208D01*
X48215Y63140D01*
X48164Y62977D01*
X48105Y62817D01*
X48090Y62742D01*
X48067Y62670D01*
X48055Y62565D01*
X48010Y62333D01*
X48003Y62097D01*
X47991Y61992D01*
X47991Y36151D01*
X47994Y36113D01*
X47992Y36075D01*
X48014Y35867D01*
X48031Y35659D01*
X48040Y35622D01*
X48044Y35584D01*
X48099Y35383D01*
X48149Y35180D01*
X48164Y35145D01*
X48175Y35109D01*
X48262Y34919D01*
X48344Y34727D01*
X48364Y34695D01*
X48380Y34660D01*
X48497Y34487D01*
X48609Y34311D01*
X48634Y34283D01*
X48656Y34251D01*
X48799Y34099D01*
X48938Y33943D01*
X48967Y33919D01*
X48994Y33891D01*
X49159Y33764D01*
X49322Y33633D01*
X49355Y33614D01*
X49385Y33591D01*
X49569Y33492D01*
X49750Y33389D01*
X49786Y33376D01*
X49820Y33358D01*
X50017Y33290D01*
X50213Y33218D01*
X50250Y33210D01*
X50286Y33198D01*
X50492Y33163D01*
X50697Y33123D01*
X50735Y33122D01*
X50773Y33115D01*
X50982Y33114D01*
X51190Y33108D01*
X51228Y33113D01*
X51266Y33112D01*
X51472Y33145D01*
X51679Y33172D01*
X51716Y33183D01*
X51753Y33189D01*
X51951Y33254D01*
X52151Y33314D01*
X52186Y33331D01*
X52222Y33343D01*
X52407Y33440D01*
X52595Y33531D01*
X52626Y33553D01*
X52660Y33571D01*
X52733Y33629D01*
X52997Y33817D01*
X53086Y33905D01*
X61199Y33905D01*
X64622Y30481D01*
X64760Y30364D01*
X64892Y30242D01*
X64948Y30205D01*
X64998Y30162D01*
X65153Y30069D01*
X65303Y29969D01*
X65364Y29941D01*
X65421Y29907D01*
X65588Y29840D01*
X65753Y29766D01*
X65817Y29749D01*
X65879Y29724D01*
X66055Y29685D01*
X66229Y29638D01*
X66296Y29632D01*
X66361Y29617D01*
X66541Y29607D01*
X66720Y29589D01*
X66787Y29593D01*
G37*
G36*
X138916Y-11682D02*
X138916Y-11682D01*
X139134Y-11668D01*
X139161Y-11662D01*
X139190Y-11659D01*
X139402Y-11607D01*
X139615Y-11558D01*
X139641Y-11547D01*
X139669Y-11541D01*
X139870Y-11454D01*
X140072Y-11372D01*
X140096Y-11357D01*
X140122Y-11346D01*
X140306Y-11229D01*
X140493Y-11115D01*
X140514Y-11096D01*
X140538Y-11081D01*
X140701Y-10936D01*
X140866Y-10793D01*
X140885Y-10771D01*
X140906Y-10752D01*
X141043Y-10583D01*
X141184Y-10415D01*
X141195Y-10395D01*
X141216Y-10368D01*
X141460Y-9940D01*
X141488Y-9864D01*
X141513Y-9818D01*
X142467Y-7516D01*
X142502Y-7408D01*
X142546Y-7302D01*
X142577Y-7173D01*
X142618Y-7047D01*
X142635Y-6934D01*
X142662Y-6823D01*
X142672Y-6690D01*
X142692Y-6559D01*
X142690Y-6445D01*
X142699Y-6331D01*
X142687Y-6198D01*
X142686Y-6065D01*
X142666Y-5953D01*
X142656Y-5839D01*
X142630Y-5749D01*
X142600Y-5580D01*
X142493Y-5274D01*
X142467Y-5184D01*
X141957Y-3952D01*
X141857Y-3757D01*
X141761Y-3561D01*
X141745Y-3538D01*
X141732Y-3513D01*
X141601Y-3337D01*
X141475Y-3159D01*
X141456Y-3139D01*
X141439Y-3116D01*
X141282Y-2963D01*
X141129Y-2808D01*
X141106Y-2791D01*
X141085Y-2771D01*
X140907Y-2646D01*
X140730Y-2518D01*
X140705Y-2505D01*
X140681Y-2489D01*
X140485Y-2394D01*
X140290Y-2295D01*
X140262Y-2287D01*
X140237Y-2274D01*
X140028Y-2213D01*
X139819Y-2147D01*
X139796Y-2144D01*
X139764Y-2135D01*
X139274Y-2074D01*
X139194Y-2077D01*
X139141Y-2071D01*
X137777Y-2071D01*
X137777Y6820D01*
X137777Y15711D01*
X138192Y15711D01*
X138268Y15717D01*
X138344Y15715D01*
X138513Y15737D01*
X138684Y15751D01*
X138758Y15769D01*
X138833Y15779D01*
X138997Y15828D01*
X139163Y15869D01*
X139232Y15899D01*
X139306Y15921D01*
X139459Y15997D01*
X139616Y16064D01*
X139680Y16105D01*
X139749Y16138D01*
X139888Y16237D01*
X140032Y16329D01*
X140089Y16380D01*
X140151Y16424D01*
X140272Y16544D01*
X140400Y16658D01*
X140448Y16717D01*
X140502Y16771D01*
X140603Y16909D01*
X140710Y17042D01*
X140747Y17108D01*
X140792Y17169D01*
X140869Y17322D01*
X140954Y17470D01*
X140980Y17542D01*
X141015Y17610D01*
X141066Y17773D01*
X141125Y17933D01*
X141140Y18007D01*
X141163Y18080D01*
X141175Y18185D01*
X141220Y18417D01*
X141227Y18653D01*
X141239Y18758D01*
X141239Y35598D01*
X141233Y35674D01*
X141235Y35750D01*
X141213Y35919D01*
X141199Y36090D01*
X141181Y36164D01*
X141171Y36239D01*
X141122Y36403D01*
X141081Y36569D01*
X141051Y36638D01*
X141029Y36712D01*
X140953Y36865D01*
X140886Y37022D01*
X140845Y37086D01*
X140812Y37155D01*
X140713Y37294D01*
X140621Y37438D01*
X140570Y37495D01*
X140526Y37557D01*
X140406Y37678D01*
X140292Y37806D01*
X140233Y37854D01*
X140179Y37908D01*
X140041Y38009D01*
X139908Y38116D01*
X139842Y38153D01*
X139781Y38198D01*
X139628Y38275D01*
X139480Y38360D01*
X139408Y38386D01*
X139340Y38421D01*
X139177Y38472D01*
X139017Y38531D01*
X138942Y38546D01*
X138870Y38569D01*
X138765Y38581D01*
X138533Y38626D01*
X138297Y38633D01*
X138192Y38645D01*
X129098Y38645D01*
X128537Y39207D01*
X128364Y39354D01*
X128192Y39504D01*
X128175Y39514D01*
X128161Y39526D01*
X127966Y39644D01*
X127772Y39764D01*
X127755Y39771D01*
X127739Y39781D01*
X127527Y39865D01*
X127316Y39953D01*
X127298Y39957D01*
X127280Y39964D01*
X127057Y40013D01*
X126836Y40065D01*
X126817Y40067D01*
X126799Y40071D01*
X126570Y40084D01*
X126344Y40099D01*
X126325Y40097D01*
X126306Y40098D01*
X126078Y40074D01*
X125853Y40053D01*
X125835Y40048D01*
X125816Y40046D01*
X125595Y39986D01*
X125375Y39928D01*
X125358Y39920D01*
X125340Y39915D01*
X125134Y39821D01*
X124925Y39728D01*
X124909Y39718D01*
X124892Y39710D01*
X124703Y39583D01*
X124512Y39458D01*
X124498Y39445D01*
X124482Y39434D01*
X124316Y39278D01*
X124148Y39124D01*
X124139Y39112D01*
X124123Y39097D01*
X123822Y38705D01*
X123781Y38628D01*
X123290Y38137D01*
X122711Y37802D01*
X122065Y37629D01*
X119777Y37629D01*
X119777Y46520D01*
X119771Y46596D01*
X119774Y46672D01*
X119751Y46841D01*
X119737Y47011D01*
X119719Y47085D01*
X119709Y47161D01*
X119660Y47325D01*
X119619Y47490D01*
X119589Y47560D01*
X119567Y47633D01*
X119492Y47787D01*
X119424Y47944D01*
X119383Y48008D01*
X119350Y48076D01*
X119251Y48216D01*
X119159Y48360D01*
X119108Y48416D01*
X119064Y48479D01*
X118944Y48600D01*
X118830Y48728D01*
X118771Y48775D01*
X118718Y48830D01*
X118579Y48930D01*
X118447Y49037D01*
X118380Y49075D01*
X118319Y49120D01*
X118166Y49197D01*
X118018Y49281D01*
X117946Y49308D01*
X117878Y49342D01*
X117716Y49394D01*
X117555Y49453D01*
X117481Y49468D01*
X117408Y49491D01*
X117303Y49502D01*
X117071Y49548D01*
X116835Y49555D01*
X116730Y49567D01*
X116654Y49561D01*
X116578Y49563D01*
X116408Y49541D01*
X116238Y49527D01*
X116164Y49509D01*
X116089Y49499D01*
X115925Y49449D01*
X115759Y49408D01*
X115689Y49378D01*
X115616Y49356D01*
X115463Y49281D01*
X115306Y49214D01*
X115242Y49173D01*
X115173Y49139D01*
X115034Y49040D01*
X114890Y48949D01*
X114833Y48898D01*
X114771Y48854D01*
X114649Y48734D01*
X114522Y48620D01*
X114474Y48561D01*
X114420Y48507D01*
X114319Y48369D01*
X114212Y48236D01*
X114174Y48170D01*
X114129Y48108D01*
X114053Y47956D01*
X113968Y47807D01*
X113941Y47736D01*
X113907Y47668D01*
X113856Y47505D01*
X113796Y47345D01*
X113782Y47270D01*
X113759Y47197D01*
X113747Y47093D01*
X113702Y46861D01*
X113694Y46625D01*
X113683Y46520D01*
X113683Y37629D01*
X111396Y37629D01*
X110908Y37760D01*
X110824Y37775D01*
X110742Y37799D01*
X110582Y37819D01*
X110423Y37848D01*
X110338Y37850D01*
X110253Y37861D01*
X110092Y37855D01*
X109930Y37858D01*
X109845Y37845D01*
X109760Y37842D01*
X109602Y37810D01*
X109442Y37787D01*
X109360Y37761D01*
X109276Y37744D01*
X109125Y37687D01*
X108971Y37639D01*
X108895Y37600D01*
X108815Y37570D01*
X108675Y37489D01*
X108531Y37417D01*
X108461Y37366D01*
X108387Y37323D01*
X108262Y37221D01*
X108132Y37126D01*
X108072Y37065D01*
X108006Y37011D01*
X107899Y36890D01*
X107785Y36775D01*
X107736Y36705D01*
X107679Y36641D01*
X107593Y36504D01*
X107500Y36373D01*
X107462Y36296D01*
X107417Y36223D01*
X107354Y36074D01*
X107283Y35929D01*
X107258Y35848D01*
X107225Y35769D01*
X107187Y35611D01*
X107141Y35457D01*
X107130Y35372D01*
X107109Y35289D01*
X107097Y35128D01*
X107076Y34968D01*
X107079Y34882D01*
X107073Y34797D01*
X107087Y34636D01*
X107092Y34475D01*
X107108Y34391D01*
X107116Y34306D01*
X107144Y34206D01*
X107186Y33991D01*
X107275Y33752D01*
X107304Y33650D01*
X109061Y29410D01*
X109061Y21390D01*
X108033Y18908D01*
X107978Y18737D01*
X107915Y18567D01*
X107902Y18502D01*
X107882Y18439D01*
X107855Y18260D01*
X107820Y18083D01*
X107818Y18017D01*
X107808Y17951D01*
X107810Y17770D01*
X107805Y17590D01*
X107813Y17524D01*
X107814Y17457D01*
X107845Y17280D01*
X107869Y17101D01*
X107888Y17037D01*
X107900Y16972D01*
X107959Y16802D01*
X108012Y16628D01*
X108041Y16569D01*
X108063Y16506D01*
X108149Y16348D01*
X108228Y16185D01*
X108267Y16131D01*
X108299Y16073D01*
X108409Y15930D01*
X108514Y15783D01*
X108561Y15736D01*
X108601Y15683D01*
X108734Y15560D01*
X108861Y15432D01*
X108914Y15393D01*
X108963Y15348D01*
X109114Y15248D01*
X109259Y15142D01*
X109319Y15112D01*
X109374Y15075D01*
X109539Y15001D01*
X109700Y14919D01*
X109763Y14899D01*
X109824Y14872D01*
X109998Y14825D01*
X110170Y14771D01*
X110223Y14765D01*
X110300Y14744D01*
X110791Y14695D01*
X110825Y14697D01*
X110848Y14695D01*
X122262Y14695D01*
X122886Y14070D01*
X123059Y13923D01*
X123232Y13773D01*
X123248Y13763D01*
X123262Y13750D01*
X123456Y13634D01*
X123651Y13513D01*
X123669Y13506D01*
X123685Y13496D01*
X123896Y13412D01*
X124107Y13324D01*
X124125Y13320D01*
X124143Y13313D01*
X124365Y13263D01*
X124587Y13211D01*
X124606Y13210D01*
X124625Y13206D01*
X124853Y13193D01*
X125080Y13178D01*
X125098Y13179D01*
X125117Y13178D01*
X125345Y13203D01*
X125571Y13224D01*
X125589Y13228D01*
X125608Y13230D01*
X125828Y13291D01*
X126048Y13349D01*
X126065Y13356D01*
X126083Y13361D01*
X126290Y13456D01*
X126499Y13549D01*
X126515Y13559D01*
X126532Y13567D01*
X126721Y13694D01*
X126912Y13819D01*
X126926Y13832D01*
X126941Y13842D01*
X127107Y13998D01*
X127275Y14152D01*
X127285Y14165D01*
X127301Y14180D01*
X127601Y14571D01*
X127645Y14653D01*
X127680Y14701D01*
X127697Y14730D01*
X128170Y15203D01*
X128749Y15538D01*
X129395Y15711D01*
X131683Y15711D01*
X131683Y6820D01*
X131683Y-2071D01*
X129395Y-2071D01*
X128749Y-1898D01*
X128170Y-1563D01*
X127697Y-1090D01*
X127680Y-1061D01*
X127551Y-874D01*
X127423Y-685D01*
X127411Y-671D01*
X127400Y-655D01*
X127241Y-490D01*
X127086Y-325D01*
X127071Y-314D01*
X127058Y-300D01*
X126874Y-162D01*
X126694Y-25D01*
X126678Y-16D01*
X126662Y-4D01*
X126460Y101D01*
X126259Y209D01*
X126242Y215D01*
X126225Y223D01*
X126008Y295D01*
X125793Y369D01*
X125774Y372D01*
X125756Y378D01*
X125531Y413D01*
X125306Y451D01*
X125287Y451D01*
X125269Y454D01*
X125042Y453D01*
X124813Y454D01*
X124794Y451D01*
X124776Y451D01*
X124552Y413D01*
X124326Y378D01*
X124308Y372D01*
X124289Y368D01*
X124073Y294D01*
X123857Y223D01*
X123840Y215D01*
X123823Y208D01*
X123622Y101D01*
X123420Y-5D01*
X123407Y-14D01*
X123388Y-25D01*
X122996Y-325D01*
X122933Y-393D01*
X122886Y-430D01*
X122262Y-1055D01*
X114688Y-1055D01*
X114575Y-1064D01*
X114460Y-1063D01*
X114329Y-1084D01*
X114197Y-1095D01*
X114086Y-1122D01*
X113973Y-1140D01*
X113847Y-1181D01*
X113718Y-1213D01*
X113613Y-1258D01*
X113504Y-1294D01*
X113386Y-1356D01*
X113264Y-1408D01*
X113168Y-1469D01*
X113067Y-1522D01*
X112993Y-1581D01*
X112848Y-1673D01*
X112606Y-1889D01*
X112534Y-1947D01*
X111769Y-2712D01*
X111768Y-2712D01*
X110411Y-4070D01*
X108901Y-4695D01*
X108892Y-4700D01*
X108883Y-4703D01*
X108674Y-4812D01*
X108462Y-4920D01*
X108454Y-4926D01*
X108446Y-4931D01*
X108414Y-4956D01*
X108065Y-5213D01*
X107974Y-5307D01*
X107913Y-5356D01*
X107218Y-6051D01*
X107197Y-6062D01*
X107082Y-6146D01*
X106961Y-6223D01*
X106884Y-6292D01*
X106800Y-6354D01*
X106700Y-6457D01*
X106594Y-6552D01*
X106528Y-6633D01*
X106455Y-6708D01*
X106373Y-6825D01*
X106284Y-6936D01*
X106232Y-7026D01*
X106172Y-7112D01*
X106110Y-7240D01*
X106040Y-7364D01*
X106003Y-7462D01*
X105958Y-7556D01*
X105918Y-7693D01*
X105868Y-7827D01*
X105848Y-7929D01*
X105819Y-8029D01*
X105801Y-8171D01*
X105773Y-8311D01*
X105770Y-8415D01*
X105757Y-8519D01*
X105762Y-8662D01*
X105758Y-8804D01*
X105772Y-8907D01*
X105776Y-9012D01*
X105804Y-9152D01*
X105822Y-9293D01*
X105853Y-9393D01*
X105873Y-9495D01*
X105924Y-9629D01*
X105965Y-9766D01*
X106011Y-9859D01*
X106048Y-9957D01*
X106119Y-10080D01*
X106182Y-10209D01*
X106242Y-10294D01*
X106294Y-10384D01*
X106385Y-10494D01*
X106467Y-10611D01*
X106541Y-10685D01*
X106607Y-10766D01*
X106714Y-10860D01*
X106814Y-10962D01*
X106898Y-11023D01*
X106977Y-11092D01*
X107097Y-11168D01*
X107213Y-11252D01*
X107306Y-11299D01*
X107394Y-11355D01*
X107526Y-11410D01*
X107653Y-11475D01*
X107753Y-11506D01*
X107849Y-11547D01*
X107988Y-11580D01*
X108124Y-11623D01*
X108202Y-11632D01*
X108328Y-11662D01*
X108762Y-11695D01*
X108801Y-11699D01*
X138698Y-11699D01*
X138916Y-11682D01*
G37*
%LPC*%
G36*
X245831Y338835D02*
X245831Y338835D01*
X242470Y340227D01*
X239897Y342800D01*
X238505Y346161D01*
X238505Y365039D01*
X239897Y368400D01*
X242470Y370973D01*
X245831Y372365D01*
X249469Y372365D01*
X252830Y370973D01*
X255403Y368400D01*
X256795Y365039D01*
X256795Y346161D01*
X255403Y342800D01*
X252830Y340227D01*
X249469Y338835D01*
X245831Y338835D01*
G37*
%LPD*%
G36*
X135558Y181117D02*
X135558Y181117D01*
X135738Y181124D01*
X135803Y181137D01*
X135870Y181143D01*
X136045Y181186D01*
X136222Y181222D01*
X136284Y181245D01*
X136348Y181261D01*
X136514Y181333D01*
X136683Y181396D01*
X136741Y181430D01*
X136802Y181456D01*
X136954Y181553D01*
X137110Y181643D01*
X137162Y181685D01*
X137218Y181721D01*
X137352Y181841D01*
X137492Y181956D01*
X137536Y182005D01*
X137586Y182050D01*
X137699Y182190D01*
X137819Y182326D01*
X137854Y182382D01*
X137896Y182434D01*
X137985Y182590D01*
X138081Y182743D01*
X138107Y182805D01*
X138140Y182862D01*
X138202Y183032D01*
X138273Y183198D01*
X138288Y183262D01*
X138311Y183325D01*
X138346Y183502D01*
X138388Y183677D01*
X138393Y183744D01*
X138406Y183809D01*
X138412Y183989D01*
X138425Y184169D01*
X138419Y184236D01*
X138421Y184302D01*
X138398Y184481D01*
X138382Y184661D01*
X138367Y184712D01*
X138357Y184791D01*
X138214Y185263D01*
X138200Y185294D01*
X138193Y185316D01*
X137872Y186092D01*
X137729Y186808D01*
X137729Y192163D01*
X144920Y192163D01*
X152111Y192163D01*
X152111Y189538D01*
X152114Y189500D01*
X152112Y189462D01*
X152134Y189254D01*
X152151Y189046D01*
X152160Y189009D01*
X152164Y188972D01*
X152219Y188770D01*
X152269Y188568D01*
X152284Y188533D01*
X152295Y188496D01*
X152382Y188306D01*
X152464Y188114D01*
X152484Y188082D01*
X152500Y188047D01*
X152617Y187874D01*
X152729Y187698D01*
X152754Y187670D01*
X152776Y187638D01*
X152919Y187486D01*
X153058Y187330D01*
X153087Y187306D01*
X153113Y187279D01*
X153280Y187151D01*
X153442Y187020D01*
X153474Y187002D01*
X153505Y186978D01*
X153689Y186879D01*
X153870Y186776D01*
X153906Y186763D01*
X153940Y186745D01*
X154137Y186677D01*
X154333Y186605D01*
X154370Y186597D01*
X154406Y186585D01*
X154613Y186550D01*
X154817Y186510D01*
X154855Y186509D01*
X154893Y186503D01*
X155102Y186501D01*
X155310Y186495D01*
X155348Y186500D01*
X155386Y186499D01*
X155593Y186532D01*
X155799Y186559D01*
X155836Y186570D01*
X155873Y186576D01*
X156072Y186641D01*
X156271Y186702D01*
X156306Y186718D01*
X156342Y186730D01*
X156527Y186827D01*
X156715Y186919D01*
X156746Y186941D01*
X156780Y186958D01*
X156852Y187016D01*
X157117Y187204D01*
X157239Y187325D01*
X157313Y187383D01*
X160905Y190976D01*
X160979Y191063D01*
X161060Y191143D01*
X161138Y191250D01*
X161224Y191351D01*
X161283Y191449D01*
X161350Y191542D01*
X161410Y191660D01*
X161479Y191774D01*
X161521Y191880D01*
X161573Y191982D01*
X161613Y192109D01*
X161662Y192232D01*
X161687Y192343D01*
X161721Y192453D01*
X161731Y192546D01*
X161769Y192714D01*
X161787Y193038D01*
X161797Y193130D01*
X161797Y197382D01*
X161788Y197496D01*
X161789Y197610D01*
X161768Y197742D01*
X161757Y197874D01*
X161730Y197985D01*
X161712Y198097D01*
X161671Y198224D01*
X161639Y198353D01*
X161594Y198458D01*
X161558Y198566D01*
X161496Y198684D01*
X161444Y198806D01*
X161383Y198902D01*
X161330Y199004D01*
X161271Y199077D01*
X161179Y199222D01*
X160963Y199464D01*
X160905Y199537D01*
X160389Y200052D01*
X159821Y201423D01*
X159787Y201491D01*
X159760Y201562D01*
X159674Y201710D01*
X159596Y201862D01*
X159551Y201923D01*
X159513Y201989D01*
X159405Y202121D01*
X159303Y202259D01*
X159249Y202312D01*
X159201Y202371D01*
X159073Y202484D01*
X158950Y202603D01*
X158888Y202647D01*
X158831Y202697D01*
X158686Y202788D01*
X158546Y202886D01*
X158478Y202919D01*
X158413Y202960D01*
X158256Y203026D01*
X158102Y203100D01*
X158028Y203122D01*
X157958Y203152D01*
X157793Y203192D01*
X157629Y203240D01*
X157553Y203249D01*
X157479Y203267D01*
X157308Y203280D01*
X157139Y203301D01*
X157063Y203298D01*
X156987Y203304D01*
X156817Y203289D01*
X156646Y203283D01*
X156571Y203268D01*
X156495Y203261D01*
X156394Y203232D01*
X156162Y203185D01*
X155941Y203101D01*
X155840Y203072D01*
X153992Y202307D01*
X153798Y202207D01*
X153601Y202111D01*
X153578Y202095D01*
X153553Y202082D01*
X153377Y201952D01*
X153199Y201825D01*
X153179Y201805D01*
X153156Y201789D01*
X153004Y201633D01*
X152848Y201479D01*
X152831Y201456D01*
X152811Y201435D01*
X152686Y201256D01*
X152558Y201080D01*
X152545Y201055D01*
X152528Y201031D01*
X152433Y200834D01*
X152335Y200640D01*
X152327Y200612D01*
X152314Y200587D01*
X152253Y200377D01*
X152187Y200169D01*
X152184Y200146D01*
X152175Y200114D01*
X152114Y199624D01*
X152117Y199544D01*
X152111Y199491D01*
X152111Y198257D01*
X144920Y198257D01*
X137729Y198257D01*
X137729Y203612D01*
X137759Y203760D01*
X137774Y203888D01*
X137798Y204014D01*
X137802Y204132D01*
X137816Y204250D01*
X137810Y204379D01*
X137814Y204507D01*
X137798Y204625D01*
X137792Y204743D01*
X137766Y204869D01*
X137749Y204996D01*
X137715Y205110D01*
X137690Y205226D01*
X137644Y205346D01*
X137607Y205469D01*
X137554Y205575D01*
X137511Y205686D01*
X137446Y205796D01*
X137390Y205912D01*
X137321Y206008D01*
X137261Y206111D01*
X137178Y206209D01*
X137104Y206314D01*
X137021Y206398D01*
X136945Y206490D01*
X136848Y206574D01*
X136758Y206665D01*
X136662Y206735D01*
X136572Y206812D01*
X136463Y206880D01*
X136359Y206955D01*
X136253Y207009D01*
X136152Y207071D01*
X136033Y207120D01*
X135918Y207178D01*
X135805Y207213D01*
X135695Y207258D01*
X135571Y207287D01*
X135448Y207326D01*
X135362Y207336D01*
X135215Y207370D01*
X134844Y207394D01*
X134770Y207402D01*
X131142Y207402D01*
X131066Y207396D01*
X130990Y207398D01*
X130821Y207376D01*
X130650Y207362D01*
X130576Y207344D01*
X130501Y207334D01*
X130337Y207285D01*
X130171Y207244D01*
X130102Y207214D01*
X130028Y207192D01*
X129875Y207116D01*
X129718Y207049D01*
X129654Y207008D01*
X129585Y206975D01*
X129446Y206876D01*
X129302Y206784D01*
X129245Y206733D01*
X129183Y206689D01*
X129062Y206569D01*
X128934Y206455D01*
X128886Y206396D01*
X128832Y206342D01*
X128731Y206204D01*
X128624Y206071D01*
X128587Y206005D01*
X128542Y205944D01*
X128465Y205791D01*
X128380Y205643D01*
X128354Y205571D01*
X128319Y205503D01*
X128268Y205340D01*
X128209Y205180D01*
X128194Y205105D01*
X128171Y205033D01*
X128159Y204928D01*
X128114Y204696D01*
X128107Y204460D01*
X128095Y204355D01*
X128095Y185844D01*
X128081Y185822D01*
X128039Y185715D01*
X127987Y185613D01*
X127947Y185487D01*
X127898Y185364D01*
X127873Y185252D01*
X127839Y185143D01*
X127829Y185049D01*
X127791Y184882D01*
X127773Y184558D01*
X127763Y184465D01*
X127763Y184150D01*
X127769Y184074D01*
X127767Y183998D01*
X127789Y183829D01*
X127803Y183658D01*
X127821Y183584D01*
X127831Y183509D01*
X127880Y183345D01*
X127921Y183179D01*
X127951Y183110D01*
X127973Y183036D01*
X128049Y182883D01*
X128116Y182726D01*
X128157Y182662D01*
X128190Y182593D01*
X128289Y182454D01*
X128381Y182310D01*
X128432Y182253D01*
X128476Y182191D01*
X128596Y182070D01*
X128710Y181942D01*
X128769Y181894D01*
X128823Y181840D01*
X128961Y181739D01*
X129094Y181632D01*
X129160Y181595D01*
X129221Y181550D01*
X129374Y181473D01*
X129522Y181388D01*
X129594Y181362D01*
X129662Y181327D01*
X129825Y181276D01*
X129985Y181217D01*
X130060Y181202D01*
X130132Y181179D01*
X130237Y181167D01*
X130469Y181122D01*
X130705Y181115D01*
X130810Y181103D01*
X135378Y181103D01*
X135558Y181117D01*
G37*
%LPC*%
G36*
X86382Y304545D02*
X86382Y304545D01*
X81025Y309902D01*
X81025Y317478D01*
X86382Y322835D01*
X93958Y322835D01*
X99315Y317478D01*
X99315Y309902D01*
X93958Y304545D01*
X86382Y304545D01*
G37*
%LPD*%
%LPC*%
G36*
X3047Y113537D02*
X3047Y113537D01*
X3047Y120651D01*
X8420Y120651D01*
X9999Y120401D01*
X11520Y119906D01*
X12945Y119180D01*
X14239Y118240D01*
X15370Y117109D01*
X16310Y115815D01*
X17036Y114390D01*
X17313Y113537D01*
X3047Y113537D01*
G37*
%LPD*%
%LPC*%
G36*
X133817Y113537D02*
X133817Y113537D01*
X134094Y114390D01*
X134820Y115815D01*
X135760Y117109D01*
X136891Y118240D01*
X138185Y119180D01*
X139610Y119906D01*
X141131Y120401D01*
X142710Y120651D01*
X148083Y120651D01*
X148083Y113537D01*
X133817Y113537D01*
G37*
%LPD*%
%LPC*%
G36*
X194817Y370839D02*
X194817Y370839D01*
X194817Y377953D01*
X209083Y377953D01*
X208806Y377100D01*
X208080Y375675D01*
X207140Y374381D01*
X206009Y373250D01*
X204715Y372310D01*
X203290Y371584D01*
X201769Y371089D01*
X200190Y370839D01*
X194817Y370839D01*
G37*
%LPD*%
G36*
X224088Y251716D02*
X224088Y251716D01*
X224165Y251715D01*
X224334Y251742D01*
X224503Y251760D01*
X224577Y251780D01*
X224652Y251792D01*
X224814Y251845D01*
X224979Y251890D01*
X225048Y251922D01*
X225121Y251946D01*
X225272Y252025D01*
X225427Y252096D01*
X225491Y252139D01*
X225558Y252174D01*
X225640Y252240D01*
X225837Y252372D01*
X226009Y252534D01*
X226091Y252599D01*
X229251Y255759D01*
X229300Y255817D01*
X229356Y255869D01*
X229460Y256005D01*
X229571Y256135D01*
X229610Y256200D01*
X229656Y256261D01*
X229737Y256411D01*
X229825Y256558D01*
X229854Y256628D01*
X229890Y256695D01*
X229945Y256857D01*
X230008Y257016D01*
X230025Y257090D01*
X230050Y257162D01*
X230078Y257331D01*
X230115Y257497D01*
X230119Y257573D01*
X230132Y257649D01*
X230133Y257819D01*
X230143Y257990D01*
X230135Y258066D01*
X230135Y258142D01*
X230109Y258311D01*
X230091Y258480D01*
X230070Y258554D01*
X230059Y258629D01*
X230005Y258792D01*
X229960Y258956D01*
X229928Y259025D01*
X229904Y259098D01*
X229825Y259249D01*
X229754Y259405D01*
X229712Y259468D01*
X229676Y259535D01*
X229611Y259618D01*
X229479Y259814D01*
X229317Y259986D01*
X229251Y260069D01*
X229193Y260118D01*
X229141Y260173D01*
X229141Y260174D01*
X229005Y260278D01*
X228875Y260388D01*
X228810Y260428D01*
X228749Y260474D01*
X228599Y260554D01*
X228453Y260643D01*
X228382Y260671D01*
X228315Y260707D01*
X228153Y260763D01*
X227994Y260826D01*
X227920Y260842D01*
X227848Y260867D01*
X227679Y260896D01*
X227513Y260933D01*
X227437Y260937D01*
X227362Y260950D01*
X227191Y260951D01*
X227020Y260960D01*
X226944Y260952D01*
X226868Y260953D01*
X226699Y260926D01*
X226530Y260908D01*
X226456Y260888D01*
X226381Y260876D01*
X226219Y260823D01*
X226054Y260777D01*
X225985Y260746D01*
X225912Y260722D01*
X225761Y260643D01*
X225606Y260572D01*
X225542Y260529D01*
X225475Y260494D01*
X225392Y260428D01*
X225196Y260296D01*
X225024Y260134D01*
X224942Y260069D01*
X221782Y256909D01*
X221732Y256851D01*
X221677Y256799D01*
X221573Y256663D01*
X221462Y256533D01*
X221423Y256468D01*
X221376Y256407D01*
X221296Y256257D01*
X221208Y256110D01*
X221179Y256039D01*
X221143Y255972D01*
X221088Y255811D01*
X221024Y255652D01*
X221008Y255578D01*
X220983Y255506D01*
X220955Y255337D01*
X220918Y255171D01*
X220913Y255095D01*
X220901Y255019D01*
X220900Y254849D01*
X220890Y254678D01*
X220898Y254602D01*
X220898Y254526D01*
X220924Y254357D01*
X220942Y254187D01*
X220962Y254114D01*
X220974Y254039D01*
X221028Y253876D01*
X221073Y253712D01*
X221105Y253643D01*
X221128Y253570D01*
X221207Y253419D01*
X221279Y253263D01*
X221321Y253200D01*
X221356Y253133D01*
X221422Y253050D01*
X221554Y252854D01*
X221716Y252682D01*
X221782Y252599D01*
X221840Y252550D01*
X221892Y252495D01*
X221892Y252494D01*
X222028Y252390D01*
X222158Y252280D01*
X222223Y252240D01*
X222283Y252194D01*
X222434Y252113D01*
X222580Y252025D01*
X222651Y251997D01*
X222718Y251961D01*
X222880Y251905D01*
X223038Y251842D01*
X223113Y251826D01*
X223185Y251801D01*
X223354Y251772D01*
X223520Y251735D01*
X223596Y251731D01*
X223671Y251718D01*
X223842Y251717D01*
X224013Y251708D01*
X224088Y251716D01*
G37*
%LPC*%
G36*
X191007Y136397D02*
X191007Y136397D01*
X191007Y143431D01*
X195835Y143431D01*
X196481Y143258D01*
X197060Y142923D01*
X197533Y142450D01*
X197868Y141871D01*
X198041Y141225D01*
X198041Y136397D01*
X191007Y136397D01*
G37*
%LPD*%
%LPC*%
G36*
X177879Y136397D02*
X177879Y136397D01*
X177879Y141225D01*
X178052Y141871D01*
X178387Y142450D01*
X178860Y142923D01*
X179439Y143258D01*
X180085Y143431D01*
X184913Y143431D01*
X184913Y136397D01*
X177879Y136397D01*
G37*
%LPD*%
%LPC*%
G36*
X191007Y123269D02*
X191007Y123269D01*
X191007Y130303D01*
X198041Y130303D01*
X198041Y125475D01*
X197868Y124829D01*
X197533Y124250D01*
X197060Y123777D01*
X196481Y123442D01*
X195835Y123269D01*
X191007Y123269D01*
G37*
%LPD*%
%LPC*%
G36*
X228676Y67100D02*
X228676Y67100D01*
X228748Y67104D01*
X228919Y67105D01*
X228994Y67118D01*
X229070Y67122D01*
X229237Y67159D01*
X229406Y67188D01*
X229478Y67212D01*
X229552Y67229D01*
X229648Y67271D01*
X229872Y67348D01*
X230081Y67459D01*
X230177Y67502D01*
X237938Y71982D01*
X239060Y71682D01*
X237218Y64811D01*
X228676Y67100D01*
G37*
%LPD*%
%LPC*%
G36*
X215152Y57049D02*
X215152Y57049D01*
X216994Y63920D01*
X225536Y61631D01*
X225464Y61627D01*
X225293Y61626D01*
X225218Y61613D01*
X225142Y61609D01*
X224975Y61572D01*
X224807Y61543D01*
X224734Y61519D01*
X224660Y61502D01*
X224564Y61460D01*
X224340Y61383D01*
X224132Y61271D01*
X224035Y61229D01*
X216274Y56749D01*
X215152Y57049D01*
G37*
%LPD*%
%LPC*%
G36*
X218571Y69807D02*
X218571Y69807D01*
X220412Y76678D01*
X221534Y76378D01*
X226014Y68617D01*
X226058Y68554D01*
X226094Y68487D01*
X226198Y68352D01*
X226295Y68211D01*
X226348Y68156D01*
X226394Y68096D01*
X226519Y67979D01*
X226637Y67856D01*
X226698Y67810D01*
X226754Y67758D01*
X226896Y67663D01*
X227032Y67560D01*
X227100Y67525D01*
X227108Y67520D01*
X218571Y69807D01*
G37*
%LPD*%
%LPC*%
G36*
X232678Y52353D02*
X232678Y52353D01*
X228198Y60114D01*
X228154Y60177D01*
X228118Y60244D01*
X228014Y60379D01*
X227917Y60520D01*
X227864Y60575D01*
X227818Y60635D01*
X227693Y60752D01*
X227575Y60875D01*
X227514Y60921D01*
X227458Y60973D01*
X227316Y61068D01*
X227180Y61171D01*
X227112Y61206D01*
X227104Y61211D01*
X235641Y58924D01*
X233800Y52053D01*
X232678Y52353D01*
G37*
%LPD*%
%LPC*%
G36*
X243106Y63233D02*
X243106Y63233D01*
X244947Y70104D01*
X245227Y70029D01*
X245413Y69995D01*
X245599Y69954D01*
X245656Y69951D01*
X245712Y69940D01*
X245902Y69937D01*
X246091Y69926D01*
X246130Y69930D01*
X246160Y69798D01*
X246163Y69791D01*
X246165Y69780D01*
X246351Y69323D01*
X246406Y69234D01*
X246432Y69173D01*
X250277Y62514D01*
X249977Y61392D01*
X243106Y63233D01*
G37*
%LPD*%
%LPC*%
G36*
X93217Y328929D02*
X93217Y328929D01*
X93217Y336043D01*
X100331Y336043D01*
X100331Y334881D01*
X94379Y328929D01*
X93217Y328929D01*
G37*
%LPD*%
%LPC*%
G36*
X205813Y73226D02*
X205813Y73226D01*
X206114Y74348D01*
X213403Y78556D01*
X214525Y78256D01*
X212684Y71385D01*
X205813Y73226D01*
G37*
%LPD*%
%LPC*%
G36*
X239687Y50475D02*
X239687Y50475D01*
X241528Y57346D01*
X248399Y55505D01*
X248099Y54383D01*
X240809Y50175D01*
X239687Y50475D01*
G37*
%LPD*%
%LPC*%
G36*
X85961Y328929D02*
X85961Y328929D01*
X80009Y334881D01*
X80009Y336043D01*
X87123Y336043D01*
X87123Y328929D01*
X85961Y328929D01*
G37*
%LPD*%
%LPC*%
G36*
X208144Y58927D02*
X208144Y58927D01*
X203935Y66217D01*
X204235Y67339D01*
X211106Y65498D01*
X209265Y58627D01*
X208144Y58927D01*
G37*
%LPD*%
%LPC*%
G36*
X220617Y281532D02*
X220617Y281532D01*
X221946Y282861D01*
X222017Y282908D01*
X222045Y282933D01*
X222076Y282955D01*
X222227Y283100D01*
X222381Y283241D01*
X222399Y283266D01*
X222431Y283297D01*
X222578Y283493D01*
X223928Y284843D01*
X226044Y282726D01*
X224112Y280794D01*
X222734Y279416D01*
X220617Y281532D01*
G37*
%LPD*%
%LPC*%
G36*
X228237Y289152D02*
X228237Y289152D01*
X229501Y290416D01*
X230080Y290751D01*
X230726Y290924D01*
X231395Y290924D01*
X232042Y290751D01*
X232621Y290416D01*
X233178Y289860D01*
X230354Y287036D01*
X228237Y289152D01*
G37*
%LPD*%
D10*
G36*
X224643Y260410D02*
X229592Y255461D01*
X223229Y249098D01*
X218280Y254047D01*
X224643Y260410D01*
G37*
G36*
X215451Y269602D02*
X220400Y264653D01*
X214037Y258290D01*
X209088Y263239D01*
X215451Y269602D01*
G37*
G36*
X232633Y271570D02*
X237582Y266621D01*
X231219Y260258D01*
X226270Y265207D01*
X232633Y271570D01*
G37*
G36*
X223441Y280762D02*
X228390Y275813D01*
X222027Y269450D01*
X217078Y274399D01*
X223441Y280762D01*
G37*
G36*
X240253Y279190D02*
X245202Y274241D01*
X238839Y267878D01*
X233890Y272827D01*
X240253Y279190D01*
G37*
G36*
X231061Y288382D02*
X236010Y283433D01*
X229647Y277070D01*
X224698Y282019D01*
X231061Y288382D01*
G37*
D11*
X116730Y46520D03*
X134730Y46520D03*
X116630Y6820D03*
X134730Y6820D03*
D12*
X7620Y135890D02*
X-7620Y135890D01*
X-7620Y110490D02*
X7620Y110490D01*
D13*
X90170Y339090D03*
X115570Y339090D03*
X90170Y313690D03*
X115570Y313690D03*
X90170Y288290D03*
X115570Y288290D03*
D14*
G36*
X245940Y243563D02*
X238869Y236492D01*
X226142Y249219D01*
X233213Y256290D01*
X245940Y243563D01*
G37*
G36*
X263618Y261241D02*
X256547Y254170D01*
X243820Y266897D01*
X250891Y273968D01*
X263618Y261241D01*
G37*
D15*
X308610Y40640D03*
X290830Y40640D03*
X247650Y412750D03*
X265430Y412750D03*
X297180Y367030D03*
X297180Y349250D03*
D16*
X187960Y133350D03*
D17*
X187960Y107950D03*
X187960Y158750D03*
X187960Y184150D03*
D15*
X297180Y147320D03*
X297180Y129540D03*
D18*
X148408Y187172D02*
X148408Y203248D01*
X148408Y187172D02*
X141432Y187172D01*
X141432Y203248D01*
X148408Y203248D01*
X148408Y189381D02*
X141432Y189381D01*
X141432Y191590D02*
X148408Y191590D01*
X148408Y193799D02*
X141432Y193799D01*
X141432Y196008D02*
X148408Y196008D01*
X148408Y198217D02*
X141432Y198217D01*
X141432Y200426D02*
X148408Y200426D01*
X148408Y202635D02*
X141432Y202635D01*
X125408Y203248D02*
X125408Y187172D01*
X118432Y187172D01*
X118432Y203248D01*
X125408Y203248D01*
X125408Y189381D02*
X118432Y189381D01*
X118432Y191590D02*
X125408Y191590D01*
X125408Y193799D02*
X118432Y193799D01*
X118432Y196008D02*
X125408Y196008D01*
X125408Y198217D02*
X118432Y198217D01*
X118432Y200426D02*
X125408Y200426D01*
X125408Y202635D02*
X118432Y202635D01*
X102408Y203248D02*
X102408Y187172D01*
X95432Y187172D01*
X95432Y203248D01*
X102408Y203248D01*
X102408Y189381D02*
X95432Y189381D01*
X95432Y191590D02*
X102408Y191590D01*
X102408Y193799D02*
X95432Y193799D01*
X95432Y196008D02*
X102408Y196008D01*
X102408Y198217D02*
X95432Y198217D01*
X95432Y200426D02*
X102408Y200426D01*
X102408Y202635D02*
X95432Y202635D01*
D19*
X135570Y250010D02*
X135570Y263810D01*
X135570Y250010D02*
X108270Y250010D01*
X108270Y263810D01*
X135570Y263810D01*
X135570Y254380D02*
X108270Y254380D01*
X108270Y258750D02*
X135570Y258750D01*
X135570Y263120D02*
X108270Y263120D01*
D12*
X143510Y161290D02*
X158750Y161290D01*
X158750Y135890D02*
X143510Y135890D01*
X143510Y110490D02*
X158750Y110490D01*
X184150Y330200D02*
X199390Y330200D01*
X199390Y355600D02*
X184150Y355600D01*
X184150Y381000D02*
X199390Y381000D01*
X323850Y287020D02*
X339090Y287020D01*
X339090Y261620D02*
X323850Y261620D01*
X323850Y236220D02*
X339090Y236220D01*
X339090Y210820D02*
X323850Y210820D01*
D20*
X252521Y110148D03*
X227987Y116722D03*
X245947Y85613D03*
X221413Y92187D03*
X239373Y61078D03*
X214839Y67652D03*
D12*
X222250Y347980D02*
X222250Y363220D01*
X247650Y363220D02*
X247650Y347980D01*
D21*
X57073Y49530D03*
D22*
X299720Y54610D03*
D23*
X223936Y254754D02*
X224036Y254854D01*
X224036Y273804D02*
X222734Y275106D01*
D22*
X233680Y419100D03*
X273050Y208280D03*
D24*
X286625Y221855D01*
D22*
X289560Y177800D03*
D25*
X301200Y208800D03*
X139700Y280670D03*
X67310Y283210D03*
D24*
X151130Y110490D02*
X159528Y102092D01*
X168768Y102092D01*
X169260Y101600D01*
X177800Y101600D01*
D25*
X303030Y243840D03*
X192270Y292830D03*
D22*
X213360Y41910D03*
X189230Y78740D03*
X238760Y36830D03*
X223520Y20320D03*
X196850Y20320D03*
X189230Y1270D03*
X210820Y2540D03*
X224790Y2540D03*
X212090Y133350D03*
X209550Y148590D03*
X270510Y162560D03*
X284480Y60960D03*
X55880Y113030D03*
D25*
X57150Y199390D03*
X58420Y226060D03*
X60960Y250190D03*
X66040Y266700D03*
D22*
X257810Y326390D03*
X223520Y326390D03*
X293370Y306070D03*
X274320Y194310D03*
X236220Y137160D03*
D25*
X295910Y337820D03*
X286850Y357270D03*
X292400Y262390D03*
D23*
X223936Y263589D02*
X223936Y254754D01*
X223936Y263589D02*
X223475Y264049D01*
X223475Y266025D01*
X218500Y271000D01*
X222606Y275106D01*
X222734Y275106D01*
D25*
X99500Y132000D03*
X155500Y194500D03*
D22*
X242952Y178182D03*
D23*
X223520Y158750D01*
X223520Y121188D01*
X227987Y116722D01*
D22*
X198120Y255270D03*
X170180Y290624D03*
D26*
X170180Y283210D01*
X198120Y255270D01*
X231926Y265914D02*
X236041Y261799D01*
X236041Y246391D01*
D22*
X248150Y233980D03*
D26*
X236041Y246089D02*
X236041Y246391D01*
X236041Y246089D02*
X248150Y233980D01*
X249011Y264069D02*
X239546Y273534D01*
X249011Y264069D02*
X253719Y264069D01*
X265680Y252108D01*
X265680Y250980D01*
D22*
X265680Y250980D03*
X225293Y222753D03*
D26*
X248655Y199390D01*
X259080Y199390D01*
X262890Y195580D01*
X262890Y180340D01*
D27*
X57150Y-1270D03*
D22*
X104140Y-1270D03*
D28*
X108540Y-1270D02*
X116630Y6820D01*
X108540Y-1270D02*
X104140Y-1270D01*
D23*
X252521Y110148D02*
X252521Y169971D01*
X262890Y180340D01*
D22*
X279400Y388144D03*
D23*
X279400Y406400D01*
D22*
X279400Y406400D03*
D25*
X276860Y92710D03*
D23*
X284480Y100330D01*
X284480Y133350D01*
D25*
X284480Y133350D03*
D22*
X269074Y380190D03*
D23*
X291290Y380190D01*
X294640Y383540D01*
X294640Y415290D01*
D22*
X294640Y415290D03*
X162560Y307134D03*
D26*
X162766Y307340D01*
X162560Y307134D02*
X229806Y307134D01*
X230370Y306570D01*
D22*
X230370Y306570D03*
X257810Y306070D03*
X148590Y297180D03*
D26*
X251420Y299680D02*
X257810Y306070D01*
X251420Y299680D02*
X151090Y299680D01*
X148590Y297180D01*
X115570Y313690D02*
X212090Y313690D01*
D22*
X212090Y313690D03*
D23*
X161290Y171450D02*
X151130Y161290D01*
X161290Y171450D02*
X212090Y171450D01*
D22*
X252811Y189311D03*
D23*
X229951Y189311D01*
X212090Y171450D01*
D22*
X163830Y218440D03*
D23*
X153372Y207982D01*
X153174Y207982D01*
D22*
X153174Y207982D03*
X121920Y226060D03*
D23*
X144304Y226060D01*
X171450Y253206D01*
D22*
X171450Y253206D03*
D25*
X272620Y140540D03*
D23*
X272620Y110920D01*
X273050Y110490D01*
D25*
X273050Y110490D03*
X279400Y284480D03*
D26*
X279630Y286250D02*
X279630Y362180D01*
X279630Y286250D02*
X279400Y286020D01*
X279400Y284480D01*
X279630Y362180D02*
X284480Y367030D01*
X297180Y367030D01*
D25*
X273050Y293370D03*
D26*
X267970Y332740D02*
X267970Y368300D01*
X273050Y327660D02*
X273050Y293370D01*
X273050Y327660D02*
X267970Y332740D01*
X247650Y388620D02*
X247650Y412750D01*
X247650Y388620D02*
X267970Y368300D01*
X209040Y269650D02*
X214744Y263946D01*
X209040Y269650D02*
X209040Y271250D01*
D22*
X209040Y271250D03*
D27*
X57150Y24130D03*
D22*
X73660Y176530D03*
D23*
X82550Y167640D01*
X121920Y167640D01*
D29*
X121920Y177800D02*
X121920Y195210D01*
X121920Y177800D02*
X121920Y167640D01*
X121920Y134620D01*
X149860Y134620D01*
X151130Y135890D01*
X158750Y135890D01*
X186690Y107950D02*
X187960Y107950D01*
X186690Y107950D02*
X158750Y135890D01*
X121920Y256910D02*
X90540Y288290D01*
X90170Y288290D01*
D22*
X121920Y134424D03*
D23*
X123190Y255640D02*
X121920Y256910D01*
D22*
X287020Y196850D03*
X337820Y40640D03*
D28*
X307340Y176530D02*
X287020Y196850D01*
X307340Y176530D02*
X307340Y80240D01*
X337820Y46849D02*
X337820Y40640D01*
X305885Y78785D02*
X307340Y80240D01*
X305885Y78785D02*
X337820Y46849D01*
D29*
X229123Y92187D02*
X203723Y92187D01*
X187960Y107950D01*
X235697Y85613D02*
X245947Y85613D01*
X235697Y85613D02*
X229123Y92187D01*
X138800Y256910D02*
X121920Y256910D01*
X138800Y256910D02*
X158750Y276860D01*
D22*
X158750Y276860D03*
D29*
X252776Y78785D02*
X305885Y78785D01*
X252776Y78785D02*
X245947Y85613D01*
D28*
X152400Y177800D02*
X121920Y177800D01*
X152400Y177800D02*
X165100Y190500D01*
X165100Y203200D01*
D22*
X165100Y203200D03*
X123190Y241300D03*
D28*
X123190Y255640D01*
D22*
X309199Y290299D03*
D29*
X116955Y213245D02*
X98920Y195210D01*
X116955Y213245D02*
X117070Y213360D01*
X98920Y195210D02*
X97790Y194080D01*
X116955Y213245D02*
X143395Y213245D01*
X172720Y242570D02*
X220517Y242570D01*
X240043Y223044D01*
D30*
X108980Y178740D03*
D29*
X97790Y189930D01*
X97790Y194080D01*
X143395Y213245D02*
X172720Y242570D01*
X240043Y223044D02*
X266544Y223044D01*
X266958Y223044D01*
X306070Y262157D02*
X306070Y267970D01*
D25*
X306070Y267970D03*
D29*
X294000Y250500D02*
X266544Y223044D01*
D31*
X294000Y250500D02*
X305657Y262157D01*
X306070Y262157D01*
D22*
X104140Y52070D03*
D28*
X114570Y62500D01*
X127000Y62500D01*
X134730Y54770D01*
X134730Y46520D01*
D25*
X133500Y149000D03*
M02*
