G04 EAGLE Gerber RS-274X export*
G75*
%MOMM*%
%FSLAX34Y34*%
%LPD*%
%IN*%
%IPPOS*%
%AMOC8*
5,1,8,0,0,1.08239X$1,22.5*%
G01*
%ADD10C,0.254000*%


D10*
X-30480Y96520D02*
X-24130Y90170D01*
X163830Y90170D01*
X165100Y88900D01*
X165100Y77470D01*
X163830Y76200D01*
X38100Y76200D01*
X36830Y74930D01*
X36830Y-22860D01*
X149860Y-22860D01*
X152400Y-20320D01*
X152400Y-12700D01*
X165100Y-12700D01*
X165100Y-20320D01*
X167640Y-22860D01*
X360680Y-22860D01*
X360680Y476250D01*
X165100Y476250D01*
X165100Y368300D01*
X161290Y364490D01*
X-26670Y364490D01*
X-30480Y360680D01*
X-30480Y96520D01*
X320040Y85090D02*
X340360Y85090D01*
X340360Y191770D01*
X320040Y191770D01*
X320040Y85090D01*
X320040Y304800D02*
X340360Y304800D01*
X340360Y411480D01*
X320040Y411480D01*
X320040Y304800D01*
X203200Y435610D02*
X309880Y435610D01*
X309880Y455930D01*
X203200Y455930D01*
X203200Y435610D01*
X246380Y-2540D02*
X353060Y-2540D01*
X353060Y17780D01*
X246380Y17780D01*
X246380Y-2540D01*
X152400Y0D02*
X165100Y0D01*
X166370Y1270D01*
X166370Y62230D01*
X165100Y63500D01*
X154940Y63500D01*
X152400Y60960D01*
X152400Y0D01*
X60516Y313212D02*
X60440Y312144D01*
X60287Y311083D01*
X60059Y310036D01*
X59757Y309008D01*
X59383Y308004D01*
X58938Y307029D01*
X58424Y306089D01*
X57845Y305188D01*
X57203Y304330D01*
X56501Y303520D01*
X55744Y302763D01*
X54934Y302061D01*
X54076Y301419D01*
X53175Y300840D01*
X52235Y300326D01*
X51260Y299881D01*
X50256Y299507D01*
X49228Y299205D01*
X48181Y298977D01*
X47120Y298824D01*
X46052Y298748D01*
X44980Y298748D01*
X43912Y298824D01*
X42851Y298977D01*
X41804Y299205D01*
X40776Y299507D01*
X39772Y299881D01*
X38797Y300326D01*
X37857Y300840D01*
X36956Y301419D01*
X36098Y302061D01*
X35288Y302763D01*
X34531Y303520D01*
X33829Y304330D01*
X33187Y305188D01*
X32608Y306089D01*
X32094Y307029D01*
X31649Y308004D01*
X31275Y309008D01*
X30973Y310036D01*
X30745Y311083D01*
X30592Y312144D01*
X30516Y313212D01*
X30516Y314284D01*
X30592Y315352D01*
X30745Y316413D01*
X30973Y317460D01*
X31275Y318488D01*
X31649Y319492D01*
X32094Y320467D01*
X32608Y321407D01*
X33187Y322308D01*
X33829Y323166D01*
X34531Y323976D01*
X35288Y324733D01*
X36098Y325435D01*
X36956Y326077D01*
X37857Y326656D01*
X38797Y327170D01*
X39772Y327615D01*
X40776Y327989D01*
X41804Y328291D01*
X42851Y328519D01*
X43912Y328672D01*
X44980Y328748D01*
X46052Y328748D01*
X47120Y328672D01*
X48181Y328519D01*
X49228Y328291D01*
X50256Y327989D01*
X51260Y327615D01*
X52235Y327170D01*
X53175Y326656D01*
X54076Y326077D01*
X54934Y325435D01*
X55744Y324733D01*
X56501Y323976D01*
X57203Y323166D01*
X57845Y322308D01*
X58424Y321407D01*
X58938Y320467D01*
X59383Y319492D01*
X59757Y318488D01*
X60059Y317460D01*
X60287Y316413D01*
X60440Y315352D01*
X60516Y314284D01*
X60516Y313212D01*
X60516Y144031D02*
X60440Y142963D01*
X60287Y141902D01*
X60059Y140855D01*
X59757Y139827D01*
X59383Y138823D01*
X58938Y137848D01*
X58424Y136908D01*
X57845Y136007D01*
X57203Y135149D01*
X56501Y134339D01*
X55744Y133582D01*
X54934Y132880D01*
X54076Y132238D01*
X53175Y131659D01*
X52235Y131145D01*
X51260Y130700D01*
X50256Y130326D01*
X49228Y130024D01*
X48181Y129796D01*
X47120Y129643D01*
X46052Y129567D01*
X44980Y129567D01*
X43912Y129643D01*
X42851Y129796D01*
X41804Y130024D01*
X40776Y130326D01*
X39772Y130700D01*
X38797Y131145D01*
X37857Y131659D01*
X36956Y132238D01*
X36098Y132880D01*
X35288Y133582D01*
X34531Y134339D01*
X33829Y135149D01*
X33187Y136007D01*
X32608Y136908D01*
X32094Y137848D01*
X31649Y138823D01*
X31275Y139827D01*
X30973Y140855D01*
X30745Y141902D01*
X30592Y142963D01*
X30516Y144031D01*
X30516Y145103D01*
X30592Y146171D01*
X30745Y147232D01*
X30973Y148279D01*
X31275Y149307D01*
X31649Y150311D01*
X32094Y151286D01*
X32608Y152226D01*
X33187Y153127D01*
X33829Y153985D01*
X34531Y154795D01*
X35288Y155552D01*
X36098Y156254D01*
X36956Y156896D01*
X37857Y157475D01*
X38797Y157989D01*
X39772Y158434D01*
X40776Y158808D01*
X41804Y159110D01*
X42851Y159338D01*
X43912Y159491D01*
X44980Y159567D01*
X46052Y159567D01*
X47120Y159491D01*
X48181Y159338D01*
X49228Y159110D01*
X50256Y158808D01*
X51260Y158434D01*
X52235Y157989D01*
X53175Y157475D01*
X54076Y156896D01*
X54934Y156254D01*
X55744Y155552D01*
X56501Y154795D01*
X57203Y153985D01*
X57845Y153127D01*
X58424Y152226D01*
X58938Y151286D01*
X59383Y150311D01*
X59757Y149307D01*
X60059Y148279D01*
X60287Y147232D01*
X60440Y146171D01*
X60516Y145103D01*
X60516Y144031D01*
X188200Y47148D02*
X188128Y46414D01*
X187984Y45691D01*
X187770Y44986D01*
X187488Y44305D01*
X187141Y43656D01*
X186731Y43043D01*
X186264Y42473D01*
X185743Y41952D01*
X185173Y41485D01*
X184560Y41075D01*
X183911Y40728D01*
X183230Y40446D01*
X182525Y40232D01*
X181802Y40088D01*
X181068Y40016D01*
X180332Y40016D01*
X179598Y40088D01*
X178875Y40232D01*
X178170Y40446D01*
X177489Y40728D01*
X176840Y41075D01*
X176227Y41485D01*
X175657Y41952D01*
X175136Y42473D01*
X174669Y43043D01*
X174259Y43656D01*
X173912Y44305D01*
X173630Y44986D01*
X173416Y45691D01*
X173272Y46414D01*
X173200Y47148D01*
X173200Y47884D01*
X173272Y48618D01*
X173416Y49341D01*
X173630Y50046D01*
X173912Y50727D01*
X174259Y51376D01*
X174669Y51989D01*
X175136Y52559D01*
X175657Y53080D01*
X176227Y53547D01*
X176840Y53957D01*
X177489Y54304D01*
X178170Y54586D01*
X178875Y54800D01*
X179598Y54944D01*
X180332Y55016D01*
X181068Y55016D01*
X181802Y54944D01*
X182525Y54800D01*
X183230Y54586D01*
X183911Y54304D01*
X184560Y53957D01*
X185173Y53547D01*
X185743Y53080D01*
X186264Y52559D01*
X186731Y51989D01*
X187141Y51376D01*
X187488Y50727D01*
X187770Y50046D01*
X187984Y49341D01*
X188128Y48618D01*
X188200Y47884D01*
X188200Y47148D01*
X188200Y410432D02*
X188128Y409698D01*
X187984Y408975D01*
X187770Y408270D01*
X187488Y407589D01*
X187141Y406940D01*
X186731Y406327D01*
X186264Y405757D01*
X185743Y405236D01*
X185173Y404769D01*
X184560Y404359D01*
X183911Y404012D01*
X183230Y403730D01*
X182525Y403516D01*
X181802Y403372D01*
X181068Y403300D01*
X180332Y403300D01*
X179598Y403372D01*
X178875Y403516D01*
X178170Y403730D01*
X177489Y404012D01*
X176840Y404359D01*
X176227Y404769D01*
X175657Y405236D01*
X175136Y405757D01*
X174669Y406327D01*
X174259Y406940D01*
X173912Y407589D01*
X173630Y408270D01*
X173416Y408975D01*
X173272Y409698D01*
X173200Y410432D01*
X173200Y411168D01*
X173272Y411902D01*
X173416Y412625D01*
X173630Y413330D01*
X173912Y414011D01*
X174259Y414660D01*
X174669Y415273D01*
X175136Y415843D01*
X175657Y416364D01*
X176227Y416831D01*
X176840Y417241D01*
X177489Y417588D01*
X178170Y417870D01*
X178875Y418084D01*
X179598Y418228D01*
X180332Y418300D01*
X181068Y418300D01*
X181802Y418228D01*
X182525Y418084D01*
X183230Y417870D01*
X183911Y417588D01*
X184560Y417241D01*
X185173Y416831D01*
X185743Y416364D01*
X186264Y415843D01*
X186731Y415273D01*
X187141Y414660D01*
X187488Y414011D01*
X187770Y413330D01*
X187984Y412625D01*
X188128Y411902D01*
X188200Y411168D01*
X188200Y410432D01*
X98900Y24963D02*
X98824Y24094D01*
X98672Y23234D01*
X98446Y22390D01*
X98148Y21570D01*
X97779Y20778D01*
X97342Y20022D01*
X96841Y19307D01*
X96280Y18638D01*
X95662Y18020D01*
X94993Y17459D01*
X94278Y16958D01*
X93522Y16521D01*
X92730Y16152D01*
X91910Y15854D01*
X91066Y15628D01*
X90207Y15476D01*
X89337Y15400D01*
X88463Y15400D01*
X87594Y15476D01*
X86734Y15628D01*
X85890Y15854D01*
X85070Y16152D01*
X84278Y16521D01*
X83522Y16958D01*
X82807Y17459D01*
X82138Y18020D01*
X81520Y18638D01*
X80959Y19307D01*
X80458Y20022D01*
X80021Y20778D01*
X79652Y21570D01*
X79354Y22390D01*
X79128Y23234D01*
X78976Y24094D01*
X78900Y24963D01*
X78900Y25837D01*
X78976Y26707D01*
X79128Y27566D01*
X79354Y28410D01*
X79652Y29230D01*
X80021Y30022D01*
X80458Y30778D01*
X80959Y31493D01*
X81520Y32162D01*
X82138Y32780D01*
X82807Y33341D01*
X83522Y33842D01*
X84278Y34279D01*
X85070Y34648D01*
X85890Y34946D01*
X86734Y35172D01*
X87594Y35324D01*
X88463Y35400D01*
X89337Y35400D01*
X90207Y35324D01*
X91066Y35172D01*
X91910Y34946D01*
X92730Y34648D01*
X93522Y34279D01*
X94278Y33842D01*
X94993Y33341D01*
X95662Y32780D01*
X96280Y32162D01*
X96841Y31493D01*
X97342Y30778D01*
X97779Y30022D01*
X98148Y29230D01*
X98446Y28410D01*
X98672Y27566D01*
X98824Y26707D01*
X98900Y25837D01*
X98900Y24963D01*
M02*
