G04 EAGLE Gerber RS-274X export*
G75*
%MOMM*%
%FSLAX34Y34*%
%LPD*%
%INSilkscreen Bottom*%
%IPPOS*%
%AMOC8*
5,1,8,0,0,1.08239X$1,22.5*%
G01*
%ADD10C,0.101600*%
%ADD11C,0.025400*%
%ADD12C,0.127000*%
%ADD13C,0.152400*%
%ADD14C,0.050800*%
%ADD15C,0.200000*%


D10*
X18908Y160662D02*
X30592Y160662D01*
X30592Y167153D02*
X23452Y160662D01*
X26048Y163258D02*
X18908Y167153D01*
X18908Y170892D02*
X30592Y174787D01*
X18908Y178682D01*
X21829Y177708D02*
X21829Y171866D01*
X18908Y183465D02*
X30592Y183465D01*
X24101Y187360D01*
X30592Y191255D01*
X18908Y191255D01*
X18908Y197647D02*
X30592Y197647D01*
X18908Y196349D02*
X18908Y198945D01*
X30592Y198945D02*
X30592Y196349D01*
X30592Y203949D02*
X18908Y203949D01*
X18908Y209142D01*
X18908Y221721D02*
X30592Y219124D01*
X26697Y224317D02*
X18908Y221721D01*
X18908Y226913D02*
X26697Y224317D01*
X30592Y229510D02*
X18908Y226913D01*
X18908Y234985D02*
X30592Y234985D01*
X18908Y233687D02*
X18908Y236283D01*
X30592Y236283D02*
X30592Y233687D01*
X30592Y241264D02*
X18908Y241264D01*
X18908Y247756D02*
X30592Y241264D01*
X30592Y247756D02*
X18908Y247756D01*
X18908Y253456D02*
X30592Y253456D01*
X18908Y259948D01*
X30592Y259948D01*
X30592Y266227D02*
X18908Y266227D01*
X18908Y264929D02*
X18908Y267525D01*
X30592Y267525D02*
X30592Y264929D01*
X18908Y274689D02*
X18908Y277285D01*
X18908Y274689D02*
X18910Y274590D01*
X18916Y274490D01*
X18925Y274391D01*
X18938Y274293D01*
X18955Y274195D01*
X18976Y274097D01*
X19001Y274001D01*
X19029Y273906D01*
X19061Y273812D01*
X19096Y273719D01*
X19135Y273627D01*
X19178Y273537D01*
X19223Y273449D01*
X19273Y273362D01*
X19325Y273278D01*
X19381Y273195D01*
X19439Y273115D01*
X19501Y273037D01*
X19566Y272962D01*
X19634Y272889D01*
X19704Y272819D01*
X19777Y272751D01*
X19852Y272686D01*
X19930Y272624D01*
X20010Y272566D01*
X20093Y272510D01*
X20177Y272458D01*
X20264Y272408D01*
X20352Y272363D01*
X20442Y272320D01*
X20534Y272281D01*
X20627Y272246D01*
X20721Y272214D01*
X20816Y272186D01*
X20912Y272161D01*
X21010Y272140D01*
X21108Y272123D01*
X21206Y272110D01*
X21305Y272101D01*
X21405Y272095D01*
X21504Y272093D01*
X21504Y272092D02*
X27996Y272092D01*
X27996Y272093D02*
X28095Y272095D01*
X28195Y272101D01*
X28294Y272110D01*
X28392Y272123D01*
X28490Y272140D01*
X28588Y272161D01*
X28684Y272186D01*
X28779Y272214D01*
X28873Y272246D01*
X28966Y272281D01*
X29058Y272320D01*
X29148Y272363D01*
X29236Y272408D01*
X29323Y272458D01*
X29407Y272510D01*
X29490Y272566D01*
X29570Y272624D01*
X29648Y272686D01*
X29723Y272751D01*
X29796Y272819D01*
X29866Y272889D01*
X29934Y272962D01*
X29999Y273037D01*
X30061Y273115D01*
X30119Y273195D01*
X30175Y273278D01*
X30227Y273362D01*
X30277Y273449D01*
X30322Y273537D01*
X30365Y273627D01*
X30404Y273719D01*
X30439Y273811D01*
X30471Y273906D01*
X30499Y274001D01*
X30524Y274097D01*
X30545Y274195D01*
X30562Y274293D01*
X30575Y274391D01*
X30584Y274490D01*
X30590Y274590D01*
X30592Y274689D01*
X30592Y277285D01*
X30592Y282201D02*
X18908Y282201D01*
X23452Y282201D02*
X30592Y288692D01*
X26048Y284797D02*
X18908Y288692D01*
X18908Y294040D02*
X30592Y294040D01*
X18908Y292742D02*
X18908Y295338D01*
X30592Y295338D02*
X30592Y292742D01*
X11542Y159805D02*
X-142Y159805D01*
X11542Y159805D02*
X11542Y164998D01*
X6349Y164998D02*
X6349Y159805D01*
X-142Y169711D02*
X-142Y174904D01*
X-142Y169711D02*
X11542Y169711D01*
X11542Y174904D01*
X6349Y173606D02*
X6349Y169711D01*
X6349Y179764D02*
X6349Y183010D01*
X6350Y183010D02*
X6348Y183123D01*
X6342Y183236D01*
X6332Y183349D01*
X6318Y183462D01*
X6301Y183574D01*
X6279Y183685D01*
X6254Y183795D01*
X6224Y183905D01*
X6191Y184013D01*
X6154Y184120D01*
X6114Y184226D01*
X6069Y184330D01*
X6021Y184433D01*
X5970Y184534D01*
X5915Y184633D01*
X5857Y184730D01*
X5795Y184825D01*
X5730Y184918D01*
X5662Y185008D01*
X5591Y185096D01*
X5516Y185182D01*
X5439Y185265D01*
X5359Y185345D01*
X5276Y185422D01*
X5190Y185497D01*
X5102Y185568D01*
X5012Y185636D01*
X4919Y185701D01*
X4824Y185763D01*
X4727Y185821D01*
X4628Y185876D01*
X4527Y185927D01*
X4424Y185975D01*
X4320Y186020D01*
X4214Y186060D01*
X4107Y186097D01*
X3999Y186130D01*
X3889Y186160D01*
X3779Y186185D01*
X3668Y186207D01*
X3556Y186224D01*
X3443Y186238D01*
X3330Y186248D01*
X3217Y186254D01*
X3104Y186256D01*
X2991Y186254D01*
X2878Y186248D01*
X2765Y186238D01*
X2652Y186224D01*
X2540Y186207D01*
X2429Y186185D01*
X2319Y186160D01*
X2209Y186130D01*
X2101Y186097D01*
X1994Y186060D01*
X1888Y186020D01*
X1784Y185975D01*
X1681Y185927D01*
X1580Y185876D01*
X1481Y185821D01*
X1384Y185763D01*
X1289Y185701D01*
X1196Y185636D01*
X1106Y185568D01*
X1018Y185497D01*
X932Y185422D01*
X849Y185345D01*
X769Y185265D01*
X692Y185182D01*
X617Y185096D01*
X546Y185008D01*
X478Y184918D01*
X413Y184825D01*
X351Y184730D01*
X293Y184633D01*
X238Y184534D01*
X187Y184433D01*
X139Y184330D01*
X94Y184226D01*
X54Y184120D01*
X17Y184013D01*
X-16Y183905D01*
X-46Y183795D01*
X-71Y183685D01*
X-93Y183574D01*
X-110Y183462D01*
X-124Y183349D01*
X-134Y183236D01*
X-140Y183123D01*
X-142Y183010D01*
X-142Y179764D01*
X11542Y179764D01*
X11542Y183010D01*
X11540Y183111D01*
X11534Y183211D01*
X11524Y183311D01*
X11511Y183411D01*
X11493Y183510D01*
X11472Y183609D01*
X11447Y183706D01*
X11418Y183803D01*
X11385Y183898D01*
X11349Y183992D01*
X11309Y184084D01*
X11266Y184175D01*
X11219Y184264D01*
X11169Y184351D01*
X11115Y184437D01*
X11058Y184520D01*
X10998Y184600D01*
X10935Y184679D01*
X10868Y184755D01*
X10799Y184828D01*
X10727Y184898D01*
X10653Y184966D01*
X10576Y185031D01*
X10496Y185092D01*
X10414Y185151D01*
X10330Y185206D01*
X10244Y185258D01*
X10156Y185307D01*
X10066Y185352D01*
X9974Y185394D01*
X9881Y185432D01*
X9786Y185466D01*
X9691Y185497D01*
X9594Y185524D01*
X9496Y185547D01*
X9397Y185567D01*
X9297Y185582D01*
X9197Y185594D01*
X9097Y185602D01*
X8996Y185606D01*
X8896Y185606D01*
X8795Y185602D01*
X8695Y185594D01*
X8595Y185582D01*
X8495Y185567D01*
X8396Y185547D01*
X8298Y185524D01*
X8201Y185497D01*
X8106Y185466D01*
X8011Y185432D01*
X7918Y185394D01*
X7826Y185352D01*
X7736Y185307D01*
X7648Y185258D01*
X7562Y185206D01*
X7478Y185151D01*
X7396Y185092D01*
X7316Y185031D01*
X7239Y184966D01*
X7165Y184898D01*
X7093Y184828D01*
X7024Y184755D01*
X6957Y184679D01*
X6894Y184600D01*
X6834Y184520D01*
X6777Y184437D01*
X6723Y184351D01*
X6673Y184264D01*
X6626Y184175D01*
X6583Y184084D01*
X6543Y183992D01*
X6507Y183898D01*
X6474Y183803D01*
X6445Y183706D01*
X6420Y183609D01*
X6399Y183510D01*
X6381Y183411D01*
X6368Y183311D01*
X6358Y183211D01*
X6352Y183111D01*
X6350Y183010D01*
X11542Y191098D02*
X-142Y191098D01*
X11542Y191098D02*
X11542Y194344D01*
X11540Y194457D01*
X11534Y194570D01*
X11524Y194683D01*
X11510Y194796D01*
X11493Y194908D01*
X11471Y195019D01*
X11446Y195129D01*
X11416Y195239D01*
X11383Y195347D01*
X11346Y195454D01*
X11306Y195560D01*
X11261Y195664D01*
X11213Y195767D01*
X11162Y195868D01*
X11107Y195967D01*
X11049Y196064D01*
X10987Y196159D01*
X10922Y196252D01*
X10854Y196342D01*
X10783Y196430D01*
X10708Y196516D01*
X10631Y196599D01*
X10551Y196679D01*
X10468Y196756D01*
X10382Y196831D01*
X10294Y196902D01*
X10204Y196970D01*
X10111Y197035D01*
X10016Y197097D01*
X9919Y197155D01*
X9820Y197210D01*
X9719Y197261D01*
X9616Y197309D01*
X9512Y197354D01*
X9406Y197394D01*
X9299Y197431D01*
X9191Y197464D01*
X9081Y197494D01*
X8971Y197519D01*
X8860Y197541D01*
X8748Y197558D01*
X8635Y197572D01*
X8522Y197582D01*
X8409Y197588D01*
X8296Y197590D01*
X8183Y197588D01*
X8070Y197582D01*
X7957Y197572D01*
X7844Y197558D01*
X7732Y197541D01*
X7621Y197519D01*
X7511Y197494D01*
X7401Y197464D01*
X7293Y197431D01*
X7186Y197394D01*
X7080Y197354D01*
X6976Y197309D01*
X6873Y197261D01*
X6772Y197210D01*
X6673Y197155D01*
X6576Y197097D01*
X6481Y197035D01*
X6388Y196970D01*
X6298Y196902D01*
X6210Y196831D01*
X6124Y196756D01*
X6041Y196679D01*
X5961Y196599D01*
X5884Y196516D01*
X5809Y196430D01*
X5738Y196342D01*
X5670Y196252D01*
X5605Y196159D01*
X5543Y196064D01*
X5485Y195967D01*
X5430Y195868D01*
X5379Y195767D01*
X5331Y195664D01*
X5286Y195560D01*
X5246Y195454D01*
X5209Y195347D01*
X5176Y195239D01*
X5146Y195129D01*
X5121Y195019D01*
X5099Y194908D01*
X5082Y194796D01*
X5068Y194683D01*
X5058Y194570D01*
X5052Y194457D01*
X5050Y194344D01*
X5051Y194344D02*
X5051Y191098D01*
X5051Y194993D02*
X-142Y197589D01*
X3104Y202836D02*
X11542Y202836D01*
X3104Y202835D02*
X2991Y202837D01*
X2878Y202843D01*
X2765Y202853D01*
X2652Y202867D01*
X2540Y202884D01*
X2429Y202906D01*
X2319Y202931D01*
X2209Y202961D01*
X2101Y202994D01*
X1994Y203031D01*
X1888Y203071D01*
X1784Y203116D01*
X1681Y203164D01*
X1580Y203215D01*
X1481Y203270D01*
X1384Y203328D01*
X1289Y203390D01*
X1196Y203455D01*
X1106Y203523D01*
X1018Y203594D01*
X932Y203669D01*
X849Y203746D01*
X769Y203826D01*
X692Y203909D01*
X617Y203995D01*
X546Y204083D01*
X478Y204173D01*
X413Y204266D01*
X351Y204361D01*
X293Y204458D01*
X238Y204557D01*
X187Y204658D01*
X139Y204761D01*
X94Y204865D01*
X54Y204971D01*
X17Y205078D01*
X-16Y205186D01*
X-46Y205296D01*
X-71Y205406D01*
X-93Y205517D01*
X-110Y205629D01*
X-124Y205742D01*
X-134Y205855D01*
X-140Y205968D01*
X-142Y206081D01*
X-140Y206194D01*
X-134Y206307D01*
X-124Y206420D01*
X-110Y206533D01*
X-93Y206645D01*
X-71Y206756D01*
X-46Y206866D01*
X-16Y206976D01*
X17Y207084D01*
X54Y207191D01*
X94Y207297D01*
X139Y207401D01*
X187Y207504D01*
X238Y207605D01*
X293Y207704D01*
X351Y207801D01*
X413Y207896D01*
X478Y207989D01*
X546Y208079D01*
X617Y208167D01*
X692Y208253D01*
X769Y208336D01*
X849Y208416D01*
X932Y208493D01*
X1018Y208568D01*
X1106Y208639D01*
X1196Y208707D01*
X1289Y208772D01*
X1384Y208834D01*
X1481Y208892D01*
X1580Y208947D01*
X1681Y208998D01*
X1784Y209046D01*
X1888Y209091D01*
X1994Y209131D01*
X2101Y209168D01*
X2209Y209201D01*
X2319Y209231D01*
X2429Y209256D01*
X2540Y209278D01*
X2652Y209295D01*
X2765Y209309D01*
X2878Y209319D01*
X2991Y209325D01*
X3104Y209327D01*
X11542Y209327D01*
X11542Y217892D02*
X-142Y213998D01*
X-142Y221787D02*
X11542Y217892D01*
X2779Y220813D02*
X2779Y214971D01*
X-142Y226531D02*
X11542Y226531D01*
X11542Y229777D01*
X11540Y229890D01*
X11534Y230003D01*
X11524Y230116D01*
X11510Y230229D01*
X11493Y230341D01*
X11471Y230452D01*
X11446Y230562D01*
X11416Y230672D01*
X11383Y230780D01*
X11346Y230887D01*
X11306Y230993D01*
X11261Y231097D01*
X11213Y231200D01*
X11162Y231301D01*
X11107Y231400D01*
X11049Y231497D01*
X10987Y231592D01*
X10922Y231685D01*
X10854Y231775D01*
X10783Y231863D01*
X10708Y231949D01*
X10631Y232032D01*
X10551Y232112D01*
X10468Y232189D01*
X10382Y232264D01*
X10294Y232335D01*
X10204Y232403D01*
X10111Y232468D01*
X10016Y232530D01*
X9919Y232588D01*
X9820Y232643D01*
X9719Y232694D01*
X9616Y232742D01*
X9512Y232787D01*
X9406Y232827D01*
X9299Y232864D01*
X9191Y232897D01*
X9081Y232927D01*
X8971Y232952D01*
X8860Y232974D01*
X8748Y232991D01*
X8635Y233005D01*
X8522Y233015D01*
X8409Y233021D01*
X8296Y233023D01*
X8183Y233021D01*
X8070Y233015D01*
X7957Y233005D01*
X7844Y232991D01*
X7732Y232974D01*
X7621Y232952D01*
X7511Y232927D01*
X7401Y232897D01*
X7293Y232864D01*
X7186Y232827D01*
X7080Y232787D01*
X6976Y232742D01*
X6873Y232694D01*
X6772Y232643D01*
X6673Y232588D01*
X6576Y232530D01*
X6481Y232468D01*
X6388Y232403D01*
X6298Y232335D01*
X6210Y232264D01*
X6124Y232189D01*
X6041Y232112D01*
X5961Y232032D01*
X5884Y231949D01*
X5809Y231863D01*
X5738Y231775D01*
X5670Y231685D01*
X5605Y231592D01*
X5543Y231497D01*
X5485Y231400D01*
X5430Y231301D01*
X5379Y231200D01*
X5331Y231097D01*
X5286Y230993D01*
X5246Y230887D01*
X5209Y230780D01*
X5176Y230672D01*
X5146Y230562D01*
X5121Y230452D01*
X5099Y230341D01*
X5082Y230229D01*
X5068Y230116D01*
X5058Y230003D01*
X5052Y229890D01*
X5050Y229777D01*
X5051Y229777D02*
X5051Y226531D01*
X5051Y230426D02*
X-142Y233022D01*
X6025Y241133D02*
X11542Y237239D01*
X6025Y241133D02*
X11542Y245028D01*
X6025Y241133D02*
X-142Y241133D01*
X11542Y258984D02*
X11540Y259091D01*
X11534Y259197D01*
X11524Y259303D01*
X11511Y259409D01*
X11493Y259515D01*
X11472Y259619D01*
X11447Y259723D01*
X11418Y259826D01*
X11386Y259927D01*
X11349Y260027D01*
X11309Y260126D01*
X11266Y260224D01*
X11219Y260320D01*
X11168Y260414D01*
X11114Y260506D01*
X11057Y260596D01*
X10997Y260684D01*
X10933Y260769D01*
X10866Y260852D01*
X10796Y260933D01*
X10724Y261011D01*
X10648Y261087D01*
X10570Y261159D01*
X10489Y261229D01*
X10406Y261296D01*
X10321Y261360D01*
X10233Y261420D01*
X10143Y261477D01*
X10051Y261531D01*
X9957Y261582D01*
X9861Y261629D01*
X9763Y261672D01*
X9664Y261712D01*
X9564Y261749D01*
X9463Y261781D01*
X9360Y261810D01*
X9256Y261835D01*
X9152Y261856D01*
X9046Y261874D01*
X8940Y261887D01*
X8834Y261897D01*
X8728Y261903D01*
X8621Y261905D01*
X11542Y258984D02*
X11540Y258863D01*
X11534Y258742D01*
X11524Y258622D01*
X11511Y258501D01*
X11493Y258382D01*
X11472Y258262D01*
X11447Y258144D01*
X11418Y258027D01*
X11385Y257910D01*
X11349Y257795D01*
X11308Y257681D01*
X11265Y257568D01*
X11217Y257456D01*
X11166Y257347D01*
X11111Y257239D01*
X11053Y257132D01*
X10992Y257028D01*
X10927Y256926D01*
X10859Y256826D01*
X10788Y256728D01*
X10714Y256632D01*
X10637Y256539D01*
X10556Y256449D01*
X10473Y256361D01*
X10387Y256276D01*
X10298Y256193D01*
X10207Y256114D01*
X10113Y256037D01*
X10017Y255964D01*
X9919Y255894D01*
X9818Y255827D01*
X9715Y255763D01*
X9610Y255703D01*
X9503Y255646D01*
X9395Y255592D01*
X9285Y255542D01*
X9173Y255496D01*
X9060Y255453D01*
X8945Y255414D01*
X6349Y260931D02*
X6426Y261010D01*
X6507Y261086D01*
X6590Y261159D01*
X6675Y261229D01*
X6763Y261296D01*
X6853Y261360D01*
X6945Y261420D01*
X7040Y261477D01*
X7136Y261531D01*
X7234Y261582D01*
X7334Y261629D01*
X7436Y261673D01*
X7539Y261713D01*
X7643Y261749D01*
X7749Y261781D01*
X7855Y261810D01*
X7963Y261835D01*
X8071Y261857D01*
X8181Y261874D01*
X8290Y261888D01*
X8400Y261897D01*
X8511Y261903D01*
X8621Y261905D01*
X6349Y260931D02*
X-142Y255414D01*
X-142Y261905D01*
X5700Y266844D02*
X5930Y266847D01*
X6160Y266855D01*
X6389Y266869D01*
X6618Y266888D01*
X6847Y266913D01*
X7074Y266943D01*
X7302Y266978D01*
X7528Y267019D01*
X7753Y267065D01*
X7977Y267117D01*
X8199Y267174D01*
X8421Y267236D01*
X8640Y267304D01*
X8858Y267377D01*
X9075Y267455D01*
X9289Y267538D01*
X9501Y267626D01*
X9711Y267719D01*
X9919Y267818D01*
X9919Y267817D02*
X10009Y267850D01*
X10098Y267886D01*
X10186Y267926D01*
X10271Y267970D01*
X10355Y268017D01*
X10437Y268067D01*
X10517Y268121D01*
X10594Y268177D01*
X10670Y268237D01*
X10743Y268300D01*
X10813Y268365D01*
X10881Y268434D01*
X10945Y268505D01*
X11007Y268578D01*
X11066Y268654D01*
X11122Y268732D01*
X11175Y268813D01*
X11224Y268895D01*
X11270Y268979D01*
X11313Y269066D01*
X11352Y269153D01*
X11388Y269243D01*
X11420Y269333D01*
X11448Y269425D01*
X11473Y269518D01*
X11494Y269612D01*
X11511Y269706D01*
X11525Y269801D01*
X11534Y269897D01*
X11540Y269993D01*
X11542Y270089D01*
X11540Y270185D01*
X11534Y270281D01*
X11525Y270377D01*
X11511Y270472D01*
X11494Y270566D01*
X11473Y270660D01*
X11448Y270753D01*
X11420Y270845D01*
X11388Y270935D01*
X11352Y271025D01*
X11313Y271112D01*
X11270Y271199D01*
X11224Y271283D01*
X11175Y271365D01*
X11122Y271446D01*
X11066Y271524D01*
X11007Y271600D01*
X10945Y271673D01*
X10881Y271744D01*
X10813Y271813D01*
X10743Y271878D01*
X10670Y271941D01*
X10594Y272001D01*
X10517Y272057D01*
X10437Y272111D01*
X10355Y272161D01*
X10271Y272208D01*
X10186Y272252D01*
X10098Y272292D01*
X10009Y272328D01*
X9919Y272361D01*
X9712Y272460D01*
X9502Y272553D01*
X9289Y272641D01*
X9075Y272724D01*
X8859Y272802D01*
X8641Y272875D01*
X8421Y272943D01*
X8200Y273005D01*
X7977Y273062D01*
X7753Y273114D01*
X7528Y273160D01*
X7302Y273201D01*
X7075Y273236D01*
X6847Y273266D01*
X6618Y273291D01*
X6389Y273310D01*
X6160Y273324D01*
X5930Y273332D01*
X5700Y273335D01*
X5700Y266843D02*
X5470Y266846D01*
X5240Y266854D01*
X5011Y266868D01*
X4782Y266887D01*
X4553Y266912D01*
X4325Y266942D01*
X4098Y266977D01*
X3872Y267018D01*
X3647Y267064D01*
X3423Y267116D01*
X3200Y267173D01*
X2979Y267235D01*
X2759Y267303D01*
X2541Y267376D01*
X2325Y267454D01*
X2111Y267537D01*
X1899Y267625D01*
X1688Y267718D01*
X1481Y267817D01*
X1391Y267850D01*
X1302Y267886D01*
X1214Y267927D01*
X1129Y267970D01*
X1045Y268017D01*
X963Y268067D01*
X883Y268121D01*
X806Y268177D01*
X730Y268237D01*
X657Y268300D01*
X587Y268365D01*
X519Y268434D01*
X455Y268505D01*
X393Y268578D01*
X334Y268654D01*
X278Y268732D01*
X225Y268813D01*
X176Y268895D01*
X130Y268979D01*
X87Y269066D01*
X48Y269153D01*
X12Y269243D01*
X-20Y269333D01*
X-48Y269425D01*
X-73Y269518D01*
X-94Y269612D01*
X-111Y269706D01*
X-125Y269801D01*
X-134Y269897D01*
X-140Y269993D01*
X-142Y270089D01*
X1481Y272361D02*
X1688Y272460D01*
X1899Y272553D01*
X2111Y272641D01*
X2325Y272724D01*
X2541Y272802D01*
X2759Y272875D01*
X2979Y272943D01*
X3200Y273005D01*
X3423Y273062D01*
X3647Y273114D01*
X3872Y273160D01*
X4098Y273201D01*
X4325Y273236D01*
X4553Y273266D01*
X4782Y273291D01*
X5011Y273310D01*
X5240Y273324D01*
X5470Y273332D01*
X5700Y273335D01*
X1481Y272361D02*
X1391Y272328D01*
X1302Y272292D01*
X1214Y272252D01*
X1129Y272208D01*
X1045Y272161D01*
X963Y272111D01*
X883Y272057D01*
X806Y272001D01*
X730Y271941D01*
X657Y271878D01*
X587Y271813D01*
X519Y271744D01*
X455Y271673D01*
X393Y271600D01*
X334Y271524D01*
X278Y271446D01*
X225Y271365D01*
X176Y271283D01*
X130Y271199D01*
X87Y271112D01*
X48Y271025D01*
X12Y270935D01*
X-20Y270845D01*
X-48Y270753D01*
X-73Y270660D01*
X-94Y270566D01*
X-111Y270472D01*
X-125Y270377D01*
X-134Y270281D01*
X-140Y270185D01*
X-142Y270089D01*
X2454Y267493D02*
X8946Y272686D01*
X11542Y281844D02*
X11540Y281951D01*
X11534Y282057D01*
X11524Y282163D01*
X11511Y282269D01*
X11493Y282375D01*
X11472Y282479D01*
X11447Y282583D01*
X11418Y282686D01*
X11386Y282787D01*
X11349Y282887D01*
X11309Y282986D01*
X11266Y283084D01*
X11219Y283180D01*
X11168Y283274D01*
X11114Y283366D01*
X11057Y283456D01*
X10997Y283544D01*
X10933Y283629D01*
X10866Y283712D01*
X10796Y283793D01*
X10724Y283871D01*
X10648Y283947D01*
X10570Y284019D01*
X10489Y284089D01*
X10406Y284156D01*
X10321Y284220D01*
X10233Y284280D01*
X10143Y284337D01*
X10051Y284391D01*
X9957Y284442D01*
X9861Y284489D01*
X9763Y284532D01*
X9664Y284572D01*
X9564Y284609D01*
X9463Y284641D01*
X9360Y284670D01*
X9256Y284695D01*
X9152Y284716D01*
X9046Y284734D01*
X8940Y284747D01*
X8834Y284757D01*
X8728Y284763D01*
X8621Y284765D01*
X11542Y281844D02*
X11540Y281723D01*
X11534Y281602D01*
X11524Y281482D01*
X11511Y281361D01*
X11493Y281242D01*
X11472Y281122D01*
X11447Y281004D01*
X11418Y280887D01*
X11385Y280770D01*
X11349Y280655D01*
X11308Y280541D01*
X11265Y280428D01*
X11217Y280316D01*
X11166Y280207D01*
X11111Y280099D01*
X11053Y279992D01*
X10992Y279888D01*
X10927Y279786D01*
X10859Y279686D01*
X10788Y279588D01*
X10714Y279492D01*
X10637Y279399D01*
X10556Y279309D01*
X10473Y279221D01*
X10387Y279136D01*
X10298Y279053D01*
X10207Y278974D01*
X10113Y278897D01*
X10017Y278824D01*
X9919Y278754D01*
X9818Y278687D01*
X9715Y278623D01*
X9610Y278563D01*
X9503Y278506D01*
X9395Y278452D01*
X9285Y278402D01*
X9173Y278356D01*
X9060Y278313D01*
X8945Y278274D01*
X6349Y283791D02*
X6426Y283870D01*
X6507Y283946D01*
X6590Y284019D01*
X6675Y284089D01*
X6763Y284156D01*
X6853Y284220D01*
X6945Y284280D01*
X7040Y284337D01*
X7136Y284391D01*
X7234Y284442D01*
X7334Y284489D01*
X7436Y284533D01*
X7539Y284573D01*
X7643Y284609D01*
X7749Y284641D01*
X7855Y284670D01*
X7963Y284695D01*
X8071Y284717D01*
X8181Y284734D01*
X8290Y284748D01*
X8400Y284757D01*
X8511Y284763D01*
X8621Y284765D01*
X6349Y283791D02*
X-142Y278274D01*
X-142Y284765D01*
X-142Y289704D02*
X-142Y292949D01*
X-140Y293062D01*
X-134Y293175D01*
X-124Y293288D01*
X-110Y293401D01*
X-93Y293513D01*
X-71Y293624D01*
X-46Y293734D01*
X-16Y293844D01*
X17Y293952D01*
X54Y294059D01*
X94Y294165D01*
X139Y294269D01*
X187Y294372D01*
X238Y294473D01*
X293Y294572D01*
X351Y294669D01*
X413Y294764D01*
X478Y294857D01*
X546Y294947D01*
X617Y295035D01*
X692Y295121D01*
X769Y295204D01*
X849Y295284D01*
X932Y295361D01*
X1018Y295436D01*
X1106Y295507D01*
X1196Y295575D01*
X1289Y295640D01*
X1384Y295702D01*
X1481Y295760D01*
X1580Y295815D01*
X1681Y295866D01*
X1784Y295914D01*
X1888Y295959D01*
X1994Y295999D01*
X2101Y296036D01*
X2209Y296069D01*
X2319Y296099D01*
X2429Y296124D01*
X2540Y296146D01*
X2652Y296163D01*
X2765Y296177D01*
X2878Y296187D01*
X2991Y296193D01*
X3104Y296195D01*
X3217Y296193D01*
X3330Y296187D01*
X3443Y296177D01*
X3556Y296163D01*
X3668Y296146D01*
X3779Y296124D01*
X3889Y296099D01*
X3999Y296069D01*
X4107Y296036D01*
X4214Y295999D01*
X4320Y295959D01*
X4424Y295914D01*
X4527Y295866D01*
X4628Y295815D01*
X4727Y295760D01*
X4824Y295702D01*
X4919Y295640D01*
X5012Y295575D01*
X5102Y295507D01*
X5190Y295436D01*
X5276Y295361D01*
X5359Y295284D01*
X5439Y295204D01*
X5516Y295121D01*
X5591Y295035D01*
X5662Y294947D01*
X5730Y294857D01*
X5795Y294764D01*
X5857Y294669D01*
X5915Y294572D01*
X5970Y294473D01*
X6021Y294372D01*
X6069Y294269D01*
X6114Y294165D01*
X6154Y294059D01*
X6191Y293952D01*
X6224Y293844D01*
X6254Y293734D01*
X6279Y293624D01*
X6301Y293513D01*
X6318Y293401D01*
X6332Y293288D01*
X6342Y293175D01*
X6348Y293062D01*
X6350Y292949D01*
X11542Y293598D02*
X11542Y289704D01*
X11542Y293598D02*
X11540Y293699D01*
X11534Y293799D01*
X11524Y293899D01*
X11511Y293999D01*
X11493Y294098D01*
X11472Y294197D01*
X11447Y294294D01*
X11418Y294391D01*
X11385Y294486D01*
X11349Y294580D01*
X11309Y294672D01*
X11266Y294763D01*
X11219Y294852D01*
X11169Y294939D01*
X11115Y295025D01*
X11058Y295108D01*
X10998Y295188D01*
X10935Y295267D01*
X10868Y295343D01*
X10799Y295416D01*
X10727Y295486D01*
X10653Y295554D01*
X10576Y295619D01*
X10496Y295680D01*
X10414Y295739D01*
X10330Y295794D01*
X10244Y295846D01*
X10156Y295895D01*
X10066Y295940D01*
X9974Y295982D01*
X9881Y296020D01*
X9786Y296054D01*
X9691Y296085D01*
X9594Y296112D01*
X9496Y296135D01*
X9397Y296155D01*
X9297Y296170D01*
X9197Y296182D01*
X9097Y296190D01*
X8996Y296194D01*
X8896Y296194D01*
X8795Y296190D01*
X8695Y296182D01*
X8595Y296170D01*
X8495Y296155D01*
X8396Y296135D01*
X8298Y296112D01*
X8201Y296085D01*
X8106Y296054D01*
X8011Y296020D01*
X7918Y295982D01*
X7826Y295940D01*
X7736Y295895D01*
X7648Y295846D01*
X7562Y295794D01*
X7478Y295739D01*
X7396Y295680D01*
X7316Y295619D01*
X7239Y295554D01*
X7165Y295486D01*
X7093Y295416D01*
X7024Y295343D01*
X6957Y295267D01*
X6894Y295188D01*
X6834Y295108D01*
X6777Y295025D01*
X6723Y294939D01*
X6673Y294852D01*
X6626Y294763D01*
X6583Y294672D01*
X6543Y294580D01*
X6507Y294486D01*
X6474Y294391D01*
X6445Y294294D01*
X6420Y294197D01*
X6399Y294098D01*
X6381Y293999D01*
X6368Y293899D01*
X6358Y293799D01*
X6352Y293699D01*
X6350Y293598D01*
X6349Y293598D02*
X6349Y291002D01*
X-4912Y192468D02*
X-7508Y192468D01*
X-7508Y195714D02*
X-4912Y195714D01*
X-12701Y200540D02*
X-12701Y203785D01*
X-12700Y203785D02*
X-12702Y203898D01*
X-12708Y204011D01*
X-12718Y204124D01*
X-12732Y204237D01*
X-12749Y204349D01*
X-12771Y204460D01*
X-12796Y204570D01*
X-12826Y204680D01*
X-12859Y204788D01*
X-12896Y204895D01*
X-12936Y205001D01*
X-12981Y205105D01*
X-13029Y205208D01*
X-13080Y205309D01*
X-13135Y205408D01*
X-13193Y205505D01*
X-13255Y205600D01*
X-13320Y205693D01*
X-13388Y205783D01*
X-13459Y205871D01*
X-13534Y205957D01*
X-13611Y206040D01*
X-13691Y206120D01*
X-13774Y206197D01*
X-13860Y206272D01*
X-13948Y206343D01*
X-14038Y206411D01*
X-14131Y206476D01*
X-14226Y206538D01*
X-14323Y206596D01*
X-14422Y206651D01*
X-14523Y206702D01*
X-14626Y206750D01*
X-14730Y206795D01*
X-14836Y206835D01*
X-14943Y206872D01*
X-15051Y206905D01*
X-15161Y206935D01*
X-15271Y206960D01*
X-15382Y206982D01*
X-15494Y206999D01*
X-15607Y207013D01*
X-15720Y207023D01*
X-15833Y207029D01*
X-15946Y207031D01*
X-16059Y207029D01*
X-16172Y207023D01*
X-16285Y207013D01*
X-16398Y206999D01*
X-16510Y206982D01*
X-16621Y206960D01*
X-16731Y206935D01*
X-16841Y206905D01*
X-16949Y206872D01*
X-17056Y206835D01*
X-17162Y206795D01*
X-17266Y206750D01*
X-17369Y206702D01*
X-17470Y206651D01*
X-17569Y206596D01*
X-17666Y206538D01*
X-17761Y206476D01*
X-17854Y206411D01*
X-17944Y206343D01*
X-18032Y206272D01*
X-18118Y206197D01*
X-18201Y206120D01*
X-18281Y206040D01*
X-18358Y205957D01*
X-18433Y205871D01*
X-18504Y205783D01*
X-18572Y205693D01*
X-18637Y205600D01*
X-18699Y205505D01*
X-18757Y205408D01*
X-18812Y205309D01*
X-18863Y205208D01*
X-18911Y205105D01*
X-18956Y205001D01*
X-18996Y204895D01*
X-19033Y204788D01*
X-19066Y204680D01*
X-19096Y204570D01*
X-19121Y204460D01*
X-19143Y204349D01*
X-19160Y204237D01*
X-19174Y204124D01*
X-19184Y204011D01*
X-19190Y203898D01*
X-19192Y203785D01*
X-19192Y200540D01*
X-7508Y200540D01*
X-7508Y203785D01*
X-7510Y203886D01*
X-7516Y203986D01*
X-7526Y204086D01*
X-7539Y204186D01*
X-7557Y204285D01*
X-7578Y204384D01*
X-7603Y204481D01*
X-7632Y204578D01*
X-7665Y204673D01*
X-7701Y204767D01*
X-7741Y204859D01*
X-7784Y204950D01*
X-7831Y205039D01*
X-7881Y205126D01*
X-7935Y205212D01*
X-7992Y205295D01*
X-8052Y205375D01*
X-8115Y205454D01*
X-8182Y205530D01*
X-8251Y205603D01*
X-8323Y205673D01*
X-8397Y205741D01*
X-8474Y205806D01*
X-8554Y205867D01*
X-8636Y205926D01*
X-8720Y205981D01*
X-8806Y206033D01*
X-8894Y206082D01*
X-8984Y206127D01*
X-9076Y206169D01*
X-9169Y206207D01*
X-9264Y206241D01*
X-9359Y206272D01*
X-9456Y206299D01*
X-9554Y206322D01*
X-9653Y206342D01*
X-9753Y206357D01*
X-9853Y206369D01*
X-9953Y206377D01*
X-10054Y206381D01*
X-10154Y206381D01*
X-10255Y206377D01*
X-10355Y206369D01*
X-10455Y206357D01*
X-10555Y206342D01*
X-10654Y206322D01*
X-10752Y206299D01*
X-10849Y206272D01*
X-10944Y206241D01*
X-11039Y206207D01*
X-11132Y206169D01*
X-11224Y206127D01*
X-11314Y206082D01*
X-11402Y206033D01*
X-11488Y205981D01*
X-11572Y205926D01*
X-11654Y205867D01*
X-11734Y205806D01*
X-11811Y205741D01*
X-11885Y205673D01*
X-11957Y205603D01*
X-12026Y205530D01*
X-12093Y205454D01*
X-12156Y205375D01*
X-12216Y205295D01*
X-12273Y205212D01*
X-12327Y205126D01*
X-12377Y205039D01*
X-12424Y204950D01*
X-12467Y204859D01*
X-12507Y204767D01*
X-12543Y204673D01*
X-12576Y204578D01*
X-12605Y204481D01*
X-12630Y204384D01*
X-12651Y204285D01*
X-12669Y204186D01*
X-12682Y204086D01*
X-12692Y203986D01*
X-12698Y203886D01*
X-12700Y203785D01*
X-19192Y211823D02*
X-19192Y217016D01*
X-19192Y211823D02*
X-7508Y211823D01*
X-7508Y217016D01*
X-12701Y215718D02*
X-12701Y211823D01*
X-19192Y221729D02*
X-19192Y226922D01*
X-19192Y221729D02*
X-7508Y221729D01*
X-7508Y226922D01*
X-12701Y225624D02*
X-12701Y221729D01*
X-7508Y233715D02*
X-19192Y233715D01*
X-7508Y230469D02*
X-7508Y236961D01*
X-7508Y241541D02*
X-19192Y241541D01*
X-19192Y246734D01*
X-19192Y251447D02*
X-19192Y256640D01*
X-19192Y251447D02*
X-7508Y251447D01*
X-7508Y256640D01*
X-12701Y255342D02*
X-12701Y251447D01*
X-7508Y260286D02*
X-4912Y260286D01*
X-4912Y263532D02*
X-7508Y263532D01*
D11*
X205533Y264537D02*
X206132Y263938D01*
X206131Y263938D02*
X206172Y263900D01*
X206214Y263865D01*
X206259Y263833D01*
X206307Y263803D01*
X206355Y263777D01*
X206406Y263754D01*
X206458Y263735D01*
X206511Y263719D01*
X206565Y263706D01*
X206619Y263697D01*
X206675Y263692D01*
X206730Y263690D01*
X206785Y263692D01*
X206841Y263697D01*
X206895Y263706D01*
X206949Y263719D01*
X207002Y263735D01*
X207054Y263754D01*
X207105Y263777D01*
X207154Y263803D01*
X207201Y263833D01*
X207246Y263865D01*
X207288Y263900D01*
X207329Y263938D01*
X208826Y265435D01*
X208864Y265476D01*
X208899Y265518D01*
X208931Y265563D01*
X208961Y265611D01*
X208987Y265659D01*
X209010Y265710D01*
X209029Y265762D01*
X209045Y265815D01*
X209058Y265869D01*
X209067Y265923D01*
X209072Y265979D01*
X209074Y266034D01*
X209072Y266089D01*
X209067Y266145D01*
X209058Y266199D01*
X209045Y266253D01*
X209029Y266306D01*
X209010Y266358D01*
X208987Y266409D01*
X208961Y266458D01*
X208931Y266505D01*
X208899Y266550D01*
X208864Y266592D01*
X208826Y266633D01*
X208826Y266632D02*
X208227Y267231D01*
X206664Y267597D02*
X206514Y268944D01*
X203820Y266250D01*
X203072Y266998D02*
X204568Y265501D01*
X217932Y278908D02*
X217333Y279507D01*
X217931Y278908D02*
X217972Y278870D01*
X218014Y278835D01*
X218059Y278803D01*
X218107Y278773D01*
X218155Y278747D01*
X218206Y278724D01*
X218258Y278705D01*
X218311Y278689D01*
X218365Y278676D01*
X218419Y278667D01*
X218475Y278662D01*
X218530Y278660D01*
X218585Y278662D01*
X218641Y278667D01*
X218695Y278676D01*
X218749Y278689D01*
X218802Y278705D01*
X218854Y278724D01*
X218905Y278747D01*
X218954Y278773D01*
X219001Y278803D01*
X219046Y278835D01*
X219088Y278870D01*
X219129Y278908D01*
X220626Y280405D01*
X220664Y280446D01*
X220699Y280488D01*
X220731Y280533D01*
X220761Y280581D01*
X220787Y280629D01*
X220810Y280680D01*
X220829Y280732D01*
X220845Y280785D01*
X220858Y280839D01*
X220867Y280893D01*
X220872Y280949D01*
X220874Y281004D01*
X220872Y281059D01*
X220867Y281115D01*
X220858Y281169D01*
X220845Y281223D01*
X220829Y281276D01*
X220810Y281328D01*
X220787Y281379D01*
X220761Y281428D01*
X220731Y281475D01*
X220699Y281520D01*
X220664Y281562D01*
X220626Y281603D01*
X220626Y281602D02*
X220027Y282201D01*
X216368Y280471D02*
X215620Y281220D01*
X215576Y281266D01*
X215535Y281316D01*
X215497Y281367D01*
X215463Y281421D01*
X215431Y281476D01*
X215403Y281534D01*
X215379Y281593D01*
X215358Y281653D01*
X215341Y281715D01*
X215327Y281777D01*
X215318Y281840D01*
X215312Y281904D01*
X215310Y281968D01*
X215312Y282032D01*
X215318Y282096D01*
X215327Y282159D01*
X215341Y282221D01*
X215358Y282283D01*
X215379Y282343D01*
X215403Y282402D01*
X215431Y282460D01*
X215463Y282515D01*
X215497Y282569D01*
X215535Y282620D01*
X215576Y282670D01*
X215620Y282716D01*
X215666Y282760D01*
X215716Y282801D01*
X215767Y282839D01*
X215821Y282873D01*
X215876Y282905D01*
X215934Y282933D01*
X215993Y282957D01*
X216053Y282978D01*
X216115Y282995D01*
X216177Y283009D01*
X216240Y283018D01*
X216304Y283024D01*
X216368Y283026D01*
X216432Y283024D01*
X216496Y283018D01*
X216559Y283009D01*
X216621Y282995D01*
X216683Y282978D01*
X216743Y282957D01*
X216802Y282933D01*
X216860Y282905D01*
X216915Y282873D01*
X216969Y282839D01*
X217020Y282801D01*
X217070Y282760D01*
X217116Y282716D01*
X218164Y284064D02*
X219063Y283166D01*
X218165Y284064D02*
X218124Y284103D01*
X218080Y284138D01*
X218034Y284171D01*
X217985Y284201D01*
X217935Y284227D01*
X217884Y284250D01*
X217830Y284270D01*
X217776Y284286D01*
X217721Y284298D01*
X217665Y284306D01*
X217608Y284311D01*
X217552Y284312D01*
X217495Y284309D01*
X217439Y284302D01*
X217383Y284292D01*
X217329Y284278D01*
X217275Y284260D01*
X217222Y284239D01*
X217171Y284214D01*
X217122Y284186D01*
X217075Y284155D01*
X217030Y284121D01*
X216987Y284084D01*
X216947Y284044D01*
X216910Y284001D01*
X216876Y283956D01*
X216845Y283909D01*
X216817Y283860D01*
X216792Y283809D01*
X216771Y283756D01*
X216753Y283702D01*
X216739Y283648D01*
X216729Y283592D01*
X216722Y283536D01*
X216719Y283479D01*
X216720Y283423D01*
X216725Y283366D01*
X216733Y283310D01*
X216745Y283255D01*
X216761Y283201D01*
X216781Y283147D01*
X216804Y283096D01*
X216830Y283046D01*
X216860Y282997D01*
X216893Y282951D01*
X216928Y282907D01*
X216967Y282866D01*
X217566Y282267D01*
X224953Y288397D02*
X225552Y287798D01*
X225551Y287798D02*
X225592Y287760D01*
X225634Y287725D01*
X225679Y287693D01*
X225727Y287663D01*
X225775Y287637D01*
X225826Y287614D01*
X225878Y287595D01*
X225931Y287579D01*
X225985Y287566D01*
X226039Y287557D01*
X226095Y287552D01*
X226150Y287550D01*
X226205Y287552D01*
X226261Y287557D01*
X226315Y287566D01*
X226369Y287579D01*
X226422Y287595D01*
X226474Y287614D01*
X226525Y287637D01*
X226574Y287663D01*
X226621Y287693D01*
X226666Y287725D01*
X226708Y287760D01*
X226749Y287798D01*
X228246Y289295D01*
X228284Y289336D01*
X228319Y289378D01*
X228351Y289423D01*
X228381Y289471D01*
X228407Y289519D01*
X228430Y289570D01*
X228449Y289622D01*
X228465Y289675D01*
X228478Y289729D01*
X228487Y289783D01*
X228492Y289839D01*
X228494Y289894D01*
X228492Y289949D01*
X228487Y290005D01*
X228478Y290059D01*
X228465Y290113D01*
X228449Y290166D01*
X228430Y290218D01*
X228407Y290269D01*
X228381Y290318D01*
X228351Y290365D01*
X228319Y290410D01*
X228284Y290452D01*
X228246Y290493D01*
X228246Y290492D02*
X227647Y291091D01*
X225859Y292878D02*
X225816Y292919D01*
X225770Y292957D01*
X225721Y292992D01*
X225671Y293024D01*
X225618Y293053D01*
X225564Y293079D01*
X225508Y293101D01*
X225452Y293119D01*
X225394Y293134D01*
X225335Y293145D01*
X225276Y293153D01*
X225216Y293157D01*
X225156Y293157D01*
X225096Y293153D01*
X225037Y293145D01*
X224978Y293134D01*
X224920Y293119D01*
X224864Y293101D01*
X224808Y293079D01*
X224754Y293053D01*
X224701Y293024D01*
X224651Y292992D01*
X224603Y292957D01*
X224556Y292919D01*
X224513Y292878D01*
X225860Y292878D02*
X225906Y292830D01*
X225949Y292779D01*
X225989Y292726D01*
X226027Y292670D01*
X226061Y292613D01*
X226092Y292553D01*
X226120Y292493D01*
X226145Y292430D01*
X226166Y292367D01*
X226183Y292302D01*
X226197Y292237D01*
X226208Y292171D01*
X226215Y292104D01*
X226218Y292037D01*
X226217Y291970D01*
X226213Y291904D01*
X226205Y291837D01*
X226194Y291771D01*
X226179Y291706D01*
X226160Y291642D01*
X226138Y291579D01*
X226113Y291517D01*
X226084Y291456D01*
X224213Y292130D02*
X224214Y292189D01*
X224217Y292248D01*
X224224Y292307D01*
X224235Y292365D01*
X224249Y292423D01*
X224266Y292479D01*
X224286Y292535D01*
X224310Y292589D01*
X224336Y292642D01*
X224366Y292693D01*
X224399Y292743D01*
X224434Y292790D01*
X224472Y292835D01*
X224513Y292878D01*
X224213Y292130D02*
X223988Y289361D01*
X222492Y290858D01*
D12*
X137730Y40170D02*
X108730Y40170D01*
X137730Y40170D02*
X142730Y35170D01*
X142730Y13170D01*
X108730Y13170D01*
X108730Y40170D01*
X127730Y35670D02*
X127730Y17670D01*
X138730Y17670D01*
X138730Y35670D01*
X112730Y35670D02*
X112730Y17670D01*
X123730Y17670D02*
X123730Y35670D01*
X127730Y35670D02*
X138730Y35670D01*
X123730Y35670D02*
X112730Y35670D01*
X112730Y17670D02*
X123730Y17670D01*
D13*
X245587Y245331D02*
X254780Y254523D01*
X244173Y265129D02*
X234981Y255937D01*
D14*
X256299Y249840D02*
X258056Y248084D01*
X256299Y249839D02*
X256242Y249894D01*
X256183Y249945D01*
X256121Y249993D01*
X256056Y250038D01*
X255989Y250079D01*
X255921Y250118D01*
X255850Y250152D01*
X255778Y250183D01*
X255704Y250211D01*
X255629Y250234D01*
X255553Y250254D01*
X255476Y250270D01*
X255398Y250282D01*
X255320Y250290D01*
X255241Y250294D01*
X255163Y250294D01*
X255084Y250290D01*
X255006Y250282D01*
X254928Y250270D01*
X254851Y250254D01*
X254775Y250234D01*
X254700Y250211D01*
X254626Y250183D01*
X254554Y250152D01*
X254483Y250118D01*
X254415Y250079D01*
X254348Y250038D01*
X254283Y249993D01*
X254221Y249945D01*
X254162Y249894D01*
X254105Y249839D01*
X254050Y249782D01*
X253999Y249723D01*
X253951Y249661D01*
X253906Y249596D01*
X253865Y249529D01*
X253826Y249461D01*
X253792Y249390D01*
X253761Y249318D01*
X253733Y249244D01*
X253710Y249169D01*
X253690Y249093D01*
X253674Y249016D01*
X253662Y248938D01*
X253654Y248860D01*
X253650Y248781D01*
X253650Y248703D01*
X253654Y248624D01*
X253662Y248546D01*
X253674Y248468D01*
X253690Y248391D01*
X253710Y248315D01*
X253733Y248240D01*
X253761Y248166D01*
X253792Y248094D01*
X253826Y248023D01*
X253865Y247955D01*
X253906Y247888D01*
X253951Y247823D01*
X253999Y247761D01*
X254050Y247702D01*
X254105Y247645D01*
X254104Y247644D02*
X255860Y245888D01*
X255861Y245889D02*
X255918Y245834D01*
X255977Y245783D01*
X256039Y245735D01*
X256104Y245690D01*
X256171Y245649D01*
X256239Y245610D01*
X256310Y245576D01*
X256382Y245545D01*
X256456Y245517D01*
X256531Y245494D01*
X256607Y245474D01*
X256684Y245458D01*
X256762Y245446D01*
X256840Y245438D01*
X256919Y245434D01*
X256997Y245434D01*
X257076Y245438D01*
X257154Y245446D01*
X257232Y245458D01*
X257309Y245474D01*
X257385Y245494D01*
X257460Y245517D01*
X257534Y245545D01*
X257606Y245576D01*
X257677Y245610D01*
X257745Y245649D01*
X257812Y245690D01*
X257877Y245735D01*
X257939Y245783D01*
X257998Y245834D01*
X258055Y245889D01*
X258110Y245946D01*
X258161Y246005D01*
X258209Y246067D01*
X258254Y246132D01*
X258295Y246199D01*
X258334Y246267D01*
X258368Y246338D01*
X258399Y246410D01*
X258427Y246484D01*
X258450Y246559D01*
X258470Y246635D01*
X258486Y246712D01*
X258498Y246790D01*
X258506Y246868D01*
X258510Y246947D01*
X258510Y247025D01*
X258506Y247104D01*
X258498Y247182D01*
X258486Y247260D01*
X258470Y247337D01*
X258450Y247413D01*
X258427Y247488D01*
X258399Y247562D01*
X258368Y247634D01*
X258334Y247705D01*
X258295Y247773D01*
X258254Y247840D01*
X258209Y247905D01*
X258161Y247967D01*
X258110Y248026D01*
X258055Y248083D01*
X256519Y246108D02*
X256519Y244352D01*
X252302Y246282D02*
X250327Y246062D01*
X254278Y242111D01*
X255376Y243208D02*
X253180Y241013D01*
D12*
X154420Y243560D02*
X154420Y208560D01*
X154420Y243560D02*
X89420Y243560D01*
X89420Y208560D01*
X154420Y208560D01*
D15*
X143420Y178560D02*
X143422Y178623D01*
X143428Y178685D01*
X143438Y178747D01*
X143451Y178809D01*
X143469Y178869D01*
X143490Y178928D01*
X143515Y178986D01*
X143544Y179042D01*
X143576Y179096D01*
X143611Y179148D01*
X143649Y179197D01*
X143691Y179245D01*
X143735Y179289D01*
X143783Y179331D01*
X143832Y179369D01*
X143884Y179404D01*
X143938Y179436D01*
X143994Y179465D01*
X144052Y179490D01*
X144111Y179511D01*
X144171Y179529D01*
X144233Y179542D01*
X144295Y179552D01*
X144357Y179558D01*
X144420Y179560D01*
X144483Y179558D01*
X144545Y179552D01*
X144607Y179542D01*
X144669Y179529D01*
X144729Y179511D01*
X144788Y179490D01*
X144846Y179465D01*
X144902Y179436D01*
X144956Y179404D01*
X145008Y179369D01*
X145057Y179331D01*
X145105Y179289D01*
X145149Y179245D01*
X145191Y179197D01*
X145229Y179148D01*
X145264Y179096D01*
X145296Y179042D01*
X145325Y178986D01*
X145350Y178928D01*
X145371Y178869D01*
X145389Y178809D01*
X145402Y178747D01*
X145412Y178685D01*
X145418Y178623D01*
X145420Y178560D01*
X145418Y178497D01*
X145412Y178435D01*
X145402Y178373D01*
X145389Y178311D01*
X145371Y178251D01*
X145350Y178192D01*
X145325Y178134D01*
X145296Y178078D01*
X145264Y178024D01*
X145229Y177972D01*
X145191Y177923D01*
X145149Y177875D01*
X145105Y177831D01*
X145057Y177789D01*
X145008Y177751D01*
X144956Y177716D01*
X144902Y177684D01*
X144846Y177655D01*
X144788Y177630D01*
X144729Y177609D01*
X144669Y177591D01*
X144607Y177578D01*
X144545Y177568D01*
X144483Y177562D01*
X144420Y177560D01*
X144357Y177562D01*
X144295Y177568D01*
X144233Y177578D01*
X144171Y177591D01*
X144111Y177609D01*
X144052Y177630D01*
X143994Y177655D01*
X143938Y177684D01*
X143884Y177716D01*
X143832Y177751D01*
X143783Y177789D01*
X143735Y177831D01*
X143691Y177875D01*
X143649Y177923D01*
X143611Y177972D01*
X143576Y178024D01*
X143544Y178078D01*
X143515Y178134D01*
X143490Y178192D01*
X143469Y178251D01*
X143451Y178311D01*
X143438Y178373D01*
X143428Y178435D01*
X143422Y178497D01*
X143420Y178560D01*
D13*
X261942Y120771D02*
X266432Y112994D01*
X263145Y100727D02*
X255368Y96237D01*
X259858Y88460D01*
X256571Y76192D02*
X248794Y71702D01*
X261942Y120771D02*
X225140Y130632D01*
X217363Y126142D01*
X214076Y113875D01*
X218566Y106098D01*
X210789Y101608D01*
X207502Y89340D01*
X211992Y81563D01*
X218566Y106098D02*
X255368Y96237D01*
X248794Y71702D02*
X211992Y81563D01*
X256571Y76192D02*
X259858Y88460D01*
X263145Y100727D02*
X266432Y112994D01*
X248794Y71702D02*
X253284Y63925D01*
X249997Y51658D02*
X242220Y47168D01*
X211992Y81563D02*
X204215Y77073D01*
X200928Y64806D01*
X205418Y57029D01*
X242220Y47168D01*
X249997Y51658D02*
X253284Y63925D01*
M02*
