G04 EAGLE Gerber RS-274X export*
G75*
%MOMM*%
%FSLAX34Y34*%
%LPD*%
%INSilkscreen Top*%
%IPPOS*%
%AMOC8*
5,1,8,0,0,1.08239X$1,22.5*%
G01*
%ADD10C,0.152400*%
%ADD11C,0.101600*%
%ADD12C,0.050800*%
%ADD13C,0.127000*%
%ADD14C,0.508000*%
%ADD15C,0.200000*%
%ADD16R,0.250000X0.250000*%
%ADD17C,0.025400*%
%ADD18C,0.076200*%
%ADD19R,1.524000X1.524000*%
%ADD20C,0.762000*%
%ADD21R,0.508000X0.762000*%
%ADD22R,1.016000X0.762000*%


D10*
X12700Y142240D02*
X12700Y129540D01*
X6350Y123190D01*
X-6350Y123190D01*
X-12700Y129540D01*
X-6350Y148590D02*
X6350Y148590D01*
X12700Y142240D01*
X-6350Y148590D02*
X-12700Y142240D01*
X-12700Y129540D01*
X6350Y123190D02*
X12700Y116840D01*
X12700Y104140D01*
X6350Y97790D01*
X-6350Y97790D01*
X-12700Y104140D01*
X-12700Y116840D01*
X-6350Y123190D01*
X77470Y345440D02*
X83820Y351790D01*
X77470Y332740D02*
X83820Y326390D01*
X77470Y320040D01*
X77470Y307340D02*
X83820Y300990D01*
X83820Y351790D02*
X121920Y351790D01*
X128270Y345440D01*
X128270Y332740D01*
X121920Y326390D01*
X128270Y320040D01*
X128270Y307340D01*
X121920Y300990D01*
X121920Y326390D02*
X83820Y326390D01*
X83820Y300990D02*
X121920Y300990D01*
X77470Y307340D02*
X77470Y320040D01*
X77470Y332740D02*
X77470Y345440D01*
X83820Y300990D02*
X77470Y294640D01*
X77470Y281940D02*
X83820Y275590D01*
X121920Y300990D02*
X128270Y294640D01*
X128270Y281940D01*
X121920Y275590D01*
X83820Y275590D01*
X77470Y281940D02*
X77470Y294640D01*
D11*
X75625Y-8128D02*
X75625Y-19812D01*
X75625Y-8128D02*
X78870Y-8128D01*
X78983Y-8130D01*
X79096Y-8136D01*
X79209Y-8146D01*
X79322Y-8160D01*
X79434Y-8177D01*
X79545Y-8199D01*
X79655Y-8224D01*
X79765Y-8254D01*
X79873Y-8287D01*
X79980Y-8324D01*
X80086Y-8364D01*
X80190Y-8409D01*
X80293Y-8457D01*
X80394Y-8508D01*
X80493Y-8563D01*
X80590Y-8621D01*
X80685Y-8683D01*
X80778Y-8748D01*
X80868Y-8816D01*
X80956Y-8887D01*
X81042Y-8962D01*
X81125Y-9039D01*
X81205Y-9119D01*
X81282Y-9202D01*
X81357Y-9288D01*
X81428Y-9376D01*
X81496Y-9466D01*
X81561Y-9559D01*
X81623Y-9654D01*
X81681Y-9751D01*
X81736Y-9850D01*
X81787Y-9951D01*
X81835Y-10054D01*
X81880Y-10158D01*
X81920Y-10264D01*
X81957Y-10371D01*
X81990Y-10479D01*
X82020Y-10589D01*
X82045Y-10699D01*
X82067Y-10810D01*
X82084Y-10922D01*
X82098Y-11035D01*
X82108Y-11148D01*
X82114Y-11261D01*
X82116Y-11374D01*
X82114Y-11487D01*
X82108Y-11600D01*
X82098Y-11713D01*
X82084Y-11826D01*
X82067Y-11938D01*
X82045Y-12049D01*
X82020Y-12159D01*
X81990Y-12269D01*
X81957Y-12377D01*
X81920Y-12484D01*
X81880Y-12590D01*
X81835Y-12694D01*
X81787Y-12797D01*
X81736Y-12898D01*
X81681Y-12997D01*
X81623Y-13094D01*
X81561Y-13189D01*
X81496Y-13282D01*
X81428Y-13372D01*
X81357Y-13460D01*
X81282Y-13546D01*
X81205Y-13629D01*
X81125Y-13709D01*
X81042Y-13786D01*
X80956Y-13861D01*
X80868Y-13932D01*
X80778Y-14000D01*
X80685Y-14065D01*
X80590Y-14127D01*
X80493Y-14185D01*
X80394Y-14240D01*
X80293Y-14291D01*
X80190Y-14339D01*
X80086Y-14384D01*
X79980Y-14424D01*
X79873Y-14461D01*
X79765Y-14494D01*
X79655Y-14524D01*
X79545Y-14549D01*
X79434Y-14571D01*
X79322Y-14588D01*
X79209Y-14602D01*
X79096Y-14612D01*
X78983Y-14618D01*
X78870Y-14620D01*
X78870Y-14619D02*
X75625Y-14619D01*
X79519Y-14619D02*
X82116Y-19812D01*
X86980Y-16566D02*
X86982Y-16453D01*
X86988Y-16340D01*
X86998Y-16227D01*
X87012Y-16114D01*
X87029Y-16002D01*
X87051Y-15891D01*
X87076Y-15781D01*
X87106Y-15671D01*
X87139Y-15563D01*
X87176Y-15456D01*
X87216Y-15350D01*
X87261Y-15246D01*
X87309Y-15143D01*
X87360Y-15042D01*
X87415Y-14943D01*
X87473Y-14846D01*
X87535Y-14751D01*
X87600Y-14658D01*
X87668Y-14568D01*
X87739Y-14480D01*
X87814Y-14394D01*
X87891Y-14311D01*
X87971Y-14231D01*
X88054Y-14154D01*
X88140Y-14079D01*
X88228Y-14008D01*
X88318Y-13940D01*
X88411Y-13875D01*
X88506Y-13813D01*
X88603Y-13755D01*
X88702Y-13700D01*
X88803Y-13649D01*
X88906Y-13601D01*
X89010Y-13556D01*
X89116Y-13516D01*
X89223Y-13479D01*
X89331Y-13446D01*
X89441Y-13416D01*
X89551Y-13391D01*
X89662Y-13369D01*
X89774Y-13352D01*
X89887Y-13338D01*
X90000Y-13328D01*
X90113Y-13322D01*
X90226Y-13320D01*
X90339Y-13322D01*
X90452Y-13328D01*
X90565Y-13338D01*
X90678Y-13352D01*
X90790Y-13369D01*
X90901Y-13391D01*
X91011Y-13416D01*
X91121Y-13446D01*
X91229Y-13479D01*
X91336Y-13516D01*
X91442Y-13556D01*
X91546Y-13601D01*
X91649Y-13649D01*
X91750Y-13700D01*
X91849Y-13755D01*
X91946Y-13813D01*
X92041Y-13875D01*
X92134Y-13940D01*
X92224Y-14008D01*
X92312Y-14079D01*
X92398Y-14154D01*
X92481Y-14231D01*
X92561Y-14311D01*
X92638Y-14394D01*
X92713Y-14480D01*
X92784Y-14568D01*
X92852Y-14658D01*
X92917Y-14751D01*
X92979Y-14846D01*
X93037Y-14943D01*
X93092Y-15042D01*
X93143Y-15143D01*
X93191Y-15246D01*
X93236Y-15350D01*
X93276Y-15456D01*
X93313Y-15563D01*
X93346Y-15671D01*
X93376Y-15781D01*
X93401Y-15891D01*
X93423Y-16002D01*
X93440Y-16114D01*
X93454Y-16227D01*
X93464Y-16340D01*
X93470Y-16453D01*
X93472Y-16566D01*
X93470Y-16679D01*
X93464Y-16792D01*
X93454Y-16905D01*
X93440Y-17018D01*
X93423Y-17130D01*
X93401Y-17241D01*
X93376Y-17351D01*
X93346Y-17461D01*
X93313Y-17569D01*
X93276Y-17676D01*
X93236Y-17782D01*
X93191Y-17886D01*
X93143Y-17989D01*
X93092Y-18090D01*
X93037Y-18189D01*
X92979Y-18286D01*
X92917Y-18381D01*
X92852Y-18474D01*
X92784Y-18564D01*
X92713Y-18652D01*
X92638Y-18738D01*
X92561Y-18821D01*
X92481Y-18901D01*
X92398Y-18978D01*
X92312Y-19053D01*
X92224Y-19124D01*
X92134Y-19192D01*
X92041Y-19257D01*
X91946Y-19319D01*
X91849Y-19377D01*
X91750Y-19432D01*
X91649Y-19483D01*
X91546Y-19531D01*
X91442Y-19576D01*
X91336Y-19616D01*
X91229Y-19653D01*
X91121Y-19686D01*
X91011Y-19716D01*
X90901Y-19741D01*
X90790Y-19763D01*
X90678Y-19780D01*
X90565Y-19794D01*
X90452Y-19804D01*
X90339Y-19810D01*
X90226Y-19812D01*
X90113Y-19810D01*
X90000Y-19804D01*
X89887Y-19794D01*
X89774Y-19780D01*
X89662Y-19763D01*
X89551Y-19741D01*
X89441Y-19716D01*
X89331Y-19686D01*
X89223Y-19653D01*
X89116Y-19616D01*
X89010Y-19576D01*
X88906Y-19531D01*
X88803Y-19483D01*
X88702Y-19432D01*
X88603Y-19377D01*
X88506Y-19319D01*
X88411Y-19257D01*
X88318Y-19192D01*
X88228Y-19124D01*
X88140Y-19053D01*
X88054Y-18978D01*
X87971Y-18901D01*
X87891Y-18821D01*
X87814Y-18738D01*
X87739Y-18652D01*
X87668Y-18564D01*
X87600Y-18474D01*
X87535Y-18381D01*
X87473Y-18286D01*
X87415Y-18189D01*
X87360Y-18090D01*
X87309Y-17989D01*
X87261Y-17886D01*
X87216Y-17782D01*
X87176Y-17676D01*
X87139Y-17569D01*
X87106Y-17461D01*
X87076Y-17351D01*
X87051Y-17241D01*
X87029Y-17130D01*
X87012Y-17018D01*
X86998Y-16905D01*
X86988Y-16792D01*
X86982Y-16679D01*
X86980Y-16566D01*
X87630Y-10724D02*
X87632Y-10623D01*
X87638Y-10523D01*
X87648Y-10423D01*
X87661Y-10323D01*
X87679Y-10224D01*
X87700Y-10125D01*
X87725Y-10028D01*
X87754Y-9931D01*
X87787Y-9836D01*
X87823Y-9742D01*
X87863Y-9650D01*
X87906Y-9559D01*
X87953Y-9470D01*
X88003Y-9383D01*
X88057Y-9297D01*
X88114Y-9214D01*
X88174Y-9134D01*
X88237Y-9055D01*
X88304Y-8979D01*
X88373Y-8906D01*
X88445Y-8836D01*
X88519Y-8768D01*
X88596Y-8703D01*
X88676Y-8642D01*
X88758Y-8583D01*
X88842Y-8528D01*
X88928Y-8476D01*
X89016Y-8427D01*
X89106Y-8382D01*
X89198Y-8340D01*
X89291Y-8302D01*
X89386Y-8268D01*
X89481Y-8237D01*
X89578Y-8210D01*
X89676Y-8187D01*
X89775Y-8167D01*
X89875Y-8152D01*
X89975Y-8140D01*
X90075Y-8132D01*
X90176Y-8128D01*
X90276Y-8128D01*
X90377Y-8132D01*
X90477Y-8140D01*
X90577Y-8152D01*
X90677Y-8167D01*
X90776Y-8187D01*
X90874Y-8210D01*
X90971Y-8237D01*
X91066Y-8268D01*
X91161Y-8302D01*
X91254Y-8340D01*
X91346Y-8382D01*
X91436Y-8427D01*
X91524Y-8476D01*
X91610Y-8528D01*
X91694Y-8583D01*
X91776Y-8642D01*
X91856Y-8703D01*
X91933Y-8768D01*
X92007Y-8836D01*
X92079Y-8906D01*
X92148Y-8979D01*
X92215Y-9055D01*
X92278Y-9134D01*
X92338Y-9214D01*
X92395Y-9297D01*
X92449Y-9383D01*
X92499Y-9470D01*
X92546Y-9559D01*
X92589Y-9650D01*
X92629Y-9742D01*
X92665Y-9836D01*
X92698Y-9931D01*
X92727Y-10028D01*
X92752Y-10125D01*
X92773Y-10224D01*
X92791Y-10323D01*
X92804Y-10423D01*
X92814Y-10523D01*
X92820Y-10623D01*
X92822Y-10724D01*
X92820Y-10825D01*
X92814Y-10925D01*
X92804Y-11025D01*
X92791Y-11125D01*
X92773Y-11224D01*
X92752Y-11323D01*
X92727Y-11420D01*
X92698Y-11517D01*
X92665Y-11612D01*
X92629Y-11706D01*
X92589Y-11798D01*
X92546Y-11889D01*
X92499Y-11978D01*
X92449Y-12065D01*
X92395Y-12151D01*
X92338Y-12234D01*
X92278Y-12314D01*
X92215Y-12393D01*
X92148Y-12469D01*
X92079Y-12542D01*
X92007Y-12612D01*
X91933Y-12680D01*
X91856Y-12745D01*
X91776Y-12806D01*
X91694Y-12865D01*
X91610Y-12920D01*
X91524Y-12972D01*
X91436Y-13021D01*
X91346Y-13066D01*
X91254Y-13108D01*
X91161Y-13146D01*
X91066Y-13180D01*
X90971Y-13211D01*
X90874Y-13238D01*
X90776Y-13261D01*
X90677Y-13281D01*
X90577Y-13296D01*
X90477Y-13308D01*
X90377Y-13316D01*
X90276Y-13320D01*
X90176Y-13320D01*
X90075Y-13316D01*
X89975Y-13308D01*
X89875Y-13296D01*
X89775Y-13281D01*
X89676Y-13261D01*
X89578Y-13238D01*
X89481Y-13211D01*
X89386Y-13180D01*
X89291Y-13146D01*
X89198Y-13108D01*
X89106Y-13066D01*
X89016Y-13021D01*
X88928Y-12972D01*
X88842Y-12920D01*
X88758Y-12865D01*
X88676Y-12806D01*
X88596Y-12745D01*
X88519Y-12680D01*
X88445Y-12612D01*
X88373Y-12542D01*
X88304Y-12469D01*
X88237Y-12393D01*
X88174Y-12314D01*
X88114Y-12234D01*
X88057Y-12151D01*
X88003Y-12065D01*
X87953Y-11978D01*
X87906Y-11889D01*
X87863Y-11798D01*
X87823Y-11706D01*
X87787Y-11612D01*
X87754Y-11517D01*
X87725Y-11420D01*
X87700Y-11323D01*
X87679Y-11224D01*
X87661Y-11125D01*
X87648Y-11025D01*
X87638Y-10925D01*
X87632Y-10825D01*
X87630Y-10724D01*
X81788Y68016D02*
X85034Y70612D01*
X85034Y58928D01*
X88279Y58928D02*
X81788Y58928D01*
X93218Y64770D02*
X93221Y65000D01*
X93229Y65230D01*
X93243Y65459D01*
X93262Y65688D01*
X93287Y65917D01*
X93317Y66144D01*
X93352Y66372D01*
X93393Y66598D01*
X93439Y66823D01*
X93491Y67047D01*
X93548Y67269D01*
X93610Y67491D01*
X93678Y67710D01*
X93751Y67928D01*
X93829Y68145D01*
X93912Y68359D01*
X94000Y68571D01*
X94093Y68781D01*
X94192Y68989D01*
X94225Y69079D01*
X94261Y69168D01*
X94301Y69256D01*
X94345Y69341D01*
X94392Y69425D01*
X94442Y69507D01*
X94496Y69587D01*
X94552Y69664D01*
X94612Y69740D01*
X94675Y69813D01*
X94740Y69883D01*
X94809Y69951D01*
X94880Y70015D01*
X94953Y70077D01*
X95029Y70136D01*
X95107Y70192D01*
X95188Y70245D01*
X95270Y70294D01*
X95354Y70340D01*
X95441Y70383D01*
X95528Y70422D01*
X95618Y70458D01*
X95708Y70490D01*
X95800Y70518D01*
X95893Y70543D01*
X95987Y70564D01*
X96081Y70581D01*
X96176Y70595D01*
X96272Y70604D01*
X96368Y70610D01*
X96464Y70612D01*
X96560Y70610D01*
X96656Y70604D01*
X96752Y70595D01*
X96847Y70581D01*
X96941Y70564D01*
X97035Y70543D01*
X97128Y70518D01*
X97220Y70490D01*
X97310Y70458D01*
X97400Y70422D01*
X97487Y70383D01*
X97574Y70340D01*
X97658Y70294D01*
X97740Y70245D01*
X97821Y70192D01*
X97899Y70136D01*
X97975Y70077D01*
X98048Y70015D01*
X98119Y69951D01*
X98188Y69883D01*
X98253Y69813D01*
X98316Y69740D01*
X98376Y69664D01*
X98432Y69587D01*
X98486Y69507D01*
X98536Y69425D01*
X98583Y69341D01*
X98627Y69256D01*
X98667Y69168D01*
X98703Y69079D01*
X98736Y68989D01*
X98835Y68782D01*
X98928Y68572D01*
X99016Y68359D01*
X99099Y68145D01*
X99177Y67929D01*
X99250Y67711D01*
X99318Y67491D01*
X99380Y67270D01*
X99437Y67047D01*
X99489Y66823D01*
X99535Y66598D01*
X99576Y66372D01*
X99611Y66145D01*
X99641Y65917D01*
X99666Y65688D01*
X99685Y65459D01*
X99699Y65230D01*
X99707Y65000D01*
X99710Y64770D01*
X93218Y64770D02*
X93221Y64540D01*
X93229Y64310D01*
X93243Y64081D01*
X93262Y63852D01*
X93287Y63623D01*
X93317Y63395D01*
X93352Y63168D01*
X93393Y62942D01*
X93439Y62717D01*
X93491Y62493D01*
X93548Y62270D01*
X93610Y62049D01*
X93678Y61829D01*
X93751Y61611D01*
X93829Y61395D01*
X93912Y61181D01*
X94000Y60969D01*
X94093Y60758D01*
X94192Y60551D01*
X94225Y60461D01*
X94261Y60372D01*
X94302Y60284D01*
X94345Y60199D01*
X94392Y60115D01*
X94442Y60033D01*
X94496Y59953D01*
X94552Y59876D01*
X94612Y59800D01*
X94675Y59727D01*
X94740Y59657D01*
X94809Y59589D01*
X94880Y59525D01*
X94953Y59463D01*
X95029Y59404D01*
X95107Y59348D01*
X95188Y59295D01*
X95270Y59246D01*
X95354Y59200D01*
X95441Y59157D01*
X95528Y59118D01*
X95618Y59082D01*
X95708Y59050D01*
X95800Y59022D01*
X95893Y58997D01*
X95987Y58976D01*
X96081Y58959D01*
X96176Y58945D01*
X96272Y58936D01*
X96368Y58930D01*
X96464Y58928D01*
X98735Y60551D02*
X98834Y60758D01*
X98927Y60969D01*
X99015Y61181D01*
X99098Y61395D01*
X99176Y61611D01*
X99249Y61829D01*
X99317Y62049D01*
X99379Y62270D01*
X99436Y62493D01*
X99488Y62717D01*
X99534Y62942D01*
X99575Y63168D01*
X99610Y63395D01*
X99640Y63623D01*
X99665Y63852D01*
X99684Y64081D01*
X99698Y64310D01*
X99706Y64540D01*
X99709Y64770D01*
X98736Y60551D02*
X98703Y60461D01*
X98667Y60372D01*
X98627Y60284D01*
X98583Y60199D01*
X98536Y60115D01*
X98486Y60033D01*
X98432Y59953D01*
X98376Y59876D01*
X98316Y59800D01*
X98253Y59727D01*
X98188Y59657D01*
X98119Y59589D01*
X98048Y59525D01*
X97975Y59463D01*
X97899Y59404D01*
X97821Y59348D01*
X97740Y59295D01*
X97658Y59246D01*
X97574Y59200D01*
X97487Y59157D01*
X97400Y59118D01*
X97310Y59082D01*
X97220Y59050D01*
X97128Y59022D01*
X97035Y58997D01*
X96941Y58976D01*
X96847Y58959D01*
X96752Y58945D01*
X96656Y58936D01*
X96560Y58930D01*
X96464Y58928D01*
X93867Y61524D02*
X99060Y68016D01*
D12*
X143764Y186771D02*
X149352Y186771D01*
X143764Y186771D02*
X143764Y188324D01*
X143766Y188401D01*
X143772Y188479D01*
X143781Y188555D01*
X143795Y188632D01*
X143812Y188707D01*
X143833Y188781D01*
X143858Y188855D01*
X143886Y188927D01*
X143918Y188997D01*
X143953Y189066D01*
X143992Y189133D01*
X144034Y189198D01*
X144079Y189261D01*
X144127Y189322D01*
X144178Y189380D01*
X144232Y189435D01*
X144289Y189488D01*
X144348Y189537D01*
X144410Y189584D01*
X144474Y189628D01*
X144540Y189668D01*
X144608Y189705D01*
X144678Y189739D01*
X144749Y189769D01*
X144822Y189795D01*
X144896Y189818D01*
X144971Y189837D01*
X145046Y189852D01*
X145123Y189864D01*
X145200Y189872D01*
X145277Y189876D01*
X145355Y189876D01*
X145432Y189872D01*
X145509Y189864D01*
X145586Y189852D01*
X145661Y189837D01*
X145736Y189818D01*
X145810Y189795D01*
X145883Y189769D01*
X145954Y189739D01*
X146024Y189705D01*
X146092Y189668D01*
X146158Y189628D01*
X146222Y189584D01*
X146284Y189537D01*
X146343Y189488D01*
X146400Y189435D01*
X146454Y189380D01*
X146505Y189322D01*
X146553Y189261D01*
X146598Y189198D01*
X146640Y189133D01*
X146679Y189066D01*
X146714Y188997D01*
X146746Y188927D01*
X146774Y188855D01*
X146799Y188781D01*
X146820Y188707D01*
X146837Y188632D01*
X146851Y188555D01*
X146860Y188479D01*
X146866Y188401D01*
X146868Y188324D01*
X146868Y186771D01*
X146868Y188634D02*
X149352Y189876D01*
X148110Y192222D02*
X143764Y193463D01*
X148110Y192222D02*
X148110Y195326D01*
X146868Y194395D02*
X149352Y194395D01*
X119461Y196088D02*
X119461Y201676D01*
X121014Y201676D01*
X121091Y201674D01*
X121169Y201668D01*
X121245Y201659D01*
X121322Y201645D01*
X121397Y201628D01*
X121471Y201607D01*
X121545Y201582D01*
X121617Y201554D01*
X121687Y201522D01*
X121756Y201487D01*
X121823Y201448D01*
X121888Y201406D01*
X121951Y201361D01*
X122012Y201313D01*
X122070Y201262D01*
X122125Y201208D01*
X122178Y201151D01*
X122227Y201092D01*
X122274Y201030D01*
X122318Y200966D01*
X122358Y200900D01*
X122395Y200832D01*
X122429Y200762D01*
X122459Y200691D01*
X122485Y200618D01*
X122508Y200544D01*
X122527Y200469D01*
X122542Y200394D01*
X122554Y200317D01*
X122562Y200240D01*
X122566Y200163D01*
X122566Y200085D01*
X122562Y200008D01*
X122554Y199931D01*
X122542Y199854D01*
X122527Y199779D01*
X122508Y199704D01*
X122485Y199630D01*
X122459Y199557D01*
X122429Y199486D01*
X122395Y199416D01*
X122358Y199348D01*
X122318Y199282D01*
X122274Y199218D01*
X122227Y199156D01*
X122178Y199097D01*
X122125Y199040D01*
X122070Y198986D01*
X122012Y198935D01*
X121951Y198887D01*
X121888Y198842D01*
X121823Y198800D01*
X121756Y198761D01*
X121687Y198726D01*
X121617Y198694D01*
X121545Y198666D01*
X121471Y198641D01*
X121397Y198620D01*
X121322Y198603D01*
X121245Y198589D01*
X121169Y198580D01*
X121091Y198574D01*
X121014Y198572D01*
X119461Y198572D01*
X121324Y198572D02*
X122566Y196088D01*
X124912Y196088D02*
X126774Y196088D01*
X126844Y196090D01*
X126913Y196096D01*
X126982Y196106D01*
X127050Y196119D01*
X127118Y196137D01*
X127184Y196158D01*
X127249Y196183D01*
X127313Y196211D01*
X127375Y196243D01*
X127435Y196278D01*
X127493Y196317D01*
X127548Y196359D01*
X127602Y196404D01*
X127652Y196452D01*
X127700Y196502D01*
X127745Y196556D01*
X127787Y196611D01*
X127826Y196669D01*
X127861Y196729D01*
X127893Y196791D01*
X127921Y196855D01*
X127946Y196920D01*
X127967Y196986D01*
X127985Y197054D01*
X127998Y197122D01*
X128008Y197191D01*
X128014Y197260D01*
X128016Y197330D01*
X128016Y197951D01*
X128014Y198021D01*
X128008Y198090D01*
X127998Y198159D01*
X127985Y198227D01*
X127967Y198295D01*
X127946Y198361D01*
X127921Y198426D01*
X127893Y198490D01*
X127861Y198552D01*
X127826Y198612D01*
X127787Y198670D01*
X127745Y198725D01*
X127700Y198779D01*
X127652Y198829D01*
X127602Y198877D01*
X127548Y198922D01*
X127493Y198964D01*
X127435Y199003D01*
X127375Y199038D01*
X127313Y199070D01*
X127249Y199098D01*
X127184Y199123D01*
X127118Y199144D01*
X127050Y199162D01*
X126982Y199175D01*
X126913Y199185D01*
X126844Y199191D01*
X126774Y199193D01*
X126774Y199192D02*
X124912Y199192D01*
X124912Y201676D01*
X128016Y201676D01*
D11*
X80772Y332165D02*
X69088Y332165D01*
X69088Y335410D01*
X69090Y335523D01*
X69096Y335636D01*
X69106Y335749D01*
X69120Y335862D01*
X69137Y335974D01*
X69159Y336085D01*
X69184Y336195D01*
X69214Y336305D01*
X69247Y336413D01*
X69284Y336520D01*
X69324Y336626D01*
X69369Y336730D01*
X69417Y336833D01*
X69468Y336934D01*
X69523Y337033D01*
X69581Y337130D01*
X69643Y337225D01*
X69708Y337318D01*
X69776Y337408D01*
X69847Y337496D01*
X69922Y337582D01*
X69999Y337665D01*
X70079Y337745D01*
X70162Y337822D01*
X70248Y337897D01*
X70336Y337968D01*
X70426Y338036D01*
X70519Y338101D01*
X70614Y338163D01*
X70711Y338221D01*
X70810Y338276D01*
X70911Y338327D01*
X71014Y338375D01*
X71118Y338420D01*
X71224Y338460D01*
X71331Y338497D01*
X71439Y338530D01*
X71549Y338560D01*
X71659Y338585D01*
X71770Y338607D01*
X71882Y338624D01*
X71995Y338638D01*
X72108Y338648D01*
X72221Y338654D01*
X72334Y338656D01*
X72447Y338654D01*
X72560Y338648D01*
X72673Y338638D01*
X72786Y338624D01*
X72898Y338607D01*
X73009Y338585D01*
X73119Y338560D01*
X73229Y338530D01*
X73337Y338497D01*
X73444Y338460D01*
X73550Y338420D01*
X73654Y338375D01*
X73757Y338327D01*
X73858Y338276D01*
X73957Y338221D01*
X74054Y338163D01*
X74149Y338101D01*
X74242Y338036D01*
X74332Y337968D01*
X74420Y337897D01*
X74506Y337822D01*
X74589Y337745D01*
X74669Y337665D01*
X74746Y337582D01*
X74821Y337496D01*
X74892Y337408D01*
X74960Y337318D01*
X75025Y337225D01*
X75087Y337130D01*
X75145Y337033D01*
X75200Y336934D01*
X75251Y336833D01*
X75299Y336730D01*
X75344Y336626D01*
X75384Y336520D01*
X75421Y336413D01*
X75454Y336305D01*
X75484Y336195D01*
X75509Y336085D01*
X75531Y335974D01*
X75548Y335862D01*
X75562Y335749D01*
X75572Y335636D01*
X75578Y335523D01*
X75580Y335410D01*
X75579Y335410D02*
X75579Y332165D01*
X75579Y336059D02*
X80772Y338656D01*
X74930Y343521D02*
X74700Y343524D01*
X74470Y343532D01*
X74241Y343546D01*
X74012Y343565D01*
X73783Y343590D01*
X73555Y343620D01*
X73328Y343655D01*
X73102Y343696D01*
X72877Y343742D01*
X72653Y343794D01*
X72430Y343851D01*
X72209Y343913D01*
X71989Y343981D01*
X71771Y344054D01*
X71555Y344132D01*
X71341Y344215D01*
X71129Y344303D01*
X70918Y344396D01*
X70711Y344495D01*
X70711Y344494D02*
X70621Y344527D01*
X70532Y344563D01*
X70444Y344603D01*
X70359Y344647D01*
X70275Y344694D01*
X70193Y344744D01*
X70113Y344798D01*
X70036Y344854D01*
X69960Y344914D01*
X69887Y344977D01*
X69817Y345042D01*
X69749Y345111D01*
X69685Y345182D01*
X69623Y345255D01*
X69564Y345331D01*
X69508Y345409D01*
X69455Y345490D01*
X69406Y345572D01*
X69360Y345656D01*
X69317Y345743D01*
X69278Y345830D01*
X69242Y345920D01*
X69210Y346010D01*
X69182Y346102D01*
X69157Y346195D01*
X69136Y346289D01*
X69119Y346383D01*
X69105Y346478D01*
X69096Y346574D01*
X69090Y346670D01*
X69088Y346766D01*
X69090Y346862D01*
X69096Y346958D01*
X69105Y347054D01*
X69119Y347149D01*
X69136Y347243D01*
X69157Y347337D01*
X69182Y347430D01*
X69210Y347522D01*
X69242Y347612D01*
X69278Y347702D01*
X69317Y347790D01*
X69360Y347876D01*
X69406Y347960D01*
X69455Y348042D01*
X69508Y348123D01*
X69564Y348201D01*
X69623Y348277D01*
X69685Y348350D01*
X69749Y348421D01*
X69817Y348490D01*
X69887Y348555D01*
X69960Y348618D01*
X70036Y348678D01*
X70113Y348734D01*
X70193Y348788D01*
X70275Y348838D01*
X70359Y348885D01*
X70444Y348929D01*
X70532Y348969D01*
X70621Y349005D01*
X70711Y349038D01*
X70918Y349137D01*
X71129Y349230D01*
X71341Y349318D01*
X71555Y349401D01*
X71771Y349479D01*
X71989Y349552D01*
X72209Y349620D01*
X72430Y349682D01*
X72653Y349739D01*
X72877Y349791D01*
X73102Y349837D01*
X73328Y349878D01*
X73555Y349913D01*
X73783Y349943D01*
X74012Y349968D01*
X74241Y349987D01*
X74470Y350001D01*
X74700Y350009D01*
X74930Y350012D01*
X74930Y343521D02*
X75160Y343524D01*
X75390Y343532D01*
X75619Y343546D01*
X75848Y343565D01*
X76077Y343590D01*
X76305Y343620D01*
X76532Y343655D01*
X76758Y343696D01*
X76983Y343742D01*
X77207Y343794D01*
X77430Y343851D01*
X77651Y343913D01*
X77871Y343981D01*
X78089Y344054D01*
X78305Y344132D01*
X78519Y344215D01*
X78731Y344303D01*
X78942Y344396D01*
X79149Y344495D01*
X79149Y344494D02*
X79239Y344527D01*
X79328Y344563D01*
X79416Y344604D01*
X79501Y344647D01*
X79585Y344694D01*
X79667Y344744D01*
X79747Y344798D01*
X79824Y344854D01*
X79900Y344914D01*
X79973Y344977D01*
X80043Y345042D01*
X80111Y345111D01*
X80175Y345182D01*
X80237Y345255D01*
X80296Y345331D01*
X80352Y345409D01*
X80405Y345490D01*
X80454Y345572D01*
X80500Y345656D01*
X80543Y345743D01*
X80582Y345830D01*
X80618Y345920D01*
X80650Y346010D01*
X80678Y346102D01*
X80703Y346195D01*
X80724Y346289D01*
X80741Y346383D01*
X80755Y346478D01*
X80764Y346574D01*
X80770Y346670D01*
X80772Y346766D01*
X79149Y349038D02*
X78942Y349137D01*
X78731Y349230D01*
X78519Y349318D01*
X78305Y349401D01*
X78089Y349479D01*
X77871Y349552D01*
X77651Y349620D01*
X77430Y349682D01*
X77207Y349739D01*
X76983Y349791D01*
X76758Y349837D01*
X76532Y349878D01*
X76305Y349913D01*
X76077Y349943D01*
X75848Y349968D01*
X75619Y349987D01*
X75390Y350001D01*
X75160Y350009D01*
X74930Y350012D01*
X79149Y349038D02*
X79239Y349005D01*
X79328Y348969D01*
X79416Y348929D01*
X79501Y348885D01*
X79585Y348838D01*
X79667Y348788D01*
X79747Y348734D01*
X79824Y348678D01*
X79900Y348618D01*
X79973Y348555D01*
X80043Y348490D01*
X80111Y348421D01*
X80175Y348350D01*
X80237Y348277D01*
X80296Y348201D01*
X80352Y348123D01*
X80405Y348042D01*
X80454Y347960D01*
X80500Y347876D01*
X80543Y347789D01*
X80582Y347702D01*
X80618Y347612D01*
X80650Y347522D01*
X80678Y347430D01*
X80703Y347337D01*
X80724Y347243D01*
X80741Y347149D01*
X80755Y347054D01*
X80764Y346958D01*
X80770Y346862D01*
X80772Y346766D01*
X78176Y344170D02*
X71684Y349363D01*
D13*
X202960Y198350D02*
X202960Y93350D01*
X202960Y198350D02*
X77960Y198350D01*
X77960Y93350D01*
X202960Y93350D01*
D12*
X74676Y99907D02*
X74674Y99977D01*
X74668Y100046D01*
X74658Y100115D01*
X74645Y100183D01*
X74627Y100251D01*
X74606Y100317D01*
X74581Y100382D01*
X74553Y100446D01*
X74521Y100508D01*
X74486Y100568D01*
X74447Y100626D01*
X74405Y100681D01*
X74360Y100735D01*
X74312Y100785D01*
X74262Y100833D01*
X74208Y100878D01*
X74153Y100920D01*
X74095Y100959D01*
X74035Y100994D01*
X73973Y101026D01*
X73909Y101054D01*
X73844Y101079D01*
X73778Y101100D01*
X73710Y101118D01*
X73642Y101131D01*
X73573Y101141D01*
X73504Y101147D01*
X73434Y101149D01*
X74676Y99907D02*
X74674Y99808D01*
X74669Y99710D01*
X74659Y99612D01*
X74646Y99514D01*
X74630Y99417D01*
X74610Y99320D01*
X74586Y99225D01*
X74558Y99130D01*
X74527Y99036D01*
X74493Y98944D01*
X74455Y98853D01*
X74414Y98763D01*
X74369Y98675D01*
X74321Y98589D01*
X74270Y98505D01*
X74216Y98423D01*
X74158Y98342D01*
X74098Y98264D01*
X74035Y98189D01*
X73969Y98115D01*
X73900Y98045D01*
X70330Y98199D02*
X70260Y98201D01*
X70191Y98207D01*
X70122Y98217D01*
X70054Y98230D01*
X69986Y98248D01*
X69920Y98269D01*
X69855Y98294D01*
X69791Y98322D01*
X69729Y98354D01*
X69669Y98389D01*
X69611Y98428D01*
X69556Y98470D01*
X69502Y98515D01*
X69452Y98563D01*
X69404Y98613D01*
X69359Y98667D01*
X69317Y98722D01*
X69278Y98780D01*
X69243Y98840D01*
X69211Y98902D01*
X69183Y98966D01*
X69158Y99031D01*
X69137Y99097D01*
X69119Y99165D01*
X69106Y99233D01*
X69096Y99302D01*
X69090Y99371D01*
X69088Y99441D01*
X69090Y99535D01*
X69096Y99628D01*
X69105Y99721D01*
X69118Y99814D01*
X69135Y99906D01*
X69155Y99997D01*
X69180Y100088D01*
X69207Y100177D01*
X69239Y100265D01*
X69274Y100352D01*
X69312Y100438D01*
X69354Y100521D01*
X69399Y100604D01*
X69447Y100684D01*
X69499Y100762D01*
X69554Y100838D01*
X71416Y98820D02*
X71380Y98761D01*
X71340Y98705D01*
X71297Y98651D01*
X71252Y98599D01*
X71203Y98550D01*
X71152Y98504D01*
X71099Y98461D01*
X71043Y98420D01*
X70985Y98383D01*
X70925Y98348D01*
X70864Y98318D01*
X70801Y98290D01*
X70736Y98266D01*
X70670Y98246D01*
X70603Y98229D01*
X70536Y98216D01*
X70468Y98207D01*
X70399Y98201D01*
X70330Y98199D01*
X72348Y100527D02*
X72384Y100586D01*
X72424Y100642D01*
X72467Y100696D01*
X72512Y100748D01*
X72561Y100797D01*
X72612Y100843D01*
X72665Y100886D01*
X72721Y100927D01*
X72779Y100964D01*
X72839Y100999D01*
X72900Y101029D01*
X72963Y101057D01*
X73028Y101081D01*
X73094Y101101D01*
X73161Y101118D01*
X73228Y101131D01*
X73296Y101140D01*
X73365Y101146D01*
X73434Y101148D01*
X72348Y100528D02*
X71416Y98820D01*
X73124Y103530D02*
X69088Y103530D01*
X73124Y103531D02*
X73201Y103533D01*
X73279Y103539D01*
X73355Y103548D01*
X73432Y103562D01*
X73507Y103579D01*
X73581Y103600D01*
X73655Y103625D01*
X73727Y103653D01*
X73797Y103685D01*
X73866Y103720D01*
X73933Y103759D01*
X73998Y103801D01*
X74061Y103846D01*
X74122Y103894D01*
X74180Y103945D01*
X74235Y103999D01*
X74288Y104056D01*
X74337Y104115D01*
X74384Y104177D01*
X74428Y104241D01*
X74468Y104307D01*
X74505Y104375D01*
X74539Y104445D01*
X74569Y104516D01*
X74595Y104589D01*
X74618Y104663D01*
X74637Y104738D01*
X74652Y104813D01*
X74664Y104890D01*
X74672Y104967D01*
X74676Y105044D01*
X74676Y105122D01*
X74672Y105199D01*
X74664Y105276D01*
X74652Y105353D01*
X74637Y105428D01*
X74618Y105503D01*
X74595Y105577D01*
X74569Y105650D01*
X74539Y105721D01*
X74505Y105791D01*
X74468Y105859D01*
X74428Y105925D01*
X74384Y105989D01*
X74337Y106051D01*
X74288Y106110D01*
X74235Y106167D01*
X74180Y106221D01*
X74122Y106272D01*
X74061Y106320D01*
X73998Y106365D01*
X73933Y106407D01*
X73866Y106446D01*
X73797Y106481D01*
X73727Y106513D01*
X73655Y106541D01*
X73581Y106566D01*
X73507Y106587D01*
X73432Y106604D01*
X73355Y106618D01*
X73279Y106627D01*
X73201Y106633D01*
X73124Y106635D01*
X69088Y106635D01*
X69088Y109438D02*
X74676Y109438D01*
X72192Y111301D02*
X69088Y109438D01*
X72192Y111301D02*
X69088Y113163D01*
X74676Y113163D01*
X73124Y115783D02*
X70640Y115783D01*
X70640Y115784D02*
X70563Y115786D01*
X70485Y115792D01*
X70409Y115801D01*
X70332Y115815D01*
X70257Y115832D01*
X70183Y115853D01*
X70109Y115878D01*
X70037Y115906D01*
X69967Y115938D01*
X69898Y115973D01*
X69831Y116012D01*
X69766Y116054D01*
X69703Y116099D01*
X69642Y116147D01*
X69584Y116198D01*
X69529Y116252D01*
X69476Y116309D01*
X69427Y116368D01*
X69380Y116430D01*
X69336Y116494D01*
X69296Y116560D01*
X69259Y116628D01*
X69225Y116698D01*
X69195Y116769D01*
X69169Y116842D01*
X69146Y116916D01*
X69127Y116991D01*
X69112Y117066D01*
X69100Y117143D01*
X69092Y117220D01*
X69088Y117297D01*
X69088Y117375D01*
X69092Y117452D01*
X69100Y117529D01*
X69112Y117606D01*
X69127Y117681D01*
X69146Y117756D01*
X69169Y117830D01*
X69195Y117903D01*
X69225Y117974D01*
X69259Y118044D01*
X69296Y118112D01*
X69336Y118178D01*
X69380Y118242D01*
X69427Y118304D01*
X69476Y118363D01*
X69529Y118420D01*
X69584Y118474D01*
X69642Y118525D01*
X69703Y118573D01*
X69766Y118618D01*
X69831Y118660D01*
X69898Y118699D01*
X69967Y118734D01*
X70037Y118766D01*
X70109Y118794D01*
X70183Y118819D01*
X70257Y118840D01*
X70332Y118857D01*
X70409Y118871D01*
X70485Y118880D01*
X70563Y118886D01*
X70640Y118888D01*
X73124Y118888D01*
X73201Y118886D01*
X73279Y118880D01*
X73355Y118871D01*
X73432Y118857D01*
X73507Y118840D01*
X73581Y118819D01*
X73655Y118794D01*
X73727Y118766D01*
X73797Y118734D01*
X73866Y118699D01*
X73933Y118660D01*
X73998Y118618D01*
X74061Y118573D01*
X74122Y118525D01*
X74180Y118474D01*
X74235Y118420D01*
X74288Y118363D01*
X74337Y118304D01*
X74384Y118242D01*
X74428Y118178D01*
X74468Y118112D01*
X74505Y118044D01*
X74539Y117974D01*
X74569Y117903D01*
X74595Y117830D01*
X74618Y117756D01*
X74637Y117681D01*
X74652Y117606D01*
X74664Y117529D01*
X74672Y117452D01*
X74676Y117375D01*
X74676Y117297D01*
X74672Y117220D01*
X74664Y117143D01*
X74652Y117066D01*
X74637Y116991D01*
X74618Y116916D01*
X74595Y116842D01*
X74569Y116769D01*
X74539Y116698D01*
X74505Y116628D01*
X74468Y116560D01*
X74428Y116494D01*
X74384Y116430D01*
X74337Y116368D01*
X74288Y116309D01*
X74235Y116252D01*
X74180Y116198D01*
X74122Y116147D01*
X74061Y116099D01*
X73998Y116054D01*
X73933Y116012D01*
X73866Y115973D01*
X73797Y115938D01*
X73727Y115906D01*
X73655Y115878D01*
X73581Y115853D01*
X73507Y115832D01*
X73432Y115815D01*
X73355Y115801D01*
X73279Y115792D01*
X73201Y115786D01*
X73124Y115784D01*
X74676Y125876D02*
X74674Y125946D01*
X74668Y126015D01*
X74658Y126084D01*
X74645Y126152D01*
X74627Y126220D01*
X74606Y126286D01*
X74581Y126351D01*
X74553Y126415D01*
X74521Y126477D01*
X74486Y126537D01*
X74447Y126595D01*
X74405Y126650D01*
X74360Y126704D01*
X74312Y126754D01*
X74262Y126802D01*
X74208Y126847D01*
X74153Y126889D01*
X74095Y126928D01*
X74035Y126963D01*
X73973Y126995D01*
X73909Y127023D01*
X73844Y127048D01*
X73778Y127069D01*
X73710Y127087D01*
X73642Y127100D01*
X73573Y127110D01*
X73504Y127116D01*
X73434Y127118D01*
X74676Y125876D02*
X74674Y125777D01*
X74669Y125679D01*
X74659Y125581D01*
X74646Y125483D01*
X74630Y125386D01*
X74610Y125289D01*
X74586Y125194D01*
X74558Y125099D01*
X74527Y125005D01*
X74493Y124913D01*
X74455Y124822D01*
X74414Y124732D01*
X74369Y124644D01*
X74321Y124558D01*
X74270Y124474D01*
X74216Y124392D01*
X74158Y124311D01*
X74098Y124233D01*
X74035Y124158D01*
X73969Y124084D01*
X73900Y124014D01*
X70330Y124168D02*
X70260Y124170D01*
X70191Y124176D01*
X70122Y124186D01*
X70054Y124199D01*
X69986Y124217D01*
X69920Y124238D01*
X69855Y124263D01*
X69791Y124291D01*
X69729Y124323D01*
X69669Y124358D01*
X69611Y124397D01*
X69556Y124439D01*
X69502Y124484D01*
X69452Y124532D01*
X69404Y124582D01*
X69359Y124636D01*
X69317Y124691D01*
X69278Y124749D01*
X69243Y124809D01*
X69211Y124871D01*
X69183Y124935D01*
X69158Y125000D01*
X69137Y125066D01*
X69119Y125134D01*
X69106Y125202D01*
X69096Y125271D01*
X69090Y125340D01*
X69088Y125410D01*
X69090Y125504D01*
X69096Y125597D01*
X69105Y125690D01*
X69118Y125783D01*
X69135Y125875D01*
X69155Y125966D01*
X69180Y126057D01*
X69207Y126146D01*
X69239Y126234D01*
X69274Y126321D01*
X69312Y126407D01*
X69354Y126490D01*
X69399Y126573D01*
X69447Y126653D01*
X69499Y126731D01*
X69554Y126807D01*
X71416Y124789D02*
X71380Y124730D01*
X71340Y124674D01*
X71297Y124620D01*
X71252Y124568D01*
X71203Y124519D01*
X71152Y124473D01*
X71099Y124430D01*
X71043Y124389D01*
X70985Y124352D01*
X70925Y124317D01*
X70864Y124287D01*
X70801Y124259D01*
X70736Y124235D01*
X70670Y124215D01*
X70603Y124198D01*
X70536Y124185D01*
X70468Y124176D01*
X70399Y124170D01*
X70330Y124168D01*
X72348Y126496D02*
X72384Y126555D01*
X72424Y126611D01*
X72467Y126665D01*
X72512Y126717D01*
X72561Y126766D01*
X72612Y126812D01*
X72665Y126855D01*
X72721Y126896D01*
X72779Y126933D01*
X72839Y126968D01*
X72900Y126998D01*
X72963Y127026D01*
X73028Y127050D01*
X73094Y127070D01*
X73161Y127087D01*
X73228Y127100D01*
X73296Y127109D01*
X73365Y127115D01*
X73434Y127117D01*
X72348Y126496D02*
X71416Y124789D01*
X69088Y130503D02*
X74676Y130503D01*
X69088Y128951D02*
X69088Y132055D01*
X69088Y135623D02*
X74676Y133761D01*
X74676Y137486D02*
X69088Y135623D01*
X73279Y137020D02*
X73279Y134226D01*
X74676Y139777D02*
X69088Y139777D01*
X69088Y141329D01*
X69090Y141406D01*
X69096Y141484D01*
X69105Y141560D01*
X69119Y141637D01*
X69136Y141712D01*
X69157Y141786D01*
X69182Y141860D01*
X69210Y141932D01*
X69242Y142002D01*
X69277Y142071D01*
X69316Y142138D01*
X69358Y142203D01*
X69403Y142266D01*
X69451Y142327D01*
X69502Y142385D01*
X69556Y142440D01*
X69613Y142493D01*
X69672Y142542D01*
X69734Y142589D01*
X69798Y142633D01*
X69864Y142673D01*
X69932Y142710D01*
X70002Y142744D01*
X70073Y142774D01*
X70146Y142800D01*
X70220Y142823D01*
X70295Y142842D01*
X70370Y142857D01*
X70447Y142869D01*
X70524Y142877D01*
X70601Y142881D01*
X70679Y142881D01*
X70756Y142877D01*
X70833Y142869D01*
X70910Y142857D01*
X70985Y142842D01*
X71060Y142823D01*
X71134Y142800D01*
X71207Y142774D01*
X71278Y142744D01*
X71348Y142710D01*
X71416Y142673D01*
X71482Y142633D01*
X71546Y142589D01*
X71608Y142542D01*
X71667Y142493D01*
X71724Y142440D01*
X71778Y142385D01*
X71829Y142327D01*
X71877Y142266D01*
X71922Y142203D01*
X71964Y142138D01*
X72003Y142071D01*
X72038Y142002D01*
X72070Y141932D01*
X72098Y141860D01*
X72123Y141786D01*
X72144Y141712D01*
X72161Y141637D01*
X72175Y141560D01*
X72184Y141484D01*
X72190Y141406D01*
X72192Y141329D01*
X72192Y139777D01*
X72192Y141639D02*
X74676Y142881D01*
X74676Y146413D02*
X69088Y146413D01*
X69088Y144861D02*
X69088Y147966D01*
X69088Y153146D02*
X74676Y153146D01*
X72192Y155009D02*
X69088Y153146D01*
X72192Y155009D02*
X69088Y156871D01*
X74676Y156871D01*
X73124Y159491D02*
X70640Y159491D01*
X70640Y159492D02*
X70563Y159494D01*
X70485Y159500D01*
X70409Y159509D01*
X70332Y159523D01*
X70257Y159540D01*
X70183Y159561D01*
X70109Y159586D01*
X70037Y159614D01*
X69967Y159646D01*
X69898Y159681D01*
X69831Y159720D01*
X69766Y159762D01*
X69703Y159807D01*
X69642Y159855D01*
X69584Y159906D01*
X69529Y159960D01*
X69476Y160017D01*
X69427Y160076D01*
X69380Y160138D01*
X69336Y160202D01*
X69296Y160268D01*
X69259Y160336D01*
X69225Y160406D01*
X69195Y160477D01*
X69169Y160550D01*
X69146Y160624D01*
X69127Y160699D01*
X69112Y160774D01*
X69100Y160851D01*
X69092Y160928D01*
X69088Y161005D01*
X69088Y161083D01*
X69092Y161160D01*
X69100Y161237D01*
X69112Y161314D01*
X69127Y161389D01*
X69146Y161464D01*
X69169Y161538D01*
X69195Y161611D01*
X69225Y161682D01*
X69259Y161752D01*
X69296Y161820D01*
X69336Y161886D01*
X69380Y161950D01*
X69427Y162012D01*
X69476Y162071D01*
X69529Y162128D01*
X69584Y162182D01*
X69642Y162233D01*
X69703Y162281D01*
X69766Y162326D01*
X69831Y162368D01*
X69898Y162407D01*
X69967Y162442D01*
X70037Y162474D01*
X70109Y162502D01*
X70183Y162527D01*
X70257Y162548D01*
X70332Y162565D01*
X70409Y162579D01*
X70485Y162588D01*
X70563Y162594D01*
X70640Y162596D01*
X73124Y162596D01*
X73201Y162594D01*
X73279Y162588D01*
X73355Y162579D01*
X73432Y162565D01*
X73507Y162548D01*
X73581Y162527D01*
X73655Y162502D01*
X73727Y162474D01*
X73797Y162442D01*
X73866Y162407D01*
X73933Y162368D01*
X73998Y162326D01*
X74061Y162281D01*
X74122Y162233D01*
X74180Y162182D01*
X74235Y162128D01*
X74288Y162071D01*
X74337Y162012D01*
X74384Y161950D01*
X74428Y161886D01*
X74468Y161820D01*
X74505Y161752D01*
X74539Y161682D01*
X74569Y161611D01*
X74595Y161538D01*
X74618Y161464D01*
X74637Y161389D01*
X74652Y161314D01*
X74664Y161237D01*
X74672Y161160D01*
X74676Y161083D01*
X74676Y161005D01*
X74672Y160928D01*
X74664Y160851D01*
X74652Y160774D01*
X74637Y160699D01*
X74618Y160624D01*
X74595Y160550D01*
X74569Y160477D01*
X74539Y160406D01*
X74505Y160336D01*
X74468Y160268D01*
X74428Y160202D01*
X74384Y160138D01*
X74337Y160076D01*
X74288Y160017D01*
X74235Y159960D01*
X74180Y159906D01*
X74122Y159855D01*
X74061Y159807D01*
X73998Y159762D01*
X73933Y159720D01*
X73866Y159681D01*
X73797Y159646D01*
X73727Y159614D01*
X73655Y159586D01*
X73581Y159561D01*
X73507Y159540D01*
X73432Y159523D01*
X73355Y159509D01*
X73279Y159500D01*
X73201Y159494D01*
X73124Y159492D01*
X74676Y165161D02*
X69088Y165161D01*
X69088Y166713D01*
X69090Y166789D01*
X69095Y166865D01*
X69105Y166941D01*
X69118Y167016D01*
X69135Y167090D01*
X69155Y167164D01*
X69179Y167236D01*
X69206Y167307D01*
X69237Y167377D01*
X69271Y167445D01*
X69309Y167511D01*
X69350Y167575D01*
X69393Y167638D01*
X69440Y167698D01*
X69490Y167755D01*
X69543Y167810D01*
X69598Y167863D01*
X69655Y167913D01*
X69715Y167960D01*
X69778Y168003D01*
X69842Y168044D01*
X69908Y168082D01*
X69976Y168116D01*
X70046Y168147D01*
X70117Y168174D01*
X70190Y168198D01*
X70263Y168218D01*
X70337Y168235D01*
X70412Y168248D01*
X70488Y168258D01*
X70564Y168263D01*
X70640Y168265D01*
X73124Y168265D01*
X73200Y168263D01*
X73276Y168258D01*
X73352Y168248D01*
X73427Y168235D01*
X73501Y168218D01*
X73575Y168198D01*
X73647Y168174D01*
X73718Y168147D01*
X73788Y168116D01*
X73856Y168082D01*
X73922Y168044D01*
X73986Y168003D01*
X74049Y167960D01*
X74109Y167913D01*
X74166Y167863D01*
X74221Y167810D01*
X74274Y167755D01*
X74324Y167698D01*
X74371Y167638D01*
X74414Y167575D01*
X74455Y167511D01*
X74493Y167445D01*
X74527Y167377D01*
X74558Y167307D01*
X74585Y167236D01*
X74609Y167164D01*
X74629Y167090D01*
X74646Y167016D01*
X74659Y166941D01*
X74669Y166865D01*
X74674Y166789D01*
X74676Y166713D01*
X74676Y165161D01*
X73124Y171013D02*
X69088Y171013D01*
X73124Y171013D02*
X73201Y171015D01*
X73279Y171021D01*
X73355Y171030D01*
X73432Y171044D01*
X73507Y171061D01*
X73581Y171082D01*
X73655Y171107D01*
X73727Y171135D01*
X73797Y171167D01*
X73866Y171202D01*
X73933Y171241D01*
X73998Y171283D01*
X74061Y171328D01*
X74122Y171376D01*
X74180Y171427D01*
X74235Y171481D01*
X74288Y171538D01*
X74337Y171597D01*
X74384Y171659D01*
X74428Y171723D01*
X74468Y171789D01*
X74505Y171857D01*
X74539Y171927D01*
X74569Y171998D01*
X74595Y172071D01*
X74618Y172145D01*
X74637Y172220D01*
X74652Y172295D01*
X74664Y172372D01*
X74672Y172449D01*
X74676Y172526D01*
X74676Y172604D01*
X74672Y172681D01*
X74664Y172758D01*
X74652Y172835D01*
X74637Y172910D01*
X74618Y172985D01*
X74595Y173059D01*
X74569Y173132D01*
X74539Y173203D01*
X74505Y173273D01*
X74468Y173341D01*
X74428Y173407D01*
X74384Y173471D01*
X74337Y173533D01*
X74288Y173592D01*
X74235Y173649D01*
X74180Y173703D01*
X74122Y173754D01*
X74061Y173802D01*
X73998Y173847D01*
X73933Y173889D01*
X73866Y173928D01*
X73797Y173963D01*
X73727Y173995D01*
X73655Y174023D01*
X73581Y174048D01*
X73507Y174069D01*
X73432Y174086D01*
X73355Y174100D01*
X73279Y174109D01*
X73201Y174115D01*
X73124Y174117D01*
X69088Y174117D01*
X69088Y176876D02*
X74676Y176876D01*
X74676Y179360D01*
X74676Y181631D02*
X74676Y184114D01*
X74676Y181631D02*
X69088Y181631D01*
X69088Y184114D01*
X71572Y183493D02*
X71572Y181631D01*
D10*
X181787Y250190D02*
X229870Y298273D01*
X277953Y250190D01*
X229870Y202107D01*
X181787Y250190D01*
X226278Y211395D02*
X226280Y211514D01*
X226286Y211634D01*
X226296Y211753D01*
X226310Y211871D01*
X226328Y211989D01*
X226349Y212107D01*
X226375Y212223D01*
X226404Y212339D01*
X226438Y212454D01*
X226475Y212567D01*
X226516Y212679D01*
X226560Y212790D01*
X226608Y212900D01*
X226660Y213007D01*
X226715Y213113D01*
X226774Y213217D01*
X226837Y213319D01*
X226902Y213418D01*
X226971Y213516D01*
X227043Y213611D01*
X227118Y213704D01*
X227197Y213794D01*
X227278Y213882D01*
X227362Y213966D01*
X227449Y214048D01*
X227538Y214127D01*
X227630Y214203D01*
X227725Y214276D01*
X227822Y214346D01*
X227921Y214412D01*
X228023Y214475D01*
X228126Y214535D01*
X228231Y214591D01*
X228338Y214644D01*
X228447Y214693D01*
X228558Y214739D01*
X228670Y214780D01*
X228783Y214818D01*
X228897Y214853D01*
X229013Y214883D01*
X229129Y214910D01*
X229246Y214932D01*
X229364Y214951D01*
X229483Y214966D01*
X229602Y214977D01*
X229721Y214984D01*
X229840Y214987D01*
X229960Y214986D01*
X230079Y214981D01*
X230198Y214972D01*
X230317Y214959D01*
X230435Y214942D01*
X230552Y214922D01*
X230669Y214897D01*
X230785Y214868D01*
X230900Y214836D01*
X231014Y214800D01*
X231127Y214760D01*
X231238Y214716D01*
X231347Y214669D01*
X231455Y214618D01*
X231562Y214564D01*
X231666Y214506D01*
X231768Y214444D01*
X231869Y214380D01*
X231967Y214311D01*
X232063Y214240D01*
X232156Y214166D01*
X232247Y214088D01*
X232335Y214008D01*
X232420Y213924D01*
X232503Y213838D01*
X232583Y213749D01*
X232660Y213658D01*
X232733Y213564D01*
X232804Y213467D01*
X232871Y213369D01*
X232935Y213268D01*
X232996Y213165D01*
X233053Y213060D01*
X233106Y212954D01*
X233156Y212845D01*
X233203Y212735D01*
X233245Y212624D01*
X233284Y212511D01*
X233320Y212397D01*
X233351Y212281D01*
X233378Y212165D01*
X233402Y212048D01*
X233422Y211930D01*
X233438Y211812D01*
X233450Y211693D01*
X233458Y211574D01*
X233462Y211455D01*
X233462Y211335D01*
X233458Y211216D01*
X233450Y211097D01*
X233438Y210978D01*
X233422Y210860D01*
X233402Y210742D01*
X233378Y210625D01*
X233351Y210509D01*
X233320Y210393D01*
X233284Y210279D01*
X233245Y210166D01*
X233203Y210055D01*
X233156Y209945D01*
X233106Y209836D01*
X233053Y209730D01*
X232996Y209625D01*
X232935Y209522D01*
X232871Y209421D01*
X232804Y209323D01*
X232733Y209226D01*
X232660Y209132D01*
X232583Y209041D01*
X232503Y208952D01*
X232420Y208866D01*
X232335Y208782D01*
X232247Y208702D01*
X232156Y208624D01*
X232063Y208550D01*
X231967Y208479D01*
X231869Y208410D01*
X231768Y208346D01*
X231666Y208284D01*
X231562Y208226D01*
X231455Y208172D01*
X231347Y208121D01*
X231238Y208074D01*
X231127Y208030D01*
X231014Y207990D01*
X230900Y207954D01*
X230785Y207922D01*
X230669Y207893D01*
X230552Y207868D01*
X230435Y207848D01*
X230317Y207831D01*
X230198Y207818D01*
X230079Y207809D01*
X229960Y207804D01*
X229840Y207803D01*
X229721Y207806D01*
X229602Y207813D01*
X229483Y207824D01*
X229364Y207839D01*
X229246Y207858D01*
X229129Y207880D01*
X229013Y207907D01*
X228897Y207937D01*
X228783Y207972D01*
X228670Y208010D01*
X228558Y208051D01*
X228447Y208097D01*
X228338Y208146D01*
X228231Y208199D01*
X228126Y208255D01*
X228023Y208315D01*
X227921Y208378D01*
X227822Y208444D01*
X227725Y208514D01*
X227630Y208587D01*
X227538Y208663D01*
X227449Y208742D01*
X227362Y208824D01*
X227278Y208908D01*
X227197Y208996D01*
X227118Y209086D01*
X227043Y209179D01*
X226971Y209274D01*
X226902Y209372D01*
X226837Y209471D01*
X226774Y209573D01*
X226715Y209677D01*
X226660Y209783D01*
X226608Y209890D01*
X226560Y210000D01*
X226516Y210111D01*
X226475Y210223D01*
X226438Y210336D01*
X226404Y210451D01*
X226375Y210567D01*
X226349Y210683D01*
X226328Y210801D01*
X226310Y210919D01*
X226296Y211037D01*
X226286Y211156D01*
X226280Y211276D01*
X226278Y211395D01*
D14*
X235173Y191854D03*
D15*
X279424Y273033D02*
X279426Y273096D01*
X279432Y273158D01*
X279442Y273220D01*
X279455Y273282D01*
X279473Y273342D01*
X279494Y273401D01*
X279519Y273459D01*
X279548Y273515D01*
X279580Y273569D01*
X279615Y273621D01*
X279653Y273670D01*
X279695Y273718D01*
X279739Y273762D01*
X279787Y273804D01*
X279836Y273842D01*
X279888Y273877D01*
X279942Y273909D01*
X279998Y273938D01*
X280056Y273963D01*
X280115Y273984D01*
X280175Y274002D01*
X280237Y274015D01*
X280299Y274025D01*
X280361Y274031D01*
X280424Y274033D01*
X280487Y274031D01*
X280549Y274025D01*
X280611Y274015D01*
X280673Y274002D01*
X280733Y273984D01*
X280792Y273963D01*
X280850Y273938D01*
X280906Y273909D01*
X280960Y273877D01*
X281012Y273842D01*
X281061Y273804D01*
X281109Y273762D01*
X281153Y273718D01*
X281195Y273670D01*
X281233Y273621D01*
X281268Y273569D01*
X281300Y273515D01*
X281329Y273459D01*
X281354Y273401D01*
X281375Y273342D01*
X281393Y273282D01*
X281406Y273220D01*
X281416Y273158D01*
X281422Y273096D01*
X281424Y273033D01*
X281422Y272970D01*
X281416Y272908D01*
X281406Y272846D01*
X281393Y272784D01*
X281375Y272724D01*
X281354Y272665D01*
X281329Y272607D01*
X281300Y272551D01*
X281268Y272497D01*
X281233Y272445D01*
X281195Y272396D01*
X281153Y272348D01*
X281109Y272304D01*
X281061Y272262D01*
X281012Y272224D01*
X280960Y272189D01*
X280906Y272157D01*
X280850Y272128D01*
X280792Y272103D01*
X280733Y272082D01*
X280673Y272064D01*
X280611Y272051D01*
X280549Y272041D01*
X280487Y272035D01*
X280424Y272033D01*
X280361Y272035D01*
X280299Y272041D01*
X280237Y272051D01*
X280175Y272064D01*
X280115Y272082D01*
X280056Y272103D01*
X279998Y272128D01*
X279942Y272157D01*
X279888Y272189D01*
X279836Y272224D01*
X279787Y272262D01*
X279739Y272304D01*
X279695Y272348D01*
X279653Y272396D01*
X279615Y272445D01*
X279580Y272497D01*
X279548Y272551D01*
X279519Y272607D01*
X279494Y272665D01*
X279473Y272724D01*
X279455Y272784D01*
X279442Y272846D01*
X279432Y272908D01*
X279426Y272970D01*
X279424Y273033D01*
D13*
X284773Y283322D02*
X293258Y291807D01*
X307047Y278018D02*
X298562Y269533D01*
D15*
X294893Y241546D02*
X294895Y241609D01*
X294901Y241671D01*
X294911Y241733D01*
X294924Y241795D01*
X294942Y241855D01*
X294963Y241914D01*
X294988Y241972D01*
X295017Y242028D01*
X295049Y242082D01*
X295084Y242134D01*
X295122Y242183D01*
X295164Y242231D01*
X295208Y242275D01*
X295256Y242317D01*
X295305Y242355D01*
X295357Y242390D01*
X295411Y242422D01*
X295467Y242451D01*
X295525Y242476D01*
X295584Y242497D01*
X295644Y242515D01*
X295706Y242528D01*
X295768Y242538D01*
X295830Y242544D01*
X295893Y242546D01*
X295956Y242544D01*
X296018Y242538D01*
X296080Y242528D01*
X296142Y242515D01*
X296202Y242497D01*
X296261Y242476D01*
X296319Y242451D01*
X296375Y242422D01*
X296429Y242390D01*
X296481Y242355D01*
X296530Y242317D01*
X296578Y242275D01*
X296622Y242231D01*
X296664Y242183D01*
X296702Y242134D01*
X296737Y242082D01*
X296769Y242028D01*
X296798Y241972D01*
X296823Y241914D01*
X296844Y241855D01*
X296862Y241795D01*
X296875Y241733D01*
X296885Y241671D01*
X296891Y241609D01*
X296893Y241546D01*
X296891Y241483D01*
X296885Y241421D01*
X296875Y241359D01*
X296862Y241297D01*
X296844Y241237D01*
X296823Y241178D01*
X296798Y241120D01*
X296769Y241064D01*
X296737Y241010D01*
X296702Y240958D01*
X296664Y240909D01*
X296622Y240861D01*
X296578Y240817D01*
X296530Y240775D01*
X296481Y240737D01*
X296429Y240702D01*
X296375Y240670D01*
X296319Y240641D01*
X296261Y240616D01*
X296202Y240595D01*
X296142Y240577D01*
X296080Y240564D01*
X296018Y240554D01*
X295956Y240548D01*
X295893Y240546D01*
X295830Y240548D01*
X295768Y240554D01*
X295706Y240564D01*
X295644Y240577D01*
X295584Y240595D01*
X295525Y240616D01*
X295467Y240641D01*
X295411Y240670D01*
X295357Y240702D01*
X295305Y240737D01*
X295256Y240775D01*
X295208Y240817D01*
X295164Y240861D01*
X295122Y240909D01*
X295084Y240958D01*
X295049Y241010D01*
X295017Y241064D01*
X294988Y241120D01*
X294963Y241178D01*
X294942Y241237D01*
X294924Y241297D01*
X294911Y241359D01*
X294901Y241421D01*
X294895Y241483D01*
X294893Y241546D01*
D13*
X306182Y237197D02*
X314667Y228712D01*
X300878Y214923D02*
X292393Y223408D01*
D16*
X31770Y176530D03*
D12*
X22114Y171196D02*
X22114Y165608D01*
X24597Y165608D01*
X26869Y165608D02*
X29352Y165608D01*
X26869Y165608D02*
X26869Y171196D01*
X29352Y171196D01*
X28731Y168712D02*
X26869Y168712D01*
X31612Y171196D02*
X31612Y165608D01*
X31612Y171196D02*
X33165Y171196D01*
X33241Y171194D01*
X33317Y171189D01*
X33393Y171179D01*
X33468Y171166D01*
X33542Y171149D01*
X33616Y171129D01*
X33688Y171105D01*
X33759Y171078D01*
X33829Y171047D01*
X33897Y171013D01*
X33963Y170975D01*
X34027Y170934D01*
X34090Y170891D01*
X34150Y170844D01*
X34207Y170794D01*
X34262Y170741D01*
X34315Y170686D01*
X34365Y170629D01*
X34412Y170569D01*
X34455Y170506D01*
X34496Y170442D01*
X34534Y170376D01*
X34568Y170308D01*
X34599Y170238D01*
X34626Y170167D01*
X34650Y170094D01*
X34670Y170021D01*
X34687Y169947D01*
X34700Y169872D01*
X34710Y169796D01*
X34715Y169720D01*
X34717Y169644D01*
X34717Y167160D01*
X34715Y167081D01*
X34709Y167003D01*
X34699Y166925D01*
X34685Y166848D01*
X34667Y166771D01*
X34646Y166695D01*
X34620Y166621D01*
X34591Y166548D01*
X34558Y166477D01*
X34522Y166407D01*
X34482Y166339D01*
X34439Y166273D01*
X34392Y166210D01*
X34343Y166149D01*
X34290Y166091D01*
X34234Y166035D01*
X34176Y165982D01*
X34115Y165933D01*
X34052Y165886D01*
X33986Y165843D01*
X33918Y165803D01*
X33849Y165767D01*
X33777Y165734D01*
X33704Y165705D01*
X33630Y165679D01*
X33554Y165658D01*
X33477Y165640D01*
X33400Y165626D01*
X33322Y165616D01*
X33244Y165610D01*
X33165Y165608D01*
X31612Y165608D01*
X37282Y169954D02*
X38834Y171196D01*
X38834Y165608D01*
X37282Y165608D02*
X40386Y165608D01*
X61041Y165608D02*
X61041Y171196D01*
X62594Y171196D01*
X62671Y171194D01*
X62749Y171188D01*
X62825Y171179D01*
X62902Y171165D01*
X62977Y171148D01*
X63051Y171127D01*
X63125Y171102D01*
X63197Y171074D01*
X63267Y171042D01*
X63336Y171007D01*
X63403Y170968D01*
X63468Y170926D01*
X63531Y170881D01*
X63592Y170833D01*
X63650Y170782D01*
X63705Y170728D01*
X63758Y170671D01*
X63807Y170612D01*
X63854Y170550D01*
X63898Y170486D01*
X63938Y170420D01*
X63975Y170352D01*
X64009Y170282D01*
X64039Y170211D01*
X64065Y170138D01*
X64088Y170064D01*
X64107Y169989D01*
X64122Y169914D01*
X64134Y169837D01*
X64142Y169760D01*
X64146Y169683D01*
X64146Y169605D01*
X64142Y169528D01*
X64134Y169451D01*
X64122Y169374D01*
X64107Y169299D01*
X64088Y169224D01*
X64065Y169150D01*
X64039Y169077D01*
X64009Y169006D01*
X63975Y168936D01*
X63938Y168868D01*
X63898Y168802D01*
X63854Y168738D01*
X63807Y168676D01*
X63758Y168617D01*
X63705Y168560D01*
X63650Y168506D01*
X63592Y168455D01*
X63531Y168407D01*
X63468Y168362D01*
X63403Y168320D01*
X63336Y168281D01*
X63267Y168246D01*
X63197Y168214D01*
X63125Y168186D01*
X63051Y168161D01*
X62977Y168140D01*
X62902Y168123D01*
X62825Y168109D01*
X62749Y168100D01*
X62671Y168094D01*
X62594Y168092D01*
X61041Y168092D01*
X62904Y168092D02*
X64146Y165608D01*
X66492Y169954D02*
X68044Y171196D01*
X68044Y165608D01*
X66492Y165608D02*
X69596Y165608D01*
D17*
X101473Y249047D02*
X105283Y249047D01*
X101473Y249047D02*
X101473Y250105D01*
X101475Y250169D01*
X101481Y250233D01*
X101490Y250296D01*
X101504Y250358D01*
X101521Y250420D01*
X101542Y250480D01*
X101566Y250539D01*
X101594Y250597D01*
X101626Y250652D01*
X101660Y250706D01*
X101698Y250757D01*
X101739Y250807D01*
X101783Y250853D01*
X101829Y250897D01*
X101879Y250938D01*
X101930Y250976D01*
X101984Y251010D01*
X102039Y251042D01*
X102097Y251070D01*
X102156Y251094D01*
X102216Y251115D01*
X102278Y251132D01*
X102340Y251146D01*
X102403Y251155D01*
X102467Y251161D01*
X102531Y251163D01*
X102595Y251161D01*
X102659Y251155D01*
X102722Y251146D01*
X102784Y251132D01*
X102846Y251115D01*
X102906Y251094D01*
X102965Y251070D01*
X103023Y251042D01*
X103078Y251010D01*
X103132Y250976D01*
X103183Y250938D01*
X103233Y250897D01*
X103279Y250853D01*
X103323Y250807D01*
X103364Y250757D01*
X103402Y250706D01*
X103436Y250652D01*
X103468Y250597D01*
X103496Y250539D01*
X103520Y250480D01*
X103541Y250420D01*
X103558Y250358D01*
X103572Y250296D01*
X103581Y250233D01*
X103587Y250169D01*
X103589Y250105D01*
X103590Y250105D02*
X103590Y249047D01*
X103590Y250317D02*
X105283Y251164D01*
X105283Y252684D02*
X105283Y253742D01*
X105281Y253806D01*
X105275Y253870D01*
X105266Y253933D01*
X105252Y253995D01*
X105235Y254057D01*
X105214Y254117D01*
X105190Y254176D01*
X105162Y254234D01*
X105130Y254289D01*
X105096Y254343D01*
X105058Y254394D01*
X105017Y254444D01*
X104973Y254490D01*
X104927Y254534D01*
X104877Y254575D01*
X104826Y254613D01*
X104772Y254647D01*
X104717Y254679D01*
X104659Y254707D01*
X104600Y254731D01*
X104540Y254752D01*
X104478Y254769D01*
X104416Y254783D01*
X104353Y254792D01*
X104289Y254798D01*
X104225Y254800D01*
X104161Y254798D01*
X104097Y254792D01*
X104034Y254783D01*
X103972Y254769D01*
X103910Y254752D01*
X103850Y254731D01*
X103791Y254707D01*
X103733Y254679D01*
X103678Y254647D01*
X103624Y254613D01*
X103573Y254575D01*
X103523Y254534D01*
X103477Y254490D01*
X103433Y254444D01*
X103392Y254394D01*
X103354Y254343D01*
X103320Y254289D01*
X103288Y254234D01*
X103260Y254176D01*
X103236Y254117D01*
X103215Y254057D01*
X103198Y253995D01*
X103184Y253933D01*
X103175Y253870D01*
X103169Y253806D01*
X103167Y253742D01*
X101473Y253954D02*
X101473Y252684D01*
X101473Y253954D02*
X101475Y254011D01*
X101481Y254067D01*
X101490Y254123D01*
X101503Y254178D01*
X101520Y254232D01*
X101540Y254285D01*
X101564Y254336D01*
X101591Y254386D01*
X101622Y254433D01*
X101655Y254479D01*
X101692Y254522D01*
X101731Y254563D01*
X101773Y254601D01*
X101818Y254636D01*
X101864Y254668D01*
X101913Y254697D01*
X101963Y254722D01*
X102016Y254744D01*
X102069Y254763D01*
X102124Y254778D01*
X102179Y254789D01*
X102235Y254797D01*
X102292Y254801D01*
X102348Y254801D01*
X102405Y254797D01*
X102461Y254789D01*
X102516Y254778D01*
X102571Y254763D01*
X102624Y254744D01*
X102677Y254722D01*
X102727Y254697D01*
X102776Y254668D01*
X102822Y254636D01*
X102867Y254601D01*
X102909Y254563D01*
X102948Y254522D01*
X102985Y254479D01*
X103018Y254433D01*
X103049Y254386D01*
X103076Y254336D01*
X103100Y254285D01*
X103120Y254232D01*
X103137Y254178D01*
X103150Y254123D01*
X103159Y254067D01*
X103165Y254011D01*
X103167Y253954D01*
X103166Y253954D02*
X103166Y253107D01*
X101473Y227457D02*
X105283Y227457D01*
X101473Y227457D02*
X101473Y228515D01*
X101475Y228579D01*
X101481Y228643D01*
X101490Y228706D01*
X101504Y228768D01*
X101521Y228830D01*
X101542Y228890D01*
X101566Y228949D01*
X101594Y229007D01*
X101626Y229062D01*
X101660Y229116D01*
X101698Y229167D01*
X101739Y229217D01*
X101783Y229263D01*
X101829Y229307D01*
X101879Y229348D01*
X101930Y229386D01*
X101984Y229420D01*
X102039Y229452D01*
X102097Y229480D01*
X102156Y229504D01*
X102216Y229525D01*
X102278Y229542D01*
X102340Y229556D01*
X102403Y229565D01*
X102467Y229571D01*
X102531Y229573D01*
X102595Y229571D01*
X102659Y229565D01*
X102722Y229556D01*
X102784Y229542D01*
X102846Y229525D01*
X102906Y229504D01*
X102965Y229480D01*
X103023Y229452D01*
X103078Y229420D01*
X103132Y229386D01*
X103183Y229348D01*
X103233Y229307D01*
X103279Y229263D01*
X103323Y229217D01*
X103364Y229167D01*
X103402Y229116D01*
X103436Y229062D01*
X103468Y229007D01*
X103496Y228949D01*
X103520Y228890D01*
X103541Y228830D01*
X103558Y228768D01*
X103572Y228706D01*
X103581Y228643D01*
X103587Y228579D01*
X103589Y228515D01*
X103590Y228515D02*
X103590Y227457D01*
X103590Y228727D02*
X105283Y229574D01*
X102426Y233211D02*
X102366Y233209D01*
X102307Y233203D01*
X102247Y233194D01*
X102189Y233181D01*
X102132Y233164D01*
X102075Y233144D01*
X102020Y233120D01*
X101967Y233093D01*
X101915Y233063D01*
X101866Y233029D01*
X101819Y232992D01*
X101774Y232953D01*
X101731Y232910D01*
X101692Y232865D01*
X101655Y232818D01*
X101621Y232769D01*
X101591Y232717D01*
X101564Y232664D01*
X101540Y232609D01*
X101520Y232552D01*
X101503Y232495D01*
X101490Y232437D01*
X101481Y232377D01*
X101475Y232318D01*
X101473Y232258D01*
X101475Y232191D01*
X101480Y232124D01*
X101489Y232058D01*
X101502Y231992D01*
X101518Y231928D01*
X101538Y231864D01*
X101562Y231801D01*
X101588Y231739D01*
X101618Y231680D01*
X101651Y231622D01*
X101688Y231565D01*
X101727Y231511D01*
X101769Y231459D01*
X101814Y231410D01*
X101862Y231363D01*
X101912Y231319D01*
X101965Y231277D01*
X102020Y231239D01*
X102076Y231203D01*
X102135Y231171D01*
X102195Y231142D01*
X102257Y231116D01*
X102320Y231094D01*
X103167Y232892D02*
X103125Y232934D01*
X103080Y232973D01*
X103034Y233010D01*
X102985Y233044D01*
X102935Y233074D01*
X102883Y233102D01*
X102829Y233127D01*
X102774Y233149D01*
X102718Y233168D01*
X102661Y233183D01*
X102603Y233195D01*
X102544Y233203D01*
X102485Y233208D01*
X102426Y233210D01*
X103166Y232893D02*
X105283Y231094D01*
X105283Y233210D01*
X130937Y315430D02*
X134747Y315430D01*
X130937Y315430D02*
X130937Y316488D01*
X130939Y316552D01*
X130945Y316616D01*
X130954Y316679D01*
X130968Y316741D01*
X130985Y316803D01*
X131006Y316863D01*
X131030Y316922D01*
X131058Y316980D01*
X131090Y317035D01*
X131124Y317089D01*
X131162Y317140D01*
X131203Y317190D01*
X131247Y317236D01*
X131293Y317280D01*
X131343Y317321D01*
X131394Y317359D01*
X131448Y317393D01*
X131503Y317425D01*
X131561Y317453D01*
X131620Y317477D01*
X131680Y317498D01*
X131742Y317515D01*
X131804Y317529D01*
X131867Y317538D01*
X131931Y317544D01*
X131995Y317546D01*
X132059Y317544D01*
X132123Y317538D01*
X132186Y317529D01*
X132248Y317515D01*
X132310Y317498D01*
X132370Y317477D01*
X132429Y317453D01*
X132487Y317425D01*
X132542Y317393D01*
X132596Y317359D01*
X132647Y317321D01*
X132697Y317280D01*
X132743Y317236D01*
X132787Y317190D01*
X132828Y317140D01*
X132866Y317089D01*
X132900Y317035D01*
X132932Y316980D01*
X132960Y316922D01*
X132984Y316863D01*
X133005Y316803D01*
X133022Y316741D01*
X133036Y316679D01*
X133045Y316616D01*
X133051Y316552D01*
X133053Y316488D01*
X133054Y316488D02*
X133054Y315430D01*
X133054Y316700D02*
X134747Y317546D01*
X131360Y319066D02*
X130937Y319066D01*
X130937Y321183D01*
X134747Y320125D01*
D16*
X139700Y336530D03*
D17*
X134493Y330327D02*
X130683Y330327D01*
X134493Y330327D02*
X134493Y332020D01*
X134493Y333497D02*
X134493Y335190D01*
X134493Y333497D02*
X130683Y333497D01*
X130683Y335190D01*
X132376Y334767D02*
X132376Y333497D01*
X130683Y336660D02*
X134493Y336660D01*
X130683Y336660D02*
X130683Y337719D01*
X130685Y337783D01*
X130691Y337847D01*
X130700Y337910D01*
X130714Y337972D01*
X130731Y338034D01*
X130752Y338094D01*
X130776Y338153D01*
X130804Y338211D01*
X130836Y338266D01*
X130870Y338320D01*
X130908Y338371D01*
X130949Y338421D01*
X130993Y338467D01*
X131039Y338511D01*
X131089Y338552D01*
X131140Y338590D01*
X131194Y338624D01*
X131249Y338656D01*
X131307Y338684D01*
X131366Y338708D01*
X131426Y338729D01*
X131488Y338746D01*
X131550Y338760D01*
X131614Y338769D01*
X131677Y338775D01*
X131741Y338777D01*
X133435Y338777D01*
X133499Y338775D01*
X133563Y338769D01*
X133626Y338760D01*
X133688Y338746D01*
X133750Y338729D01*
X133810Y338708D01*
X133869Y338684D01*
X133927Y338656D01*
X133982Y338624D01*
X134036Y338590D01*
X134087Y338552D01*
X134137Y338511D01*
X134183Y338467D01*
X134227Y338421D01*
X134268Y338371D01*
X134306Y338320D01*
X134340Y338266D01*
X134372Y338211D01*
X134400Y338153D01*
X134424Y338094D01*
X134445Y338034D01*
X134462Y337972D01*
X134476Y337910D01*
X134485Y337847D01*
X134491Y337783D01*
X134493Y337719D01*
X134493Y336660D01*
X130683Y341604D02*
X130685Y341664D01*
X130691Y341723D01*
X130700Y341783D01*
X130713Y341841D01*
X130730Y341898D01*
X130750Y341955D01*
X130774Y342010D01*
X130801Y342063D01*
X130831Y342115D01*
X130865Y342164D01*
X130902Y342211D01*
X130941Y342256D01*
X130984Y342299D01*
X131029Y342338D01*
X131076Y342375D01*
X131125Y342409D01*
X131177Y342439D01*
X131230Y342466D01*
X131285Y342490D01*
X131342Y342510D01*
X131399Y342527D01*
X131457Y342540D01*
X131517Y342549D01*
X131576Y342555D01*
X131636Y342557D01*
X130683Y341604D02*
X130685Y341537D01*
X130690Y341470D01*
X130699Y341404D01*
X130712Y341338D01*
X130728Y341274D01*
X130748Y341210D01*
X130772Y341147D01*
X130798Y341085D01*
X130828Y341026D01*
X130861Y340968D01*
X130898Y340911D01*
X130937Y340857D01*
X130979Y340805D01*
X131024Y340756D01*
X131072Y340709D01*
X131122Y340665D01*
X131175Y340623D01*
X131230Y340585D01*
X131286Y340549D01*
X131345Y340517D01*
X131405Y340488D01*
X131467Y340462D01*
X131530Y340440D01*
X132377Y342238D02*
X132335Y342280D01*
X132290Y342319D01*
X132244Y342356D01*
X132195Y342390D01*
X132145Y342420D01*
X132093Y342448D01*
X132039Y342473D01*
X131984Y342495D01*
X131928Y342514D01*
X131871Y342529D01*
X131813Y342541D01*
X131754Y342549D01*
X131695Y342554D01*
X131636Y342556D01*
X132376Y342239D02*
X134493Y340440D01*
X134493Y342556D01*
D10*
X163830Y167640D02*
X163830Y154940D01*
X157480Y148590D01*
X144780Y148590D01*
X138430Y154940D01*
X157480Y148590D02*
X163830Y142240D01*
X163830Y129540D01*
X157480Y123190D01*
X144780Y123190D01*
X138430Y129540D01*
X138430Y142240D01*
X144780Y148590D01*
X144780Y173990D02*
X157480Y173990D01*
X163830Y167640D01*
X144780Y173990D02*
X138430Y167640D01*
X138430Y154940D01*
X157480Y123190D02*
X163830Y116840D01*
X163830Y104140D01*
X157480Y97790D01*
X144780Y97790D01*
X138430Y104140D01*
X138430Y116840D01*
X144780Y123190D01*
X179070Y323850D02*
X179070Y336550D01*
X185420Y342900D01*
X198120Y342900D01*
X204470Y336550D01*
X185420Y342900D02*
X179070Y349250D01*
X179070Y361950D01*
X185420Y368300D01*
X198120Y368300D01*
X204470Y361950D01*
X204470Y349250D01*
X198120Y342900D01*
X198120Y317500D02*
X185420Y317500D01*
X179070Y323850D01*
X198120Y317500D02*
X204470Y323850D01*
X204470Y336550D01*
X185420Y368300D02*
X179070Y374650D01*
X179070Y387350D01*
X185420Y393700D01*
X198120Y393700D01*
X204470Y387350D01*
X204470Y374650D01*
X198120Y368300D01*
D17*
X161417Y316700D02*
X157607Y316700D01*
X157607Y317758D01*
X157609Y317822D01*
X157615Y317886D01*
X157624Y317949D01*
X157638Y318011D01*
X157655Y318073D01*
X157676Y318133D01*
X157700Y318192D01*
X157728Y318250D01*
X157760Y318305D01*
X157794Y318359D01*
X157832Y318410D01*
X157873Y318460D01*
X157917Y318506D01*
X157963Y318550D01*
X158013Y318591D01*
X158064Y318629D01*
X158118Y318663D01*
X158173Y318695D01*
X158231Y318723D01*
X158290Y318747D01*
X158350Y318768D01*
X158412Y318785D01*
X158474Y318799D01*
X158537Y318808D01*
X158601Y318814D01*
X158665Y318816D01*
X158729Y318814D01*
X158793Y318808D01*
X158856Y318799D01*
X158918Y318785D01*
X158980Y318768D01*
X159040Y318747D01*
X159099Y318723D01*
X159157Y318695D01*
X159212Y318663D01*
X159266Y318629D01*
X159317Y318591D01*
X159367Y318550D01*
X159413Y318506D01*
X159457Y318460D01*
X159498Y318410D01*
X159536Y318359D01*
X159570Y318305D01*
X159602Y318250D01*
X159630Y318192D01*
X159654Y318133D01*
X159675Y318073D01*
X159692Y318011D01*
X159706Y317949D01*
X159715Y317886D01*
X159721Y317822D01*
X159723Y317758D01*
X159724Y317758D02*
X159724Y316700D01*
X159724Y317970D02*
X161417Y318816D01*
X159300Y320336D02*
X159300Y321606D01*
X159302Y321661D01*
X159307Y321717D01*
X159316Y321771D01*
X159329Y321825D01*
X159345Y321878D01*
X159364Y321930D01*
X159387Y321981D01*
X159413Y322030D01*
X159443Y322077D01*
X159475Y322122D01*
X159510Y322164D01*
X159548Y322205D01*
X159589Y322243D01*
X159631Y322278D01*
X159676Y322310D01*
X159724Y322340D01*
X159772Y322366D01*
X159823Y322389D01*
X159875Y322408D01*
X159928Y322424D01*
X159982Y322437D01*
X160036Y322446D01*
X160092Y322451D01*
X160147Y322453D01*
X160359Y322453D01*
X160423Y322451D01*
X160487Y322445D01*
X160550Y322436D01*
X160612Y322422D01*
X160674Y322405D01*
X160734Y322384D01*
X160793Y322360D01*
X160851Y322332D01*
X160906Y322300D01*
X160960Y322266D01*
X161011Y322228D01*
X161061Y322187D01*
X161107Y322143D01*
X161151Y322097D01*
X161192Y322047D01*
X161230Y321996D01*
X161264Y321942D01*
X161296Y321887D01*
X161324Y321829D01*
X161348Y321770D01*
X161369Y321710D01*
X161386Y321648D01*
X161400Y321586D01*
X161409Y321523D01*
X161415Y321459D01*
X161417Y321395D01*
X161415Y321331D01*
X161409Y321267D01*
X161400Y321204D01*
X161386Y321142D01*
X161369Y321080D01*
X161348Y321020D01*
X161324Y320961D01*
X161296Y320903D01*
X161264Y320848D01*
X161230Y320794D01*
X161192Y320743D01*
X161151Y320693D01*
X161107Y320647D01*
X161061Y320603D01*
X161011Y320562D01*
X160960Y320524D01*
X160906Y320490D01*
X160851Y320458D01*
X160793Y320430D01*
X160734Y320406D01*
X160674Y320385D01*
X160612Y320368D01*
X160550Y320354D01*
X160487Y320345D01*
X160423Y320339D01*
X160359Y320337D01*
X160359Y320336D02*
X159300Y320336D01*
X159300Y320337D02*
X159219Y320339D01*
X159139Y320345D01*
X159059Y320354D01*
X158980Y320368D01*
X158901Y320385D01*
X158823Y320406D01*
X158746Y320430D01*
X158671Y320458D01*
X158597Y320490D01*
X158524Y320525D01*
X158454Y320564D01*
X158385Y320606D01*
X158318Y320651D01*
X158253Y320699D01*
X158191Y320750D01*
X158132Y320805D01*
X158075Y320862D01*
X158021Y320921D01*
X157969Y320983D01*
X157921Y321048D01*
X157876Y321115D01*
X157834Y321183D01*
X157795Y321254D01*
X157760Y321327D01*
X157728Y321401D01*
X157700Y321476D01*
X157676Y321553D01*
X157655Y321631D01*
X157638Y321710D01*
X157624Y321789D01*
X157615Y321869D01*
X157609Y321949D01*
X157607Y322030D01*
D16*
X152400Y336530D03*
D17*
X157607Y328004D02*
X161417Y328004D01*
X161417Y329697D01*
X161417Y331173D02*
X161417Y332867D01*
X161417Y331173D02*
X157607Y331173D01*
X157607Y332867D01*
X159300Y332443D02*
X159300Y331173D01*
X157607Y334337D02*
X161417Y334337D01*
X157607Y334337D02*
X157607Y335395D01*
X157609Y335459D01*
X157615Y335523D01*
X157624Y335586D01*
X157638Y335648D01*
X157655Y335710D01*
X157676Y335770D01*
X157700Y335829D01*
X157728Y335887D01*
X157760Y335942D01*
X157794Y335996D01*
X157832Y336047D01*
X157873Y336097D01*
X157917Y336143D01*
X157963Y336187D01*
X158013Y336228D01*
X158064Y336266D01*
X158118Y336300D01*
X158173Y336332D01*
X158231Y336360D01*
X158290Y336384D01*
X158350Y336405D01*
X158412Y336422D01*
X158474Y336436D01*
X158538Y336445D01*
X158601Y336451D01*
X158665Y336453D01*
X158665Y336454D02*
X160359Y336454D01*
X160359Y336453D02*
X160423Y336451D01*
X160487Y336445D01*
X160550Y336436D01*
X160612Y336422D01*
X160674Y336405D01*
X160734Y336384D01*
X160793Y336360D01*
X160851Y336332D01*
X160906Y336300D01*
X160960Y336266D01*
X161011Y336228D01*
X161061Y336187D01*
X161107Y336143D01*
X161151Y336097D01*
X161192Y336047D01*
X161230Y335996D01*
X161264Y335942D01*
X161296Y335887D01*
X161324Y335829D01*
X161348Y335770D01*
X161369Y335710D01*
X161386Y335648D01*
X161400Y335586D01*
X161409Y335523D01*
X161415Y335459D01*
X161417Y335395D01*
X161417Y334337D01*
X161417Y338116D02*
X161417Y339175D01*
X161415Y339239D01*
X161409Y339303D01*
X161400Y339366D01*
X161386Y339428D01*
X161369Y339490D01*
X161348Y339550D01*
X161324Y339609D01*
X161296Y339667D01*
X161264Y339722D01*
X161230Y339776D01*
X161192Y339827D01*
X161151Y339877D01*
X161107Y339923D01*
X161061Y339967D01*
X161011Y340008D01*
X160960Y340046D01*
X160906Y340080D01*
X160851Y340112D01*
X160793Y340140D01*
X160734Y340164D01*
X160674Y340185D01*
X160612Y340202D01*
X160550Y340216D01*
X160487Y340225D01*
X160423Y340231D01*
X160359Y340233D01*
X160295Y340231D01*
X160231Y340225D01*
X160168Y340216D01*
X160106Y340202D01*
X160044Y340185D01*
X159984Y340164D01*
X159925Y340140D01*
X159867Y340112D01*
X159812Y340080D01*
X159758Y340046D01*
X159707Y340008D01*
X159657Y339967D01*
X159611Y339923D01*
X159567Y339877D01*
X159526Y339827D01*
X159488Y339776D01*
X159454Y339722D01*
X159422Y339667D01*
X159394Y339609D01*
X159370Y339550D01*
X159349Y339490D01*
X159332Y339428D01*
X159318Y339366D01*
X159309Y339303D01*
X159303Y339239D01*
X159301Y339175D01*
X157607Y339386D02*
X157607Y338116D01*
X157607Y339386D02*
X157609Y339443D01*
X157615Y339499D01*
X157624Y339555D01*
X157637Y339610D01*
X157654Y339664D01*
X157674Y339717D01*
X157698Y339768D01*
X157725Y339818D01*
X157756Y339865D01*
X157789Y339911D01*
X157826Y339954D01*
X157865Y339995D01*
X157907Y340033D01*
X157952Y340068D01*
X157998Y340100D01*
X158047Y340129D01*
X158097Y340154D01*
X158150Y340176D01*
X158203Y340195D01*
X158258Y340210D01*
X158313Y340221D01*
X158369Y340229D01*
X158426Y340233D01*
X158482Y340233D01*
X158539Y340229D01*
X158595Y340221D01*
X158650Y340210D01*
X158705Y340195D01*
X158758Y340176D01*
X158811Y340154D01*
X158861Y340129D01*
X158910Y340100D01*
X158956Y340068D01*
X159001Y340033D01*
X159043Y339995D01*
X159082Y339954D01*
X159119Y339911D01*
X159152Y339865D01*
X159183Y339818D01*
X159210Y339768D01*
X159234Y339717D01*
X159254Y339664D01*
X159271Y339610D01*
X159284Y339555D01*
X159293Y339499D01*
X159299Y339443D01*
X159301Y339386D01*
X159300Y339386D02*
X159300Y338540D01*
D10*
X13716Y276860D02*
X13716Y187960D01*
X77724Y187960D01*
X77724Y276860D01*
X13716Y276860D01*
X66040Y265430D02*
X66040Y250190D01*
X25400Y250190D02*
X25400Y265430D01*
X25400Y250190D02*
X66040Y250190D01*
X66040Y265430D02*
X25400Y265430D01*
X66040Y240030D02*
X66040Y224790D01*
X25400Y224790D02*
X25400Y240030D01*
X25400Y224790D02*
X66040Y224790D01*
X66040Y240030D02*
X25400Y240030D01*
X66040Y214630D02*
X66040Y199390D01*
X25400Y199390D02*
X25400Y214630D01*
X25400Y199390D02*
X66040Y199390D01*
X66040Y214630D02*
X25400Y214630D01*
D18*
X35489Y253478D02*
X33401Y256088D01*
X42799Y256088D01*
X42799Y253478D02*
X42799Y258699D01*
D19*
X58420Y257810D03*
X58420Y232410D03*
X58420Y207010D03*
D13*
X-16230Y284960D02*
X-16230Y344960D01*
X18770Y344960D02*
X18770Y284960D01*
X82830Y166130D02*
X117830Y166130D01*
X117830Y136130D02*
X82830Y136130D01*
D15*
X68330Y151130D02*
X68332Y151193D01*
X68338Y151255D01*
X68348Y151317D01*
X68361Y151379D01*
X68379Y151439D01*
X68400Y151498D01*
X68425Y151556D01*
X68454Y151612D01*
X68486Y151666D01*
X68521Y151718D01*
X68559Y151767D01*
X68601Y151815D01*
X68645Y151859D01*
X68693Y151901D01*
X68742Y151939D01*
X68794Y151974D01*
X68848Y152006D01*
X68904Y152035D01*
X68962Y152060D01*
X69021Y152081D01*
X69081Y152099D01*
X69143Y152112D01*
X69205Y152122D01*
X69267Y152128D01*
X69330Y152130D01*
X69393Y152128D01*
X69455Y152122D01*
X69517Y152112D01*
X69579Y152099D01*
X69639Y152081D01*
X69698Y152060D01*
X69756Y152035D01*
X69812Y152006D01*
X69866Y151974D01*
X69918Y151939D01*
X69967Y151901D01*
X70015Y151859D01*
X70059Y151815D01*
X70101Y151767D01*
X70139Y151718D01*
X70174Y151666D01*
X70206Y151612D01*
X70235Y151556D01*
X70260Y151498D01*
X70281Y151439D01*
X70299Y151379D01*
X70312Y151317D01*
X70322Y151255D01*
X70328Y151193D01*
X70330Y151130D01*
X70328Y151067D01*
X70322Y151005D01*
X70312Y150943D01*
X70299Y150881D01*
X70281Y150821D01*
X70260Y150762D01*
X70235Y150704D01*
X70206Y150648D01*
X70174Y150594D01*
X70139Y150542D01*
X70101Y150493D01*
X70059Y150445D01*
X70015Y150401D01*
X69967Y150359D01*
X69918Y150321D01*
X69866Y150286D01*
X69812Y150254D01*
X69756Y150225D01*
X69698Y150200D01*
X69639Y150179D01*
X69579Y150161D01*
X69517Y150148D01*
X69455Y150138D01*
X69393Y150132D01*
X69330Y150130D01*
X69267Y150132D01*
X69205Y150138D01*
X69143Y150148D01*
X69081Y150161D01*
X69021Y150179D01*
X68962Y150200D01*
X68904Y150225D01*
X68848Y150254D01*
X68794Y150286D01*
X68742Y150321D01*
X68693Y150359D01*
X68645Y150401D01*
X68601Y150445D01*
X68559Y150493D01*
X68521Y150542D01*
X68486Y150594D01*
X68454Y150648D01*
X68425Y150704D01*
X68400Y150762D01*
X68379Y150821D01*
X68361Y150881D01*
X68348Y150943D01*
X68338Y151005D01*
X68332Y151067D01*
X68330Y151130D01*
D12*
X106275Y170338D02*
X107517Y170338D01*
X106275Y170338D02*
X106205Y170340D01*
X106136Y170346D01*
X106067Y170356D01*
X105999Y170369D01*
X105931Y170387D01*
X105865Y170408D01*
X105800Y170433D01*
X105736Y170461D01*
X105674Y170493D01*
X105614Y170528D01*
X105556Y170567D01*
X105501Y170609D01*
X105447Y170654D01*
X105397Y170702D01*
X105349Y170752D01*
X105304Y170806D01*
X105262Y170861D01*
X105223Y170919D01*
X105188Y170979D01*
X105156Y171041D01*
X105128Y171105D01*
X105103Y171170D01*
X105082Y171236D01*
X105064Y171304D01*
X105051Y171372D01*
X105041Y171441D01*
X105035Y171510D01*
X105033Y171580D01*
X105033Y174684D01*
X105035Y174754D01*
X105041Y174823D01*
X105051Y174892D01*
X105064Y174960D01*
X105082Y175028D01*
X105103Y175094D01*
X105128Y175159D01*
X105156Y175223D01*
X105188Y175285D01*
X105223Y175345D01*
X105262Y175403D01*
X105304Y175458D01*
X105349Y175512D01*
X105397Y175562D01*
X105447Y175610D01*
X105501Y175655D01*
X105556Y175697D01*
X105614Y175736D01*
X105674Y175771D01*
X105736Y175803D01*
X105800Y175831D01*
X105865Y175856D01*
X105931Y175877D01*
X105999Y175895D01*
X106067Y175908D01*
X106136Y175918D01*
X106205Y175924D01*
X106275Y175926D01*
X107517Y175926D01*
X110863Y175926D02*
X109622Y171580D01*
X112726Y171580D01*
X111795Y172822D02*
X111795Y170338D01*
D13*
X117830Y98030D02*
X82830Y98030D01*
X82830Y128030D02*
X117830Y128030D01*
D15*
X130330Y113030D02*
X130332Y113093D01*
X130338Y113155D01*
X130348Y113217D01*
X130361Y113279D01*
X130379Y113339D01*
X130400Y113398D01*
X130425Y113456D01*
X130454Y113512D01*
X130486Y113566D01*
X130521Y113618D01*
X130559Y113667D01*
X130601Y113715D01*
X130645Y113759D01*
X130693Y113801D01*
X130742Y113839D01*
X130794Y113874D01*
X130848Y113906D01*
X130904Y113935D01*
X130962Y113960D01*
X131021Y113981D01*
X131081Y113999D01*
X131143Y114012D01*
X131205Y114022D01*
X131267Y114028D01*
X131330Y114030D01*
X131393Y114028D01*
X131455Y114022D01*
X131517Y114012D01*
X131579Y113999D01*
X131639Y113981D01*
X131698Y113960D01*
X131756Y113935D01*
X131812Y113906D01*
X131866Y113874D01*
X131918Y113839D01*
X131967Y113801D01*
X132015Y113759D01*
X132059Y113715D01*
X132101Y113667D01*
X132139Y113618D01*
X132174Y113566D01*
X132206Y113512D01*
X132235Y113456D01*
X132260Y113398D01*
X132281Y113339D01*
X132299Y113279D01*
X132312Y113217D01*
X132322Y113155D01*
X132328Y113093D01*
X132330Y113030D01*
X132328Y112967D01*
X132322Y112905D01*
X132312Y112843D01*
X132299Y112781D01*
X132281Y112721D01*
X132260Y112662D01*
X132235Y112604D01*
X132206Y112548D01*
X132174Y112494D01*
X132139Y112442D01*
X132101Y112393D01*
X132059Y112345D01*
X132015Y112301D01*
X131967Y112259D01*
X131918Y112221D01*
X131866Y112186D01*
X131812Y112154D01*
X131756Y112125D01*
X131698Y112100D01*
X131639Y112079D01*
X131579Y112061D01*
X131517Y112048D01*
X131455Y112038D01*
X131393Y112032D01*
X131330Y112030D01*
X131267Y112032D01*
X131205Y112038D01*
X131143Y112048D01*
X131081Y112061D01*
X131021Y112079D01*
X130962Y112100D01*
X130904Y112125D01*
X130848Y112154D01*
X130794Y112186D01*
X130742Y112221D01*
X130693Y112259D01*
X130645Y112301D01*
X130601Y112345D01*
X130559Y112393D01*
X130521Y112442D01*
X130486Y112494D01*
X130454Y112548D01*
X130425Y112604D01*
X130400Y112662D01*
X130379Y112721D01*
X130361Y112781D01*
X130348Y112843D01*
X130338Y112905D01*
X130332Y112967D01*
X130330Y113030D01*
D12*
X66877Y96678D02*
X65635Y96678D01*
X65565Y96680D01*
X65496Y96686D01*
X65427Y96696D01*
X65359Y96709D01*
X65291Y96727D01*
X65225Y96748D01*
X65160Y96773D01*
X65096Y96801D01*
X65034Y96833D01*
X64974Y96868D01*
X64916Y96907D01*
X64861Y96949D01*
X64807Y96994D01*
X64757Y97042D01*
X64709Y97092D01*
X64664Y97146D01*
X64622Y97201D01*
X64583Y97259D01*
X64548Y97319D01*
X64516Y97381D01*
X64488Y97445D01*
X64463Y97510D01*
X64442Y97576D01*
X64424Y97644D01*
X64411Y97712D01*
X64401Y97781D01*
X64395Y97850D01*
X64393Y97920D01*
X64393Y101024D01*
X64395Y101094D01*
X64401Y101163D01*
X64411Y101232D01*
X64424Y101300D01*
X64442Y101368D01*
X64463Y101434D01*
X64488Y101499D01*
X64516Y101563D01*
X64548Y101625D01*
X64583Y101685D01*
X64622Y101743D01*
X64664Y101798D01*
X64709Y101852D01*
X64757Y101902D01*
X64807Y101950D01*
X64861Y101995D01*
X64916Y102037D01*
X64974Y102076D01*
X65034Y102111D01*
X65096Y102143D01*
X65160Y102171D01*
X65225Y102196D01*
X65291Y102217D01*
X65359Y102235D01*
X65427Y102248D01*
X65496Y102258D01*
X65565Y102264D01*
X65635Y102266D01*
X66877Y102266D01*
X68982Y96678D02*
X70844Y96678D01*
X70914Y96680D01*
X70983Y96686D01*
X71052Y96696D01*
X71120Y96709D01*
X71188Y96727D01*
X71254Y96748D01*
X71319Y96773D01*
X71383Y96801D01*
X71445Y96833D01*
X71505Y96868D01*
X71563Y96907D01*
X71618Y96949D01*
X71672Y96994D01*
X71722Y97042D01*
X71770Y97092D01*
X71815Y97146D01*
X71857Y97201D01*
X71896Y97259D01*
X71931Y97319D01*
X71963Y97381D01*
X71991Y97445D01*
X72016Y97510D01*
X72037Y97576D01*
X72055Y97644D01*
X72068Y97712D01*
X72078Y97781D01*
X72084Y97850D01*
X72086Y97920D01*
X72086Y98541D01*
X72084Y98611D01*
X72078Y98680D01*
X72068Y98749D01*
X72055Y98817D01*
X72037Y98885D01*
X72016Y98951D01*
X71991Y99016D01*
X71963Y99080D01*
X71931Y99142D01*
X71896Y99202D01*
X71857Y99260D01*
X71815Y99315D01*
X71770Y99369D01*
X71722Y99419D01*
X71672Y99467D01*
X71618Y99512D01*
X71563Y99554D01*
X71505Y99593D01*
X71445Y99628D01*
X71383Y99660D01*
X71319Y99688D01*
X71254Y99713D01*
X71188Y99734D01*
X71120Y99752D01*
X71052Y99765D01*
X70983Y99775D01*
X70914Y99781D01*
X70844Y99783D01*
X70844Y99782D02*
X68982Y99782D01*
X68982Y102266D01*
X72086Y102266D01*
D10*
X350520Y274320D02*
X350520Y299720D01*
X350520Y274320D02*
X375920Y274320D01*
X375920Y299720D01*
X350520Y299720D01*
D20*
X382270Y287020D02*
X439420Y287020D01*
D10*
X350520Y274320D02*
X350520Y248920D01*
X375920Y248920D01*
X375920Y274320D01*
D20*
X382270Y261620D02*
X439420Y261620D01*
D10*
X350520Y248920D02*
X350520Y223520D01*
X375920Y223520D01*
X375920Y248920D01*
D20*
X382270Y236220D02*
X439420Y236220D01*
D10*
X350520Y223520D02*
X350520Y198120D01*
X375920Y198120D01*
X375920Y223520D01*
D20*
X382270Y210820D02*
X439420Y210820D01*
D21*
X378460Y287020D03*
X378460Y261620D03*
X378460Y236220D03*
X378460Y210820D03*
D22*
X345440Y287020D03*
X345440Y261620D03*
X345440Y236220D03*
X345440Y210820D03*
D10*
X228600Y368300D02*
X215900Y368300D01*
X228600Y368300D02*
X234950Y361950D01*
X234950Y349250D01*
X228600Y342900D01*
X209550Y349250D02*
X209550Y361950D01*
X215900Y368300D01*
X209550Y349250D02*
X215900Y342900D01*
X228600Y342900D01*
X234950Y361950D02*
X241300Y368300D01*
X254000Y368300D01*
X260350Y361950D01*
X260350Y349250D01*
X254000Y342900D01*
X241300Y342900D01*
X234950Y349250D01*
M02*
