G04 EAGLE Gerber RS-274X export*
G75*
%MOMM*%
%FSLAX34Y34*%
%LPD*%
%INSoldermask Bottom*%
%IPPOS*%
%AMOC8*
5,1,8,0,0,1.08239X$1,22.5*%
G01*
%ADD10C,3.203200*%
%ADD11C,1.703200*%
%ADD12C,2.203200*%
%ADD13R,0.903200X1.103200*%
%ADD14R,1.203200X1.473200*%
%ADD15C,1.727200*%
%ADD16P,1.869504X8X292.500000*%
%ADD17R,1.203200X2.003200*%
%ADD18R,1.311200X1.311200*%
%ADD19R,1.711200X1.711200*%
%ADD20C,1.711200*%
%ADD21C,0.430616*%
%ADD22C,0.653822*%
%ADD23P,1.869504X8X277.500000*%
%ADD24R,1.853200X1.853200*%
%ADD25C,1.009600*%
%ADD26C,0.959600*%
%ADD27P,2.005885X8X22.500000*%
%ADD28C,1.359600*%


D10*
X45516Y313748D03*
X45516Y144567D03*
D11*
X180700Y47516D03*
X180700Y410800D03*
D12*
X88900Y25400D03*
D13*
G36*
X224643Y261847D02*
X231029Y255461D01*
X223229Y247661D01*
X216843Y254047D01*
X224643Y261847D01*
G37*
G36*
X215451Y271039D02*
X221837Y264653D01*
X214037Y256853D01*
X207651Y263239D01*
X215451Y271039D01*
G37*
G36*
X232633Y273007D02*
X239019Y266621D01*
X231219Y258821D01*
X224833Y265207D01*
X232633Y273007D01*
G37*
G36*
X223441Y282199D02*
X229827Y275813D01*
X222027Y268013D01*
X215641Y274399D01*
X223441Y282199D01*
G37*
G36*
X240253Y280627D02*
X246639Y274241D01*
X238839Y266441D01*
X232453Y272827D01*
X240253Y280627D01*
G37*
G36*
X231061Y289819D02*
X237447Y283433D01*
X229647Y275633D01*
X223261Y282019D01*
X231061Y289819D01*
G37*
D14*
X116730Y46520D03*
X134730Y46520D03*
X116630Y6820D03*
X134730Y6820D03*
D15*
X7620Y135890D02*
X-7620Y135890D01*
X-7620Y110490D02*
X7620Y110490D01*
D16*
X90170Y339090D03*
X115570Y339090D03*
X90170Y313690D03*
X115570Y313690D03*
X90170Y288290D03*
X115570Y288290D03*
D17*
G36*
X247377Y243563D02*
X238869Y235055D01*
X224705Y249219D01*
X233213Y257727D01*
X247377Y243563D01*
G37*
G36*
X265055Y261241D02*
X256547Y252733D01*
X242383Y266897D01*
X250891Y275405D01*
X265055Y261241D01*
G37*
D18*
X308610Y40640D03*
X290830Y40640D03*
X247650Y412750D03*
X265430Y412750D03*
X297180Y367030D03*
X297180Y349250D03*
D19*
X187960Y133350D03*
D20*
X187960Y107950D03*
X187960Y158750D03*
X187960Y184150D03*
D18*
X297180Y147320D03*
X297180Y129540D03*
D21*
X148433Y187147D02*
X148433Y203273D01*
X148433Y187147D02*
X141407Y187147D01*
X141407Y203273D01*
X148433Y203273D01*
X148433Y191238D02*
X141407Y191238D01*
X141407Y195329D02*
X148433Y195329D01*
X148433Y199420D02*
X141407Y199420D01*
X125433Y203273D02*
X125433Y187147D01*
X118407Y187147D01*
X118407Y203273D01*
X125433Y203273D01*
X125433Y191238D02*
X118407Y191238D01*
X118407Y195329D02*
X125433Y195329D01*
X125433Y199420D02*
X118407Y199420D01*
X102433Y203273D02*
X102433Y187147D01*
X95407Y187147D01*
X95407Y203273D01*
X102433Y203273D01*
X102433Y191238D02*
X95407Y191238D01*
X95407Y195329D02*
X102433Y195329D01*
X102433Y199420D02*
X95407Y199420D01*
D22*
X135617Y249963D02*
X135617Y263857D01*
X135617Y249963D02*
X108223Y249963D01*
X108223Y263857D01*
X135617Y263857D01*
X135617Y256174D02*
X108223Y256174D01*
X108223Y262385D02*
X135617Y262385D01*
D15*
X143510Y161290D02*
X158750Y161290D01*
X158750Y135890D02*
X143510Y135890D01*
X143510Y110490D02*
X158750Y110490D01*
X184150Y330200D02*
X199390Y330200D01*
X199390Y355600D02*
X184150Y355600D01*
X184150Y381000D02*
X199390Y381000D01*
X323850Y287020D02*
X339090Y287020D01*
X339090Y261620D02*
X323850Y261620D01*
X323850Y236220D02*
X339090Y236220D01*
X339090Y210820D02*
X323850Y210820D01*
D23*
X252521Y110148D03*
X227987Y116722D03*
X245947Y85613D03*
X221413Y92187D03*
X239373Y61078D03*
X214839Y67652D03*
D15*
X222250Y347980D02*
X222250Y363220D01*
X247650Y363220D02*
X247650Y347980D01*
D24*
X57073Y49530D03*
D25*
X299720Y54610D03*
X233680Y419100D03*
X273050Y208280D03*
X289560Y177800D03*
D26*
X301200Y208800D03*
X139700Y280670D03*
X67310Y283210D03*
X303030Y243840D03*
X192270Y292830D03*
D25*
X213360Y41910D03*
X189230Y78740D03*
X238760Y36830D03*
X223520Y20320D03*
X196850Y20320D03*
X189230Y1270D03*
X210820Y2540D03*
X224790Y2540D03*
X212090Y133350D03*
X209550Y148590D03*
X270510Y162560D03*
X284480Y60960D03*
X55880Y113030D03*
D26*
X57150Y199390D03*
X58420Y226060D03*
X60960Y250190D03*
X66040Y266700D03*
D25*
X257810Y326390D03*
X223520Y326390D03*
X293370Y306070D03*
X274320Y194310D03*
X236220Y137160D03*
D26*
X295910Y337820D03*
X286850Y357270D03*
X292400Y262390D03*
X99500Y132000D03*
X155500Y194500D03*
D25*
X242952Y178182D03*
X198120Y255270D03*
X170180Y290624D03*
X248150Y233980D03*
X265680Y250980D03*
X225293Y222753D03*
D27*
X57150Y-1270D03*
D25*
X104140Y-1270D03*
X279400Y388144D03*
X279400Y406400D03*
D26*
X276860Y92710D03*
X284480Y133350D03*
D25*
X269074Y380190D03*
X294640Y415290D03*
X162560Y307134D03*
X230370Y306570D03*
X257810Y306070D03*
X148590Y297180D03*
X212090Y313690D03*
X252811Y189311D03*
X163830Y218440D03*
X153174Y207982D03*
X121920Y226060D03*
X171450Y253206D03*
D26*
X272620Y140540D03*
X273050Y110490D03*
X279400Y284480D03*
X273050Y293370D03*
D25*
X209040Y271250D03*
D27*
X57150Y24130D03*
D25*
X73660Y176530D03*
X121920Y134424D03*
X287020Y196850D03*
X337820Y40640D03*
X158750Y276860D03*
X165100Y203200D03*
X123190Y241300D03*
X309199Y290299D03*
D28*
X108980Y178740D03*
D26*
X306070Y267970D03*
D25*
X104140Y52070D03*
D26*
X133500Y149000D03*
M02*
