M48
;GenerationSoftware,Autodesk,EAGLE,9.6.2*%
;CreationDate,2023-02-04T21:28:16Z*%
FMAT,2
ICI,OFF
METRIC,TZ,000.000
T10C0.350
T9C0.400
T8C0.600
T7C0.750
T6C1.000
T5C1.016
T4C1.100
T3C1.500
T2C2.000
T1C3.000
%
G90
M71
T1
X4552Y31375
X4552Y14457
T2
X8890Y2540
T3
X18070Y41080
X18070Y4752
T4
X5707Y4953
X5715Y-127
X5715Y2413
T5
X22799Y11672
X11557Y33909
X11557Y28829
X9017Y28829
X11557Y31369
X9017Y31369
X22141Y9219
X9017Y33909
X0Y11049
X0Y13589
X15113Y11049
X23937Y6108
X21484Y6765
X22225Y35560
X24765Y35560
X24595Y8561
X15113Y16129
X15113Y13589
X19177Y33020
X19177Y35560
X19177Y38100
X33147Y28702
X33147Y26162
X33147Y23622
X33147Y21082
X25252Y11015
T6
X18796Y13335
X18796Y10795
X18796Y15875
X18796Y18415
T7
X10898Y17874
T8
X30861Y4064
X29083Y4064
X24765Y41275
X26543Y41275
X29718Y36703
X29718Y14732
X29718Y34925
X29718Y12954
T9
X27940Y38814
X27940Y40640
X26907Y38019
X29464Y41529
X16256Y30713
X23037Y30657
X25781Y30607
X14859Y29718
X21209Y31369
X25281Y18931
X16383Y21844
X15317Y20798
X12192Y22606
X17145Y25321
X18923Y127
X20904Y27125
X7366Y17653
X12192Y13442
X28702Y19685
X33782Y4064
X15875Y27686
X16510Y20320
X12319Y24130
X30920Y29030
X10414Y5207
X29972Y5461
X23368Y41910
X27305Y20828
X28956Y17780
X21336Y4191
X18923Y7874
X23876Y3683
X22352Y2032
X19685Y2032
X21082Y254
X22479Y254
X21209Y13335
X20955Y14859
X27051Y16256
X28448Y6096
X5588Y11303
X25781Y32639
X22352Y32639
X29337Y30607
X27432Y19431
X23622Y13716
X24295Y17818
X19812Y25527
X17018Y29062
X24815Y23398
X26568Y25098
X22529Y22275
X10414Y-127
T10
X15550Y19450
X9950Y13200
X29240Y26239
X28685Y35727
X29591Y33782
X6604Y26670
X27262Y14054
X6096Y25019
X5842Y22606
X5715Y19939
X19227Y29283
X30303Y24384
X6731Y28321
X13970Y28067
X30120Y20880
X27305Y29337
X27305Y11049
X28448Y13335
X27686Y9271
X30607Y26797
X27940Y28448
X13350Y14900
M30